<svg width="24" height="24" viewBox="0 0 24 24" xmlns="http://www.w3.org/2000/svg">
<g id="discord">
<path d="M20.3303 4.46366C18.7541 3.74591 17.0892 3.23484 15.3789 2.94737C15.1449 3.36449 14.9334 3.79288 14.7447 4.23067C12.9231 3.95823 11.0712 3.95823 9.24963 4.23067C9.06086 3.79288 8.84944 3.36449 8.61537 2.94737C6.90513 3.2386 5.2383 3.74967 3.6602 4.46741C0.526645 9.08204 -0.322812 13.582 0.101917 18.0182C1.93674 19.3672 3.99054 20.395 6.17459 21.0526C6.66539 20.395 7.10144 19.6961 7.47521 18.9652C6.76544 18.7021 6.08021 18.3752 5.42707 17.9919C5.59885 17.8679 5.76685 17.7401 5.92919 17.6161C9.7744 19.4161 14.2256 19.4161 18.0708 17.6161C18.235 17.7495 18.403 17.8773 18.5729 17.9919C17.9198 18.3771 17.2326 18.7021 16.521 18.967C16.8947 19.6979 17.3289 20.395 17.8216 21.0526C20.0075 20.3969 22.0632 19.371 23.898 18.0201C24.3964 12.8756 23.0467 8.4169 20.3303 4.46366ZM8.0132 15.29C6.82962 15.29 5.8518 14.2209 5.8518 12.9056C5.8518 11.5904 6.79564 10.5119 8.00942 10.5119C9.2232 10.5119 10.1935 11.5904 10.1727 12.9056C10.1519 14.2209 9.21943 15.29 8.0132 15.29ZM15.9868 15.29C14.8013 15.29 13.8273 14.2209 13.8273 12.9056C13.8273 11.5904 14.7711 10.5119 15.9868 10.5119C17.2024 10.5119 18.1652 11.5904 18.1444 12.9056C18.1236 14.2209 17.193 15.29 15.9868 15.29Z"/>
</g>
</svg>
