<svg width="24" height="24" viewBox="0 0 24 24" xmlns="http://www.w3.org/2000/svg">
<g id="github">
<path id="Vector" fill-rule="evenodd" clip-rule="evenodd" d="M12 0.294472C5.37017 0.294472 0 5.66464 0 12.2945C0 17.5983 3.44015 22.0919 8.20626 23.6831C8.80295 23.7935 9.02394 23.4252 9.02394 23.1011C9.02394 22.8138 9.01657 22.0624 9.00921 21.0606C5.67219 21.7825 4.96501 19.4547 4.96501 19.4547C4.41989 18.0698 3.63168 17.6941 3.63168 17.6941C2.54144 16.9501 3.71271 16.9648 3.71271 16.9648C4.91344 17.0532 5.55433 18.2024 5.55433 18.2024C6.62247 20.0366 8.36096 19.5063 9.04604 19.1969C9.15654 18.4234 9.46593 17.893 9.80479 17.591C7.14549 17.2963 4.34622 16.265 4.34622 11.6683C4.34622 10.3571 4.81031 9.28895 5.58379 8.44917C5.45856 8.13977 5.04604 6.92431 5.69429 5.27421C5.69429 5.27421 6.7035 4.95009 8.99447 6.50442C9.95212 6.23922 10.9761 6.10663 12 6.09926C13.0166 6.10663 14.0479 6.23922 15.0055 6.50442C17.2965 4.95009 18.3057 5.27421 18.3057 5.27421C18.9613 6.92431 18.5488 8.14714 18.4236 8.44917C19.1897 9.28895 19.6538 10.3571 19.6538 11.6683C19.6538 16.2797 16.8471 17.2889 14.1731 17.591C14.6004 17.9593 14.9908 18.6959 14.9908 19.8156C14.9908 21.4215 14.9761 22.7107 14.9761 23.1085C14.9761 23.4326 15.1897 23.8009 15.8011 23.6831C20.5672 22.0919 24 17.5983 24 12.3018C24 5.66464 18.6298 0.294472 12 0.294472Z"/>
</g>
</svg>
