<svg width="24" height="24" viewBox="0 0 24 24" xmlns="http://www.w3.org/2000/svg">
<path d="M11.5 8.84V0.199997L0 9.3L4.84 13.24C6.09 10.76 8.58 9.02 11.5 8.84Z"/>
<path d="M12.5 0.199997V8.84C15.42 9.02 17.91 10.76 19.16 13.25L24 9.3L12.5 0.199997Z"/>
<path d="M18.36 13.9C17.95 13.01 17.36 12.22 16.64 11.58C16.62 11.56 16.6 11.55 16.59 11.53C16.35 11.32 16.1 11.13 15.84 10.96C15.83 10.95 15.82 10.95 15.8 10.94C15.56 10.78 15.31 10.65 15.05 10.52C15 10.49 14.95 10.47 14.89 10.44C14.62 10.31 14.33 10.2 14.04 10.11C14.02 10.1 14 10.1 13.98 10.09C13.71 10.01 13.44 9.95 13.16 9.91C13.08 9.9 13.01 9.88 12.93 9.87C12.62 9.83 12.32 9.8 12 9.8C11.69 9.8 11.38 9.83 11.07 9.87C10.99 9.88 10.91 9.89 10.84 9.91C10.56 9.96 10.29 10.02 10.02 10.09C10 10.1 9.98 10.1 9.96 10.11C9.67 10.2 9.39 10.31 9.11 10.44C9.06 10.46 9.01 10.49 8.95 10.52C8.69 10.65 8.44 10.78 8.2 10.94C8.19 10.95 8.18 10.95 8.16 10.96C7.9 11.13 7.65 11.33 7.41 11.53C7.39 11.55 7.37 11.56 7.36 11.58C6.64 12.22 6.05 13.01 5.64 13.9C5.23 14.78 5 15.77 5 16.8C5 20.67 8.13 23.8 12 23.8C15.87 23.8 19 20.67 19 16.8C19 15.77 18.77 14.78 18.36 13.9Z"/>
</svg>
