<svg width="24" height="24" viewBox="0 0 24 24" xmlns="http://www.w3.org/2000/svg">
<g id="mastodon">
<path d="M23.2921 5.31371C22.9414 2.73532 20.6707 0.701521 17.9753 0.307685C17.52 0.239994 15.8 0 11.8124 0H11.7817C7.79098 0 6.93562 0.243071 6.48332 0.307685C3.86493 0.69229 1.47422 2.51686 0.892696 5.12602C0.61578 6.41215 0.585012 7.83673 0.637318 9.14438C0.711162 11.0182 0.726547 12.8889 0.89885 14.7565C1.01885 15.9965 1.225 17.2273 1.52037 18.4365C2.07113 20.6733 4.30492 22.5348 6.49256 23.2917C8.83403 24.0825 11.3509 24.2148 13.7662 23.6702C14.0308 23.6086 14.2954 23.5379 14.5539 23.4579C15.1385 23.2733 15.8277 23.0671 16.3323 22.704C16.3385 22.6979 16.3446 22.6917 16.3477 22.6856C16.3508 22.6794 16.3538 22.6702 16.3538 22.661V20.8518C16.3538 20.8518 16.3538 20.8364 16.3477 20.8302C16.3446 20.8241 16.3385 20.8179 16.3323 20.8118C16.3262 20.8056 16.32 20.8026 16.3108 20.8026C16.3015 20.8026 16.2954 20.8026 16.2862 20.8026C14.7416 21.1687 13.157 21.3502 11.5663 21.3472C8.83096 21.3472 8.09559 20.0641 7.88329 19.5287C7.71406 19.0672 7.60637 18.5841 7.5633 18.0949C7.5633 18.0857 7.5633 18.0795 7.56637 18.0703C7.56945 18.0642 7.5756 18.0549 7.58176 18.0519C7.58791 18.0457 7.59714 18.0426 7.6033 18.0426C7.61253 18.0426 7.61868 18.0426 7.62791 18.0426C9.14787 18.4057 10.7048 18.5872 12.2709 18.5872C12.6462 18.5872 13.0216 18.5872 13.397 18.578C14.9693 18.5349 16.6277 18.4549 18.1753 18.1565C18.2153 18.1503 18.2523 18.1411 18.2861 18.1318C20.726 17.6672 23.0491 16.2119 23.286 12.5289C23.2952 12.3843 23.3167 11.009 23.3167 10.8582C23.3167 10.3474 23.4829 7.23059 23.2921 5.31371ZM19.5353 14.5073H16.9692V8.28902C16.9692 6.98136 16.4185 6.31369 15.2954 6.31369C14.0616 6.31369 13.4462 7.10444 13.4462 8.6644V12.0674H10.8955V8.6644C10.8955 7.10444 10.2771 6.31369 9.04326 6.31369C7.92944 6.31369 7.37253 6.98136 7.36946 8.28902V14.5073H4.80644V8.10133C4.80644 6.79367 5.1449 5.7537 5.81873 4.98141C6.51717 4.2122 7.43099 3.81837 8.56635 3.81837C9.88016 3.81837 10.874 4.31681 11.5355 5.31679L12.1755 6.3783L12.8155 5.31679C13.477 4.31989 14.4708 3.81837 15.7816 3.81837C16.9138 3.81837 17.8307 4.2122 18.5292 4.98141C19.2061 5.75062 19.5415 6.7906 19.5415 8.10133V14.5073H19.5353Z"/>
</g>
</svg>
