<?xml version="1.0" encoding="UTF-8"?>
<svg width="22px" height="24px" viewBox="0 0 22 24" version="1.1" xmlns="http://www.w3.org/2000/svg" xmlns:xlink="http://www.w3.org/1999/xlink">
    <title>middlebury-shield</title>
    <g id="Page-1" stroke="none" stroke-width="1" fill-rule="evenodd">
        <g id="middlebury-shield" transform="translate(0.000000, 0.000000)" fill-rule="nonzero">
            <path d="M10.8843,24.000014 L10.7677,23.944414 C5.22737,21.285414 2.5961,17.920814 1.36471,15.567314 C0.0203687,12.995314 0,11.075114 0,10.993614 L0,0 L21.7557,0 L21.7557,10.993614 C21.7557,11.073214 21.7409,12.995314 20.4003,15.565514 C19.1726,17.920814 16.545,21.285414 11.001,23.942614 L10.8843,24.000014 Z M0.542551,0.542554 L0.542551,10.993614 C0.542551,11.012114 0.568475,12.887914 1.86282,15.346914 C3.04976,17.602314 5.57735,20.824314 10.8843,23.398214 C16.195,20.822514 18.7208,17.602314 19.904,15.346914 C21.1947,12.887914 21.215,11.012114 21.215,10.993614 L21.215,0.542554 L0.542551,0.542554 Z" id="Shape"></path>
            <path d="M6.96468,4.086834 C6.72025,3.759084 6.39435,3.496144 6.0166,3.327634 C6.16103,3.536884 6.28325,3.794264 6.37768,4.086834 L6.96468,4.086834 Z" id="Path"></path>
            <path d="M5.25537,3.172124 L5.25537,4.085014 L5.94976,4.085014 C5.77385,3.609124 5.52016,3.285074 5.25537,3.172124 Z" id="Path"></path>
            <path d="M3.92773,5.307184 L4.84803,5.307184 L4.84803,4.492434 L4.03328,4.492434 C3.97588,4.738704 3.93884,5.010914 3.92773,5.307184 Z" id="Path"></path>
            <path d="M4.15332,4.086964 L4.84771,4.086964 L4.84771,3.174074 C4.58292,3.283324 4.32738,3.607374 4.15332,4.086964 Z" id="Path"></path>
            <path d="M4.03328,6.527154 L4.84803,6.527154 L4.84803,5.712404 L3.92773,5.712404 C3.93884,6.008674 3.97588,6.282724 4.03328,6.527154 Z" id="Path"></path>
            <path d="M4.84771,7.847704 L4.84771,6.934814 L4.15332,6.934814 C4.32738,7.412554 4.58292,7.736604 4.84771,7.847704 Z" id="Path"></path>
            <path d="M3.51996,5.712404 L2.67188,5.712404 C2.69595,6.001264 2.77372,6.275324 2.89223,6.527154 L3.6181,6.527154 C3.5644,6.273464 3.53107,5.999414 3.51996,5.712404 Z" id="Path"></path>
            <path d="M6.07012,4.492434 L5.25537,4.492434 L5.25537,5.307184 L6.17567,5.307184 C6.16271,5.010914 6.12568,4.738704 6.07012,4.492434 Z" id="Path"></path>
            <path d="M3.6181,4.492434 L2.89223,4.492434 C2.77372,4.744264 2.69595,5.016464 2.67188,5.307184 L3.51996,5.307184 C3.53107,5.020164 3.5644,4.747964 3.6181,4.492434 Z" id="Path"></path>
            <path d="M3.13916,6.934814 C3.38359,7.262564 3.70949,7.525504 4.08723,7.694014 C3.9428,7.484774 3.82059,7.227384 3.72615,6.934814 L3.13916,6.934814 Z" id="Path"></path>
            <path d="M6.58154,5.307184 L7.42962,5.307184 C7.40555,5.018314 7.32778,4.744264 7.20927,4.492434 L6.4834,4.492434 C6.5371,4.747964 6.57043,5.020164 6.58154,5.307184 Z" id="Path"></path>
            <path d="M4.08723,3.327634 C3.70949,3.496144 3.38359,3.759084 3.13916,4.086834 L3.72615,4.086834 C3.82059,3.794264 3.9428,3.536884 4.08723,3.327634 Z" id="Path"></path>
            <path d="M6.4834,6.527154 L7.20927,6.527154 C7.32778,6.275324 7.40555,6.001264 7.42962,5.712404 L6.58154,5.712404 C6.57043,5.999414 6.5371,6.273464 6.4834,6.527154 Z" id="Path"></path>
            <path d="M11.1141,1.205564 L11.1141,1.475914 C11.3215,1.564794 11.4659,1.761074 11.4659,1.994394 C11.4659,2.225854 11.3197,2.423994 11.1141,2.512874 L11.1141,2.842474 C11.4252,2.955434 11.9863,3.227634 12.2418,3.779444 C12.4825,4.296064 12.5251,4.744184 12.5288,4.990454 L12.7492,4.990454 L12.7492,5.464494 L9.00503,5.464494 L9.00503,4.990454 L9.22538,4.990454 C9.22723,4.746034 9.27167,4.297914 9.51239,3.779444 C9.76793,3.227634 10.329,2.955434 10.6401,2.840624 L10.6401,2.511024 C10.4327,2.422134 10.2883,2.225854 10.2883,1.994394 C10.2883,1.762934 10.4345,1.564794 10.6401,1.475914 L10.6401,1.205564 L1.33154,1.205564 L1.33154,10.704814 C1.33154,10.704814 1.33339,11.132614 1.47412,11.843614 C1.49079,11.838114 1.50746,11.832514 1.52412,11.826914 C2.54256,11.478814 4.3776,10.884414 5.59418,10.884414 C6.81075,10.884414 7.25701,11.206614 8.42359,11.206614 C8.55876,11.206614 8.68838,11.210314 8.81615,11.214014 L8.81615,9.079014 L12.9399,9.079014 L12.9399,11.282514 C13.7658,11.258514 14.3805,11.282514 15.1249,11.415914 C16.1545,11.602914 16.7878,12.271414 17.5192,12.384314 C18.2506,12.495414 18.8969,12.334314 19.6783,12.371414 C19.8801,12.380614 20.0264,12.388014 20.156,12.393614 C20.4208,11.356614 20.4208,10.703014 20.4208,10.703014 L20.4208,1.205564 L11.1141,1.205564 Z M5.05163,8.305014 C3.511,8.305014 2.2574,7.051404 2.2574,5.510784 C2.2574,3.970164 3.511,2.716564 5.05163,2.716564 C6.59225,2.716564 7.84585,3.970164 7.84585,5.510784 C7.84585,7.051404 6.59225,8.305014 5.05163,8.305014 Z M13.2362,8.675354 L8.51803,8.675354 L8.51803,8.201314 L9.23279,8.201314 L9.23279,5.870014 L12.5214,5.870014 L12.5214,8.203174 L13.2362,8.203174 L13.2362,8.675354 Z M16.7841,4.473834 C17.2766,3.577604 18.3728,3.559084 18.3728,3.559084 C18.3895,3.540574 18.3728,6.284804 18.3728,6.284804 C18.3728,6.284804 17.2766,6.301464 16.7841,7.199544 L16.7841,4.473834 Z M14.8083,3.536864 C14.8083,3.536864 15.8934,3.555384 16.3804,4.451614 L16.3804,7.177324 C15.8934,6.281094 14.8083,6.262584 14.8083,6.262584 C14.8083,6.262584 14.7935,3.518354 14.8083,3.536864 Z M19.2061,6.745874 L16.6007,8.273534 L13.9935,6.745874 L13.9935,3.794254 L14.4009,3.794254 L14.4009,6.512564 L16.6026,7.803204 L18.8024,6.512564 L18.8024,3.794254 L19.2098,3.794254 L19.2098,6.745874 L19.2061,6.745874 Z" id="Shape"></path>
            <path d="M6.17567,5.712404 L5.25537,5.712404 L5.25537,6.527154 L6.07012,6.527154 C6.12568,6.282724 6.16271,6.008674 6.17567,5.712404 Z" id="Path"></path>
            <path d="M5.25537,7.847704 C5.52016,7.736604 5.7757,7.412554 5.94976,6.934814 L5.25537,6.934814 L5.25537,7.847704 L5.25537,7.847704 Z" id="Path"></path>
            <path d="M6.01465,7.694014 C6.3924,7.527364 6.7183,7.262564 6.96272,6.934814 L6.37573,6.934814 C6.28129,7.227384 6.16093,7.484774 6.01465,7.694014 Z" id="Path"></path>
            <polygon id="Path" points="11.3175 9.501014 10.438 9.501014 10.438 11.023114 11.3175 11.023114"></polygon>
            <path d="M10.2841,18.202314 C10.2174,18.148614 10.1119,18.094914 9.93782,18.022714 C9.80635,18.093114 9.71191,18.200514 9.71191,18.354114 C9.71191,18.541214 9.84524,18.661514 10.0545,18.661514 C10.2415,18.661514 10.3711,18.552314 10.3711,18.393014 C10.373,18.313414 10.3433,18.248614 10.2841,18.202314 Z" id="Path"></path>
            <path d="M10.0582,17.774514 C10.1767,17.715314 10.3155,17.622714 10.3155,17.474614 C10.3155,17.332014 10.2118,17.246814 10.0322,17.246814 C9.86002,17.246814 9.74707,17.341214 9.74707,17.480114 C9.74707,17.635714 9.93224,17.722714 10.0582,17.774514 Z" id="Path"></path>
            <path d="M11.5468,17.254114 C11.4431,17.254114 11.3616,17.337514 11.3116,17.480014 C11.269,17.594914 11.2505,17.748514 11.2505,17.939314 C11.2505,18.118914 11.2635,18.257814 11.2875,18.357814 C11.3357,18.567014 11.432,18.655914 11.5449,18.655914 C11.6579,18.655914 11.7486,18.559614 11.7967,18.404014 C11.8319,18.289214 11.8486,18.135614 11.8486,17.955914 C11.8486,17.781914 11.8356,17.661514 11.8078,17.544914 C11.756,17.333814 11.6634,17.254114 11.5468,17.254114 Z" id="Path"></path>
            <path d="M13.6229,14.839614 L13.6229,14.848814 L8.14184,14.848814 L4.16992,17.335714 C5.58463,19.065214 7.70298,20.870614 10.8787,22.390914 C14.0617,20.866914 16.182,19.059614 17.5948,17.326414 L13.6229,14.839614 Z M9.13435,18.833714 L8.28442,18.833714 L8.28442,18.594914 L8.59551,18.594914 L8.59551,17.404214 C8.56958,17.420914 8.48625,17.474614 8.41404,17.507914 C8.34182,17.543114 8.24183,17.585714 8.21035,17.596814 L8.13813,17.439414 L8.67698,17.061614 L8.88622,17.061614 L8.88622,18.594914 L9.1362,18.594914 L9.1362,18.833714 L9.13435,18.833714 Z M10.0269,18.883714 C9.71949,18.883714 9.39359,18.731914 9.39359,18.376314 C9.39359,18.159714 9.53803,17.985614 9.73616,17.915314 C9.57321,17.848614 9.44914,17.685714 9.44914,17.506014 C9.44914,17.165314 9.76579,17.032014 10.0584,17.032014 C10.3954,17.032014 10.6287,17.211614 10.6287,17.474614 C10.6287,17.694914 10.4565,17.817114 10.2713,17.887514 C10.5305,17.994914 10.6953074,18.122714 10.6953074,18.346714 C10.6972,18.691114 10.3343,18.883714 10.0269,18.883714 Z M11.5416,18.872614 C11.0694,18.872614 10.9194,18.322614 10.9194,17.939314 C10.9194,17.411614 11.1879,17.030214 11.5434,17.030214 C12.023,17.030214 12.173,17.557914 12.173,17.946814 C12.173,18.504114 11.9156,18.872614 11.5416,18.872614 Z M13.0415,18.872614 C12.5693,18.872614 12.4193,18.322614 12.4193,17.939314 C12.4193,17.411614 12.6878,17.030214 13.0433,17.030214 C13.5229,17.030214 13.6729094,17.557914 13.6729094,17.946814 C13.6747,18.504114 13.4174,18.872614 13.0415,18.872614 Z" id="Shape"></path>
            <path d="M13.0472,17.254114 C12.9436,17.254114 12.8621,17.337514 12.8121,17.480014 C12.7695,17.594914 12.751,17.748514 12.751,17.939314 C12.751,18.118914 12.7639,18.257814 12.788,18.357814 C12.8362,18.567014 12.9324,18.655914 13.0454,18.655914 C13.1584,18.655914 13.2491,18.559614 13.2972,18.404014 C13.3324,18.289214 13.3491,18.135614 13.3491,17.955914 C13.3491,17.781914 13.3361,17.661514 13.3083,17.544914 C13.2565,17.333814 13.1658,17.254114 13.0472,17.254114 Z" id="Path"></path>
            <polygon id="Path" points="13.7067 11.686014 8.04785 11.686014 8.04785 12.093414 13.7067 12.093414"></polygon>
            <path d="M13.0078,14.304614 L8.74707,14.304614 L8.74707,12.667714 L13.0078,12.667714 L13.0078,14.304614 Z M9.15259,13.899114 L12.6005,13.899114 L12.6005,13.075114 L9.15259,13.075114 L9.15259,13.899114 Z" id="Shape"></path>
            <polygon id="Path" points="11.3175 6.321774 10.438 6.321774 10.438 7.686484 11.3175 7.686484"></polygon>
            <polygon id="Path" points="9.96371 6.323734 9.69336 6.323734 9.69336 7.686584 9.96371 7.686584"></polygon>
            <polygon id="Path" points="12.0604 6.323734 11.79 6.323734 11.79 7.686584 12.0604 7.686584"></polygon>
            <path d="M11.1364,1.994204 C11.1364,2.129374 11.0216,2.238634 10.879,2.238634 C10.7364,2.238634 10.6216,2.129374 10.6216,1.994204 C10.6216,1.859034 10.7364,1.749774 10.879,1.749774 C11.0197,1.747924 11.1364,1.859034 11.1364,1.994204 Z" id="Path"></path>
            <path d="M8.13292,13.374714 L3.42773,16.341214 C3.52773,16.487514 3.63327,16.635614 3.74252,16.783714 L8.13107,14.015414 L8.13107,13.374714 L8.13292,13.374714 Z" id="Path"></path>
            <path d="M13.623,14.037614 L18.0042,16.806014 C18.1134,16.657814 18.219,16.509714 18.3208,16.363414 L13.623,13.397014 L13.623,14.037614 Z" id="Path"></path>
        </g>
    </g>
</svg>