<?xml version="1.0" encoding="UTF-8"?>
<svg width="24px" height="24px" viewBox="0 0 24 24" version="1.1" xmlns="http://www.w3.org/2000/svg" xmlns:xlink="http://www.w3.org/1999/xlink">
    <title>orcid</title>
    <g id="Page-1" stroke="none" stroke-width="1" fill-rule="evenodd">
        <g id="orcid" fill-rule="nonzero">
            <path d="M13.8752,8.718754 L11.6533,8.718754 L11.6533,16.162514 L13.9502,16.162514 C17.2221,16.162514 17.9721,13.678114 17.9721,12.440614 C17.9721,10.425014 16.6877,8.718754 13.8752,8.718754 Z" id="Path"></path>
            <path d="M12,0 C5.37188,0 0,5.371874 0,12.000014 C0,18.628114 5.37188,24.000014 12,24.000014 C18.6281,24.000014 24,18.628114 24,12.000014 C24,5.371874 18.6281,0 12,0 Z M8.09063,11.953114 L8.09063,17.456214 L6.64688,17.456214 L6.64688,7.415624 L8.09063,7.415624 L8.09063,11.953114 L8.09063,11.953114 Z M7.36875,6.271874 C6.84375,6.271874 6.42188,5.840624 6.42188,5.325004 C6.42188,4.800004 6.84375,4.378124 7.36875,4.378124 C7.89375,4.378124 8.31562,4.809374 8.31562,5.325004 C8.31562,5.840624 7.89375,6.271874 7.36875,6.271874 Z M14.1281,17.465614 L10.2094,17.465614 L10.2094,7.415624 L14.1094,7.415624 C17.8219,7.415624 19.4531,10.068714 19.4531,12.440614 C19.4531,15.018714 17.4375,17.465614 14.1281,17.465614 Z" id="Shape"></path>
        </g>
    </g>
</svg>