<svg width="24" height="24" viewBox="0 0 24 24" xmlns="http://www.w3.org/2000/svg">
<g id="pinterest">
<path fill-rule="evenodd" clip-rule="evenodd" d="M-0.000305176 12.0003C-0.000305176 17.1233 3.21062 21.4974 7.72964 23.2182C7.61963 22.2814 7.5027 20.7362 7.7547 19.6522C7.97185 18.7202 9.15583 13.7142 9.15583 13.7142C9.15583 13.7142 8.79871 12.9991 8.79871 11.9401C8.79871 10.2801 9.76063 9.03993 10.9599 9.03993C11.98 9.03993 12.4719 9.80486 12.4719 10.7219C12.4719 11.7468 11.819 13.2787 11.482 14.6997C11.2009 15.8886 12.079 16.8589 13.2509 16.8589C15.3741 16.8589 17.007 14.6199 17.007 11.3877C17.007 8.52671 14.951 6.52769 12.016 6.52769C8.61784 6.52769 6.62286 9.07679 6.62286 11.7117C6.62286 12.7387 7.01771 13.8386 7.51192 14.4376C7.60897 14.5566 7.62395 14.6597 7.59486 14.7807C7.50385 15.1585 7.30196 15.9695 7.2628 16.1357C7.2098 16.3537 7.08971 16.4007 6.86276 16.2947C5.37063 15.6006 4.43866 13.4196 4.43866 11.6676C4.43866 7.89858 7.17582 4.43853 12.3308 4.43853C16.4748 4.43853 19.6958 7.39169 19.6958 11.3376C19.6958 15.2835 17.1009 18.7686 13.4969 18.7686C12.2858 18.7686 11.1488 18.1385 10.7588 17.3957C10.7588 17.3957 10.1598 19.6778 10.0149 20.2357C9.73298 21.3197 8.95106 22.6918 8.46606 23.4708C9.58408 23.8147 10.7701 23.9999 12.0001 23.9999C18.627 23.9999 24.0003 18.6269 24.0003 11.9997C24.0003 5.37252 18.6267 0.000144958 11.9998 0.000144958C5.37293 0.000144958 -0.000305176 5.37309 -0.000305176 12.0003Z"/>
</g>
</svg>
