<svg width="32" height="32" viewBox="0 0 32 32" xmlns="http://www.w3.org/2000/svg">
<g id="replay-homepage">
<path id="Union" fill-rule="evenodd" clip-rule="evenodd" d="M15.4848 21.9852C18.9751 22.1301 21.8208 19.4946 21.9774 16.2464C22.134 12.9981 19.5532 10.1374 16.0628 9.99254C14.3351 9.92082 12.7654 10.5303 11.6015 11.5582L13.7719 13.7062V13.7062L6.99198 13.7062L6.99198 6.99628L6.992 6.99628L9.473 9.45168C11.2263 7.83749 13.617 6.88849 16.2073 6.99601C21.2889 7.20696 25.2142 11.4042 24.9748 16.3708C24.7354 21.3374 20.4219 25.1926 15.3403 24.9817C11.3148 24.8146 8.01491 22.1459 6.93616 18.5749L10.1612 18.5749C11.1037 20.4941 13.078 21.8853 15.4848 21.9852Z" fill="black"/>
</g>
</svg>
