<?xml version="1.0" encoding="UTF-8"?>
<svg width="24px" height="24px" viewBox="0 0 24 24" version="1.1" xmlns="http://www.w3.org/2000/svg" xmlns:xlink="http://www.w3.org/1999/xlink">
    <title>scopus</title>
    <g id="Page-1" stroke="none" stroke-width="1" fill-rule="evenodd">
        <g id="scopus" fill-rule="nonzero">
            <path d="M0,1.11022302e-16 L0,24.000014 L24,24.000014 L24,1.11022302e-16 L0,1.11022302e-16 Z M9.82500081,14.421214 C9.82500081,16.571214 7.985,17.656214 6.23,17.656214 C4.975,17.656214 4.0625,17.466214 3.16875,17.053714 L3.375,15.695014 C4.2525,16.228714 5.00875,16.486214 6.16125,16.486214 C7.33125,16.486214 8.31125,15.695014 8.31125,14.593714 C8.31125,13.458714 7.21,13.028714 6.16125,12.391214 C4.75125,11.532514 3.20375,10.775014 3.20375,9.021254 C3.20375,7.266254 4.49375,5.890004 6.61,5.890004 C8.08875,5.890004 8.7425,6.062504 9.655,6.440004 L9.5675,7.800004 C8.58625,7.215004 7.8125,7.042504 6.695,7.042504 C5.405,7.042504 4.75125,8.023754 4.75125,8.917504 C4.75125,10.121214 5.90375,10.568714 6.9875,11.222514 C8.38125,12.048714 9.82625,12.787514 9.82500081,14.421214 Z M17.4425,16.452514 C18.5612,16.452514 19.6788,16.228714 20.7288,15.661214 L20.8312,16.968714 C19.9025,17.432514 18.7325,17.622514 17.3225,17.622514 C14.5188,17.622514 11.5087,15.558714 11.5087,11.791214 C11.5087,8.488754 14.0375,5.891254 17.3738,5.891254 C19.1113,5.891254 19.885,6.097504 20.8312,6.545004 L20.7288,7.835004 C19.6975,7.266254 18.6125,7.043754 17.2025,7.043754 C14.9662,7.043754 13.0575,8.815004 13.0575,11.687514 C13.0562,14.405014 15,16.452514 17.4425,16.452514 Z" id="Shape"></path>
        </g>
    </g>
</svg>