<svg width="24" height="24" viewBox="0 0 24 24" xmlns="http://www.w3.org/2000/svg">
<path d="M18.0675 11.1237C17.9637 11.0737 17.8587 11.0262 17.7525 10.9812C17.5675 7.5675 15.7025 5.61375 12.57 5.59375C12.5562 5.59375 12.5413 5.59375 12.5275 5.59375C10.6538 5.59375 9.09625 6.39375 8.1375 7.84875L9.86 9.03C10.5763 7.94375 11.7 7.71125 12.5288 7.71125C12.5388 7.71125 12.5475 7.71125 12.5575 7.71125C13.5887 7.7175 14.3663 8.0175 14.87 8.6025C15.2362 9.02875 15.4812 9.61625 15.6025 10.3588C14.6888 10.2038 13.7 10.155 12.6425 10.2163C9.665 10.3875 7.75125 12.1238 7.87875 14.5375C7.94375 15.7613 8.55375 16.815 9.59625 17.5025C10.4775 18.0837 11.6112 18.3687 12.7913 18.3037C14.3488 18.2188 15.57 17.6238 16.4225 16.5375C17.07 15.7125 17.4788 14.6438 17.66 13.2963C18.4025 13.7438 18.9525 14.3337 19.2563 15.0425C19.7725 16.2463 19.8025 18.2262 18.1875 19.84C16.7725 21.2537 15.0712 21.865 12.5013 21.8838C9.65 21.8625 7.49375 20.9487 6.09125 19.1663C4.77875 17.4975 4.1 15.0863 4.075 12.0013C4.1 8.91625 4.77875 6.505 6.09125 4.83625C7.49375 3.05375 9.65 2.14 12.5013 2.11875C15.3725 2.14 17.5675 3.05875 19.0225 4.85C19.7362 5.72875 20.2738 6.8325 20.6287 8.12L22.6475 7.58125C22.2175 5.99625 21.5413 4.63 20.62 3.4975C18.755 1.20125 16.025 0.025 12.5087 0H12.495C8.985 0.02375 6.28625 1.205 4.47375 3.51C2.86 5.56125 2.0275 8.415 2 11.9913V12V12.0087C2.0275 15.5863 2.86 18.44 4.47375 20.49C6.28625 22.795 8.985 23.975 12.495 24H12.5087C15.6287 23.9788 17.8275 23.1612 19.64 21.3512C22.01 18.9825 21.9387 16.015 21.1575 14.1925C20.5975 12.8863 19.5287 11.825 18.0675 11.1237ZM12.68 16.1887C11.375 16.2625 10.0188 15.6763 9.9525 14.4213C9.9025 13.4913 10.615 12.4525 12.76 12.3287C13.0063 12.315 13.2463 12.3075 13.4838 12.3075C14.2638 12.3075 14.9925 12.3837 15.655 12.5275C15.4075 15.615 13.9575 16.1163 12.68 16.1863V16.1887Z" fill="black"/>
</svg>
