<svg width="24" height="24" viewBox="0 0 24 24" xmlns="http://www.w3.org/2000/svg">
<g id="tiktok">
<path d="M22.261 9.71551C22.0684 9.72834 21.8759 9.74117 21.6706 9.74117C19.4246 9.74117 17.461 8.58609 16.3059 6.84064V16.7102C16.3059 20.7401 13.046 24 9.01604 24C4.98609 24 1.7262 20.7401 1.7262 16.7102C1.7262 12.6802 4.98609 9.42032 9.01604 9.42032C9.17005 9.42032 9.31122 9.43315 9.46523 9.44599V13.0396C9.31122 13.0267 9.17005 12.9882 9.01604 12.9882C6.96256 12.9882 5.29411 14.6567 5.29411 16.7102C5.29411 18.7636 6.96256 20.4321 9.01604 20.4321C11.0695 20.4321 12.892 18.815 12.892 16.7615C12.892 16.6845 12.9305 -1.90735e-06 12.9305 -1.90735e-06H16.37C16.6909 3.06738 19.1679 5.49305 22.2738 5.71123V9.70267L22.261 9.71551Z"/>
</g>
</svg>
