<svg width="24" height="24" viewBox="0 0 24 24" xmlns="http://www.w3.org/2000/svg">
<g id="wechat">
<path d="M19.1809 13.9708C18.6482 13.9708 18.2174 13.5477 18.2174 13.0246C18.2174 12.5014 18.6482 12.0783 19.1809 12.0783C19.7136 12.0783 20.1444 12.5014 20.1444 13.0246C20.1444 13.5477 19.7136 13.9708 19.1809 13.9708ZM14.3619 13.9708C13.8291 13.9708 13.3984 13.5477 13.3984 13.0246C13.3984 12.5014 13.8291 12.0783 14.3619 12.0783C14.8946 12.0783 15.3253 12.5014 15.3253 13.0246C15.3253 13.5477 14.8946 13.9708 14.3619 13.9708ZM21.5025 19.3883C23.0267 18.3032 24 16.6997 24 14.917C24 11.6488 20.7626 9.00061 16.7706 9.00061C12.7785 9.00061 9.54279 11.6488 9.54279 14.917C9.54279 18.1853 12.7785 20.8335 16.7706 20.8335C17.5959 20.8335 18.3917 20.7172 19.13 20.5089C19.1974 20.4879 19.2681 20.4782 19.3421 20.4782C19.4802 20.4782 19.6068 20.5202 19.7252 20.588L21.3068 21.4858C21.3512 21.5116 21.394 21.5294 21.4466 21.5294C21.5798 21.5294 21.6883 21.4228 21.6883 21.292C21.6883 21.2339 21.6653 21.1758 21.6488 21.1193C21.639 21.0854 21.445 20.3716 21.3233 19.926C21.3101 19.8759 21.2986 19.8275 21.2986 19.7758C21.2986 19.6176 21.3792 19.4755 21.5009 19.3899"/>
<path d="M11.5651 8.43384C10.9255 8.43384 10.4093 7.92519 10.4093 7.29867C10.4093 6.67215 10.9272 6.16351 11.5651 6.16351C12.2031 6.16351 12.721 6.67215 12.721 7.29867C12.721 7.92519 12.2031 8.43384 11.5651 8.43384ZM5.78256 8.43384C5.14462 8.43384 4.6267 7.92519 4.6267 7.29867C4.6267 6.67215 5.14462 6.16351 5.78256 6.16351C6.4205 6.16351 6.93841 6.67215 6.93841 7.29867C6.93841 7.92519 6.4205 8.43384 5.78256 8.43384ZM8.67466 2.47059C3.88354 2.47059 0 5.65002 0 9.57062C0 11.7102 1.16901 13.6349 2.99733 14.9364C3.14366 15.0398 3.24067 15.2077 3.24067 15.3998C3.24067 15.4628 3.22751 15.5209 3.20943 15.5807C3.0631 16.1152 2.82962 16.9726 2.81811 17.013C2.80003 17.0808 2.77208 17.1502 2.77208 17.2213C2.77208 17.3779 2.90197 17.5055 3.06145 17.5055C3.12393 17.5055 3.1749 17.4829 3.22916 17.4522L5.12818 16.3751C5.27122 16.2944 5.42248 16.2444 5.58855 16.2444C5.67733 16.2444 5.76283 16.2573 5.84339 16.2815C6.7296 16.5318 7.68487 16.6706 8.67466 16.6706C8.83414 16.6706 8.99363 16.6658 9.15147 16.6593C8.96239 16.1055 8.86045 15.5226 8.86045 14.9186C8.86045 11.3436 12.402 8.44353 16.7722 8.44353C16.9301 8.44353 17.0879 8.44837 17.2441 8.45644C16.5881 5.06387 13.0021 2.47059 8.67466 2.47059Z"/>
</g>
</svg>
