<svg width="24" height="24" viewBox="0 0 24 24" xmlns="http://www.w3.org/2000/svg">
<g id="weibo">
<path d="M18.028 11.6275C17.6903 11.5215 17.4583 11.4538 17.6343 10.9975C18.0182 10.0064 18.0583 9.15147 17.6405 8.53795C16.8618 7.39318 14.7294 7.45444 12.2859 8.50686C12.2859 8.50686 11.518 8.85065 11.7162 8.22798C12.0904 6.98447 12.0344 5.94577 11.4513 5.3423C10.1269 3.97626 6.59985 5.3935 3.57681 8.5032C1.31464 10.8302 0 13.2999 0 15.4358C0 19.5165 5.08966 21.9999 10.0673 21.9999C16.5943 21.9999 20.9355 18.0993 20.9355 15.0033C20.9391 13.1298 19.4058 12.0673 18.028 11.6275ZM10.0842 20.5351C6.11008 20.9402 2.67994 19.0904 2.42128 16.4096C2.16262 13.725 5.17677 11.2252 9.14646 10.8192C13.1206 10.4142 16.5507 12.2639 16.8058 14.9448C17.0672 17.6293 14.0539 20.1328 10.0833 20.5351H10.0842Z"/>
<path d="M22.3621 4.1573C20.7862 2.35878 18.4618 1.67393 16.3161 2.14391C15.8192 2.25272 15.5045 2.75744 15.6103 3.2649C15.7161 3.77602 16.2032 4.0997 16.7001 3.99089C18.2262 3.65715 19.8787 4.1445 20.9986 5.42185C22.1177 6.69919 22.4226 8.44011 21.9426 9.96616C21.787 10.4636 22.0519 10.9948 22.5355 11.1548C23.019 11.3148 23.5355 11.0423 23.691 10.5486V10.5449C24.3665 8.40262 23.939 5.95308 22.363 4.15822L22.3621 4.1573Z"/>
<path d="M19.5907 10.0439C20.0075 10.1801 20.452 9.94878 20.5871 9.51904C20.9151 8.47302 20.7098 7.28071 19.9409 6.40568C19.1729 5.53065 18.0405 5.196 16.997 5.42824C16.5694 5.52059 16.2983 5.95582 16.3881 6.39562C16.4805 6.83543 16.901 7.1143 17.3249 7.01921C17.8352 6.90674 18.3916 7.07041 18.7658 7.4965C19.14 7.92533 19.2422 8.50777 19.0805 9.01889C18.948 9.44498 19.1729 9.90489 19.5907 10.0439Z"/>
<path d="M10.478 12.8848C8.58735 12.3773 6.4514 13.3483 5.63009 15.0618C4.79188 16.8091 5.60342 18.7512 7.51093 19.3849C9.49133 20.0423 11.8228 19.0337 12.6335 17.1502C13.4352 15.3041 12.4344 13.4068 10.478 12.8857V12.8848ZM9.03445 17.3468C8.65046 17.9768 7.82559 18.2529 7.20694 17.963C6.59806 17.6769 6.41585 16.9445 6.79984 16.3282C7.18027 15.7147 7.97581 15.4422 8.5918 15.7083C9.214 15.9844 9.41311 16.7095 9.03534 17.3468H9.03445ZM10.3029 15.6772C10.1642 15.9222 9.85577 16.0383 9.61755 15.9359C9.37933 15.8372 9.30645 15.5611 9.44244 15.3224C9.58111 15.0838 9.87621 14.9686 10.1118 15.0636C10.35 15.1523 10.4362 15.4285 10.3038 15.6772H10.3029Z"/>
</g>
</svg>
