<?xml version="1.0" encoding="UTF-8"?>
<svg width="280px" height="72px" viewBox="0 0 280 72" version="1.1" xmlns="http://www.w3.org/2000/svg" xmlns:xlink="http://www.w3.org/1999/xlink">
    <!-- Generator: Sketch 54.1 (76490) - https://sketchapp.com -->
    <title>blse-logo</title>
    <desc>Created with Sketch.</desc>
    <g id="blse-logo" stroke="none" stroke-width="1" fill="none" fill-rule="evenodd">
        <g id="Group-70" transform="translate(77.000000, 9.000000)" fill="#000000">
            <path d="M127.461298,5.6484 C126.262169,5.6484 125.315788,6.31868571 124.431166,7.80554286 C124.428879,7.78268571 124.424876,7.75982857 124.423732,7.73754286 L124.426591,7.49125714 C124.434025,7.38382857 124.446034,7.2764 124.458042,7.16897143 C124.484918,6.93468571 124.511794,6.69982857 124.53867,6.46554286 C124.576983,6.12268571 124.615867,5.77982857 124.655324,5.43697143 L120.941853,5.8164 L120.941853,6.47011429 L122.629898,6.7444 L122.86149,8.36725714 L122.86149,12.7106857 L122.629898,14.3135429 L121.153431,14.5872571 L121.153431,15.2409714 L126.574388,15.2409714 L126.574388,14.5872571 L124.886915,14.3135429 L124.655324,12.7106857 L124.655324,12.2061143 L124.655324,10.8352571 L124.655324,9.31354286 L124.655324,8.89582857 L124.655324,8.72325714 C124.655324,8.69582857 124.657039,8.66725714 124.659326,8.63754286 C125.270614,7.88211429 126.090619,7.60954286 126.722493,7.60954286 C127.165662,7.60954286 127.608831,7.7564 127.967369,7.92497143 L128.495741,5.79582857 C128.052,5.66897143 127.840994,5.6484 127.461298,5.6484" id="Fill-1"></path>
            <polygon id="Fill-3" points="0.308216901 14.5864571 2.01970704 14.2487429 2.23071268 12.1167429 2.23071268 4.53845714 2.01970704 2.40645714 0.308216901 2.06874286 0.308216901 1.4356 4.87085634 1.4356 5.94875775 4.53845714 9.13843099 12.8344571 12.4121634 4.51731429 13.4054338 1.4356 17.9680732 1.4356 17.9680732 2.06874286 16.2777408 2.40645714 16.0455775 4.53845714 16.0455775 12.1167429 16.2777408 14.2487429 17.9680732 14.5864571 17.9680732 15.2413143 12.1382563 15.2413143 12.1382563 14.5864571 13.8280169 14.2487429 14.0607521 12.1167429 14.0607521 2.87102857 10.4267662 12.1167429 9.35000845 15.2413143 7.97704225 15.2413143 6.83623944 12.1167429 3.18109577 2.87102857 3.18109577 12.1167429 3.41325915 14.2487429 5.10359155 14.5864571 5.10359155 15.2413143 0.308216901 15.2413143"></polygon>
            <path d="M20.6872439,1.62548571 C20.6872439,0.907771429 21.2785172,0.2952 22.0184665,0.2952 C22.7361144,0.2952 23.3491172,0.8872 23.3491172,1.64662857 C23.3491172,2.32205714 22.7995876,2.9552 22.0184665,2.9552 C21.2996749,2.9552 20.6872439,2.4272 20.6872439,1.62548571 L20.6872439,1.62548571 Z M19.5893285,14.5866286 L21.0675115,14.3123429 L21.2785172,12.7077714 L21.2785172,8.3592 L21.0675115,6.73405714 L19.3771792,6.4592 L19.3771792,5.80491429 L23.3068017,5.42548571 L23.0952242,8.3592 L23.0952242,12.7077714 L23.3068017,14.3123429 L24.7849848,14.5866286 L24.7849848,15.2409143 L19.5893285,15.2409143 L19.5893285,14.5866286 Z" id="Fill-5"></path>
            <path d="M32.315427,12.9190286 L32.315427,6.67045714 C31.7241538,6.41731429 31.2592552,6.29102857 30.6039369,6.29102857 C28.6179679,6.29102857 27.5200524,7.93731429 27.5200524,10.5333143 C27.5200524,12.8344571 28.3652186,14.2281714 30.0126637,14.2281714 C30.752613,14.2281714 31.5337341,13.8898857 32.315427,12.9190286 M25.6187144,10.9773143 C25.6187144,7.6836 27.6893144,5.36188571 30.6885679,5.36188571 C31.2798411,5.36188571 31.7447397,5.42531429 32.315427,5.5516 L32.315427,3.08188571 L32.0826918,1.45617143 L30.3929313,1.18245714 L30.3929313,0.5276 L34.3431397,0.1476 L34.1104045,3.08188571 L34.1104045,12.7076 L34.3431397,14.3121714 L35.7161059,14.5864571 L35.7161059,15.2407429 L32.315427,15.6841714 L32.6322214,13.6790286 C31.6601087,14.9881714 30.667982,15.6841714 29.2732862,15.6841714 C27.1397848,15.6841714 25.6187144,13.8476 25.6187144,10.9773143" id="Fill-7"></path>
            <path d="M43.1754696,12.9190286 L43.1754696,6.67045714 C42.5841963,6.41731429 42.1192977,6.29102857 41.4639794,6.29102857 C39.4780104,6.29102857 38.3800949,7.93731429 38.3800949,10.5333143 C38.3800949,12.8344571 39.2252611,14.2281714 40.8727062,14.2281714 C41.6126555,14.2281714 42.3937766,13.8898857 43.1754696,12.9190286 M36.4787569,10.9773143 C36.4787569,7.6836 38.5493569,5.36188571 41.5486104,5.36188571 C42.1398837,5.36188571 42.6047823,5.42531429 43.1754696,5.5516 L43.1754696,3.08188571 L42.9427344,1.45617143 L41.2529738,1.18245714 L41.2529738,0.5276 L45.2031823,0.1476 L44.970447,3.08188571 L44.970447,12.7076 L45.2031823,14.3121714 L46.5761485,14.5864571 L46.5761485,15.2407429 L43.1754696,15.6841714 L43.4922639,13.6790286 C42.5201513,14.9881714 41.5280245,15.6841714 40.1333287,15.6841714 C37.9998273,15.6841714 36.4787569,13.8476 36.4787569,10.9773143" id="Fill-9"></path>
            <polygon id="Fill-11" points="47.9098299 14.5864571 49.388013 14.3127429 49.62132 12.7076 49.62132 3.08188571 49.388013 1.45617143 47.6988242 1.18245714 47.6988242 0.5276 51.6278749 0.1476 51.4162975 3.08188571 51.4162975 12.7076 51.6490327 14.3127429 53.1066299 14.5864571 53.1066299 15.2413143 47.9098299 15.2413143"></polygon>
            <path d="M58.4691465,8.95057143 L59.9050141,8.73914286 C59.9050141,7.07171429 59.1233211,6.20657143 57.9613606,6.20657143 C56.7788141,6.20657143 55.9553775,7.09285714 55.7226423,8.95057143 L58.4691465,8.95057143 Z M53.8636197,10.618 C53.8636197,7.40942857 55.4904789,5.362 58.1306225,5.362 C60.3487549,5.362 61.8909831,6.79742857 61.8063521,9.79514286 L55.7014845,9.79514286 C55.7014845,9.79514286 55.6808986,10.0905714 55.6808986,10.2597143 C55.6808986,12.6442857 56.8422873,14.3334286 59.0815775,14.3334286 C59.7574817,14.3334286 60.5180169,14.1648571 61.2568225,13.6157143 L61.6799775,14.1854286 C60.4751296,15.2837143 59.567062,15.6842857 58.0459915,15.6842857 C55.5322225,15.6842857 53.8636197,13.8688571 53.8636197,10.618 L53.8636197,10.618 Z" id="Fill-13"></path>
            <path d="M70.4758817,10.4494286 C70.4758817,8.27514286 69.5460845,6.79742857 68.1313746,6.79742857 C67.2656225,6.79742857 66.4410423,7.15571429 65.680507,8.04314286 L65.680507,12.7077143 L65.8915127,14.5448571 C66.3992986,14.7134286 66.7578366,14.798 67.3073662,14.798 C69.4837549,14.798 70.4758817,12.8557143 70.4758817,10.4494286 M63.8638,15.2408571 L63.8638,3.082 L63.6522225,1.45628571 L61.9630338,1.18257143 L61.9630338,0.527714286 L65.8915127,0.147714286 L65.680507,3.082 L65.680507,7.05057143 C66.4616282,6.01628571 67.6030028,5.362 68.8919099,5.362 C70.9196225,5.362 72.3349042,7.09285714 72.3349042,9.774 C72.3349042,13.046 70.370093,15.6842857 66.5674169,15.6842857 C65.680507,15.6842857 65.0680761,15.6842857 63.8638,15.2408571" id="Fill-15"></path>
            <path d="M74.7858862,12.3914286 L74.7858862,8.35942857 L74.553151,6.73428571 L72.9051341,6.45942857 L72.9051341,5.80514286 L76.8135989,5.42571429 L76.6020214,8.35942857 L76.6020214,11.9057143 C76.6020214,13.3622857 77.2773538,14.2485714 78.6091482,14.2485714 C79.5172158,14.2485714 80.3412242,13.7 80.9324975,12.9822857 L80.9324975,8.35942857 L80.7214918,6.73428571 L79.0734749,6.45942857 L79.0734749,5.80514286 L82.9813679,5.42571429 L82.7492045,8.35942857 L82.7492045,12.708 L82.9813679,14.3125714 L84.5024383,14.5862857 L84.5024383,15.2411429 L80.9324975,15.6211429 L81.1652327,13.7217143 C80.1719623,15.0937143 79.2844806,15.6845714 77.7851397,15.6845714 C75.9255454,15.6845714 74.7858862,14.5022857 74.7858862,12.3914286" id="Fill-17"></path>
            <polygon id="Fill-19" points="94.9719203 20.2441143 94.9719203 19.5264 97.0842639 19.1886857 97.9923315 17.7109714 98.9015428 15.5789714 95.9434611 8.35954286 95.077709 6.71268571 94.1267541 6.45954286 94.1267541 5.80468571 98.7528668 5.80468571 98.7528668 6.45954286 97.4010583 6.71268571 97.9088442 8.35954286 99.8096104 13.2355429 101.584002 8.35954286 102.048329 6.71268571 100.71825 6.45954286 100.71825 5.80468571 104.520354 5.80468571 104.520354 6.45954286 103.443025 6.71268571 102.640746 8.35954286 98.0352189 20.5184"></polygon>
            <path d="M92.1530223,5.64502857 C90.9538927,5.64502857 90.0075124,6.31588571 89.1228899,7.80217143 C89.1206025,7.77931429 89.1165997,7.75702857 89.1154561,7.73417143 L89.1183152,7.48788571 C89.125749,7.38045714 89.1377575,7.27302857 89.1497659,7.16617143 C89.176642,6.93131429 89.203518,6.69702857 89.2303941,6.46217143 C89.2687068,6.11988571 89.3075913,5.77645714 89.3470476,5.4336 L85.6330054,5.81302857 L85.6330054,6.46674286 L87.3216223,6.74102857 L87.5532138,8.36445714 L87.5532138,12.7073143 L87.3216223,14.3101714 L85.8451546,14.5838857 L85.8451546,15.2381714 L91.2661124,15.2381714 L91.2661124,14.5838857 L89.5786392,14.3101714 L89.3470476,12.7073143 L89.3470476,12.2027429 L89.3470476,10.8318857 L89.3470476,9.31017143 L89.3470476,8.89245714 L89.3470476,8.71988571 C89.3470476,8.69245714 89.3487631,8.66388571 89.3510504,8.63474286 C89.9623377,7.87931429 90.7823434,7.60617143 91.4142166,7.60617143 C91.8573856,7.60617143 92.3005546,7.7536 92.6590927,7.92217143 L93.1874645,5.79245714 C92.7437237,5.66617143 92.532718,5.64502857 92.1530223,5.64502857" id="Fill-21"></path>
            <path d="M118.158466,11.3358857 C118.158466,9.66788571 117.335029,8.42274286 114.800103,8.42274286 L113.595826,8.42274286 L113.595826,12.1170286 L113.828562,14.1010286 C114.229415,14.2701714 114.630841,14.3753143 115.18037,14.3753143 C116.996505,14.3753143 118.158466,13.2147429 118.158466,11.3358857 L118.158466,11.3358857 Z M114.292317,7.51474286 C116.489863,7.51474286 117.440246,6.52274286 117.440246,4.79188571 C117.440246,3.3776 116.573922,2.32217143 114.736629,2.32217143 L113.595826,2.32217143 L113.595826,7.51474286 L114.292317,7.51474286 Z M109.730249,14.5861714 L111.398852,14.2490286 L111.631015,12.1170286 L111.631015,4.53817143 L111.398852,2.40674286 L109.730249,2.06902857 L109.730249,1.43531429 L115.771643,1.43531429 C118.559891,1.43531429 119.574319,2.76502857 119.574319,4.55988571 C119.574319,5.99474286 118.538734,7.32502857 116.764342,7.83131429 C119.130007,7.7896 120.249652,9.18217143 120.249652,11.1033143 C120.249652,13.4890286 118.707995,15.2410286 114.905891,15.2410286 L109.730249,15.2410286 L109.730249,14.5861714 Z" id="Fill-23"></path>
            <path d="M133.659317,8.95057143 L135.096328,8.73914286 C135.096328,7.07171429 134.314635,6.20657143 133.152675,6.20657143 C131.970128,6.20657143 131.145548,7.09285714 130.913385,8.95057143 L133.659317,8.95057143 Z M129.054362,10.618 C129.054362,7.40942857 130.68065,5.362 133.321937,5.362 C135.540069,5.362 137.081726,6.79742857 136.997666,9.79514286 L130.891655,9.79514286 C130.891655,9.79514286 130.871069,10.0905714 130.871069,10.2597143 C130.871069,12.6442857 132.032458,14.3334286 134.27232,14.3334286 C134.948796,14.3334286 135.709331,14.1648571 136.448137,13.6157143 L136.87072,14.1854286 C135.666444,15.2837143 134.758376,15.6842857 133.237306,15.6842857 C130.723537,15.6842857 129.054362,13.8688571 129.054362,10.618 L129.054362,10.618 Z" id="Fill-25"></path>
            <path d="M143.876908,12.7290286 L143.876908,10.6816 C142.630316,10.6816 141.743978,10.8501714 141.172719,11.2090286 C140.602603,11.5261714 140.306967,12.0324571 140.306967,12.6867429 C140.306967,13.5101714 140.877654,14.1856 141.701663,14.1856 C142.398725,14.1856 143.243891,13.6576 143.876908,12.7290286 M138.532575,13.1301714 C138.532575,12.2016 138.934001,11.4204571 139.779167,10.8078857 C140.602603,10.1958857 141.954984,9.87931429 143.876908,9.87931429 L143.876908,8.73931429 C143.876908,7.4096 143.074629,6.62845714 141.785722,6.62845714 C141.004029,6.62845714 140.222336,6.94502857 139.525846,7.57817143 L138.998046,7.00845714 C139.947857,5.93188571 141.236764,5.25645714 142.736105,5.25645714 C144.426437,5.25645714 145.651299,6.16388571 145.651299,8.2536 L145.651299,12.7078857 L145.884034,14.3124571 L147.299316,14.5861714 L147.299316,15.2410286 L143.835164,15.6210286 L144.215432,13.2993143 C143.43431,14.7347429 142.41931,15.6844571 140.982871,15.6844571 C139.589319,15.6844571 138.532575,14.7347429 138.532575,13.1301714" id="Fill-27"></path>
            <path d="M154.757879,12.9190286 L154.757879,6.67045714 C154.166034,6.41731429 153.701707,6.29045714 153.046961,6.29045714 C151.06042,6.29045714 149.962505,7.93731429 149.962505,10.5333143 C149.962505,12.8344571 150.807671,14.2281714 152.455688,14.2281714 C153.194493,14.2281714 153.975614,13.8898857 154.757879,12.9190286 M148.061166,10.9773143 C148.061166,7.6836 150.131766,5.36188571 153.13102,5.36188571 C153.722293,5.36188571 154.187764,5.42531429 154.757879,5.5516 L154.757879,3.08188571 L154.525144,1.45617143 L152.835955,1.18245714 L152.835955,0.5276 L156.786164,0.1476 L156.553428,3.08188571 L156.553428,12.7081714 L156.786164,14.3121714 L158.158558,14.5864571 L158.158558,15.2407429 L154.757879,15.6841714 L155.074674,13.6790286 C154.102561,14.9881714 153.10929,15.6841714 151.715738,15.6841714 C149.582237,15.6841714 148.061166,13.8476 148.061166,10.9773143" id="Fill-29"></path>
            <polygon id="Fill-31" points="163.464349 14.5864571 165.175839 14.2487429 165.386845 12.1167429 165.386845 4.53845714 165.175839 2.40645714 163.464349 2.06874286 163.464349 1.4356 169.294166 1.4356 169.294166 2.06874286 167.583819 2.40645714 167.372242 4.53845714 167.372242 12.0961714 167.583819 13.9744571 169.210107 14.3127429 170.561915 14.3127429 172.358036 13.9744571 172.822363 11.9058857 173.730431 11.9058857 173.519425 15.2413143 163.464349 15.2413143"></polygon>
            <path d="M182.113073,10.4703429 C182.113073,7.66291429 181.205005,6.22748571 179.536402,6.22748571 C177.84607,6.22748571 176.916273,7.5572 176.916273,10.4914857 C176.916273,13.3623429 177.824912,14.7977714 179.472929,14.7977714 C181.162118,14.7977714 182.113073,13.4046286 182.113073,10.4703429 M174.867402,10.6394857 C174.867402,7.59948571 176.514847,5.34062857 179.642191,5.34062857 C182.345808,5.34062857 184.140785,7.15605714 184.140785,10.4492 C184.140785,13.6577714 182.218861,15.7057714 179.408884,15.7057714 C176.705267,15.7057714 174.867402,13.7846286 174.867402,10.6394857" id="Fill-33"></path>
            <path d="M190.607336,12.7290286 L190.607336,10.6816 C189.360745,10.6816 188.474406,10.8501714 187.903147,11.2090286 C187.333032,11.5261714 187.037395,12.0324571 187.037395,12.6867429 C187.037395,13.5101714 187.608083,14.1856 188.432091,14.1856 C189.129153,14.1856 189.974319,13.6576 190.607336,12.7290286 M185.263004,13.1301714 C185.263004,12.2016 185.664429,11.4204571 186.509595,10.8078857 C187.333032,10.1958857 188.685412,9.87931429 190.607336,9.87931429 L190.607336,8.73931429 C190.607336,7.4096 189.805057,6.62845714 188.51615,6.62845714 C187.734457,6.62845714 186.952764,6.94502857 186.256274,7.57817143 L185.728474,7.00845714 C186.678285,5.93188571 187.967192,5.25645714 189.466533,5.25645714 C191.156866,5.25645714 192.381728,6.16388571 192.381728,8.2536 L192.381728,12.7078857 L192.614463,14.3124571 L194.029745,14.5861714 L194.029745,15.2410286 L190.565592,15.6210286 L190.94586,13.2993143 C190.164739,14.7347429 189.149739,15.6844571 187.713299,15.6844571 C186.319747,15.6844571 185.263004,14.7347429 185.263004,13.1301714" id="Fill-35"></path>
            <path d="M195.119997,14.5864571 L196.577595,14.3127429 L196.809186,12.7081714 L196.809186,6.69217143 L195.07711,6.69217143 L195.07711,5.9316 L196.809186,5.59388571 L196.852074,4.20074286 C196.936705,1.8156 198.689938,0.000171428571 200.9704,0.000171428571 C201.625719,0.000171428571 202.090617,0.127028571 202.555516,0.2956 L201.858454,2.04817143 C201.308924,1.83674286 200.738809,1.66817143 200.126378,1.66817143 C198.900944,1.66817143 198.204454,2.13217143 198.415459,3.67274286 L198.605307,5.80474286 L201.076189,5.80474286 L201.076189,6.69217143 L198.605307,6.69217143 L198.605307,12.7081714 L198.837471,14.3127429 L200.527803,14.5864571 L200.527803,15.2413143 L195.119997,15.2413143 L195.119997,14.5864571 Z" id="Fill-37"></path>
            <path d="M0.253492676,38.058 L0.0424870423,34.8494286 L1.11981662,34.8494286 L1.54182789,37.066 C2.26061944,37.4037143 2.91479408,37.6785714 3.78111803,37.6785714 C5.7036138,37.6785714 7.09773775,36.7494286 7.09773775,35.166 C7.09773775,33.3928571 5.40797718,32.738 3.78111803,32.126 C1.7745631,31.3665714 0.000171549296,30.5642857 0.000171549296,28.1368571 C0.000171549296,26.0048571 1.62645887,24.0625714 4.77438845,24.0625714 C5.85171803,24.0625714 7.18236873,24.358 8.32259972,24.7802857 L8.55533493,27.9677143 L7.4991631,27.9677143 L7.03426451,25.7094286 C6.37951803,25.3082857 5.36566169,25.0757143 4.73207296,25.0757143 C2.64088704,25.0757143 1.60530113,26.2368571 1.60530113,27.4397143 C1.60530113,29.15 3.08405606,29.6357143 4.56338282,30.2265714 C6.71747014,31.0922857 8.74575465,31.9997143 8.74575465,34.5962857 C8.74575465,37.1082857 6.71747014,38.7551429 3.6753293,38.7551429 C2.64088704,38.7551429 1.75340535,38.6494286 0.253492676,38.058" id="Fill-39"></path>
            <path d="M10.0952758,33.8152571 C10.0952758,30.6906857 11.8913969,28.4952571 14.5950138,28.4952571 C15.5030814,28.4952571 16.1789856,28.6009714 17.3409462,29.0021143 L17.5736814,31.5352571 L16.749673,31.5352571 L16.2636166,29.9101143 C15.7569744,29.6986857 15.1651293,29.4878286 14.4892251,29.4878286 C13.0316279,29.4878286 11.8913969,30.5009714 11.8913969,33.1398286 C11.8913969,35.7569714 13.0527856,37.4461143 15.1228138,37.4461143 C15.798718,37.4461143 16.6015687,37.2135429 17.3409462,36.6855429 L17.8058448,37.2769714 C16.6232983,38.3112571 15.3767068,38.8181143 14.1301152,38.8181143 C11.7221349,38.8181143 10.0952758,36.9392571 10.0952758,33.8152571" id="Fill-41"></path>
            <path d="M18.8919234,37.7203429 L20.3706783,37.4460571 L20.6028417,35.8420571 L20.6028417,26.2157714 L20.3706783,24.5900571 L18.6803459,24.3157714 L18.6803459,23.6614857 L22.6093966,23.2814857 L22.398391,26.2157714 L22.398391,30.1843429 C23.1377685,29.1077714 24.3208868,28.4952 25.5669065,28.4952 C27.4682445,28.4952 28.6090473,29.6563429 28.6090473,31.7889143 L28.6090473,35.8420571 L28.8412107,37.4460571 L30.2988079,37.7203429 L30.2988079,38.3752 L25.3770586,38.3752 L25.3770586,37.7203429 L26.5807628,37.4460571 L26.813498,35.8420571 L26.813498,32.2952 C26.813498,30.8597714 26.1587515,29.9306286 24.7640558,29.9306286 C23.7507713,29.9306286 22.9902361,30.5432 22.398391,31.2186286 L22.398391,35.8420571 L22.6305544,37.4460571 L23.8348304,37.7203429 L23.8348304,38.3752 L18.8919234,38.3752 L18.8919234,37.7203429 Z" id="Fill-43"></path>
            <path d="M38.0579825,33.6037143 C38.0579825,30.7962857 37.1499149,29.3608571 35.4807403,29.3608571 C33.7909797,29.3608571 32.8617544,30.6905714 32.8617544,33.6254286 C32.8617544,36.4962857 33.769822,37.9311429 35.4178389,37.9311429 C37.1075994,37.9311429 38.0579825,36.5385714 38.0579825,33.6037143 M30.8123121,33.7728571 C30.8123121,30.7334286 32.460329,28.4745714 35.586529,28.4745714 C38.2901459,28.4745714 40.0856952,30.2894286 40.0856952,33.5831429 C40.0856952,36.7911429 38.1637713,38.8391429 35.3537938,38.8391429 C32.6501769,38.8391429 30.8123121,36.9185714 30.8123121,33.7728571" id="Fill-45"></path>
            <path d="M48.6039183,33.6037143 C48.6039183,30.7962857 47.6958507,29.3608571 46.0266761,29.3608571 C44.3369155,29.3608571 43.4076901,30.6905714 43.4076901,33.6254286 C43.4076901,36.4962857 44.3157577,37.9311429 45.9637746,37.9311429 C47.6535352,37.9311429 48.6039183,36.5385714 48.6039183,33.6037143 M41.3582479,33.7728571 C41.3582479,30.7334286 43.0062648,28.4745714 46.1324648,28.4745714 C48.8360817,28.4745714 50.631631,30.2894286 50.631631,33.5831429 C50.631631,36.7911429 48.709707,38.8391429 45.8997296,38.8391429 C43.1961127,38.8391429 41.3582479,36.9185714 41.3582479,33.7728571" id="Fill-47"></path>
            <polygon id="Fill-49" points="51.1855637 37.7203429 52.6643186 37.4460571 52.896482 35.8420571 52.896482 26.2157714 52.6643186 24.5900571 50.9739862 24.3157714 50.9739862 23.6614857 54.9030369 23.2814857 54.6920313 26.2157714 54.6920313 35.8420571 54.9241946 37.4460571 56.3817918 37.7203429 56.3817918 38.3752 51.1855637 38.3752"></polygon>
            <path d="M67.6435456,36.2426857 C68.3411794,35.1872571 68.742033,33.7729714 68.742033,32.1261143 C68.742033,30.6489714 68.4246668,29.7198286 67.4748555,29.7198286 C66.7560639,29.7198286 66.1647907,30.0581143 65.5523597,30.9015429 C64.7918245,31.9152571 64.3480837,33.7518286 64.3480837,35.2929714 C64.3480837,36.7066857 64.7712386,37.5512571 65.6369907,37.5512571 C66.3969541,37.5512571 67.0728583,37.1084 67.6435456,36.2426857 M62.5531062,35.7146857 C62.5531062,33.1821143 63.3971287,31.1129714 65.3830977,29.5506857 C66.1859485,28.9175429 67.3473372,28.4324 68.2136611,28.4324 C69.6506724,28.4324 70.4952668,29.5089714 70.4952668,31.6832571 C70.4952668,33.6255429 69.8828358,35.5038286 68.6362442,36.7912571 C67.4748555,38.0581143 66.1013175,38.7969714 64.7712386,38.7969714 C63.4188583,38.7969714 62.5531062,37.7621143 62.5531062,35.7146857" id="Fill-51"></path>
            <path d="M67.1487975,43.3989143 L67.5502228,41.5829143 C68.2055411,41.8372 68.9237608,42.0269143 69.5361918,42.0269143 C70.0851496,42.0269143 70.5077327,41.8154857 70.824527,41.3514857 C71.1201637,40.9080571 71.3528989,40.2954857 71.521589,39.4726286 L73.4652425,29.8463429 L71.5850623,29.8463429 L71.5850623,28.9383429 L73.6550904,28.9383429 L73.7185637,28.6646286 C74.1628763,26.6589143 74.6483608,25.4977714 75.7039608,24.5269143 C76.5920144,23.7034857 77.7110876,23.2812 78.5768397,23.2812 C79.1052115,23.2812 79.5277946,23.3446286 80.2671721,23.4926286 L79.844589,25.4349143 C78.9571073,25.0337714 78.0490397,24.8017714 77.4577665,24.8017714 C77.0557693,24.8017714 76.6126003,24.9280571 76.190589,25.3926286 C75.7256904,25.8989143 75.429482,26.9120571 75.3242651,28.9383429 L77.5212397,28.9383429 L77.5212397,29.8463429 L75.1761608,29.8463429 L73.4440848,38.6069143 C73.1478763,40.0634857 72.4508144,41.3514857 71.436958,42.2377714 C70.4654172,43.1029143 69.4721468,43.5463429 68.4165468,43.5463429 C68.1626538,43.5463429 67.5290651,43.5046286 67.1487975,43.3989143" id="Fill-53"></path>
            <polygon id="Fill-55" points="84.6639234 37.7203429 86.3748417 37.3820571 86.5864192 35.2506286 86.5864192 27.6723429 86.3748417 25.5403429 84.6639234 25.2026286 84.6639234 24.5689143 94.592053 24.5689143 94.8247882 28.0946286 93.8738332 28.0946286 93.4300924 25.8357714 91.4870107 25.4980571 88.5718163 25.4980571 88.5718163 30.8386286 90.15636 30.8386286 91.7614896 30.6066286 91.9724952 28.8969143 92.7541882 28.8969143 92.7541882 33.6672 91.9724952 33.6672 91.7614896 31.9574857 90.15636 31.7466286 88.5718163 31.7466286 88.5718163 35.2294857 88.782822 37.1083429 90.4096811 37.4460571 91.9724952 37.4460571 93.7474586 37.1083429 94.2123572 35.0397714 95.1204248 35.0397714 94.9094192 38.3752 84.6639234 38.3752"></polygon>
            <path d="M96.2194839,37.7203429 L97.697667,37.4460571 L97.9298304,35.8420571 L97.9298304,31.4929143 L97.697667,29.8677714 L96.0084783,29.5929143 L96.0084783,28.9386286 L99.7259515,28.5592 L99.4937882,30.4586286 C100.35954,29.1283429 101.458028,28.4952 102.894467,28.4952 C104.711746,28.4952 105.894292,29.6986286 105.894292,31.7889143 L105.894292,35.8420571 L106.105298,37.4460571 L107.605211,37.7203429 L107.605211,38.3752 L102.640574,38.3752 L102.640574,37.7203429 L103.845422,37.4460571 L104.056428,35.8420571 L104.056428,32.2952 C104.056428,30.8809143 103.379952,29.9306286 102.049301,29.9306286 C101.247022,29.9306286 100.655749,30.1632 99.7259515,31.1974857 L99.7259515,35.8420571 L99.9581149,37.4460571 L101.162391,37.7203429 L101.162391,38.3752 L96.2194839,38.3752 L96.2194839,37.7203429 Z" id="Fill-57"></path>
            <path d="M114.446597,32.1054286 C114.446597,30.438 113.875909,29.2128571 112.502943,29.2128571 C111.277509,29.2128571 110.622763,30.2477143 110.622763,31.978 C110.622763,33.646 111.277509,34.6385714 112.608732,34.6385714 C113.791278,34.6385714 114.446597,33.6671429 114.446597,32.1054286 M116.242146,40.9077143 C116.242146,40.106 115.713774,39.6414286 113.43274,39.2608571 L111.404456,38.9237143 C110.813183,39.2608571 109.988602,39.9785714 109.988602,40.7814286 C109.988602,42.0054286 111.214608,42.8077143 113.094788,42.8077143 C114.868608,42.8077143 116.242146,42.0265714 116.242146,40.9077143 M108.362315,41.33 C108.362315,40.2117143 109.460802,39.2191429 110.580447,38.7551429 C109.545433,38.522 108.848371,37.9951429 108.848371,37.2351429 C108.848371,36.3277143 109.608335,35.6728571 110.749137,35.1025714 C109.48196,34.5962857 108.700267,33.414 108.700267,31.8945714 C108.700267,30.0362857 110.073805,28.4111429 112.545259,28.4111429 C113.347537,28.4111429 114.086915,28.5591429 114.889766,29.0654286 L117.678014,28.3477143 L117.678014,29.6985714 L115.502768,29.6985714 C116.030568,30.3745714 116.326205,30.902 116.326205,31.978 C116.326205,33.8568571 114.763391,35.462 112.587002,35.462 C112.291366,35.462 111.911098,35.4402857 111.573718,35.3557143 C110.981873,35.6517143 110.496388,36.0945714 110.496388,36.4328571 C110.496388,37.1711429 111.615461,37.2985714 113.263478,37.5511429 C115.270033,37.8682857 117.44585,37.9522857 117.44585,40.1688571 C117.44585,42.2168571 115.502768,43.8842857 112.312523,43.8842857 C110.030918,43.8842857 108.362315,42.9134286 108.362315,41.33" id="Fill-59"></path>
            <polygon id="Fill-62" points="118.009904 37.7203429 119.488087 37.4460571 119.720251 35.8420571 119.720251 26.2157714 119.488087 24.5900571 117.798899 24.3157714 117.798899 23.6614857 121.727377 23.2814857 121.516372 26.2157714 121.516372 35.8420571 121.748535 37.4460571 123.206704 37.7203429 123.206704 38.3752 118.009904 38.3752"></polygon>
            <path d="M125.497917,24.7591429 C125.497917,24.0414286 126.08919,23.4288571 126.828567,23.4288571 C127.546787,23.4288571 128.159218,24.0202857 128.159218,24.7802857 C128.159218,25.4557143 127.609688,26.0888571 126.828567,26.0888571 C126.109776,26.0888571 125.497917,25.5608571 125.497917,24.7591429 L125.497917,24.7591429 Z M124.399429,37.7202857 L125.877612,37.446 L126.08919,35.842 L126.08919,31.4928571 L125.877612,29.8677143 L124.188424,29.5928571 L124.188424,28.9385714 L128.116903,28.5591429 L127.905897,31.4928571 L127.905897,35.842 L128.116903,37.446 L129.596229,37.7202857 L129.596229,38.3751429 L124.399429,38.3751429 L124.399429,37.7202857 Z" id="Fill-64"></path>
            <path d="M130.995042,38.2477143 L130.826352,35.7785714 L131.755577,35.7785714 L132.114687,37.4037143 C132.770006,37.6991429 133.276648,37.8682857 134.08007,37.8682857 C135.220301,37.8682857 135.939093,37.2985714 135.939093,36.3277143 C135.939093,35.1025714 134.776561,34.7437143 133.677501,34.3425714 C132.346851,33.794 130.784037,33.3294286 130.784037,31.4294286 C130.784037,29.8254286 132.094101,28.3688571 134.33282,28.3688571 C135.283775,28.3688571 136.213572,28.5591429 137.142225,28.9808571 L137.354375,31.4505714 L136.424577,31.4505714 L135.959679,29.7831429 C135.367834,29.5088571 134.755975,29.3608571 134.08007,29.3608571 C132.960425,29.3608571 132.325693,29.8254286 132.325693,30.7751429 C132.325693,31.9362857 133.509383,32.2951429 134.543825,32.6962857 C136.04431,33.266 137.460163,33.7311429 137.460163,35.6934286 C137.460163,37.4671429 136.023152,38.8602857 133.889651,38.8602857 C133.192017,38.8602857 132.008899,38.6494286 130.995042,38.2477143" id="Fill-66"></path>
            <path d="M138.284229,37.7203429 L139.763556,37.4460571 L139.995147,35.8420571 L139.995147,26.2157714 L139.763556,24.5900571 L138.073223,24.3157714 L138.073223,23.6614857 L142.002274,23.2814857 L141.791268,26.2157714 L141.791268,30.1843429 C142.530074,29.1077714 143.713764,28.4952 144.960356,28.4952 C146.86055,28.4952 148.001353,29.6563429 148.001353,31.7889143 L148.001353,35.8420571 L148.233516,37.4460571 L149.691685,37.7203429 L149.691685,38.3752 L144.769936,38.3752 L144.769936,37.7203429 L145.97364,37.4460571 L146.205804,35.8420571 L146.205804,32.2952 C146.205804,30.8597714 145.551629,29.9306286 144.156933,29.9306286 C143.143077,29.9306286 142.382542,30.5432 141.791268,31.2186286 L141.791268,35.8420571 L142.023432,37.4460571 L143.22828,37.7203429 L143.22828,38.3752 L138.284229,38.3752 L138.284229,37.7203429 Z" id="Fill-68"></path>
        </g>
        <g id="shield-use-copy-3">
            <path d="M1.62675,1.62675 L1.62675,32.981625 C1.62675,33.0345 1.702125,38.66175 5.585625,46.0395 C9.147375,52.808625 16.731,62.470125 32.652,70.1955 C48.585375,62.467875 56.158875,52.806375 59.709375,46.038375 C63.5805,38.66175 63.64125,33.035625 63.64125,32.9805 L63.64125,1.62675 L1.62675,1.62675 Z" id="Path" fill="#FFFFFF"></path>
            <path d="M1.62675,1.62675 L1.62675,32.981625 C1.62675,33.0345 1.702125,38.66175 5.585625,46.0395 C9.147375,52.808625 16.731,62.470125 32.652,70.1955 C48.585375,62.467875 56.158875,52.806375 59.709375,46.038375 C63.5805,38.66175 63.64125,33.035625 63.64125,32.9805 L63.64125,1.62675 L1.62675,1.62675 Z M32.652,72 L32.299875,71.83125 C15.6825,63.860625 7.790625,53.766 4.095,46.701 C0.061875,38.989125 -9.9475983e-14,33.224625 -9.9475983e-14,32.983875 L-9.9475983e-14,0 L65.266875,0 L65.266875,32.981625 C65.266875,33.222375 65.221875,38.98575 61.201125,46.697625 C57.51675,53.7615 49.633875,63.85725 33.003,71.83125 L32.652,72 Z M20.8918125,12.2576625 L19.1289375,12.2576625 C18.8465625,11.3801625 18.4798125,10.6084125 18.0455625,9.9795375 C19.1806875,10.4824125 20.1571875,11.2732875 20.8918125,12.2576625 Z M15.7633875,9.518175 C16.5576375,9.8523 17.3226375,10.8243 17.8491375,12.25755 L15.7633875,12.25755 L15.7633875,9.518175 Z M11.7820125,15.9204375 C11.8168875,15.0328125 11.9282625,14.2138125 12.0981375,13.4780625 L14.5438875,13.4780625 L14.5438875,15.9204375 L11.7820125,15.9204375 Z M12.4581375,12.2576625 C12.9846375,10.8244125 13.7496375,9.8524125 14.5438875,9.5182875 L14.5438875,12.2576625 L12.4581375,12.2576625 Z M12.0983625,19.5838875 C11.9284875,18.8470125 11.8171125,18.0280125 11.7822375,17.1403875 L14.5441125,17.1403875 L14.5441125,19.5838875 L12.0983625,19.5838875 Z M14.5438875,23.543325 C13.7496375,23.2092 12.9846375,22.2372 12.4581375,20.80395 L14.5438875,20.80395 L14.5438875,23.543325 Z M10.5625125,17.1405 C10.5951375,18.001125 10.6963875,18.820125 10.8572625,19.584 L8.6815125,19.584 C8.3248875,18.83025 8.0942625,18.009 8.0200125,17.1405 L10.5625125,17.1405 Z M18.2084625,13.4776125 C18.3794625,14.2144875 18.4897125,15.0334875 18.5257125,15.9199875 L15.7638375,15.9199875 L15.7638375,13.4776125 L18.2084625,13.4776125 Z M10.8563625,13.4776125 C10.6954875,14.2414875 10.5953625,15.0604875 10.5627375,15.9199875 L8.0202375,15.9199875 C8.0933625,15.0526125 8.3251125,14.2302375 8.6817375,13.4776125 L10.8563625,13.4776125 Z M9.4165875,20.8038375 L11.1783375,20.8038375 C11.4607125,21.6802125 11.8274625,22.4519625 12.2617125,23.0797125 C11.1265875,22.5768375 10.1500875,21.7870875 9.4165875,20.8038375 Z M19.7454375,15.9204375 C19.7116875,15.0598125 19.6115625,14.2408125 19.4506875,13.4780625 L21.6264375,13.4780625 C21.9830625,14.2306875 22.2136875,15.0530625 22.2879375,15.9204375 L19.7454375,15.9204375 Z M12.2610375,9.9806625 C11.8267875,10.6095375 11.4611625,11.3801625 11.1787875,12.2576625 L9.4159125,12.2576625 C10.1505375,11.2744125 11.1270375,10.4835375 12.2610375,9.9806625 Z M19.4504625,19.5838875 C19.6113375,18.8200125 19.7114625,18.0010125 19.7452125,17.1403875 L22.2877125,17.1403875 C22.2145875,18.0088875 21.9817125,18.8312625 21.6262125,19.5838875 L19.4504625,19.5838875 Z M18.5259375,17.1405 C18.4899375,18.028125 18.3796875,18.847125 18.2086875,19.584 L15.7629375,19.584 L15.7629375,17.1405 L18.5259375,17.1405 Z M15.7633875,23.5427625 L15.7633875,20.8033875 L17.8491375,20.8033875 C17.3226375,22.2366375 16.5576375,23.2075125 15.7633875,23.5427625 Z M18.0453375,23.0808375 C18.4795875,22.4519625 18.8452125,21.6813375 19.1287125,20.8038375 L20.8915875,20.8038375 C20.1569625,21.7870875 19.1804625,22.5779625 18.0453375,23.0808375 Z M57.6196875,20.2365 L57.6196875,11.383875 L56.4001875,11.383875 L56.4001875,19.537875 L49.8009375,23.407875 L43.1971875,19.537875 L43.1971875,11.383875 L41.9765625,11.383875 L41.9765625,20.2365 L49.8009375,24.822 L57.6196875,20.2365 Z M44.4268125,10.609875 C44.3806875,10.557 44.4268125,18.786375 44.4268125,18.786375 C44.4268125,18.786375 47.6814375,18.83925 49.1428125,21.53025 L49.1428125,13.35375 C47.6814375,10.66275 44.4268125,10.609875 44.4268125,10.609875 Z M50.3544375,13.4235 L50.3544375,21.6 C51.8315625,18.909 55.1199375,18.85725 55.1199375,18.85725 C55.1199375,18.85725 55.1683125,10.627875 55.1199375,10.68075 C55.1199375,10.68075 51.8315625,10.733625 50.3544375,13.4235 Z M39.7119375,26.028 L39.7119375,24.604875 L37.5665625,24.604875 L37.5665625,17.6085 L27.6991875,17.6085 L27.6991875,24.604875 L25.5560625,24.604875 L25.5560625,26.028 L39.7119375,26.028 Z M15.1543125,24.915375 C19.7769375,24.915375 23.5389375,21.153375 23.5389375,16.53075 C23.5389375,11.907 19.7769375,8.145 15.1543125,8.145 C10.5305625,8.145 6.7685625,11.907 6.7685625,16.53075 C6.7685625,21.153375 10.5305625,24.915375 15.1543125,24.915375 Z M33.3455625,3.614625 L61.2725625,3.614625 L61.2725625,32.113125 C61.2725625,32.113125 61.2703125,34.072875 60.4771875,37.184625 C60.0856875,37.1655 59.6458125,37.14525 59.0416875,37.117125 C56.6949375,37.004625 54.7599375,37.488375 52.5628125,37.15425 C50.3668125,36.819 48.4678125,34.808625 45.3774375,34.2495 C43.1454375,33.84675 41.2993125,33.773625 38.8209375,33.849 L38.8209375,27.239625 L26.4470625,27.239625 L26.4470625,33.63975 C26.0645625,33.625125 25.6753125,33.61725 25.2725625,33.61725 C21.7715625,33.61725 20.4316875,32.648625 16.7833125,32.648625 C13.1349375,32.648625 7.6246875,34.43625 4.5714375,35.478 C4.5219375,35.494875 4.4724375,35.51175 4.4240625,35.528625 C3.9999375,33.3945 3.9954375,32.113125 3.9954375,32.113125 L3.9954375,3.614625 L31.9224375,3.614625 L31.9224375,4.428 C31.3014375,4.694625 30.8638125,5.284125 30.8638125,5.981625 C30.8638125,6.676875 31.3014375,7.2675 31.9224375,7.533 L31.9224375,8.519625 C30.9886875,8.861625 29.3068125,9.680625 28.5384375,11.334375 C27.8184375,12.88575 27.6868125,14.229 27.6800625,14.96475 L27.0174375,14.96475 L27.0174375,16.387875 L38.2505625,16.387875 L38.2505625,14.96475 L37.5879375,14.96475 C37.5800625,14.229 37.4484375,12.88575 36.7284375,11.334375 C35.9600625,9.67725 34.2770625,8.861625 33.3455625,8.52075 L33.3455625,7.534125 C33.9654375,7.268625 34.4030625,6.676875 34.4030625,5.981625 C34.4030625,5.284125 33.9654375,4.6935 33.3455625,4.426875 L33.3455625,3.614625 Z M33.4085625,5.9821875 C33.4085625,6.3860625 33.0620625,6.7145625 32.6345625,6.7145625 C32.2059375,6.7145625 31.8594375,6.3860625 31.8594375,5.9821875 C31.8594375,5.5749375 32.2059375,5.2464375 32.6345625,5.2464375 C33.0620625,5.2464375 33.4085625,5.5749375 33.4085625,5.9821875 Z M31.314375,33.0658875 L31.314375,28.5017625 L33.9525,28.5017625 L33.9525,33.0658875 L31.314375,33.0658875 Z M31.314375,23.0578875 L31.314375,18.9628875 L33.9525,18.9628875 L33.9525,23.0578875 L31.314375,23.0578875 Z M29.080125,23.0556375 L29.080125,18.9685125 L29.8935,18.9685125 L29.8935,23.0556375 L29.080125,23.0556375 Z M35.37225,23.0556375 L35.37225,18.9685125 L36.185625,18.9685125 L36.185625,23.0556375 L35.37225,23.0556375 Z M24.14475,36.2777625 L24.14475,35.0582625 L41.122125,35.0582625 L41.122125,36.2777625 L24.14475,36.2777625 Z M27.46125,41.6957625 L37.80675,41.6957625 L37.80675,39.2241375 L27.46125,39.2241375 L27.46125,41.6957625 Z M26.240625,42.9163875 L26.240625,38.0046375 L39.02625,38.0046375 L39.02625,42.9163875 L26.240625,42.9163875 Z M24.3981,40.1256 L24.3981,42.048225 L11.22885,50.35185 C10.899225,49.90635 10.584225,49.46535 10.28385,49.025475 L24.3981,40.1256 Z M40.868325,42.1174125 L40.868325,40.1925375 L54.9612,49.0991625 C54.6597,49.5390375 54.3447,49.9800375 54.01395,50.4255375 L40.868325,42.1174125 Z M30.8525625,54.6109875 C31.0303125,54.7471125 31.1180625,54.9406125 31.1180625,55.1903625 C31.1180625,55.6639875 30.7321875,55.9936125 30.1696875,55.9936125 C29.5419375,55.9936125 29.1403125,55.6313625 29.1403125,55.0688625 C29.1403125,54.6031125 29.4215625,54.2813625 29.8153125,54.0721125 C30.3384375,54.2892375 30.6511875,54.4501125 30.8525625,54.6109875 Z M30.1768875,53.32455 C29.8000125,53.17155 29.2442625,52.90605 29.2442625,52.439175 C29.2442625,52.0218 29.5817625,51.74055 30.0970125,51.74055 C30.6358875,51.74055 30.9497625,51.99705 30.9497625,52.423425 C30.9497625,52.866675 30.5301375,53.1468 30.1768875,53.32455 Z M33.9336,52.4395125 C34.085475,52.0142625 34.32735,51.7645125 34.641225,51.7645125 C34.994475,51.7645125 35.26785,52.0052625 35.42085,52.6318875 C35.50185,52.9783875 35.541225,53.3395125 35.541225,53.8626375 C35.541225,54.4026375 35.49285,54.8605125 35.38935,55.2058875 C35.2431,55.6727625 34.97085,55.9618875 34.632225,55.9618875 C34.294725,55.9618875 34.0056,55.6963875 33.860475,55.0697625 C33.788475,54.7727625 33.7491,54.3542625 33.7491,53.8142625 C33.7491,53.2427625 33.804225,52.7848875 33.9336,52.4395125 Z M39.1275,56.621475 C40.253625,56.621475 41.025375,55.512225 41.025375,53.8461 C41.025375,52.6806 40.5765,51.0966 39.1365,51.0966 C38.066625,51.0966 37.26225,52.238475 37.26225,53.822475 C37.26225,54.972225 37.71225,56.621475 39.1275,56.621475 Z M34.62525,56.621475 C35.751375,56.621475 36.523125,55.512225 36.523125,53.8461 C36.523125,52.6806 36.072,51.0966 34.632,51.0966 C33.56325,51.0966 32.758875,52.238475 32.758875,53.822475 C32.758875,54.972225 33.208875,56.621475 34.62525,56.621475 Z M30.08025,56.652975 C31.005,56.652975 32.09175,56.074725 32.09175,55.037475 C32.09175,54.369225 31.60125,53.98335 30.8205,53.6616 C31.375125,53.453475 31.890375,53.082225 31.890375,52.4241 C31.890375,51.635475 31.190625,51.0966 30.177,51.0966 C29.300625,51.0966 28.35225,51.498225 28.35225,52.519725 C28.35225,53.0586 28.72125,53.550225 29.212875,53.750475 C28.61775,53.959725 28.182375,54.48285 28.182375,55.134225 C28.182375,56.1951 29.156625,56.652975 30.08025,56.652975 Z M27.40275,56.5011 L27.40275,55.7856 L26.65575,55.7856 L26.65575,51.18435 L26.028,51.18435 L24.411375,52.319475 L24.6285,52.7931 C24.72525,52.760475 25.02225,52.632225 25.239375,52.5276 C25.4565,52.4241 25.70625,52.263225 25.786125,52.213725 L25.786125,55.7856 L24.8535,55.7856 L24.8535,56.5011 L27.40275,56.5011 Z M40.869,44.518725 L52.78725,51.984225 C48.54825,57.18285 42.1875,62.60535 32.6385,67.17735 C23.112,62.61435 16.756875,57.201975 12.51225,52.0101 L24.427125,44.54685 L40.869,44.54685 L40.869,44.518725 Z M39.143925,51.7645125 C39.497175,51.7645125 39.77055,52.0052625 39.92355,52.6318875 C40.00455,52.9783875 40.043925,53.3395125 40.043925,53.8626375 C40.043925,54.4026375 39.996675,54.8605125 39.89205,55.2058875 C39.746925,55.6727625 39.47355,55.9618875 39.13605,55.9618875 C38.797425,55.9618875 38.5083,55.6963875 38.3643,55.0697625 C38.291175,54.7727625 38.2518,54.3542625 38.2518,53.8142625 C38.2518,53.2427625 38.306925,52.7848875 38.4363,52.4395125 C38.5893,52.0142625 38.83005,51.7645125 39.143925,51.7645125 Z" id="Shape" fill="#0D395F"></path>
        </g>
    </g>
</svg>