<?xml version="1.0" encoding="UTF-8"?>
<svg width="280px" height="72px" viewBox="0 0 280 72" version="1.1" xmlns="http://www.w3.org/2000/svg" xmlns:xlink="http://www.w3.org/1999/xlink">
    <!-- Generator: Sketch 54.1 (76490) - https://sketchapp.com -->
    <title>blwc-logo</title>
    <desc>Created with Sketch.</desc>
    <g id="blwc-logo" stroke="none" stroke-width="1" fill="none" fill-rule="evenodd">
        <g id="Group-79" transform="translate(77.000000, 9.000000)" fill="#000000">
            <path d="M27.584898,29.3533143 C26.3857685,29.3533143 25.4393882,30.0236 24.5553375,31.5104571 C24.5530501,31.4881714 24.5484755,31.4653143 24.5473318,31.4424571 L24.550191,31.1961714 C24.5576248,31.0893143 24.5696332,30.9813143 24.5822135,30.8744571 C24.6085177,30.6396 24.6353938,30.4053143 24.661698,30.1704571 C24.7011544,29.8281714 24.7400389,29.4853143 24.7789234,29.1424571 L21.0648811,29.5213143 L21.0648811,30.1750286 L22.753498,30.4493143 L22.9850896,32.0721714 L22.9850896,36.4161714 L22.753498,38.0190286 L21.2764586,38.2921714 L21.2764586,38.9464571 L26.6979882,38.9464571 L26.6979882,38.2921714 L25.0105149,38.0190286 L24.7789234,36.4161714 L24.7789234,35.9110286 L24.7789234,34.5407429 L24.7789234,33.0190286 L24.7789234,32.6007429 L24.7789234,32.4281714 C24.7789234,32.4007429 24.7806389,32.3721714 24.7829262,32.3430286 C25.3936417,31.5876 26.2142192,31.3144571 26.8460924,31.3144571 C27.2892614,31.3144571 27.7318586,31.4618857 28.0909685,31.6304571 L28.6193403,29.5007429 C28.1755994,29.3744571 27.9645938,29.3533143 27.584898,29.3533143" id="Fill-1"></path>
            <path d="M57.9176155,29.3533143 C56.7184859,29.3533143 55.7721056,30.0236 54.8880549,31.5104571 C54.8857676,31.4881714 54.881193,31.4653143 54.8800493,31.4424571 L54.8829085,31.1961714 C54.8903423,31.0893143 54.9023507,30.9813143 54.914931,30.8744571 C54.9412352,30.6396 54.9681113,30.4053143 54.9944155,30.1704571 C55.0338718,29.8281714 55.0727563,29.4853143 55.1116408,29.1424571 L51.3975986,29.5213143 L51.3975986,30.1750286 L53.0862155,30.4493143 L53.317807,32.0721714 L53.317807,36.4161714 L53.0862155,38.0190286 L51.6091761,38.2921714 L51.6091761,38.9464571 L57.0307056,38.9464571 L57.0307056,38.2921714 L55.3432324,38.0190286 L55.1116408,36.4161714 L55.1116408,35.9110286 L55.1116408,34.5407429 L55.1116408,33.0190286 L55.1116408,32.6007429 L55.1116408,32.4281714 C55.1116408,32.4007429 55.1133563,32.3721714 55.1156437,32.3430286 C55.7263592,31.5876 56.5469366,31.3144571 57.1788099,31.3144571 C57.6219789,31.3144571 58.0645761,31.4618857 58.4236859,31.6304571 L58.9520577,29.5007429 C58.5083169,29.3744571 58.2973113,29.3533143 57.9176155,29.3533143" id="Fill-3"></path>
            <path d="M135.049781,29.3533143 C133.85008,29.3533143 132.904272,30.0236 132.019649,31.5104571 C132.017362,31.4881714 132.012787,31.4653143 132.012215,31.4424571 L132.015074,31.1961714 C132.021936,31.0893143 132.034517,30.9813143 132.046525,30.8744571 C132.073401,30.6396 132.099705,30.4053143 132.126581,30.1704571 C132.165466,29.8281714 132.20435,29.4853143 132.243807,29.1424571 L128.529765,29.5213143 L128.529765,30.1750286 L130.21781,30.4493143 L130.449401,32.0721714 L130.449401,36.4161714 L130.21781,38.0190286 L128.741342,38.2921714 L128.741342,38.9464571 L134.1623,38.9464571 L134.1623,38.2921714 L132.475398,38.0190286 L132.243807,36.4161714 L132.243807,35.9110286 L132.243807,34.5407429 L132.243807,33.0190286 L132.243807,32.6007429 L132.243807,32.4281714 C132.243807,32.4007429 132.245522,32.3721714 132.24781,32.3430286 C132.858525,31.5876 133.679103,31.3144571 134.310976,31.3144571 C134.754145,31.3144571 135.196742,31.4618857 135.555852,31.6304571 L136.083652,29.5007429 C135.639911,29.3744571 135.429477,29.3533143 135.049781,29.3533143" id="Fill-5"></path>
            <polygon id="Fill-7" points="5.00626592 35.8217714 2.45018141 28.2434857 1.54154197 26.1114857 -0.000114366197 25.7737714 -0.000114366197 25.1406286 5.44943493 25.1406286 5.44943493 25.7737714 3.95009408 26.1114857 4.47789408 28.2434857 7.45656169 37.0469143 10.3929138 28.2434857 9.46368845 26.1114857 7.92146028 25.7737714 7.92146028 25.1406286 13.5196856 25.1406286 13.5196856 25.7737714 11.9562997 26.1114857 12.5052575 28.2434857 15.5473983 37.0469143 18.3568039 28.2434857 18.8428603 26.1114857 17.1736856 25.7737714 17.1736856 25.1406286 21.8850011 25.1406286 21.8850011 25.7737714 20.3210434 26.1114857 19.3712321 28.2857714 16.9415223 35.8217714 15.9911392 39.1994857 14.1532744 39.1994857 13.1182603 35.8217714 10.9418715 29.5949143 8.85125746 35.8217714 7.87914479 39.1994857 6.04185183 39.1994857"></polygon>
            <path d="M30.8098532,25.3307429 C30.8098532,24.6130286 31.4011265,24.0004571 32.1405039,24.0004571 C32.8587237,24.0004571 33.4711546,24.5918857 33.4711546,25.3518857 C33.4711546,26.0273143 32.9216251,26.6604571 32.1405039,26.6604571 C31.4222842,26.6604571 30.8098532,26.1324571 30.8098532,25.3307429 L30.8098532,25.3307429 Z M29.7113659,38.2918857 L31.189549,38.0176 L31.4011265,36.4136 L31.4011265,32.0644571 L31.189549,30.4387429 L29.4997885,30.1644571 L29.4997885,29.5096 L33.429411,29.1301714 L33.2172617,32.0644571 L33.2172617,36.4136 L33.429411,38.0176 L34.9081659,38.2918857 L34.9081659,38.9461714 L29.7113659,38.9461714 L29.7113659,38.2918857 Z" id="Fill-10"></path>
            <path d="M36.8796676,37.1097143 L36.8796676,30.3971429 L35.2322225,30.3971429 L35.2322225,29.6371429 L36.8796676,29.2994286 L36.8796676,26.8714286 L38.6963746,26.5337143 L38.6963746,29.5097143 L41.2736169,29.5097143 L41.2736169,30.3971429 L38.6963746,30.3971429 L38.6963746,36.4131429 C38.6963746,37.4897143 39.0766423,37.9754286 39.8577634,37.9754286 C40.1957155,37.9754286 40.7664028,37.8697143 41.2518873,37.5525714 L41.6533127,38.2285714 C40.5977127,39.0731429 39.9000789,39.3891429 38.9496958,39.3891429 C37.9146817,39.3891429 36.8796676,38.8611429 36.8796676,37.1097143" id="Fill-12"></path>
            <path d="M46.9766017,32.6554857 L48.4130411,32.4446286 C48.4130411,30.7772 47.6313482,29.9114857 46.4693876,29.9114857 C45.2868411,29.9114857 44.4628327,30.7977714 44.2306693,32.6554857 L46.9766017,32.6554857 Z M42.3710749,34.3229143 C42.3710749,31.1149143 43.9979341,29.0669143 46.6386496,29.0669143 C48.856782,29.0669143 50.3990101,30.5023429 50.3143792,33.5000571 L44.2089397,33.5000571 C44.2089397,33.5000571 44.1883538,33.7954857 44.1883538,33.9646286 C44.1883538,36.3497714 45.3497425,38.0383429 47.5890327,38.0383429 C48.2649369,38.0383429 49.0254721,37.8697714 49.7648496,37.3206286 L50.1874327,37.8903429 C48.9831566,38.9886286 48.0745172,39.3892 46.5540186,39.3892 C44.0402496,39.3892 42.3710749,37.5737714 42.3710749,34.3229143 L42.3710749,34.3229143 Z" id="Fill-14"></path>
            <path d="M59.9589949,38.8195429 L59.7903048,36.3498286 L60.7195301,36.3498286 L61.07864,37.9749714 C61.7333865,38.2704 62.2406006,38.4395429 63.0434513,38.4395429 C64.1842541,38.4395429 64.9024738,37.8698286 64.9024738,36.8989714 C64.9024738,35.6738286 63.7405132,35.3155429 62.6414541,34.9138286 C61.3108034,34.3652571 59.7479893,33.9012571 59.7479893,32.0006857 C59.7479893,30.3972571 61.0574823,28.9401143 63.2967724,28.9401143 C64.2471555,28.9401143 65.1763808,29.1304 66.106178,29.5521143 L66.3171837,32.0218286 L65.3879583,32.0218286 L64.9236315,30.3549714 C64.3317865,30.0801143 63.7187837,29.9321143 63.0434513,29.9321143 C61.9238062,29.9321143 61.2902175,30.3972571 61.2902175,31.3464 C61.2902175,32.5081143 62.4727639,32.8664 63.507778,33.2675429 C65.0076907,33.8372571 66.4229724,34.3024 66.4229724,36.2646857 C66.4229724,38.0384 64.986533,39.4315429 62.8530315,39.4315429 C62.1559696,39.4315429 60.9728513,39.2206857 59.9589949,38.8195429" id="Fill-16"></path>
            <path d="M175.749166,38.8195429 L175.580475,36.3498286 L176.509701,36.3498286 L176.868811,37.9749714 C177.524129,38.2704 178.030771,38.4395429 178.833622,38.4395429 C179.974425,38.4395429 180.692645,37.8698286 180.692645,36.8989714 C180.692645,35.6738286 179.530684,35.3155429 178.431625,34.9138286 C177.100974,34.3652571 175.53816,33.9012571 175.53816,32.0006857 C175.53816,30.3972571 176.847653,28.9401143 179.086943,28.9401143 C180.037326,28.9401143 180.966552,29.1304 181.896349,29.5521143 L182.107354,32.0218286 L181.178129,32.0218286 L180.713802,30.3549714 C180.121957,30.0801143 179.508954,29.9321143 178.833622,29.9321143 C177.713977,29.9321143 177.079816,30.3972571 177.079816,31.3464 C177.079816,32.5081143 178.262935,32.8664 179.297949,33.2675429 C180.797861,33.8372571 182.213143,34.3024 182.213143,36.2646857 C182.213143,38.0384 180.776704,39.4315429 178.643202,39.4315429 C177.94614,39.4315429 176.763022,39.2206857 175.749166,38.8195429" id="Fill-18"></path>
            <path d="M68.0008828,29.2358286 C69.1416856,28.9404 69.7970039,28.2649714 69.5636969,27.2518286 C68.6979448,27.2518286 68.1913025,26.7026857 68.1913025,25.9426857 C68.1913025,25.2461143 68.6562011,24.6764 69.4796377,24.6764 C70.3671194,24.6764 71.0007082,25.4569714 71.0007082,26.7661143 C71.0007082,28.3912571 70.0920687,29.5735429 68.3176772,30.0375429 L68.0008828,29.2358286 Z" id="Fill-20"></path>
            <path d="M77.0441039,32.0857714 C77.0441039,28.2012 79.2410786,24.8029143 84.331518,24.8029143 C85.6415828,24.8029143 86.7823856,24.9080571 88.5150335,25.2669143 L88.7260392,28.4760571 L87.6904532,28.4760571 L87.2049687,26.1114857 C86.402118,25.8372 85.3882617,25.6469143 84.2686166,25.6469143 C81.0360561,25.6469143 79.1770335,27.9903429 79.1770335,31.7057714 C79.1770335,35.5480571 81.0360561,38.4394857 84.4796223,38.4394857 C85.3459462,38.4394857 86.5290645,38.2286286 87.3736589,37.8697714 L87.8597152,35.6109143 L88.8953011,35.6109143 L88.6831518,38.8406286 C87.2261265,39.0943429 86.2328561,39.2840571 84.0787687,39.2840571 C79.0929744,39.2840571 77.0441039,36.2017714 77.0441039,32.0857714" id="Fill-22"></path>
            <path d="M97.6283611,34.1756 C97.6283611,31.3681714 96.7202935,29.9321714 95.0511189,29.9321714 C93.3613583,29.9321714 92.4315611,31.2624571 92.4315611,34.1967429 C92.4315611,37.0676 93.3402006,38.5030286 94.9882175,38.5030286 C96.677978,38.5030286 97.6283611,37.1098857 97.6283611,34.1756 M90.3826907,34.3447429 C90.3826907,31.3047429 92.0301358,29.0458857 95.1569076,29.0458857 C97.8605245,29.0458857 99.6560738,30.8607429 99.6560738,34.1544571 C99.6560738,37.3630286 97.7341499,39.4104571 94.9241724,39.4104571 C92.2205555,39.4104571 90.3826907,37.4898857 90.3826907,34.3447429" id="Fill-24"></path>
            <path d="M100.298755,38.2916571 L101.778081,38.0179429 L102.009673,36.4133714 L102.009673,32.0648 L101.778081,30.4390857 L100.087749,30.1642286 L100.087749,29.5099429 L103.805794,29.1305143 L103.573631,31.0299429 C104.439383,29.7002286 105.537298,29.0665143 106.97431,29.0665143 C108.791017,29.0665143 109.973563,30.2699429 109.973563,32.3602286 L109.973563,36.4133714 L110.185141,38.0179429 L111.685053,38.2916571 L111.685053,38.9465143 L106.720417,38.9465143 L106.720417,38.2916571 L107.924693,38.0179429 L108.135698,36.4133714 L108.135698,32.8665143 C108.135698,31.4522286 107.459794,30.5025143 106.129143,30.5025143 C105.326293,30.5025143 104.735019,30.7345143 103.805794,31.7688 L103.805794,36.4133714 L104.037957,38.0179429 L105.242234,38.2916571 L105.242234,38.9465143 L100.298755,38.9465143 L100.298755,38.2916571 Z" id="Fill-26"></path>
            <path d="M112.828201,38.2916571 L114.285798,38.0179429 L114.518533,36.4133714 L114.518533,30.3973714 L112.786457,30.3973714 L112.786457,29.6368 L114.518533,29.2990857 L114.560277,27.9059429 C114.644908,25.5208 116.398141,23.7053714 118.679747,23.7053714 C119.334494,23.7053714 119.79882,23.8316571 120.264291,24.0008 L119.566657,25.7528 C119.017699,25.5419429 118.447012,25.3728 117.834581,25.3728 C116.609147,25.3728 115.912657,25.8373714 116.123663,27.3779429 L116.314082,29.5099429 L118.785536,29.5099429 L118.785536,30.3973714 L116.314082,30.3973714 L116.314082,36.4133714 L116.546246,38.0179429 L118.236006,38.2916571 L118.236006,38.9465143 L112.828201,38.9465143 L112.828201,38.2916571 Z" id="Fill-28"></path>
            <path d="M124.10791,32.6554857 L125.544349,32.4446286 C125.544349,30.7772 124.763228,29.9114857 123.600696,29.9114857 C122.418149,29.9114857 121.594141,30.7977714 121.361977,32.6554857 L124.10791,32.6554857 Z M119.502383,34.3229143 C119.502383,31.1149143 121.129242,29.0669143 123.769958,29.0669143 C125.98809,29.0669143 127.530318,30.5023429 127.445687,33.5000571 L121.340248,33.5000571 C121.340248,33.5000571 121.319662,33.7954857 121.319662,33.9646286 C121.319662,36.3497714 122.481051,38.0383429 124.720341,38.0383429 C125.396245,38.0383429 126.15678,37.8697714 126.896158,37.3206286 L127.318741,37.8903429 C126.115037,38.9886286 125.206969,39.3892 123.685899,39.3892 C121.171558,39.3892 119.502383,37.5737714 119.502383,34.3229143 L119.502383,34.3229143 Z" id="Fill-30"></path>
            <path d="M141.247228,32.6554857 L142.683668,32.4446286 C142.683668,30.7772 141.902547,29.9114857 140.740014,29.9114857 C139.556896,29.9114857 138.733459,30.7977714 138.500152,32.6554857 L141.247228,32.6554857 Z M136.641702,34.3229143 C136.641702,31.1149143 138.268561,29.0669143 140.908705,29.0669143 C143.126837,29.0669143 144.668493,30.5023429 144.584434,33.5000571 L138.479566,33.5000571 C138.479566,33.5000571 138.458409,33.7954857 138.458409,33.9646286 C138.458409,36.3497714 139.620369,38.0383429 141.859088,38.0383429 C142.535564,38.0383429 143.296099,37.8697714 144.035476,37.3206286 L144.457488,37.8903429 C143.254355,38.9886286 142.345144,39.3892 140.825217,39.3892 C138.310305,39.3892 136.641702,37.5737714 136.641702,34.3229143 L136.641702,34.3229143 Z" id="Fill-32"></path>
            <path d="M145.667196,38.2916571 L147.146523,38.0179429 L147.378686,36.4133714 L147.378686,32.0648 L147.146523,30.4390857 L145.45619,30.1642286 L145.45619,29.5099429 L149.174807,29.1305143 L148.942072,31.0299429 C149.807824,29.7002286 150.906883,29.0665143 152.343323,29.0665143 C154.159458,29.0665143 155.343148,30.2699429 155.343148,32.3602286 L155.343148,36.4133714 L155.554154,38.0179429 L157.053495,38.2916571 L157.053495,38.9465143 L152.08943,38.9465143 L152.08943,38.2916571 L153.293134,38.0179429 L153.505283,36.4133714 L153.505283,32.8665143 C153.505283,31.4522286 152.828807,30.5025143 151.498157,30.5025143 C150.695878,30.5025143 150.103461,30.7345143 149.174807,31.7688 L149.174807,36.4133714 L149.406399,38.0179429 L150.611247,38.2916571 L150.611247,38.9465143 L145.667196,38.9465143 L145.667196,38.2916571 Z" id="Fill-34"></path>
            <path d="M157.59296,34.3865143 C157.59296,31.2625143 159.389081,29.0665143 162.092698,29.0665143 C163.000766,29.0665143 163.67667,29.1722286 164.83863,29.5733714 L165.071366,32.1065143 L164.247357,32.1065143 L163.761301,30.4813714 C163.254087,30.2699429 162.662814,30.0590857 161.987481,30.0590857 C160.529884,30.0590857 159.389081,31.0722286 159.389081,33.7110857 C159.389081,36.3282286 160.55047,38.0173714 162.620498,38.0173714 C163.296402,38.0173714 164.099825,37.7848 164.83863,37.2573714 L165.302957,37.8488 C164.120411,38.8830857 162.873819,39.3893714 161.627799,39.3893714 C159.219819,39.3893714 157.59296,37.5105143 157.59296,34.3865143" id="Fill-36"></path>
            <path d="M170.881912,32.6554857 L172.318923,32.4446286 C172.318923,30.7772 171.53723,29.9114857 170.37527,29.9114857 C169.191579,29.9114857 168.368143,30.7977714 168.135408,32.6554857 L170.881912,32.6554857 Z M166.276385,34.3229143 C166.276385,31.1149143 167.903244,29.0669143 170.543388,29.0669143 C172.76152,29.0669143 174.303748,30.5023429 174.219117,33.5000571 L168.11425,33.5000571 C168.11425,33.5000571 168.093664,33.7954857 168.093664,33.9646286 C168.093664,36.3497714 169.255053,38.0383429 171.494343,38.0383429 C172.170247,38.0383429 172.930782,37.8697714 173.670732,37.3206286 L174.092743,37.8903429 C172.889039,38.9886286 171.980399,39.3892 170.459329,39.3892 C167.944988,39.3892 166.276385,37.5737714 166.276385,34.3229143 L166.276385,34.3229143 Z" id="Fill-38"></path>
            <path d="M127.45009,6.21965714 C126.250961,6.21965714 125.304581,6.89051429 124.419958,8.3768 C124.417671,8.35394286 124.413668,8.33165714 124.412524,8.3088 L124.415383,8.06251429 C124.422817,7.95508571 124.434826,7.84765714 124.446834,7.7408 C124.47371,7.50594286 124.500586,7.27165714 124.52689,7.03737143 C124.565775,6.69451429 124.604659,6.35108571 124.644116,6.0088 L120.930074,6.38765714 L120.930074,7.04137143 L122.61869,7.31565714 L122.850282,8.93908571 L122.850282,13.2819429 L122.61869,14.8848 L121.141651,15.1590857 L121.141651,15.8128 L126.563181,15.8128 L126.563181,15.1590857 L124.875707,14.8848 L124.644116,13.2819429 L124.644116,12.7773714 L124.644116,11.4065143 L124.644116,9.8848 L124.644116,9.46708571 L124.644116,9.29451429 C124.644116,9.26708571 124.645831,9.23851429 124.648119,9.20937143 C125.258834,8.45394286 126.079412,8.1808 126.711285,8.1808 C127.154454,8.1808 127.597051,8.32822857 127.956161,8.4968 L128.484533,6.36708571 C128.040792,6.2408 127.829786,6.21965714 127.45009,6.21965714" id="Fill-40"></path>
            <polygon id="Fill-42" points="0.297009014 15.158 2.00849915 14.8202857 2.21950479 12.6882857 2.21950479 5.11 2.00849915 2.978 0.297009014 2.64028571 0.297009014 2.00714286 4.85964845 2.00714286 5.93754986 5.11 9.1272231 13.406 12.4009555 5.08885714 13.3942259 2.00714286 17.9568654 2.00714286 17.9568654 2.64028571 16.266533 2.978 16.0343696 5.11 16.0343696 12.6882857 16.266533 14.8202857 17.9568654 15.158 17.9568654 15.8128571 12.1270485 15.8128571 12.1270485 15.158 13.816809 14.8202857 14.0495442 12.6882857 14.0495442 3.44257143 10.4155583 12.6882857 9.33880056 15.8128571 7.96583437 15.8128571 6.82503155 12.6882857 3.16988789 3.44257143 3.16988789 12.6882857 3.40205127 14.8202857 5.09238366 15.158 5.09238366 15.8128571 0.297009014 15.8128571"></polygon>
            <path d="M20.6760361,2.19708571 C20.6760361,1.47937143 21.2673093,0.8668 22.0072586,0.8668 C22.7249065,0.8668 23.3379093,1.45822857 23.3379093,2.21822857 C23.3379093,2.89365714 22.7883797,3.5268 22.0072586,3.5268 C21.288467,3.5268 20.6760361,2.9988 20.6760361,2.19708571 L20.6760361,2.19708571 Z M19.5781206,15.1582286 L21.0563037,14.8839429 L21.2673093,13.2793714 L21.2673093,8.9308 L21.0563037,7.30565714 L19.3659713,7.0308 L19.3659713,6.37651429 L23.2955938,5.99651429 L23.0840163,8.9308 L23.0840163,13.2793714 L23.2955938,14.8839429 L24.7737769,15.1582286 L24.7737769,15.8125143 L19.5781206,15.8125143 L19.5781206,15.1582286 Z" id="Fill-44"></path>
            <path d="M32.3042192,13.4905714 L32.3042192,7.242 C31.7129459,6.98885714 31.2480473,6.862 30.592729,6.862 C28.60676,6.862 27.5088445,8.50885714 27.5088445,11.1048571 C27.5088445,13.406 28.3540107,14.7991429 30.0014558,14.7991429 C30.7414051,14.7991429 31.5225262,14.4614286 32.3042192,13.4905714 M25.6075065,11.5488571 C25.6075065,8.25514286 27.6781065,5.93285714 30.67736,5.93285714 C31.2686332,5.93285714 31.7335318,5.99685714 32.3042192,6.12314286 L32.3042192,3.65342857 L32.0714839,2.02771429 L30.3817234,1.75342857 L30.3817234,1.09914286 L34.3319318,0.719142857 L34.0991966,3.65342857 L34.0991966,13.2791429 L34.3319318,14.8837143 L35.704898,15.158 L35.704898,15.8122857 L32.3042192,16.2557143 L32.6210135,14.2505714 C31.6489008,15.5591429 30.6567741,16.2557143 29.2620783,16.2557143 C27.1285769,16.2557143 25.6075065,14.4191429 25.6075065,11.5488571" id="Fill-46"></path>
            <path d="M43.1642617,13.4905714 L43.1642617,7.242 C42.5729885,6.98885714 42.1080899,6.862 41.4527715,6.862 C39.4668025,6.862 38.368887,8.50885714 38.368887,11.1048571 C38.368887,13.406 39.2140532,14.7991429 40.8614983,14.7991429 C41.6014476,14.7991429 42.3825687,14.4614286 43.1642617,13.4905714 M36.467549,11.5488571 C36.467549,8.25514286 38.538149,5.93285714 41.5374025,5.93285714 C42.1286758,5.93285714 42.5935744,5.99685714 43.1642617,6.12314286 L43.1642617,3.65342857 L42.9315265,2.02771429 L41.2417659,1.75342857 L41.2417659,1.09914286 L45.1919744,0.719142857 L44.9592392,3.65342857 L44.9592392,13.2791429 L45.1919744,14.8837143 L46.5649406,15.158 L46.5649406,15.8122857 L43.1642617,16.2557143 L43.4810561,14.2505714 C42.5089434,15.5591429 41.5168166,16.2557143 40.1221208,16.2557143 C37.9886194,16.2557143 36.467549,14.4191429 36.467549,11.5488571" id="Fill-48"></path>
            <polygon id="Fill-50" points="47.8985648 15.158 49.3767479 14.8837143 49.6100549 13.2791429 49.6100549 3.65342857 49.3767479 2.02771429 47.6875592 1.75342857 47.6875592 1.09914286 51.6166099 0.719142857 51.4050324 3.65342857 51.4050324 13.2791429 51.6377676 14.8837143 53.0953648 15.158 53.0953648 15.8128571 47.8985648 15.8128571"></polygon>
            <path d="M58.4579386,9.52211429 L59.8938062,9.31068571 C59.8938062,7.64325714 59.1121132,6.77754286 57.9501527,6.77754286 C56.7676062,6.77754286 55.9441696,7.6644 55.7114344,9.52211429 L58.4579386,9.52211429 Z M53.8524118,11.1895429 C53.8524118,7.98097143 55.479271,5.93297143 58.1194146,5.93297143 C60.337547,5.93297143 61.8797752,7.3684 61.7951442,10.3661143 L55.6902766,10.3661143 C55.6902766,10.3661143 55.6696907,10.6615429 55.6696907,10.8306857 C55.6696907,13.2158286 56.8310794,14.9044 59.0703696,14.9044 C59.7462738,14.9044 60.506809,14.7364 61.2456146,14.1872571 L61.6687696,14.7569714 C60.4639217,15.8546857 59.5558541,16.2558286 58.0347837,16.2558286 C55.5210146,16.2558286 53.8524118,14.4404 53.8524118,11.1895429 L53.8524118,11.1895429 Z" id="Fill-52"></path>
            <path d="M70.4646738,11.0207429 C70.4646738,8.84645714 69.5348766,7.36874286 68.1195949,7.36874286 C67.2538428,7.36874286 66.4292625,7.7276 65.6687273,8.61445714 L65.6687273,13.2790286 L65.879733,15.1161714 C66.3875189,15.2847429 66.7460569,15.3693143 67.2955865,15.3693143 C69.4719752,15.3693143 70.4646738,13.4270286 70.4646738,11.0207429 M63.8525921,15.8127429 L63.8525921,3.65331429 L63.6410146,2.02817143 L61.9518259,1.75388571 L61.9518259,1.09902857 L65.879733,0.719028571 L65.6687273,3.65331429 L65.6687273,7.62188571 C66.4504203,6.5876 67.5917949,5.93331429 68.8801301,5.93331429 C70.9084146,5.93331429 72.3231245,7.66417143 72.3231245,10.3453143 C72.3231245,13.6173143 70.3588851,16.2556 66.556209,16.2556 C65.6687273,16.2556 65.0568682,16.2556 63.8525921,15.8127429" id="Fill-54"></path>
            <path d="M74.7741065,12.9626857 L74.7741065,8.93068571 L74.5413713,7.30554286 L72.8939262,7.03125714 L72.8939262,6.3764 L76.802391,5.99697143 L76.5902417,8.93068571 L76.5902417,12.4769714 C76.5902417,13.9335429 77.2661459,14.8198286 78.5973685,14.8198286 C79.5060079,14.8198286 80.3294445,14.2718286 80.9207177,13.5535429 L80.9207177,8.93068571 L80.7097121,7.30554286 L79.062267,7.03125714 L79.062267,6.3764 L82.9695882,5.99697143 L82.7379966,8.93068571 L82.7379966,13.2792571 L82.9695882,14.8838286 L84.4906586,15.1581143 L84.4906586,15.8124 L80.9207177,16.1924 L81.153453,14.2929714 C80.1601825,15.6649714 79.2732727,16.2558286 77.7739318,16.2558286 C75.9143375,16.2558286 74.7741065,15.0735429 74.7741065,12.9626857" id="Fill-56"></path>
            <polygon id="Fill-58" points="94.9607124 20.8156571 94.9607124 20.0979429 97.0730561 19.7602286 97.9811237 18.2819429 98.8897631 16.1499429 95.9322532 8.93051429 95.0665011 7.28422857 94.1149744 7.03108571 94.1149744 6.37622857 98.7416589 6.37622857 98.7416589 7.03108571 97.3898504 7.28422857 97.8976363 8.93051429 99.7978307 13.8070857 101.572794 8.93051429 102.037121 7.28422857 100.707042 7.03108571 100.707042 6.37622857 104.508574 6.37622857 104.508574 7.03108571 103.431245 7.28422857 102.628966 8.93051429 98.0234392 21.0893714"></polygon>
            <path d="M92.1417572,6.21662857 C90.9426276,6.21662857 89.9962473,6.88748571 89.1116248,8.37377143 C89.1093375,8.35091429 89.1047628,8.32862857 89.104191,8.30577143 L89.1070501,8.05948571 C89.1144839,7.95205714 89.1264924,7.84462857 89.1385008,7.73777143 C89.1653769,7.50291429 89.192253,7.26862857 89.2185572,7.03377143 C89.2574417,6.69091429 89.2963262,6.34805714 89.3357825,6.0052 L85.6217403,6.38462857 L85.6217403,7.03834286 L87.3103572,7.31262857 L87.5419487,8.93548571 L87.5419487,13.2789143 L87.3103572,14.8817714 L85.8333177,15.1554857 L85.8333177,15.8092 L91.2548473,15.8092 L91.2548473,15.1554857 L89.5673741,14.8817714 L89.3357825,13.2789143 L89.3357825,12.7743429 L89.3357825,11.4034857 L89.3357825,9.88177143 L89.3357825,9.46405714 L89.3357825,9.29148571 C89.3357825,9.26405714 89.337498,9.23548571 89.3397854,9.20577143 C89.9505008,8.45034286 90.7710783,8.17777143 91.4029515,8.17777143 C91.8461206,8.17777143 92.2887177,8.3252 92.6478276,8.4932 L93.1761994,6.36405714 C92.7318868,6.23777143 92.521453,6.21662857 92.1417572,6.21662857" id="Fill-60"></path>
            <path d="M118.115407,11.9072 C118.115407,10.2397714 117.29197,8.99405714 114.757044,8.99405714 L113.552768,8.99405714 L113.552768,12.6883429 L113.785503,14.6723429 C114.186928,14.8414857 114.587782,14.9472 115.137311,14.9472 C116.954018,14.9472 118.115407,13.7860571 118.115407,11.9072 L118.115407,11.9072 Z M114.24983,8.08662857 C116.446804,8.08662857 117.397187,7.09405714 117.397187,5.3632 C117.397187,3.94891429 116.530863,2.89348571 114.69357,2.89348571 L113.552768,2.89348571 L113.552768,8.08662857 L114.24983,8.08662857 Z M109.68719,15.1580571 L111.355793,14.8203429 L111.588528,12.6883429 L111.588528,5.11005714 L111.355793,2.97805714 L109.68719,2.64034286 L109.68719,2.0072 L115.728585,2.0072 C118.517404,2.0072 119.531261,3.33634286 119.531261,5.1312 C119.531261,6.56662857 118.495675,7.89634286 116.721283,8.4032 C119.086948,8.36091429 120.207165,9.75405714 120.207165,11.6752 C120.207165,14.0609143 118.664937,15.8123429 114.862832,15.8123429 L109.68719,15.8123429 L109.68719,15.1580571 Z" id="Fill-62"></path>
            <path d="M133.61683,9.52211429 L135.052698,9.31068571 C135.052698,7.64325714 134.271577,6.77754286 133.109044,6.77754286 C131.926498,6.77754286 131.103061,7.6644 130.870326,9.52211429 L133.61683,9.52211429 Z M129.011303,11.1895429 C129.011303,7.98097143 130.638163,5.93297143 133.278306,5.93297143 C135.496439,5.93297143 137.038667,7.3684 136.954036,10.3661143 L130.849168,10.3661143 C130.849168,10.3661143 130.828582,10.6615429 130.828582,10.8306857 C130.828582,13.2158286 131.989971,14.9044 134.229261,14.9044 C134.905165,14.9044 135.665701,14.7364 136.404506,14.1872571 L136.827661,14.7569714 C135.623385,15.8546857 134.715317,16.2558286 133.194247,16.2558286 C130.679906,16.2558286 129.011303,14.4404 129.011303,11.1895429 L129.011303,11.1895429 Z" id="Fill-64"></path>
            <path d="M143.833849,13.3005714 L143.833849,11.2531429 C142.587257,11.2531429 141.700347,11.4217143 141.12966,11.7805714 C140.558973,12.0971429 140.263908,12.604 140.263908,13.2582857 C140.263908,14.0817143 140.834023,14.7571429 141.658032,14.7571429 C142.355094,14.7571429 143.200832,14.2291429 143.833849,13.3005714 M138.489516,13.7017143 C138.489516,12.7725714 138.89037,11.9914286 139.736108,11.3794286 C140.558973,10.7668571 141.911353,10.4508571 143.833849,10.4508571 L143.833849,9.31085714 C143.833849,7.98114286 143.03157,7.2 141.742091,7.2 C140.96097,7.2 140.178705,7.51657143 139.482215,8.14971429 L138.954415,7.57942857 C139.904226,6.50285714 141.193705,5.82742857 142.693046,5.82742857 C144.383378,5.82742857 145.60824,6.73542857 145.60824,8.82514286 L145.60824,13.2794286 L145.840975,14.884 L147.256257,15.1577143 L147.256257,15.8125714 L143.792105,16.1925714 L144.172373,13.8708571 C143.390108,15.3062857 142.376252,16.2554286 140.93924,16.2554286 C139.545688,16.2554286 138.489516,15.3062857 138.489516,13.7017143" id="Fill-66"></path>
            <path d="M154.71482,13.4905714 L154.71482,7.242 C154.122403,6.98885714 153.658077,6.862 153.00333,6.862 C151.017361,6.862 149.918874,8.50885714 149.918874,11.1048571 C149.918874,13.406 150.764612,14.7991429 152.412057,14.7991429 C153.150863,14.7991429 153.932555,14.4614286 154.71482,13.4905714 M148.017536,11.5488571 C148.017536,8.25514286 150.088136,5.93285714 153.087961,5.93285714 C153.679234,5.93285714 154.144133,5.99685714 154.71482,6.12314286 L154.71482,3.65342857 L154.482085,2.02771429 L152.792325,1.75342857 L152.792325,1.09914286 L156.742533,0.719142857 L156.509798,3.65342857 L156.509798,13.2797143 L156.742533,14.8837143 L158.115499,15.158 L158.115499,15.8122857 L154.71482,16.2557143 L155.031615,14.2505714 C154.059502,15.5591429 153.066232,16.2557143 151.672679,16.2557143 C149.538606,16.2557143 148.017536,14.4191429 148.017536,11.5488571" id="Fill-68"></path>
            <polygon id="Fill-70" points="163.42129 15.158 165.132208 14.8202857 165.343214 12.6882857 165.343214 5.11 165.132208 2.978 163.42129 2.64028571 163.42129 2.00714286 169.251107 2.00714286 169.251107 2.64028571 167.540761 2.978 167.328611 5.11 167.328611 12.6671429 167.540761 14.546 169.166476 14.8837143 170.518285 14.8837143 172.314406 14.546 172.779304 12.4774286 173.687372 12.4774286 173.476366 15.8128571 163.42129 15.8128571"></polygon>
            <path d="M182.069442,11.0416571 C182.069442,8.23422857 181.161374,6.7988 179.492772,6.7988 C177.802439,6.7988 176.872642,8.12851429 176.872642,11.0633714 C176.872642,13.9336571 177.781853,15.3690857 179.429298,15.3690857 C181.119059,15.3690857 182.069442,13.9759429 182.069442,11.0416571 M174.823772,11.2108 C174.823772,8.17137143 176.471788,5.91194286 179.59856,5.91194286 C182.302177,5.91194286 184.097726,7.72737143 184.097726,11.0205143 C184.097726,14.2290857 182.175231,16.2770857 179.365253,16.2770857 C176.661636,16.2770857 174.823772,14.3559429 174.823772,11.2108" id="Fill-72"></path>
            <path d="M190.564277,13.3005714 L190.564277,11.2531429 C189.317686,11.2531429 188.430776,11.4217143 187.860088,11.7805714 C187.289401,12.0971429 186.994336,12.604 186.994336,13.2582857 C186.994336,14.0817143 187.564452,14.7571429 188.38846,14.7571429 C189.085522,14.7571429 189.93126,14.2291429 190.564277,13.3005714 M185.219945,13.7017143 C185.219945,12.7725714 185.620798,11.9914286 186.466536,11.3794286 C187.289401,10.7668571 188.641781,10.4508571 190.564277,10.4508571 L190.564277,9.31085714 C190.564277,7.98114286 189.761998,7.2 188.472519,7.2 C187.691398,7.2 186.909134,7.51657143 186.212643,8.14971429 L185.684843,7.57942857 C186.634655,6.50285714 187.924134,5.82742857 189.423474,5.82742857 C191.113807,5.82742857 192.338669,6.73542857 192.338669,8.82514286 L192.338669,13.2794286 L192.571404,14.884 L193.986686,15.1577143 L193.986686,15.8125714 L190.522534,16.1925714 L190.902801,13.8708571 C190.120536,15.3062857 189.10668,16.2554286 187.669669,16.2554286 C186.276117,16.2554286 185.219945,15.3062857 185.219945,13.7017143" id="Fill-74"></path>
            <path d="M195.076367,15.158 L196.533964,14.8837143 L196.766127,13.2797143 L196.766127,7.26314286 L195.034051,7.26314286 L195.034051,6.50314286 L196.766127,6.16542857 L196.808443,4.77228571 C196.893646,2.38714286 198.646308,0.571714286 200.927341,0.571714286 C201.58266,0.571714286 202.046986,0.698 202.512457,0.867142857 L201.815395,2.61914286 C201.265865,2.40828571 200.695178,2.23914286 200.083319,2.23914286 C198.857313,2.23914286 198.160823,2.70371429 198.371829,4.24428571 L198.562248,6.37628571 L201.03313,6.37628571 L201.03313,7.26314286 L198.562248,7.26314286 L198.562248,13.2797143 L198.79384,14.8837143 L200.484172,15.158 L200.484172,15.8128571 L195.076367,15.8128571 L195.076367,15.158 Z" id="Fill-76"></path>
        </g>
        <g id="shield-use-copy-4">
            <path d="M1.62675,1.62675 L1.62675,32.981625 C1.62675,33.0345 1.702125,38.66175 5.585625,46.0395 C9.147375,52.808625 16.731,62.470125 32.652,70.1955 C48.585375,62.467875 56.158875,52.806375 59.709375,46.038375 C63.5805,38.66175 63.64125,33.035625 63.64125,32.9805 L63.64125,1.62675 L1.62675,1.62675 Z" id="Path" fill="#FFFFFF"></path>
            <path d="M1.62675,1.62675 L1.62675,32.981625 C1.62675,33.0345 1.702125,38.66175 5.585625,46.0395 C9.147375,52.808625 16.731,62.470125 32.652,70.1955 C48.585375,62.467875 56.158875,52.806375 59.709375,46.038375 C63.5805,38.66175 63.64125,33.035625 63.64125,32.9805 L63.64125,1.62675 L1.62675,1.62675 Z M32.652,72 L32.299875,71.83125 C15.6825,63.860625 7.790625,53.766 4.095,46.701 C0.061875,38.989125 -9.9475983e-14,33.224625 -9.9475983e-14,32.983875 L-9.9475983e-14,0 L65.266875,0 L65.266875,32.981625 C65.266875,33.222375 65.221875,38.98575 61.201125,46.697625 C57.51675,53.7615 49.633875,63.85725 33.003,71.83125 L32.652,72 Z M20.8918125,12.2576625 L19.1289375,12.2576625 C18.8465625,11.3801625 18.4798125,10.6084125 18.0455625,9.9795375 C19.1806875,10.4824125 20.1571875,11.2732875 20.8918125,12.2576625 Z M15.7633875,9.518175 C16.5576375,9.8523 17.3226375,10.8243 17.8491375,12.25755 L15.7633875,12.25755 L15.7633875,9.518175 Z M11.7820125,15.9204375 C11.8168875,15.0328125 11.9282625,14.2138125 12.0981375,13.4780625 L14.5438875,13.4780625 L14.5438875,15.9204375 L11.7820125,15.9204375 Z M12.4581375,12.2576625 C12.9846375,10.8244125 13.7496375,9.8524125 14.5438875,9.5182875 L14.5438875,12.2576625 L12.4581375,12.2576625 Z M12.0983625,19.5838875 C11.9284875,18.8470125 11.8171125,18.0280125 11.7822375,17.1403875 L14.5441125,17.1403875 L14.5441125,19.5838875 L12.0983625,19.5838875 Z M14.5438875,23.543325 C13.7496375,23.2092 12.9846375,22.2372 12.4581375,20.80395 L14.5438875,20.80395 L14.5438875,23.543325 Z M10.5625125,17.1405 C10.5951375,18.001125 10.6963875,18.820125 10.8572625,19.584 L8.6815125,19.584 C8.3248875,18.83025 8.0942625,18.009 8.0200125,17.1405 L10.5625125,17.1405 Z M18.2084625,13.4776125 C18.3794625,14.2144875 18.4897125,15.0334875 18.5257125,15.9199875 L15.7638375,15.9199875 L15.7638375,13.4776125 L18.2084625,13.4776125 Z M10.8563625,13.4776125 C10.6954875,14.2414875 10.5953625,15.0604875 10.5627375,15.9199875 L8.0202375,15.9199875 C8.0933625,15.0526125 8.3251125,14.2302375 8.6817375,13.4776125 L10.8563625,13.4776125 Z M9.4165875,20.8038375 L11.1783375,20.8038375 C11.4607125,21.6802125 11.8274625,22.4519625 12.2617125,23.0797125 C11.1265875,22.5768375 10.1500875,21.7870875 9.4165875,20.8038375 Z M19.7454375,15.9204375 C19.7116875,15.0598125 19.6115625,14.2408125 19.4506875,13.4780625 L21.6264375,13.4780625 C21.9830625,14.2306875 22.2136875,15.0530625 22.2879375,15.9204375 L19.7454375,15.9204375 Z M12.2610375,9.9806625 C11.8267875,10.6095375 11.4611625,11.3801625 11.1787875,12.2576625 L9.4159125,12.2576625 C10.1505375,11.2744125 11.1270375,10.4835375 12.2610375,9.9806625 Z M19.4504625,19.5838875 C19.6113375,18.8200125 19.7114625,18.0010125 19.7452125,17.1403875 L22.2877125,17.1403875 C22.2145875,18.0088875 21.9817125,18.8312625 21.6262125,19.5838875 L19.4504625,19.5838875 Z M18.5259375,17.1405 C18.4899375,18.028125 18.3796875,18.847125 18.2086875,19.584 L15.7629375,19.584 L15.7629375,17.1405 L18.5259375,17.1405 Z M15.7633875,23.5427625 L15.7633875,20.8033875 L17.8491375,20.8033875 C17.3226375,22.2366375 16.5576375,23.2075125 15.7633875,23.5427625 Z M18.0453375,23.0808375 C18.4795875,22.4519625 18.8452125,21.6813375 19.1287125,20.8038375 L20.8915875,20.8038375 C20.1569625,21.7870875 19.1804625,22.5779625 18.0453375,23.0808375 Z M57.6196875,20.2365 L57.6196875,11.383875 L56.4001875,11.383875 L56.4001875,19.537875 L49.8009375,23.407875 L43.1971875,19.537875 L43.1971875,11.383875 L41.9765625,11.383875 L41.9765625,20.2365 L49.8009375,24.822 L57.6196875,20.2365 Z M44.4268125,10.609875 C44.3806875,10.557 44.4268125,18.786375 44.4268125,18.786375 C44.4268125,18.786375 47.6814375,18.83925 49.1428125,21.53025 L49.1428125,13.35375 C47.6814375,10.66275 44.4268125,10.609875 44.4268125,10.609875 Z M50.3544375,13.4235 L50.3544375,21.6 C51.8315625,18.909 55.1199375,18.85725 55.1199375,18.85725 C55.1199375,18.85725 55.1683125,10.627875 55.1199375,10.68075 C55.1199375,10.68075 51.8315625,10.733625 50.3544375,13.4235 Z M39.7119375,26.028 L39.7119375,24.604875 L37.5665625,24.604875 L37.5665625,17.6085 L27.6991875,17.6085 L27.6991875,24.604875 L25.5560625,24.604875 L25.5560625,26.028 L39.7119375,26.028 Z M15.1543125,24.915375 C19.7769375,24.915375 23.5389375,21.153375 23.5389375,16.53075 C23.5389375,11.907 19.7769375,8.145 15.1543125,8.145 C10.5305625,8.145 6.7685625,11.907 6.7685625,16.53075 C6.7685625,21.153375 10.5305625,24.915375 15.1543125,24.915375 Z M33.3455625,3.614625 L61.2725625,3.614625 L61.2725625,32.113125 C61.2725625,32.113125 61.2703125,34.072875 60.4771875,37.184625 C60.0856875,37.1655 59.6458125,37.14525 59.0416875,37.117125 C56.6949375,37.004625 54.7599375,37.488375 52.5628125,37.15425 C50.3668125,36.819 48.4678125,34.808625 45.3774375,34.2495 C43.1454375,33.84675 41.2993125,33.773625 38.8209375,33.849 L38.8209375,27.239625 L26.4470625,27.239625 L26.4470625,33.63975 C26.0645625,33.625125 25.6753125,33.61725 25.2725625,33.61725 C21.7715625,33.61725 20.4316875,32.648625 16.7833125,32.648625 C13.1349375,32.648625 7.6246875,34.43625 4.5714375,35.478 C4.5219375,35.494875 4.4724375,35.51175 4.4240625,35.528625 C3.9999375,33.3945 3.9954375,32.113125 3.9954375,32.113125 L3.9954375,3.614625 L31.9224375,3.614625 L31.9224375,4.428 C31.3014375,4.694625 30.8638125,5.284125 30.8638125,5.981625 C30.8638125,6.676875 31.3014375,7.2675 31.9224375,7.533 L31.9224375,8.519625 C30.9886875,8.861625 29.3068125,9.680625 28.5384375,11.334375 C27.8184375,12.88575 27.6868125,14.229 27.6800625,14.96475 L27.0174375,14.96475 L27.0174375,16.387875 L38.2505625,16.387875 L38.2505625,14.96475 L37.5879375,14.96475 C37.5800625,14.229 37.4484375,12.88575 36.7284375,11.334375 C35.9600625,9.67725 34.2770625,8.861625 33.3455625,8.52075 L33.3455625,7.534125 C33.9654375,7.268625 34.4030625,6.676875 34.4030625,5.981625 C34.4030625,5.284125 33.9654375,4.6935 33.3455625,4.426875 L33.3455625,3.614625 Z M33.4085625,5.9821875 C33.4085625,6.3860625 33.0620625,6.7145625 32.6345625,6.7145625 C32.2059375,6.7145625 31.8594375,6.3860625 31.8594375,5.9821875 C31.8594375,5.5749375 32.2059375,5.2464375 32.6345625,5.2464375 C33.0620625,5.2464375 33.4085625,5.5749375 33.4085625,5.9821875 Z M31.314375,33.0658875 L31.314375,28.5017625 L33.9525,28.5017625 L33.9525,33.0658875 L31.314375,33.0658875 Z M31.314375,23.0578875 L31.314375,18.9628875 L33.9525,18.9628875 L33.9525,23.0578875 L31.314375,23.0578875 Z M29.080125,23.0556375 L29.080125,18.9685125 L29.8935,18.9685125 L29.8935,23.0556375 L29.080125,23.0556375 Z M35.37225,23.0556375 L35.37225,18.9685125 L36.185625,18.9685125 L36.185625,23.0556375 L35.37225,23.0556375 Z M24.14475,36.2777625 L24.14475,35.0582625 L41.122125,35.0582625 L41.122125,36.2777625 L24.14475,36.2777625 Z M27.46125,41.6957625 L37.80675,41.6957625 L37.80675,39.2241375 L27.46125,39.2241375 L27.46125,41.6957625 Z M26.240625,42.9163875 L26.240625,38.0046375 L39.02625,38.0046375 L39.02625,42.9163875 L26.240625,42.9163875 Z M24.3981,40.1256 L24.3981,42.048225 L11.22885,50.35185 C10.899225,49.90635 10.584225,49.46535 10.28385,49.025475 L24.3981,40.1256 Z M40.868325,42.1174125 L40.868325,40.1925375 L54.9612,49.0991625 C54.6597,49.5390375 54.3447,49.9800375 54.01395,50.4255375 L40.868325,42.1174125 Z M30.8525625,54.6109875 C31.0303125,54.7471125 31.1180625,54.9406125 31.1180625,55.1903625 C31.1180625,55.6639875 30.7321875,55.9936125 30.1696875,55.9936125 C29.5419375,55.9936125 29.1403125,55.6313625 29.1403125,55.0688625 C29.1403125,54.6031125 29.4215625,54.2813625 29.8153125,54.0721125 C30.3384375,54.2892375 30.6511875,54.4501125 30.8525625,54.6109875 Z M30.1768875,53.32455 C29.8000125,53.17155 29.2442625,52.90605 29.2442625,52.439175 C29.2442625,52.0218 29.5817625,51.74055 30.0970125,51.74055 C30.6358875,51.74055 30.9497625,51.99705 30.9497625,52.423425 C30.9497625,52.866675 30.5301375,53.1468 30.1768875,53.32455 Z M33.9336,52.4395125 C34.085475,52.0142625 34.32735,51.7645125 34.641225,51.7645125 C34.994475,51.7645125 35.26785,52.0052625 35.42085,52.6318875 C35.50185,52.9783875 35.541225,53.3395125 35.541225,53.8626375 C35.541225,54.4026375 35.49285,54.8605125 35.38935,55.2058875 C35.2431,55.6727625 34.97085,55.9618875 34.632225,55.9618875 C34.294725,55.9618875 34.0056,55.6963875 33.860475,55.0697625 C33.788475,54.7727625 33.7491,54.3542625 33.7491,53.8142625 C33.7491,53.2427625 33.804225,52.7848875 33.9336,52.4395125 Z M39.1275,56.621475 C40.253625,56.621475 41.025375,55.512225 41.025375,53.8461 C41.025375,52.6806 40.5765,51.0966 39.1365,51.0966 C38.066625,51.0966 37.26225,52.238475 37.26225,53.822475 C37.26225,54.972225 37.71225,56.621475 39.1275,56.621475 Z M34.62525,56.621475 C35.751375,56.621475 36.523125,55.512225 36.523125,53.8461 C36.523125,52.6806 36.072,51.0966 34.632,51.0966 C33.56325,51.0966 32.758875,52.238475 32.758875,53.822475 C32.758875,54.972225 33.208875,56.621475 34.62525,56.621475 Z M30.08025,56.652975 C31.005,56.652975 32.09175,56.074725 32.09175,55.037475 C32.09175,54.369225 31.60125,53.98335 30.8205,53.6616 C31.375125,53.453475 31.890375,53.082225 31.890375,52.4241 C31.890375,51.635475 31.190625,51.0966 30.177,51.0966 C29.300625,51.0966 28.35225,51.498225 28.35225,52.519725 C28.35225,53.0586 28.72125,53.550225 29.212875,53.750475 C28.61775,53.959725 28.182375,54.48285 28.182375,55.134225 C28.182375,56.1951 29.156625,56.652975 30.08025,56.652975 Z M27.40275,56.5011 L27.40275,55.7856 L26.65575,55.7856 L26.65575,51.18435 L26.028,51.18435 L24.411375,52.319475 L24.6285,52.7931 C24.72525,52.760475 25.02225,52.632225 25.239375,52.5276 C25.4565,52.4241 25.70625,52.263225 25.786125,52.213725 L25.786125,55.7856 L24.8535,55.7856 L24.8535,56.5011 L27.40275,56.5011 Z M40.869,44.518725 L52.78725,51.984225 C48.54825,57.18285 42.1875,62.60535 32.6385,67.17735 C23.112,62.61435 16.756875,57.201975 12.51225,52.0101 L24.427125,44.54685 L40.869,44.54685 L40.869,44.518725 Z M39.143925,51.7645125 C39.497175,51.7645125 39.77055,52.0052625 39.92355,52.6318875 C40.00455,52.9783875 40.043925,53.3395125 40.043925,53.8626375 C40.043925,54.4026375 39.996675,54.8605125 39.89205,55.2058875 C39.746925,55.6727625 39.47355,55.9618875 39.13605,55.9618875 C38.797425,55.9618875 38.5083,55.6963875 38.3643,55.0697625 C38.291175,54.7727625 38.2518,54.3542625 38.2518,53.8142625 C38.2518,53.2427625 38.306925,52.7848875 38.4363,52.4395125 C38.5893,52.0142625 38.83005,51.7645125 39.143925,51.7645125 Z" id="Shape" fill="#0D395F"></path>
        </g>
    </g>
</svg>