<svg width="287" height="13" viewBox="0 0 287 13" fill="none" xmlns="http://www.w3.org/2000/svg">
<path d="M5.12738 2.02336V12.5181H3.91397V2.02336H0V0.968262H8.94517L9.10054 2.02336H5.12738Z" fill="white"/>
<path d="M19.466 12.5244V6.99571H12.7183V12.5244H11.5049V0.974609H12.7183V5.96171H19.466V0.974609H20.6794V12.5244H19.466Z" fill="white"/>
<path d="M24.6523 12.5244V0.974609H30.9931V2.02971H25.8657V5.96171H29.9203L30.0979 7.00274H25.8731V11.4764H31.1781V12.5315H24.6597L24.6523 12.5244Z" fill="white"/>
<path d="M44.518 12.743C41.2255 12.743 39.0059 10.3303 39.0059 6.76407C39.0059 3.19783 41.2625 0.75 44.6068 0.75C45.9829 0.75 47.1076 1.13687 48.025 1.73476L47.8326 2.90944C46.8782 2.24121 45.8276 1.79103 44.592 1.79103C41.9136 1.79103 40.2563 3.80275 40.2563 6.7289C40.2563 9.65504 41.9284 11.6879 44.5698 11.6879C45.872 11.6879 47.0558 11.2025 48.0398 10.485L48.2174 11.5894C47.2999 12.2435 45.9607 12.743 44.518 12.743Z" fill="white"/>
<path d="M55.4462 0.904053H56.6966L61.454 12.3906L60.2554 12.6438L58.7091 8.78917H53.4041L51.9096 12.5242H50.6592L55.4462 0.904053ZM53.8259 7.76924H58.28L56.0455 2.24051L53.8259 7.76924Z" fill="white"/>
<path d="M76.3256 12.5244L75.5339 2.61353L71.324 12.5948H70.3547L66.1448 2.61353L65.3531 12.5244H64.2285L65.1978 0.974609H66.6923L70.8653 11.0543L75.0604 0.974609H76.5401L77.5094 12.5244H76.333H76.3256Z" fill="white"/>
<path d="M84.1169 7.64987H82.6001V12.5244H81.3867V0.974609H84.3832C86.8692 0.974609 88.3786 2.14929 88.3786 4.22432C88.3786 6.50333 86.6029 7.65691 84.1169 7.65691V7.64987ZM84.3092 1.9875H82.6001V6.62291H84.1687C86.0184 6.62291 87.143 5.8562 87.143 4.24542C87.143 2.75421 86.159 1.9875 84.3092 1.9875Z" fill="white"/>
<path d="M93.8017 0.904053H95.0521L99.8095 12.3906L98.6109 12.6438L97.0646 8.78917H91.7596L90.265 12.5242H89.0146L93.8017 0.904053ZM92.1813 7.76924H96.6354L94.401 2.24051L92.1813 7.76924Z" fill="white"/>
<path d="M102.77 12.5244V0.974609H103.983V12.5244H102.77Z" fill="white"/>
<path d="M113.135 12.743C109.539 12.743 107.431 10.2951 107.431 6.76407C107.431 3.233 109.636 0.75 113.032 0.75C114.526 0.75 115.688 1.13687 116.627 1.75586L116.413 2.94461C115.518 2.25527 114.408 1.79103 113.017 1.79103C110.301 1.79103 108.681 3.76758 108.681 6.75C108.681 9.73242 110.301 11.709 113.157 11.709C114.304 11.709 115.133 11.4417 115.939 10.9704V7.52374H113.017L112.839 6.46864H117.138V11.5753C116.013 12.2787 114.711 12.75 113.143 12.75L113.135 12.743Z" fill="white"/>
<path d="M129.124 12.5244L122.029 2.79642V12.5244H120.882V0.974609H122.029L128.917 10.4002V0.974609H130.064V12.5244H129.132H129.124Z" fill="white"/>
<path d="M140.481 2.02267V6.1446H144.395L144.573 7.18563H140.489V12.5244H139.275V0.974609H145.372V2.02971H140.496L140.481 2.02267Z" fill="white"/>
<path d="M153.03 12.743C149.789 12.743 147.569 10.2951 147.569 6.76407C147.569 3.233 149.826 0.75 153.067 0.75C156.307 0.75 158.542 3.19783 158.542 6.7289C158.542 10.26 156.307 12.743 153.03 12.743ZM153.044 1.79103C150.492 1.79103 148.82 3.80275 148.82 6.7289C148.82 9.65504 150.514 11.7019 153.067 11.7019C155.619 11.7019 157.291 9.69021 157.291 6.76407C157.291 3.83792 155.597 1.79103 153.044 1.79103Z" fill="white"/>
<path d="M168.648 12.6445L164.771 7.48863H163.166V12.532H161.952V0.982178H165.037C167.449 0.982178 168.944 2.17092 168.944 4.16154C168.944 5.95521 167.694 7.01031 166.11 7.34091L169.913 12.3984L168.648 12.6516V12.6445ZM164.971 1.99507H163.173V6.49683H164.756C166.569 6.49683 167.716 5.67386 167.716 4.21782C167.716 2.76178 166.784 1.98804 164.971 1.98804V1.99507Z" fill="white"/>
<path d="M189.743 12.5244L188.951 2.61353L184.741 12.5948H183.772L179.562 2.61353L178.77 12.5244H177.646L178.615 0.974609H180.109L184.282 11.0543L188.477 0.974609H189.957L190.926 12.5244H189.743Z" fill="white"/>
<path d="M194.633 12.5244V0.974609H195.846V12.5244H194.633Z" fill="white"/>
<path d="M203.12 12.5244H199.864V0.974609H203.172C207.219 0.974609 209.498 3.30286 209.498 6.73545C209.498 10.168 207.034 12.5315 203.12 12.5315V12.5244ZM203.186 2.00861H201.07V11.4834H203.186C206.272 11.4834 208.24 9.90778 208.24 6.74248C208.24 3.57719 206.212 2.00157 203.186 2.00157V2.00861Z" fill="white"/>
<path d="M216.104 12.5244H212.849V0.974609H216.163C220.21 0.974609 222.489 3.30286 222.489 6.73545C222.489 10.168 220.025 12.5315 216.112 12.5315L216.104 12.5244ZM216.171 2.00861H214.055V11.4834H216.171C219.256 11.4834 221.224 9.90778 221.224 6.74248C221.224 3.57719 219.197 2.00157 216.171 2.00157V2.00861Z" fill="white"/>
<path d="M225.826 12.5244V0.974609H227.04V11.4553H231.723L231.901 12.5244H225.826Z" fill="white"/>
<path d="M234.713 12.5244V0.974609H241.054V2.02971H235.926V5.96171H239.981L240.158 7.00274H235.934V11.4764H241.239V12.5315H234.72L234.713 12.5244Z" fill="white"/>
<path d="M247.608 12.5244H244.812V0.974609H247.63C250.131 0.974609 251.382 2.12819 251.382 3.85151C251.382 5.0895 250.642 5.94765 249.532 6.37672C250.975 6.76359 251.929 7.64987 251.929 9.19032C251.929 11.399 250.22 12.5244 247.616 12.5244H247.608ZM247.593 1.97344H246.01V5.98985H247.556C249.28 5.98985 250.183 5.10356 250.183 3.89372C250.183 2.68387 249.34 1.9664 247.593 1.9664V1.97344ZM247.645 6.94647H246.01V11.5186H247.719C249.569 11.5186 250.731 10.6956 250.731 9.26066C250.731 7.68504 249.547 6.94647 247.645 6.94647Z" fill="white"/>
<path d="M259.543 12.7073C256.687 12.7073 255 10.8996 255 8.20556V0.974609H256.213V8.05784C256.213 10.2032 257.323 11.6733 259.558 11.6733C261.792 11.6733 262.924 10.3158 262.924 8.12115V0.974609H264.138V8.12115C264.138 10.9207 262.391 12.7073 259.543 12.7073Z" fill="white"/>
<path d="M274.666 12.6445L270.789 7.48863H269.183V12.532H267.97V0.982178H271.055C273.467 0.982178 274.962 2.17092 274.962 4.16154C274.962 5.95521 273.711 7.01031 272.128 7.34091L275.931 12.3984L274.666 12.6516V12.6445ZM270.988 1.99507H269.191V6.49683H270.774C272.587 6.49683 273.733 5.67386 273.733 4.21782C273.733 2.76178 272.801 1.98804 270.988 1.98804V1.99507Z" fill="white"/>
<path d="M282.627 7.73423V12.5244H281.414V7.73423L277.115 1.0871L278.366 0.85498L282.05 6.70023L285.624 0.97456H287L282.635 7.74126L282.627 7.73423Z" fill="white"/>
</svg>
