<svg width="293" height="25" viewBox="0 0 293 25" fill="none" xmlns="http://www.w3.org/2000/svg">
<path d="M1.63277 2.6655V11.8453H9.55476L9.79665 13.3206H1.63277V24.3184H0V1.19019H11.3916V2.6655H1.63277Z" fill="white"/>
<path d="M24.991 24.75C18.9739 24.75 14.582 19.7876 14.582 12.7835C14.582 5.77949 19.0419 0.75 25.0666 0.75C31.0912 0.75 35.4755 5.71243 35.4755 12.7165C35.4755 19.7205 31.0232 24.75 24.9985 24.75H24.991ZM24.991 2.18806C19.8205 2.18806 16.2828 6.54696 16.2828 12.7165C16.2828 18.886 19.8508 23.3119 25.059 23.3119C30.2673 23.3119 33.7671 18.953 33.7671 12.7835C33.7671 6.61402 30.1992 2.18806 24.991 2.18806Z" fill="white"/>
<path d="M54.1686 24.5494L46.3827 13.9539H42.7089V24.311H41.0762V1.19019H46.617C51.2054 1.19019 53.9947 3.60434 53.9947 7.42676C53.9947 11.0107 51.2735 13.1939 48.212 13.7602L55.8996 24.1843L54.1686 24.5494ZM46.5188 2.62825H42.7089V12.5531H46.0728C49.8826 12.5531 52.2939 10.6456 52.2939 7.49382C52.2939 4.342 50.321 2.6357 46.5112 2.6357L46.5188 2.62825Z" fill="white"/>
<path d="M65.2891 24.3184V1.19019H78.9258V4.93809H69.7414V10.4668H76.8168L77.429 14.1849H69.7414V20.5556H79.2659V24.311H65.2891V24.3184Z" fill="white"/>
<path d="M94.3685 24.4522H89.8103L81.2383 1.75614L85.9627 0.951416L92.252 18.685L98.3824 1.18985H103.107L94.3685 24.4522Z" fill="white"/>
<path d="M106.304 24.3184V1.19019H119.94V4.93809H110.756V10.4668H117.831L118.444 14.1849H110.756V20.5556H120.281V24.311H106.304V24.3184Z" fill="white"/>
<path d="M136.843 24.3408L130.417 15.4665H128.513V24.3184H124.022V1.19019H131.302C136.54 1.19019 139.7 3.63415 139.7 8.12716C139.7 11.51 137.863 13.6261 134.938 14.632L141.809 24.3184L136.843 24.3482V24.3408ZM130.962 4.73691H128.482V12.0837H130.758C133.547 12.0837 135.278 10.7798 135.278 8.3656C135.278 5.95144 133.781 4.74436 130.962 4.74436V4.73691Z" fill="white"/>
<path d="M153.912 15.4662V24.3181H149.391V15.5034L141.197 1.68907L145.891 0.951416L151.772 11.3755L157.487 1.1824H162.386L153.919 15.4587L153.912 15.4662Z" fill="white"/>
<path d="M177.482 6.81577V10.5339H183.196L184.149 16.1296H177.482V24.311H170.58V1.19019H185.411V6.82322H177.489L177.482 6.81577Z" fill="white"/>
<path d="M197.815 24.6537C192.07 24.6537 187.784 21.8074 187.784 14.9971V1.19019H194.754V15.1014C194.754 17.6497 195.94 18.9909 197.913 18.9909C200.022 18.9909 201.043 17.5826 201.043 15.1685V1.19019H208.012V14.9971C208.012 21.7329 203.492 24.6537 197.808 24.6537H197.815Z" fill="white"/>
<path d="M223.561 6.88283V24.3184H216.592V6.88283H210.303V1.19019H229.178L230.13 6.89028H223.569L223.561 6.88283Z" fill="white"/>
<path d="M242.029 24.6537C236.284 24.6537 231.998 21.8074 231.998 14.9971V1.19019H238.968V15.1014C238.968 17.6497 240.154 18.9909 242.127 18.9909C244.236 18.9909 245.257 17.5826 245.257 15.1685V1.19019H252.226V14.9971C252.226 21.7329 247.706 24.6537 242.021 24.6537H242.029Z" fill="white"/>
<path d="M267.813 24.3408L263.587 17.143H262.536V24.3184H255.635V1.19019H264.615C270.67 1.19019 274.14 3.83533 274.14 8.79776C274.14 11.9123 272.711 14.1253 270.058 15.4665L275.787 24.3408H267.82H267.813ZM263.859 6.18242H262.468V12.3817H263.897C266.142 12.3817 267.367 11.2417 267.367 9.20012C267.367 7.15852 266.112 6.18242 263.867 6.18242H263.859Z" fill="white"/>
<path d="M277.224 24.3184V1.19019H292.698V6.58478H284.028V9.90052H290.589L291.436 15.2281H284.02V18.9164H293V24.311H277.217L277.224 24.3184Z" fill="white"/>
</svg>
