<?xml version="1.0" encoding="UTF-8"?>
<svg width="180px" height="72px" viewBox="0 0 180 72" version="1.1" xmlns="http://www.w3.org/2000/svg" xmlns:xlink="http://www.w3.org/1999/xlink">
    <!-- Generator: Sketch 54.1 (76490) - https://sketchapp.com -->
    <title>college-logo</title>
    <desc>Created with Sketch.</desc>
    <g id="college-logo" stroke="none" stroke-width="1" fill="none" fill-rule="evenodd">
        <g id="Group-2-Copy" transform="translate(77.000000, 9.000000)" fill="#000000">
            <polygon id="Fill-1" points="0.309987913 14.2107268 1.98259261 13.8783483 2.18880415 11.7800334 2.18880415 4.32148269 1.98259261 2.22316776 0.309987913 1.89078928 0.309987913 1.26764992 4.76896315 1.26764992 5.82237439 4.32148269 8.93957753 12.486408 12.13893 4.30067389 13.1096331 1.26764992 17.5686083 1.26764992 17.5686083 1.89078928 15.9166806 2.22316776 15.6897921 4.32148269 15.6897921 11.7800334 15.9166806 13.8783483 17.5686083 14.2107268 17.5686083 14.8552374 11.8712462 14.8552374 11.8712462 14.2107268 13.5220561 13.8783483 13.7495036 11.7800334 13.7495036 2.68039908 10.1986415 11.7800334 9.1463479 14.8552374 7.80457581 14.8552374 6.68969229 11.7800334 3.11759433 2.68039908 3.11759433 11.7800334 3.3444829 13.8783483 4.99641056 14.2107268 4.99641056 14.8552374 0.309987913 14.8552374"></polygon>
            <path d="M20.2259429,1.45459173 C20.2259429,0.748217149 20.8037823,0.145324197 21.526361,0.145324197 C22.2282626,0.145324197 22.8273378,0.727970744 22.8273378,1.47540053 C22.8273378,2.1401575 22.2902937,2.76329686 21.526361,2.76329686 C20.8239005,2.76329686 20.2259429,2.24363913 20.2259429,1.45459173 L20.2259429,1.45459173 Z M19.1524135,14.2109517 L20.5975708,13.9409997 L20.8037823,12.3617801 L20.8037823,8.081915 L20.5975708,6.482449 L18.9456431,6.21193453 L18.9456431,5.56798637 L22.7854249,5.19455267 L22.5792134,8.081915 L22.5792134,12.3617801 L22.7854249,13.9409997 L24.2305822,14.2109517 L24.2305822,14.8548999 L19.1524135,14.8548999 L19.1524135,14.2109517 Z" id="Fill-2"></path>
            <path d="M31.5899311,12.5696994 L31.5899311,6.41985386 C31.0120917,6.1707106 30.5571969,6.04642017 29.9173264,6.04642017 C27.976479,6.04642017 26.9029496,7.66669498 26.9029496,10.2216788 C26.9029496,12.4864642 27.7294723,13.8581581 29.339487,13.8581581 C30.0626245,13.8581581 30.8259984,13.5252173 31.5899311,12.5696994 M25.0448104,10.6586637 C25.0448104,7.41698931 27.0683659,5.13195754 30.0000345,5.13195754 C30.5778739,5.13195754 31.0322099,5.19438395 31.5899311,5.31867438 L31.5899311,2.88798097 L31.3624837,1.28795257 L29.7111149,1.0185629 L29.7111149,0.374052334 L33.5715737,5.62400142e-05 L33.3441263,2.88798097 L33.3441263,12.3616114 L33.5715737,13.940831 L34.9133458,14.210783 L34.9133458,14.8547312 L31.5899311,15.2911537 L31.8995278,13.3176916 C30.9495018,14.6061503 29.9793575,15.2911537 28.6169084,15.2911537 C26.5313218,15.2911537 25.0448104,13.4835996 25.0448104,10.6586637" id="Fill-4"></path>
            <path d="M42.2029516,12.5696994 L42.2029516,6.41985386 C41.6251122,6.1707106 41.1707762,6.04642017 40.5309057,6.04642017 C38.5894995,6.04642017 37.5165289,7.66669498 37.5165289,10.2216788 C37.5165289,12.4864642 38.3424928,13.8581581 39.9530663,13.8581581 C40.675645,13.8581581 41.4395777,13.5252173 42.2029516,12.5696994 M35.6583897,10.6586637 C35.6583897,7.41698931 37.6819452,5.13195754 40.613055,5.13195754 C41.1908944,5.13195754 41.6457892,5.19438395 42.2029516,5.31867438 L42.2029516,2.88798097 L41.9755042,1.28795257 L40.3246942,1.0185629 L40.3246942,0.374052334 L44.185153,5.62400142e-05 L43.9577056,2.88798097 L43.9577056,12.3616114 L44.185153,13.940831 L45.5263662,14.210783 L45.5263662,14.8547312 L42.2029516,15.2911537 L42.5125483,13.3176916 C41.5625222,14.6061503 40.5929368,15.2911537 39.2299289,15.2911537 C37.1449011,15.2911537 35.6583897,13.4835996 35.6583897,10.6586637" id="Fill-6"></path>
            <polygon id="Fill-8" points="46.8297461 14.2107268 48.2749034 13.9413371 48.5023508 12.3615551 48.5023508 2.88792473 48.2749034 1.28789633 46.6235346 1.01850666 46.6235346 0.373996094 50.4638752 1.77635684e-14 50.256546 2.88792473 50.256546 12.3615551 50.4839934 13.9413371 51.9084736 14.2107268 51.9084736 14.8552374 46.8297461 14.8552374"></polygon>
            <path d="M57.1491527,8.66388667 L58.552397,8.45579862 C58.552397,6.814715 57.7890231,5.96324119 56.6529038,5.96324119 C55.497225,5.96324119 54.692497,6.83552381 54.4650496,8.66388667 L57.1491527,8.66388667 Z M52.6482645,10.3049703 C52.6482645,7.14709348 54.2381611,5.13201378 56.8183201,5.13201378 C58.986056,5.13201378 60.4932444,6.54476293 60.4105362,9.49511408 L54.4443726,9.49511408 C54.4443726,9.49511408 54.4242544,9.78587495 54.4242544,9.95234539 C54.4242544,12.2992412 55.5592561,13.961696 57.7476691,13.961696 C58.4082166,13.961696 59.1514723,13.795788 59.8734921,13.2553214 L60.2870328,13.8160344 C59.1101182,14.8969674 58.2226821,15.2912099 56.7361707,15.2912099 C54.2789563,15.2912099 52.6482645,13.5044647 52.6482645,10.3049703 L52.6482645,10.3049703 Z" id="Fill-10"></path>
            <path d="M68.883148,10.1391185 C68.883148,7.99918594 67.974476,6.54481917 66.5919087,6.54481917 C65.7458267,6.54481917 64.939981,6.89744406 64.1967254,7.77085148 L64.1967254,12.3617238 L64.4029369,14.1698403 C64.8991858,14.3357483 65.2495778,14.4189836 65.7866219,14.4189836 C67.9135626,14.4189836 68.883148,12.5073855 68.883148,10.1391185 M62.4212943,14.8548437 L62.4212943,2.88809345 L62.2145239,1.28806505 L60.563714,1.01867538 L60.563714,0.374164814 L64.4029369,0.000168720043 L64.1967254,2.88809345 L64.1967254,6.79396244 C64.9600992,5.77601818 66.0755416,5.13207002 67.3351644,5.13207002 C69.316807,5.13207002 70.6999331,6.83558005 70.6999331,9.47436151 C70.6999331,12.6946647 68.7797628,15.2912662 65.0634844,15.2912662 C64.1967254,15.2912662 63.5982089,15.2912662 62.4212943,14.8548437" id="Fill-12"></path>
            <path d="M73.0951723,12.0503791 L73.0951723,8.08208372 L72.8677249,6.48261772 L71.2571513,6.21210325 L71.2571513,5.56815509 L75.0768149,5.19472139 L74.8700445,8.08208372 L74.8700445,11.572339 C74.8700445,13.005897 75.5300332,13.8781796 76.8315689,13.8781796 C77.719005,13.8781796 78.5242918,13.3382754 79.1021312,12.6319009 L79.1021312,8.08208372 L78.8959197,6.48261772 L77.2853461,6.21210325 L77.2853461,5.56815509 L81.1044508,5.19472139 L80.8775623,8.08208372 L80.8775623,12.3619488 L81.1044508,13.9411684 L82.5909622,14.2105581 L82.5909622,14.8550686 L79.1021312,15.2290647 L79.3295786,13.3596467 C78.3588755,14.7099694 77.4915576,15.2914911 76.0262821,15.2914911 C74.2089382,15.2914911 73.0951723,14.1278852 73.0951723,12.0503791" id="Fill-14"></path>
            <polygon id="Fill-16" points="92.822631 19.7789944 92.822631 19.0726198 94.8869818 18.7402413 95.7744179 17.2858745 96.6629716 15.1875596 93.7720982 8.0821962 92.9260162 6.46135899 91.9966672 6.21221573 91.9966672 5.56770517 96.5176735 5.56770517 96.5176735 6.21221573 95.1965785 6.46135899 95.6928274 8.0821962 97.5504078 12.8811566 99.2844847 8.0821962 99.7382619 6.46135899 98.4384027 6.21221573 98.4384027 5.56770517 102.154122 5.56770517 102.154122 6.21221573 101.10127 6.46135899 100.317219 8.0821962 95.8163308 20.0489464"></polygon>
            <path d="M90.0677231,5.41062681 C88.895838,5.41062681 87.9709597,6.07088457 87.1069949,7.53368734 C87.1042007,7.51119134 87.1002888,7.48925773 87.0991711,7.46676173 L87.1019653,7.22436726 C87.1092302,7.11863604 87.1215247,7.01290481 87.1327014,6.90773598 C87.1589669,6.67658953 87.1852323,6.44600547 87.2114977,6.21542141 C87.2494988,5.87798132 87.286941,5.53997884 87.3255009,5.20310115 L83.6964013,5.57597245 L83.6964013,6.21935821 L85.3460936,6.48931028 L85.5724234,8.08708908 L85.5724234,12.3613302 L85.3460936,13.9388626 L83.9031717,14.2088146 L83.9031717,14.8522004 L89.2009641,14.8522004 L89.2009641,14.2088146 L87.5518306,13.9388626 L87.3255009,12.3613302 L87.3255009,11.8647308 L87.3255009,10.5155329 L87.3255009,9.01786132 L87.3255009,8.60674681 L87.3255009,8.43690197 C87.3255009,8.40990676 87.3277362,8.38178676 87.3294127,8.35310435 C87.9268115,7.60961136 88.7281864,7.34078409 89.3457033,7.34078409 C89.7788034,7.34078409 90.2119035,7.48588333 90.5628543,7.65179137 L91.0786626,5.55572604 C90.6450037,5.43143561 90.4387921,5.41062681 90.0677231,5.41062681" id="Fill-19"></path>
            <path d="M-7.10542736e-15,30.8713248 C-7.10542736e-15,27.0481287 2.14705888,23.703535 7.12240122,23.703535 C8.4021422,23.703535 9.51702572,23.8070167 11.2103075,24.1602039 L11.416519,27.3186431 L10.4050207,27.3186431 L9.93056647,24.9914314 C9.14539788,24.7209169 8.15457659,24.5342 7.06037011,24.5342 C3.90181289,24.5342 2.08502777,26.840603 2.08502777,30.4973287 C2.08502777,34.2789073 3.90181289,37.124652 7.26658164,37.124652 C8.11322251,37.124652 9.2694601,36.916564 10.0948651,36.5639391 L10.5698781,34.3407713 L11.5819353,34.3407713 L11.3751649,37.5194569 C9.95068467,37.7686002 8.97998158,37.9558794 6.87483561,37.9558794 C2.00287846,37.9558794 -7.10542736e-15,34.9222931 -7.10542736e-15,30.8713248" id="Fill-21"></path>
            <path d="M20.1168017,32.9275722 C20.1168017,30.1645003 19.2293656,28.7517512 17.598115,28.7517512 C15.9467462,28.7517512 15.0380742,30.0604563 15.0380742,32.9489434 C15.0380742,35.7744418 15.9260691,37.1866285 17.5366427,37.1866285 C19.1880115,37.1866285 20.1168017,35.8160594 20.1168017,32.9275722 M13.0357546,33.0940427 C13.0357546,30.1026363 14.6457693,27.8794686 17.7015002,27.8794686 C20.3436903,27.8794686 22.0984443,29.6656514 22.0984443,32.9073258 C22.0984443,36.0646402 20.2201869,38.0802823 17.4740528,38.0802823 C14.8318627,38.0802823 13.0357546,36.1900555 13.0357546,33.0940427" id="Fill-23"></path>
            <polygon id="Fill-25" points="22.8460589 36.9791591 24.291775 36.709207 24.5181048 35.1305498 24.5181048 25.656357 24.291775 24.0563286 22.6398474 23.7863766 22.6398474 23.1424284 26.4796292 22.7684323 26.2734176 25.656357 26.2734176 35.1305498 26.5003062 36.709207 27.9247864 36.9791591 27.9247864 37.6236697 22.8460589 37.6236697"></polygon>
            <polygon id="Fill-27" points="29.2967358 36.9791591 30.742452 36.709207 30.9687817 35.1305498 30.9687817 25.656357 30.742452 24.0563286 29.0905243 23.7863766 29.0905243 23.1424284 32.9303061 22.7684323 32.7240945 25.656357 32.7240945 35.1305498 32.9509831 36.709207 34.3754634 36.9791591 34.3754634 37.6236697 29.2967358 37.6236697"></polygon>
            <path d="M39.6161424,31.4320378 L41.0199456,31.2239497 C41.0199456,29.5828661 40.2565717,28.7308299 39.1204523,28.7308299 C37.9647736,28.7308299 37.1594868,29.6036749 36.9325982,31.4320378 L39.6161424,31.4320378 Z M35.1152542,33.0731214 C35.1152542,29.915807 36.7051508,27.9001649 39.2858686,27.9001649 C41.4536045,27.9001649 42.9607929,29.3123516 42.8780848,32.2632652 L36.9113623,32.2632652 C36.9113623,32.2632652 36.8912441,32.5534637 36.8912441,32.7199341 C36.8912441,35.0679547 38.0262458,36.7298471 40.2146588,36.7298471 C40.8752063,36.7298471 41.618462,36.5639391 42.3410406,36.0234725 L42.7540226,36.5841855 C41.5776668,37.6645562 40.6902307,38.0593611 39.2037193,38.0593611 C36.7465049,38.0593611 35.1152542,36.2726158 35.1152542,33.0731214 L35.1152542,33.0731214 Z" id="Fill-29"></path>
            <path d="M50.033234,31.4529028 C50.033234,29.8118192 49.4755128,28.6060333 48.1337407,28.6060333 C46.936149,28.6060333 46.2962785,29.62454 46.2962785,31.3274876 C46.2962785,32.9691336 46.936149,33.9460227 48.2371259,33.9460227 C49.3928046,33.9460227 50.033234,32.9899424 50.033234,31.4529028 M51.787988,40.1161146 C51.787988,39.3270672 51.2716209,38.8698359 49.0424127,38.4952774 L47.0607701,38.1634613 C46.4823719,38.4952774 45.6770851,39.201652 45.6770851,39.9918242 C45.6770851,41.1964853 46.8746768,41.9860951 48.7121389,41.9860951 C50.445657,41.9860951 51.787988,41.2172941 51.787988,40.1161146 M44.0871885,40.5317283 C44.0871885,39.4311112 45.160718,38.4542222 46.2549245,37.9975533 C45.2434261,37.768094 44.5622016,37.2495611 44.5622016,36.5015689 C44.5622016,35.6084775 45.3054572,34.9639669 46.4203408,34.4026916 C45.181395,33.904405 44.4180211,32.7407991 44.4180211,31.2453772 C44.4180211,29.4164519 45.7597932,27.8169859 48.1750948,27.8169859 C48.9597045,27.8169859 49.6817243,27.9626475 50.4663341,28.4609341 L53.1917912,27.7545595 L53.1917912,29.0840734 L51.0654093,29.0840734 C51.5812176,29.7493928 51.8706961,30.2684881 51.8706961,31.3274876 C51.8706961,33.1766593 50.3428307,34.7564413 48.2164488,34.7564413 C47.9269703,34.7564413 47.5553425,34.7350701 47.2256276,34.6518348 C46.6472293,34.9431581 46.1727751,35.3790182 46.1727751,35.7119591 C46.1727751,36.4385801 47.2669816,36.5639953 48.8769964,36.8125762 C50.8379619,37.1247083 52.9643438,37.2073811 52.9643438,39.3889312 C52.9643438,41.4045733 51.0654093,43.045657 47.9482062,43.045657 C45.7178803,43.045657 44.0871885,42.0901391 44.0871885,40.5317283" id="Fill-31"></path>
            <path d="M58.3530592,31.4320378 L59.7574212,31.2239497 C59.7574212,29.5828661 58.9929297,28.7308299 57.8573691,28.7308299 C56.7016904,28.7308299 55.8964036,29.6036749 55.6689562,31.4320378 L58.3530592,31.4320378 Z M53.8521711,33.0731214 C53.8521711,29.915807 55.4420676,27.9001649 58.0227854,27.9001649 C60.1905214,27.9001649 61.6971509,29.3123516 61.6150016,32.2632652 L55.6482791,32.2632652 C55.6482791,32.2632652 55.6281609,32.5534637 55.6281609,32.7199341 C55.6281609,35.0679547 56.7631627,36.7298471 58.9515756,36.7298471 C59.6121231,36.7298471 60.3553788,36.5639391 61.0785163,36.0234725 L61.4909394,36.5841855 C60.3140247,37.6645562 59.4265886,38.0593611 57.9400773,38.0593611 C55.4834217,38.0593611 53.8521711,36.2726158 53.8521711,33.0731214 L53.8521711,33.0731214 Z" id="Fill-33"></path>
        </g>
        <g id="shield-use">
            <path d="M1.62675,1.62675 L1.62675,32.981625 C1.62675,33.0345 1.702125,38.66175 5.585625,46.0395 C9.147375,52.808625 16.731,62.470125 32.652,70.1955 C48.585375,62.467875 56.158875,52.806375 59.709375,46.038375 C63.5805,38.66175 63.64125,33.035625 63.64125,32.9805 L63.64125,1.62675 L1.62675,1.62675 Z" id="Path" fill="#FFFFFF"></path>
            <path d="M1.62675,1.62675 L1.62675,32.981625 C1.62675,33.0345 1.702125,38.66175 5.585625,46.0395 C9.147375,52.808625 16.731,62.470125 32.652,70.1955 C48.585375,62.467875 56.158875,52.806375 59.709375,46.038375 C63.5805,38.66175 63.64125,33.035625 63.64125,32.9805 L63.64125,1.62675 L1.62675,1.62675 Z M32.652,72 L32.299875,71.83125 C15.6825,63.860625 7.790625,53.766 4.095,46.701 C0.061875,38.989125 -9.9475983e-14,33.224625 -9.9475983e-14,32.983875 L-9.9475983e-14,0 L65.266875,0 L65.266875,32.981625 C65.266875,33.222375 65.221875,38.98575 61.201125,46.697625 C57.51675,53.7615 49.633875,63.85725 33.003,71.83125 L32.652,72 Z M20.8918125,12.2576625 L19.1289375,12.2576625 C18.8465625,11.3801625 18.4798125,10.6084125 18.0455625,9.9795375 C19.1806875,10.4824125 20.1571875,11.2732875 20.8918125,12.2576625 Z M15.7633875,9.518175 C16.5576375,9.8523 17.3226375,10.8243 17.8491375,12.25755 L15.7633875,12.25755 L15.7633875,9.518175 Z M11.7820125,15.9204375 C11.8168875,15.0328125 11.9282625,14.2138125 12.0981375,13.4780625 L14.5438875,13.4780625 L14.5438875,15.9204375 L11.7820125,15.9204375 Z M12.4581375,12.2576625 C12.9846375,10.8244125 13.7496375,9.8524125 14.5438875,9.5182875 L14.5438875,12.2576625 L12.4581375,12.2576625 Z M12.0983625,19.5838875 C11.9284875,18.8470125 11.8171125,18.0280125 11.7822375,17.1403875 L14.5441125,17.1403875 L14.5441125,19.5838875 L12.0983625,19.5838875 Z M14.5438875,23.543325 C13.7496375,23.2092 12.9846375,22.2372 12.4581375,20.80395 L14.5438875,20.80395 L14.5438875,23.543325 Z M10.5625125,17.1405 C10.5951375,18.001125 10.6963875,18.820125 10.8572625,19.584 L8.6815125,19.584 C8.3248875,18.83025 8.0942625,18.009 8.0200125,17.1405 L10.5625125,17.1405 Z M18.2084625,13.4776125 C18.3794625,14.2144875 18.4897125,15.0334875 18.5257125,15.9199875 L15.7638375,15.9199875 L15.7638375,13.4776125 L18.2084625,13.4776125 Z M10.8563625,13.4776125 C10.6954875,14.2414875 10.5953625,15.0604875 10.5627375,15.9199875 L8.0202375,15.9199875 C8.0933625,15.0526125 8.3251125,14.2302375 8.6817375,13.4776125 L10.8563625,13.4776125 Z M9.4165875,20.8038375 L11.1783375,20.8038375 C11.4607125,21.6802125 11.8274625,22.4519625 12.2617125,23.0797125 C11.1265875,22.5768375 10.1500875,21.7870875 9.4165875,20.8038375 Z M19.7454375,15.9204375 C19.7116875,15.0598125 19.6115625,14.2408125 19.4506875,13.4780625 L21.6264375,13.4780625 C21.9830625,14.2306875 22.2136875,15.0530625 22.2879375,15.9204375 L19.7454375,15.9204375 Z M12.2610375,9.9806625 C11.8267875,10.6095375 11.4611625,11.3801625 11.1787875,12.2576625 L9.4159125,12.2576625 C10.1505375,11.2744125 11.1270375,10.4835375 12.2610375,9.9806625 Z M19.4504625,19.5838875 C19.6113375,18.8200125 19.7114625,18.0010125 19.7452125,17.1403875 L22.2877125,17.1403875 C22.2145875,18.0088875 21.9817125,18.8312625 21.6262125,19.5838875 L19.4504625,19.5838875 Z M18.5259375,17.1405 C18.4899375,18.028125 18.3796875,18.847125 18.2086875,19.584 L15.7629375,19.584 L15.7629375,17.1405 L18.5259375,17.1405 Z M15.7633875,23.5427625 L15.7633875,20.8033875 L17.8491375,20.8033875 C17.3226375,22.2366375 16.5576375,23.2075125 15.7633875,23.5427625 Z M18.0453375,23.0808375 C18.4795875,22.4519625 18.8452125,21.6813375 19.1287125,20.8038375 L20.8915875,20.8038375 C20.1569625,21.7870875 19.1804625,22.5779625 18.0453375,23.0808375 Z M57.6196875,20.2365 L57.6196875,11.383875 L56.4001875,11.383875 L56.4001875,19.537875 L49.8009375,23.407875 L43.1971875,19.537875 L43.1971875,11.383875 L41.9765625,11.383875 L41.9765625,20.2365 L49.8009375,24.822 L57.6196875,20.2365 Z M44.4268125,10.609875 C44.3806875,10.557 44.4268125,18.786375 44.4268125,18.786375 C44.4268125,18.786375 47.6814375,18.83925 49.1428125,21.53025 L49.1428125,13.35375 C47.6814375,10.66275 44.4268125,10.609875 44.4268125,10.609875 Z M50.3544375,13.4235 L50.3544375,21.6 C51.8315625,18.909 55.1199375,18.85725 55.1199375,18.85725 C55.1199375,18.85725 55.1683125,10.627875 55.1199375,10.68075 C55.1199375,10.68075 51.8315625,10.733625 50.3544375,13.4235 Z M39.7119375,26.028 L39.7119375,24.604875 L37.5665625,24.604875 L37.5665625,17.6085 L27.6991875,17.6085 L27.6991875,24.604875 L25.5560625,24.604875 L25.5560625,26.028 L39.7119375,26.028 Z M15.1543125,24.915375 C19.7769375,24.915375 23.5389375,21.153375 23.5389375,16.53075 C23.5389375,11.907 19.7769375,8.145 15.1543125,8.145 C10.5305625,8.145 6.7685625,11.907 6.7685625,16.53075 C6.7685625,21.153375 10.5305625,24.915375 15.1543125,24.915375 Z M33.3455625,3.614625 L61.2725625,3.614625 L61.2725625,32.113125 C61.2725625,32.113125 61.2703125,34.072875 60.4771875,37.184625 C60.0856875,37.1655 59.6458125,37.14525 59.0416875,37.117125 C56.6949375,37.004625 54.7599375,37.488375 52.5628125,37.15425 C50.3668125,36.819 48.4678125,34.808625 45.3774375,34.2495 C43.1454375,33.84675 41.2993125,33.773625 38.8209375,33.849 L38.8209375,27.239625 L26.4470625,27.239625 L26.4470625,33.63975 C26.0645625,33.625125 25.6753125,33.61725 25.2725625,33.61725 C21.7715625,33.61725 20.4316875,32.648625 16.7833125,32.648625 C13.1349375,32.648625 7.6246875,34.43625 4.5714375,35.478 C4.5219375,35.494875 4.4724375,35.51175 4.4240625,35.528625 C3.9999375,33.3945 3.9954375,32.113125 3.9954375,32.113125 L3.9954375,3.614625 L31.9224375,3.614625 L31.9224375,4.428 C31.3014375,4.694625 30.8638125,5.284125 30.8638125,5.981625 C30.8638125,6.676875 31.3014375,7.2675 31.9224375,7.533 L31.9224375,8.519625 C30.9886875,8.861625 29.3068125,9.680625 28.5384375,11.334375 C27.8184375,12.88575 27.6868125,14.229 27.6800625,14.96475 L27.0174375,14.96475 L27.0174375,16.387875 L38.2505625,16.387875 L38.2505625,14.96475 L37.5879375,14.96475 C37.5800625,14.229 37.4484375,12.88575 36.7284375,11.334375 C35.9600625,9.67725 34.2770625,8.861625 33.3455625,8.52075 L33.3455625,7.534125 C33.9654375,7.268625 34.4030625,6.676875 34.4030625,5.981625 C34.4030625,5.284125 33.9654375,4.6935 33.3455625,4.426875 L33.3455625,3.614625 Z M33.4085625,5.9821875 C33.4085625,6.3860625 33.0620625,6.7145625 32.6345625,6.7145625 C32.2059375,6.7145625 31.8594375,6.3860625 31.8594375,5.9821875 C31.8594375,5.5749375 32.2059375,5.2464375 32.6345625,5.2464375 C33.0620625,5.2464375 33.4085625,5.5749375 33.4085625,5.9821875 Z M31.314375,33.0658875 L31.314375,28.5017625 L33.9525,28.5017625 L33.9525,33.0658875 L31.314375,33.0658875 Z M31.314375,23.0578875 L31.314375,18.9628875 L33.9525,18.9628875 L33.9525,23.0578875 L31.314375,23.0578875 Z M29.080125,23.0556375 L29.080125,18.9685125 L29.8935,18.9685125 L29.8935,23.0556375 L29.080125,23.0556375 Z M35.37225,23.0556375 L35.37225,18.9685125 L36.185625,18.9685125 L36.185625,23.0556375 L35.37225,23.0556375 Z M24.14475,36.2777625 L24.14475,35.0582625 L41.122125,35.0582625 L41.122125,36.2777625 L24.14475,36.2777625 Z M27.46125,41.6957625 L37.80675,41.6957625 L37.80675,39.2241375 L27.46125,39.2241375 L27.46125,41.6957625 Z M26.240625,42.9163875 L26.240625,38.0046375 L39.02625,38.0046375 L39.02625,42.9163875 L26.240625,42.9163875 Z M24.3981,40.1256 L24.3981,42.048225 L11.22885,50.35185 C10.899225,49.90635 10.584225,49.46535 10.28385,49.025475 L24.3981,40.1256 Z M40.868325,42.1174125 L40.868325,40.1925375 L54.9612,49.0991625 C54.6597,49.5390375 54.3447,49.9800375 54.01395,50.4255375 L40.868325,42.1174125 Z M30.8525625,54.6109875 C31.0303125,54.7471125 31.1180625,54.9406125 31.1180625,55.1903625 C31.1180625,55.6639875 30.7321875,55.9936125 30.1696875,55.9936125 C29.5419375,55.9936125 29.1403125,55.6313625 29.1403125,55.0688625 C29.1403125,54.6031125 29.4215625,54.2813625 29.8153125,54.0721125 C30.3384375,54.2892375 30.6511875,54.4501125 30.8525625,54.6109875 Z M30.1768875,53.32455 C29.8000125,53.17155 29.2442625,52.90605 29.2442625,52.439175 C29.2442625,52.0218 29.5817625,51.74055 30.0970125,51.74055 C30.6358875,51.74055 30.9497625,51.99705 30.9497625,52.423425 C30.9497625,52.866675 30.5301375,53.1468 30.1768875,53.32455 Z M33.9336,52.4395125 C34.085475,52.0142625 34.32735,51.7645125 34.641225,51.7645125 C34.994475,51.7645125 35.26785,52.0052625 35.42085,52.6318875 C35.50185,52.9783875 35.541225,53.3395125 35.541225,53.8626375 C35.541225,54.4026375 35.49285,54.8605125 35.38935,55.2058875 C35.2431,55.6727625 34.97085,55.9618875 34.632225,55.9618875 C34.294725,55.9618875 34.0056,55.6963875 33.860475,55.0697625 C33.788475,54.7727625 33.7491,54.3542625 33.7491,53.8142625 C33.7491,53.2427625 33.804225,52.7848875 33.9336,52.4395125 Z M39.1275,56.621475 C40.253625,56.621475 41.025375,55.512225 41.025375,53.8461 C41.025375,52.6806 40.5765,51.0966 39.1365,51.0966 C38.066625,51.0966 37.26225,52.238475 37.26225,53.822475 C37.26225,54.972225 37.71225,56.621475 39.1275,56.621475 Z M34.62525,56.621475 C35.751375,56.621475 36.523125,55.512225 36.523125,53.8461 C36.523125,52.6806 36.072,51.0966 34.632,51.0966 C33.56325,51.0966 32.758875,52.238475 32.758875,53.822475 C32.758875,54.972225 33.208875,56.621475 34.62525,56.621475 Z M30.08025,56.652975 C31.005,56.652975 32.09175,56.074725 32.09175,55.037475 C32.09175,54.369225 31.60125,53.98335 30.8205,53.6616 C31.375125,53.453475 31.890375,53.082225 31.890375,52.4241 C31.890375,51.635475 31.190625,51.0966 30.177,51.0966 C29.300625,51.0966 28.35225,51.498225 28.35225,52.519725 C28.35225,53.0586 28.72125,53.550225 29.212875,53.750475 C28.61775,53.959725 28.182375,54.48285 28.182375,55.134225 C28.182375,56.1951 29.156625,56.652975 30.08025,56.652975 Z M27.40275,56.5011 L27.40275,55.7856 L26.65575,55.7856 L26.65575,51.18435 L26.028,51.18435 L24.411375,52.319475 L24.6285,52.7931 C24.72525,52.760475 25.02225,52.632225 25.239375,52.5276 C25.4565,52.4241 25.70625,52.263225 25.786125,52.213725 L25.786125,55.7856 L24.8535,55.7856 L24.8535,56.5011 L27.40275,56.5011 Z M40.869,44.518725 L52.78725,51.984225 C48.54825,57.18285 42.1875,62.60535 32.6385,67.17735 C23.112,62.61435 16.756875,57.201975 12.51225,52.0101 L24.427125,44.54685 L40.869,44.54685 L40.869,44.518725 Z M39.143925,51.7645125 C39.497175,51.7645125 39.77055,52.0052625 39.92355,52.6318875 C40.00455,52.9783875 40.043925,53.3395125 40.043925,53.8626375 C40.043925,54.4026375 39.996675,54.8605125 39.89205,55.2058875 C39.746925,55.6727625 39.47355,55.9618875 39.13605,55.9618875 C38.797425,55.9618875 38.5083,55.6963875 38.3643,55.0697625 C38.291175,54.7727625 38.2518,54.3542625 38.2518,53.8142625 C38.2518,53.2427625 38.306925,52.7848875 38.4363,52.4395125 C38.5893,52.0142625 38.83005,51.7645125 39.143925,51.7645125 Z" id="Shape" fill="#0D395F"></path>
        </g>
    </g>
</svg>