<svg width="180" height="72" viewBox="0 0 180 72" fill="none" xmlns="http://www.w3.org/2000/svg">
<path fill-rule="evenodd" clip-rule="evenodd" d="M59.2629 19.6839V10.2229H57.9589V18.9369L50.9069 23.0729L43.8489 18.9369V10.2229H42.5449V19.6839L50.9069 24.5839L59.2629 19.6839Z" fill="white"/>
<path fill-rule="evenodd" clip-rule="evenodd" d="M50.2034 21.0662V12.3272C48.6414 9.45221 45.1634 9.39621 45.1634 9.39621C45.1144 9.33921 45.1634 18.1342 45.1634 18.1342C45.1634 18.1342 48.6414 18.1912 50.2034 21.0662Z" fill="white"/>
<path fill-rule="evenodd" clip-rule="evenodd" d="M56.591 18.2093C56.591 18.2093 56.643 9.41428 56.591 9.47128C56.591 9.47128 53.077 9.52728 51.498 12.4023V21.1413C53.077 18.2653 56.591 18.2093 56.591 18.2093Z" fill="white"/>
<path fill-rule="evenodd" clip-rule="evenodd" d="M40.3169 57.0565C40.1619 57.5555 39.8699 57.8655 39.5099 57.8655C39.1479 57.8655 38.8379 57.5805 38.6839 56.9105C38.6069 56.5925 38.5639 56.1455 38.5639 55.5695C38.5639 54.9585 38.6239 54.4695 38.7609 54.0995C38.9249 53.6445 39.1819 53.3775 39.5179 53.3775C39.8959 53.3775 40.1879 53.6355 40.3509 54.3055C40.4379 54.6755 40.4799 55.0625 40.4799 55.6205C40.4799 56.1975 40.4289 56.6865 40.3169 57.0565ZM39.5099 52.6645C38.3659 52.6645 37.5059 53.8845 37.5059 55.5775C37.5059 56.8065 37.9879 58.5695 39.4999 58.5695C40.7039 58.5695 41.5289 57.3825 41.5289 55.6035C41.5289 54.3575 41.0479 52.6645 39.5099 52.6645Z" fill="white"/>
<path fill-rule="evenodd" clip-rule="evenodd" d="M21.502 15.0706H18.785C18.75 14.1516 18.642 13.2766 18.47 12.4606H20.795C21.176 13.2646 21.423 14.1426 21.502 15.0706ZM20.795 18.9866H18.47C18.642 18.1696 18.75 17.2946 18.785 16.3746H21.502C21.423 17.3026 21.176 18.1806 20.795 18.9866ZM16.968 22.7236C17.433 22.0516 17.824 21.2276 18.126 20.2896H20.01C19.225 21.3416 18.181 22.1856 16.968 22.7236ZM14.53 23.2166V20.2896H16.758C16.195 21.8206 15.378 22.8596 14.53 23.2166ZM14.53 16.3746H17.482C17.444 17.3226 17.325 18.1976 17.143 18.9866H14.53V16.3746ZM14.53 12.4606H17.143C17.325 13.2476 17.444 14.1226 17.482 15.0706H14.53V12.4606ZM14.53 8.2286C15.378 8.5866 16.196 9.6246 16.758 11.1566H14.53V8.2286ZM20.01 11.1566H18.126C17.824 10.2186 17.433 9.3936 16.968 8.7216C18.181 9.2596 19.225 10.1046 20.01 11.1566ZM13.226 11.1566H10.997C11.56 9.6236 12.377 8.5856 13.226 8.2286V11.1566ZM13.226 15.0706H10.274C10.312 14.1226 10.431 13.2476 10.613 12.4606H13.226V15.0706ZM13.226 18.9866H10.613C10.431 18.1976 10.312 17.3226 10.274 16.3746H13.226V18.9866ZM13.226 23.2176C12.377 22.8606 11.56 21.8216 10.998 20.2896H13.226V23.2176ZM7.74599 20.2896H9.62999C9.93199 21.2266 10.322 22.0506 10.787 22.7226C9.57399 22.1846 8.53099 21.3406 7.74599 20.2896ZM6.96099 18.9866C6.57999 18.1806 6.33299 17.3026 6.25299 16.3746H8.97099C9.00599 17.2946 9.11399 18.1696 9.28599 18.9866H6.96099ZM6.96099 12.4606H9.28499C9.11399 13.2766 9.00599 14.1516 8.97099 15.0706H6.25299C6.33299 14.1426 6.57999 13.2646 6.96099 12.4606ZM10.786 8.7226C10.322 9.3946 9.93199 10.2186 9.62999 11.1566H7.74599C8.53099 10.1056 9.57399 9.2606 10.786 8.7226ZM13.878 6.7616C8.93699 6.7616 4.91699 10.7806 4.91699 15.7226C4.91699 20.6636 8.93699 24.6836 13.878 24.6836C18.819 24.6836 22.839 20.6636 22.839 15.7226C22.839 10.7806 18.819 6.7616 13.878 6.7616Z" fill="white"/>
<path fill-rule="evenodd" clip-rule="evenodd" d="M35.5043 57.0565C35.3493 57.5555 35.0573 57.8655 34.6963 57.8655C34.3363 57.8655 34.0263 57.5805 33.8713 56.9105C33.7943 56.5925 33.7513 56.1455 33.7513 55.5695C33.7513 54.9585 33.8113 54.4695 33.9493 54.0995C34.1123 53.6445 34.3703 53.3775 34.7053 53.3775C35.0833 53.3775 35.3753 53.6355 35.5393 54.3055C35.6243 54.6755 35.6683 55.0625 35.6683 55.6205C35.6683 56.1975 35.6163 56.6865 35.5043 57.0565ZM34.6963 52.6645C33.5533 52.6645 32.6943 53.8845 32.6943 55.5775C32.6943 56.8065 33.1753 58.5695 34.6883 58.5695C35.8913 58.5695 36.7163 57.3825 36.7163 55.6035C36.7163 54.3575 36.2343 52.6645 34.6963 52.6645Z" fill="white"/>
<path fill-rule="evenodd" clip-rule="evenodd" d="M77.3099 23.2107L78.9825 22.8783L79.1888 20.78V13.3215L78.9825 11.2232L77.3099 10.8908V10.2676H81.7689L82.8223 13.3215L85.9395 21.4864L89.1389 13.3007L90.1096 10.2676H94.5686V10.8908L92.9166 11.2232L92.6897 13.3215V20.78L92.9166 22.8783L94.5686 23.2107V23.8552H88.8712V23.2107L90.522 22.8783L90.7495 20.78V11.6804L87.1986 20.78L86.1463 23.8552H84.8045L83.6896 20.78L80.1175 11.6804V20.78L80.3444 22.8783L81.9964 23.2107V23.8552H77.3099V23.2107Z" fill="white"/>
<path fill-rule="evenodd" clip-rule="evenodd" d="M97.226 10.4546C97.226 9.74822 97.8038 9.14532 98.5264 9.14532C99.2283 9.14532 99.8274 9.72797 99.8274 10.4754C99.8274 11.1402 99.2903 11.7633 98.5264 11.7633C97.8239 11.7633 97.226 11.2436 97.226 10.4546ZM96.1524 23.2109L97.5976 22.941L97.8038 21.3618V17.0819L97.5976 15.4824L95.9457 15.2119V14.568L99.7855 14.1946L99.5792 17.0819V21.3618L99.7855 22.941L101.231 23.2109V23.8549H96.1524V23.2109Z" fill="white"/>
<path fill-rule="evenodd" clip-rule="evenodd" d="M108.59 21.5697V15.4199C108.012 15.1707 107.557 15.0464 106.917 15.0464C104.976 15.0464 103.903 16.6667 103.903 19.2217C103.903 21.4865 104.729 22.8582 106.339 22.8582C107.063 22.8582 107.826 22.5252 108.59 21.5697ZM102.045 19.6587C102.045 16.417 104.068 14.132 107 14.132C107.578 14.132 108.032 14.1944 108.59 14.3187V11.888L108.362 10.2879L106.711 10.0186V9.37405L110.572 9.00005L110.344 11.888V21.3616L110.572 22.9408L111.913 23.2108V23.8547L108.59 24.2912L108.9 22.3177C107.949 23.6061 106.979 24.2912 105.617 24.2912C103.531 24.2912 102.045 22.4836 102.045 19.6587Z" fill="white"/>
<path fill-rule="evenodd" clip-rule="evenodd" d="M119.203 21.5697V15.4199C118.625 15.1707 118.171 15.0464 117.531 15.0464C115.59 15.0464 114.517 16.6667 114.517 19.2217C114.517 21.4865 115.343 22.8582 116.953 22.8582C117.676 22.8582 118.44 22.5252 119.203 21.5697ZM112.658 19.6587C112.658 16.417 114.682 14.132 117.613 14.132C118.191 14.132 118.646 14.1944 119.203 14.3187V11.888L118.976 10.2879L117.325 10.0186V9.37405L121.185 9.00005L120.958 11.888V21.3616L121.185 22.9408L122.526 23.2108V23.8547L119.203 24.2912L119.513 22.3177C118.563 23.6061 117.593 24.2912 116.23 24.2912C114.145 24.2912 112.658 22.4836 112.658 19.6587Z" fill="white"/>
<path fill-rule="evenodd" clip-rule="evenodd" d="M123.83 23.2107L125.275 22.9413L125.502 21.3616V11.8879L125.275 10.2879L123.624 10.0185V9.374L127.464 9L127.257 11.8879V21.3616L127.484 22.9413L128.908 23.2107V23.8552H123.83V23.2107Z" fill="white"/>
<path fill-rule="evenodd" clip-rule="evenodd" d="M134.149 17.6639L135.552 17.4558C135.552 15.8147 134.789 14.9632 133.653 14.9632C132.497 14.9632 131.693 15.8355 131.465 17.6639H134.149ZM129.648 19.305C129.648 16.1471 131.238 14.132 133.818 14.132C135.986 14.132 137.493 15.5448 137.411 18.4951H131.444C131.444 18.4951 131.424 18.7859 131.424 18.9523C131.424 21.2992 132.559 22.9617 134.748 22.9617C135.408 22.9617 136.152 22.7958 136.874 22.2553L137.287 22.816C136.11 23.897 135.223 24.2912 133.736 24.2912C131.279 24.2912 129.648 22.5045 129.648 19.305Z" fill="white"/>
<path fill-rule="evenodd" clip-rule="evenodd" d="M145.883 19.1391C145.883 16.9992 144.974 15.5448 143.592 15.5448C142.746 15.5448 141.94 15.8974 141.197 16.7709V21.3617L141.403 23.1698C141.899 23.3358 142.25 23.419 142.787 23.419C144.914 23.419 145.883 21.5074 145.883 19.1391ZM139.421 23.8548V11.8881L139.215 10.2881L137.564 10.0187V9.37416L141.403 9.00017L141.197 11.8881V15.794C141.96 14.776 143.076 14.1321 144.335 14.1321C146.317 14.1321 147.7 15.8356 147.7 18.4744C147.7 21.6947 145.78 24.2913 142.063 24.2913C141.197 24.2913 140.598 24.2913 139.421 23.8548Z" fill="white"/>
<path fill-rule="evenodd" clip-rule="evenodd" d="M150.095 21.0504V17.0821L149.868 15.4826L148.257 15.2121V14.5682L152.077 14.1947L151.87 17.0821V20.5723C151.87 22.0059 152.53 22.8782 153.832 22.8782C154.719 22.8782 155.524 22.3383 156.102 21.6319V17.0821L155.896 15.4826L154.285 15.2121V14.5682L158.105 14.1947L157.878 17.0821V21.3619L158.105 22.9412L159.591 23.2106V23.8551L156.102 24.2291L156.33 22.3596C155.359 23.71 154.492 24.2915 153.026 24.2915C151.209 24.2915 150.095 23.1279 150.095 21.0504Z" fill="white"/>
<mask id="mask0_7_76893" style="mask-type:luminance" maskUnits="userSpaceOnUse" x="168" y="14" width="12" height="16">
<path fill-rule="evenodd" clip-rule="evenodd" d="M168.997 14.5677H179.154V29.0489H168.997V14.5677Z" fill="white"/>
</mask>
<g mask="url(#mask0_7_76893)">
<path fill-rule="evenodd" clip-rule="evenodd" d="M169.823 28.779V28.0726L171.887 27.7402L172.774 26.2859L173.663 24.1876L170.772 17.0822L169.926 15.4614L168.997 15.2122V14.5677H173.518V15.2122L172.197 15.4614L172.693 17.0822L174.55 21.8812L176.285 17.0822L176.738 15.4614L175.438 15.2122V14.5677H179.154V15.2122L178.101 15.4614L177.317 17.0822L172.816 29.0489L169.823 28.779Z" fill="white"/>
</g>
<path fill-rule="evenodd" clip-rule="evenodd" d="M167.068 14.4106C165.896 14.4106 164.971 15.0709 164.107 16.5337C164.104 16.5112 164.1 16.4893 164.099 16.4668L164.102 16.2244C164.109 16.1186 164.122 16.0129 164.133 15.9077C164.159 15.6766 164.185 15.446 164.212 15.2154C164.25 14.878 164.287 14.54 164.326 14.2031L160.696 14.576V15.2194L162.346 15.4893L162.572 17.0871V21.3613L162.346 22.9389L160.903 23.2088V23.8522H166.201V23.2088L164.552 22.9389L164.326 21.3613V20.8647V19.5155V18.0179V17.6067V17.4369C164.326 17.4099 164.328 17.3818 164.329 17.3531C164.927 16.6096 165.728 16.3408 166.346 16.3408C166.779 16.3408 167.212 16.4859 167.563 16.6518L168.079 14.5557C167.645 14.4314 167.439 14.4106 167.068 14.4106Z" fill="white"/>
<path fill-rule="evenodd" clip-rule="evenodd" d="M77 39.8713C77 36.0481 79.1471 32.7035 84.1224 32.7035C85.4021 32.7035 86.517 32.807 88.2103 33.1602L88.4165 36.3186H87.405L86.9306 33.9914C86.1454 33.7209 85.1546 33.5342 84.0604 33.5342C80.9018 33.5342 79.085 35.8406 79.085 39.4973C79.085 43.2789 80.9018 46.1247 84.2666 46.1247C85.1132 46.1247 86.2695 45.9166 87.0949 45.5639L87.5699 43.3408H88.5819L88.3752 46.5195C86.9507 46.7686 85.98 46.9559 83.8748 46.9559C79.0029 46.9559 77 43.9223 77 39.8713Z" fill="white"/>
<path fill-rule="evenodd" clip-rule="evenodd" d="M97.1168 41.9276C97.1168 39.1645 96.2294 37.7518 94.5981 37.7518C92.9468 37.7518 92.0381 39.0605 92.0381 41.9489C92.0381 44.7744 92.9261 46.1866 94.5367 46.1866C96.188 46.1866 97.1168 44.8161 97.1168 41.9276ZM90.0358 42.094C90.0358 39.1026 91.6458 36.8795 94.7015 36.8795C97.3437 36.8795 99.0985 38.6657 99.0985 41.9073C99.0985 45.0646 97.2202 47.0803 94.4741 47.0803C91.8319 47.0803 90.0358 45.1901 90.0358 42.094Z" fill="white"/>
<path fill-rule="evenodd" clip-rule="evenodd" d="M99.8461 45.9792L101.292 45.7092L101.518 44.1306V34.6564L101.292 33.0563L99.6399 32.7864V32.1424L103.48 31.7684L103.273 34.6564V44.1306L103.5 45.7092L104.925 45.9792V46.6237H99.8461V45.9792Z" fill="white"/>
<path fill-rule="evenodd" clip-rule="evenodd" d="M106.297 45.9792L107.743 45.7092L107.969 44.1306V34.6564L107.743 33.0563L106.091 32.7864V32.1424L109.93 31.7684L109.724 34.6564V44.1306L109.951 45.7092L111.376 45.9792V46.6237H106.297V45.9792Z" fill="white"/>
<path fill-rule="evenodd" clip-rule="evenodd" d="M116.616 40.432L118.02 40.224C118.02 38.5829 117.257 37.7308 116.12 37.7308C114.965 37.7308 114.159 38.6037 113.933 40.432H116.616ZM112.115 42.0731C112.115 38.9158 113.705 36.9002 116.286 36.9002C118.454 36.9002 119.961 38.3123 119.878 41.2633H113.911C113.911 41.2633 113.891 41.5535 113.891 41.7199C113.891 44.068 115.026 45.7298 117.215 45.7298C117.875 45.7298 118.618 45.5639 119.341 45.0235L119.754 45.5842C118.578 46.6646 117.69 47.0594 116.204 47.0594C113.746 47.0594 112.115 45.2726 112.115 42.0731Z" fill="white"/>
<path fill-rule="evenodd" clip-rule="evenodd" d="M127.033 40.4529C127.033 38.8118 126.475 37.606 125.134 37.606C123.936 37.606 123.296 38.6245 123.296 40.3275C123.296 41.9691 123.936 42.946 125.237 42.946C126.393 42.946 127.033 41.9899 127.033 40.4529ZM128.788 49.1161C128.788 48.3271 128.272 47.8698 126.042 47.4953L124.061 47.1635C123.482 47.4953 122.677 48.2017 122.677 48.9918C122.677 50.1965 123.875 50.9861 125.712 50.9861C127.446 50.9861 128.788 50.2173 128.788 49.1161ZM121.087 49.5317C121.087 48.4311 122.161 47.4542 123.255 46.9976C122.243 46.7681 121.562 46.2496 121.562 45.5016C121.562 44.6085 122.305 43.964 123.42 43.4027C122.181 42.9044 121.418 41.7408 121.418 40.2454C121.418 38.4165 122.76 36.817 125.175 36.817C125.96 36.817 126.682 36.9627 127.466 37.4609L130.192 36.7546V38.0841H128.065C128.581 38.7494 128.871 39.2685 128.871 40.3275C128.871 42.1767 127.343 43.7564 125.216 43.7564C124.927 43.7564 124.555 43.7351 124.226 43.6518C123.647 43.9432 123.173 44.379 123.173 44.712C123.173 45.4386 124.267 45.564 125.877 45.8126C127.838 46.1247 129.964 46.2074 129.964 48.3889C129.964 50.4046 128.065 52.0457 124.948 52.0457C122.718 52.0457 121.087 51.0901 121.087 49.5317Z" fill="white"/>
<path fill-rule="evenodd" clip-rule="evenodd" d="M135.353 40.432L136.757 40.224C136.757 38.5829 135.993 37.7308 134.857 37.7308C133.702 37.7308 132.896 38.6037 132.669 40.432H135.353ZM130.852 42.0731C130.852 38.9158 132.442 36.9002 135.023 36.9002C137.191 36.9002 138.697 38.3123 138.615 41.2633H132.648C132.648 41.2633 132.628 41.5535 132.628 41.7199C132.628 44.068 133.763 45.7298 135.952 45.7298C136.612 45.7298 137.355 45.5639 138.079 45.0235L138.491 45.5842C137.314 46.6646 136.427 47.0594 134.94 47.0594C132.483 47.0594 130.852 45.2726 130.852 42.0731Z" fill="white"/>
<mask id="mask1_7_76893" style="mask-type:luminance" maskUnits="userSpaceOnUse" x="0" y="0" width="66" height="72">
<path fill-rule="evenodd" clip-rule="evenodd" d="M0 0.000305176H65.1185V72H0V0.000305176Z" fill="white"/>
</mask>
<g mask="url(#mask1_7_76893)">
<path fill-rule="evenodd" clip-rule="evenodd" d="M63.1665 32.3763C63.1665 32.3763 63.1645 34.4713 62.3155 37.7963C61.8975 37.7763 61.4275 37.7543 60.7825 37.7243C58.2745 37.6043 56.2065 38.1223 53.8575 37.7633C51.5115 37.4053 49.4815 35.2563 46.1785 34.6603C43.7935 34.2293 41.8205 34.1513 39.1715 34.2313V27.1683H25.9475V34.0073C25.5395 33.9933 25.1235 33.9833 24.6915 33.9833C20.9515 33.9833 19.5195 32.9493 15.6195 32.9493C11.7205 32.9493 5.83151 34.8583 2.56851 35.9733C2.51651 35.9913 2.46351 36.0083 2.41151 36.0263C1.95751 33.7463 1.95351 32.3763 1.95351 32.3763V1.91931H31.7985V2.78831C31.1365 3.07231 30.6685 3.70431 30.6685 4.44831C30.6685 5.19231 31.1365 5.82331 31.7985 6.10731V7.16231C30.8015 7.52731 29.0035 8.40231 28.1835 10.1693C27.4145 11.8283 27.2725 13.2633 27.2655 14.0493H26.5575V15.5703H38.5625V14.0493H37.8545C37.8465 13.2633 37.7055 11.8283 36.9365 10.1693C36.1135 8.39931 34.3165 7.52731 33.3195 7.16331V6.10831C33.9825 5.82431 34.4505 5.19231 34.4505 4.44831C34.4505 3.70431 33.9825 3.07231 33.3195 2.78731V1.91931H63.1665V32.3763ZM55.4095 51.9463L41.3595 43.0683V41.0113L56.4215 50.5303C56.1005 50.9993 55.7625 51.4713 55.4095 51.9463ZM32.5645 69.8493C22.3835 64.9743 15.5915 59.1893 11.0555 53.6413L23.7895 45.6653H41.3605V45.6343L54.0985 53.6143C49.5675 59.1683 42.7705 64.9643 32.5645 69.8493ZM25.7275 43.9213H39.3915V38.6723H25.7275V43.9213ZM31.1495 33.3943H33.9685V28.5163H31.1495V33.3943ZM23.4865 36.8283H41.6315V35.5243H23.4865V36.8283ZM8.67351 50.4513L23.7585 40.9393V42.9953L9.68451 51.8693C9.33151 51.3933 8.99551 50.9203 8.67351 50.4513ZM32.5605 3.66331C33.0175 3.66331 33.3875 4.01531 33.3875 4.44931C33.3875 4.88131 33.0175 5.23231 32.5605 5.23231C32.1025 5.23231 31.7315 4.88131 31.7315 4.44931C31.7315 4.01531 32.1025 3.66331 32.5605 3.66331ZM-0.000488281 0.000305176V32.9233C0.000511719 32.9793 0.0795116 38.8883 4.15651 46.6353C7.89751 53.7433 15.8605 63.8893 32.5785 72.0003C49.3095 63.8863 57.2625 53.7413 60.9915 46.6343C65.0555 38.8883 65.1185 32.9813 65.1185 32.9223V0.000305176H-0.000488281Z" fill="white"/>
</g>
<path fill-rule="evenodd" clip-rule="evenodd" d="M29.9257 57.8983C29.2547 57.8983 28.8247 57.5113 28.8247 56.9103C28.8247 56.4123 29.1267 56.0683 29.5477 55.8443C30.1057 56.0773 30.4407 56.2493 30.6557 56.4203C30.8447 56.5663 30.9397 56.7733 30.9397 57.0393C30.9397 57.5453 30.5267 57.8983 29.9257 57.8983ZM29.8477 53.3523C30.4247 53.3523 30.7587 53.6273 30.7587 54.0833C30.7587 54.5553 30.3117 54.8563 29.9337 55.0443C29.5297 54.8813 28.9367 54.5983 28.9367 54.0993C28.9367 53.6533 29.2977 53.3523 29.8477 53.3523ZM30.6207 55.4063C31.2147 55.1823 31.7647 54.7873 31.7647 54.0833C31.7647 53.2413 31.0167 52.6653 29.9337 52.6653C28.9977 52.6653 27.9827 53.0943 27.9827 54.1853C27.9827 54.7613 28.3787 55.2863 28.9027 55.5013C28.2667 55.7243 27.8027 56.2833 27.8027 56.9793C27.8027 58.1143 28.8427 58.6033 29.8307 58.6033C30.8187 58.6033 31.9797 57.9853 31.9797 56.8763C31.9797 56.1623 31.4547 55.7503 30.6207 55.4063Z" fill="white"/>
<path fill-rule="evenodd" clip-rule="evenodd" d="M27.0322 42.618H38.0882V39.976H27.0322V42.618Z" fill="white"/>
<path fill-rule="evenodd" clip-rule="evenodd" d="M35.4861 22.697H36.3551V18.329H35.4861V22.697ZM31.1501 22.699H33.9691V18.323H31.1501V22.699ZM28.7631 22.697H29.6321V18.329H28.7631V22.697ZM37.8321 16.874H27.2861V24.353H24.9951V25.874H40.1241V24.353H37.8321V16.874Z" fill="white"/>
<path fill-rule="evenodd" clip-rule="evenodd" d="M26.1695 52.7586H25.4995L23.7725 53.9716L24.0035 54.4776C24.1065 54.4436 24.4255 54.3056 24.6565 54.1946C24.8885 54.0826 25.1555 53.9106 25.2415 53.8596V57.6756H24.2445V58.4406H26.9685V57.6756H26.1695V52.7586Z" fill="white"/>
</svg>
