<svg width="261px" height="72px" viewBox="0 0 261 72" version="1.1" xmlns="http://www.w3.org/2000/svg" xmlns:xlink="http://www.w3.org/1999/xlink">
    <defs>
        <polygon id="path-1" points="0.404325 0.28935 7.743375 0.28935 7.743375 9.82035 0.404325 9.82035"></polygon>
        <polygon id="path-3" points="0 0.0001125 65.266875 0.0001125 65.266875 72 0 72"></polygon>
        <polygon id="path-5" points="0 72 260.868375 72 260.868375 0 0 0"></polygon>
    </defs>
    <g id="school-header" stroke="none" stroke-width="1" fill="none" fill-rule="evenodd">
        <g id="blse-1200-copy-38" transform="translate(-32.000000, -24.000000)">
            <g id="Group-118-Copy" transform="translate(32.000000, 24.000000)">
                <path d="M175.638712,36.4842 C174.473212,36.4842 173.552962,37.1367 172.694588,38.582325 C172.692337,38.5587 172.688963,38.537325 172.687838,38.514825 L172.690087,38.2752 C172.697962,38.1717 172.709212,38.067075 172.720462,37.96245 C172.747463,37.7352 172.772212,37.506825 172.799212,37.279575 C172.836337,36.94545 172.874587,36.61245 172.911712,36.27945 L169.303837,36.64845 L169.303837,37.28295 L170.944087,37.549575 L171.169087,39.12795 L171.169087,43.350075 L170.944087,44.9082 L169.509712,45.174825 L169.509712,45.81045 L174.775837,45.81045 L174.775837,45.174825 L173.136713,44.9082 L172.911712,43.350075 L172.911712,42.859575 L172.911712,41.52645 L172.911712,40.047075 L172.911712,39.64095 L172.911712,39.473325 C172.911712,39.446325 172.913962,39.419325 172.916213,39.390075 C173.509087,38.65545 174.305588,38.391075 174.919837,38.391075 C175.350712,38.391075 175.781588,38.53395 176.130338,38.697075 L176.643338,36.627075 C176.212462,36.50445 176.006587,36.4842 175.638712,36.4842" id="Fill-1" fill="#000000"></path>
                <path d="M251.669588,13.9941 C250.505212,13.9941 249.584962,14.6466 248.726587,16.0911 C248.724337,16.069725 248.719837,16.047225 248.718713,16.02585 L248.722087,15.786225 C248.728837,15.6816 248.740087,15.576975 248.752463,15.47235 C248.778337,15.2451 248.804213,15.016725 248.831212,14.789475 C248.868337,14.45535 248.906588,14.12235 248.943713,13.78935 L245.335837,14.15835 L245.335837,14.79285 L246.976088,15.059475 L247.201087,16.63785 L247.201087,20.859975 L246.976088,22.4181 L245.541712,22.684725 L245.541712,23.32035 L250.807838,23.32035 L250.807838,22.684725 L249.168712,22.4181 L248.943713,20.859975 L248.943713,20.369475 L248.943713,19.03635 L248.943713,17.556975 L248.943713,17.15085 L248.943713,16.983225 C248.943713,16.95735 248.945963,16.929225 248.948212,16.899975 C249.541088,16.166475 250.337588,15.900975 250.951838,15.900975 C251.382712,15.900975 251.813587,16.04385 252.161213,16.2081 L252.675338,14.136975 C252.244462,14.01435 252.038588,13.9941 251.669588,13.9941" id="Fill-3" fill="#000000"></path>
                <g id="Group-7" transform="translate(253.125000, 13.500000)">
                    <mask id="mask-2" fill="white">
                        <use xlink:href="#path-1"></use>
                    </mask>
                    <g id="Clip-6"></g>
                    <path d="M6.7392,0.4941 C5.5737,0.4941 4.65345,1.1466 3.795075,2.5911 C3.792825,2.569725 3.78945,2.547225 3.7872,2.52585 L3.790575,2.286225 C3.79845,2.1816 3.8097,2.076975 3.82095,1.97235 C3.84795,1.7451 3.8727,1.516725 3.8997,1.289475 C3.936825,0.95535 3.975075,0.62235 4.0122,0.28935 L0.404325,0.65835 L0.404325,1.29285 L2.044575,1.559475 L2.269575,3.13785 L2.269575,7.359975 L2.044575,8.9181 L0.6102,9.184725 L0.6102,9.82035 L5.876325,9.82035 L5.876325,9.184725 L4.2372,8.9181 L4.0122,7.359975 L4.0122,6.869475 L4.0122,5.53635 L4.0122,4.056975 L4.0122,3.65085 L4.0122,3.483225 C4.0122,3.45735 4.01445,3.429225 4.0167,3.399975 C4.609575,2.666475 5.406075,2.400975 6.020325,2.400975 C6.4512,2.400975 6.882075,2.54385 7.230825,2.7081 L7.743825,0.636975 C7.31295,0.51435 7.107075,0.4941 6.7392,0.4941" id="Fill-5" fill="#000000" mask="url(#mask-2)"></path>
                </g>
                <polygon id="Fill-8" fill="#000000" points="77.672475 22.684275 79.335225 22.355775 79.539975 20.283525 79.539975 12.9159 79.335225 10.84365 77.672475 10.51515 77.672475 9.89865 82.104975 9.89865 83.15235 12.9159 86.2506 20.981025 89.4321 12.89565 90.396225 9.89865 94.828725 9.89865 94.828725 10.51515 93.18735 10.84365 92.961225 12.9159 92.961225 20.283525 93.18735 22.355775 94.828725 22.684275 94.828725 23.3199 89.165475 23.3199 89.165475 22.684275 90.80685 22.355775 91.032975 20.283525 91.032975 11.294775 87.502725 20.283525 86.456475 23.3199 85.122225 23.3199 84.0141 20.283525 80.4636 11.294775 80.4636 20.283525 80.689725 22.355775 82.3311 22.684275 82.3311 23.3199 77.672475 23.3199"></polygon>
                <path d="M97.47045,10.08405 C97.47045,9.385425 98.045325,8.791425 98.763075,8.791425 C99.4617,8.791425 100.056825,9.365175 100.056825,10.1043 C100.056825,10.7613 99.523575,11.376675 98.763075,11.376675 C98.065575,11.376675 97.47045,10.863675 97.47045,10.08405 L97.47045,10.08405 Z M96.40395,22.68405 L97.840575,22.417425 L98.045325,20.858175 L98.045325,16.630425 L97.840575,15.050925 L96.198075,14.783175 L96.198075,14.146425 L100.0152,13.77855 L99.81045,16.630425 L99.81045,20.858175 L100.0152,22.417425 L101.451825,22.68405 L101.451825,23.3208 L96.40395,23.3208 L96.40395,22.68405 Z" id="Fill-10" fill="#000000"></path>
                <path d="M108.767137,21.0632625 L108.767137,14.9882625 C108.193387,14.7418875 107.741137,14.6192625 107.104388,14.6192625 C105.175012,14.6192625 104.108512,16.2201375 104.108512,18.7435125 C104.108512,20.9811375 104.929762,22.3356375 106.530637,22.3356375 C107.248388,22.3356375 108.007762,22.0071375 108.767137,21.0632625 M102.261263,19.1755125 C102.261263,15.9737625 104.272762,13.7158875 107.187637,13.7158875 C107.761387,13.7158875 108.213637,13.7777625 108.767137,13.9003875 L108.767137,11.4996375 L108.541013,9.9190125 L106.899637,9.6523875 L106.899637,9.0167625 L110.737012,8.6466375 L110.510887,11.4996375 L110.510887,20.8573875 L110.737012,22.4177625 L112.071262,22.6843875 L112.071262,23.3200125 L108.767137,23.7520125 L109.074262,21.8023875 C108.131512,23.0747625 107.167388,23.7520125 105.811763,23.7520125 C103.739513,23.7520125 102.261263,21.9666375 102.261263,19.1755125" id="Fill-12" fill="#000000"></path>
                <path d="M119.317838,21.0632625 L119.317838,14.9882625 C118.742963,14.7418875 118.291837,14.6192625 117.655088,14.6192625 C115.725713,14.6192625 114.659213,16.2201375 114.659213,18.7435125 C114.659213,20.9811375 115.480463,22.3356375 117.081338,22.3356375 C117.799088,22.3356375 118.558463,22.0071375 119.317838,21.0632625 M112.811963,19.1755125 C112.811963,15.9737625 114.823463,13.7158875 117.737213,13.7158875 C118.312088,13.7158875 118.763213,13.7777625 119.317838,13.9003875 L119.317838,11.4996375 L119.091713,9.9190125 L117.450338,9.6523875 L117.450338,9.0167625 L121.287713,8.6466375 L121.061588,11.4996375 L121.061588,20.8573875 L121.287713,22.4177625 L122.621963,22.6843875 L122.621963,23.3200125 L119.317838,23.7520125 L119.624963,21.8023875 C118.682213,23.0747625 117.716963,23.7520125 116.362463,23.7520125 C114.289088,23.7520125 112.811963,21.9666375 112.811963,19.1755125" id="Fill-14" fill="#000000"></path>
                <polygon id="Fill-16" fill="#000000" points="123.917288 22.684275 125.353912 22.41765 125.580037 20.857275 125.580037 11.499525 125.353912 9.9189 123.712537 9.6534 123.712537 9.01665 127.529663 8.646525 127.323787 11.499525 127.323787 20.857275 127.549912 22.41765 128.966287 22.684275 128.966287 23.3199 123.917288 23.3199"></polygon>
                <path d="M134.17515,17.2054125 L135.57015,16.9995375 C135.57015,15.3784125 134.810775,14.5369125 133.6824,14.5369125 C132.533775,14.5369125 131.7339,15.3997875 131.50665,17.2054125 L134.17515,17.2054125 Z M129.701025,18.8254125 C129.701025,15.7069125 131.28165,13.7156625 133.84665,13.7156625 C136.001025,13.7156625 137.499525,15.1117875 137.4174,18.0255375 L131.4864,18.0255375 C131.4864,18.0255375 131.46615,18.3124125 131.46615,18.4777875 C131.46615,20.7964125 132.59565,22.4377875 134.770275,22.4377875 C135.427275,22.4377875 136.1664,22.2735375 136.883025,21.7402875 L137.29365,22.2937875 C136.12365,23.3614125 135.24165,23.7517875 133.764525,23.7517875 C131.32215,23.7517875 129.701025,21.9866625 129.701025,18.8254125 L129.701025,18.8254125 Z" id="Fill-18" fill="#000000"></path>
                <path d="M145.8405,18.662175 C145.8405,16.5483 144.936,15.111675 143.562375,15.111675 C142.722,15.111675 141.921,15.460425 141.18075,16.322175 L141.18075,20.858175 L141.386625,22.64355 C141.879375,22.8078 142.228125,22.889925 142.7625,22.889925 C144.876375,22.889925 145.8405,21.002175 145.8405,18.662175 M139.415625,23.3208 L139.415625,11.4993 L139.210875,9.9198 L137.5695,9.653175 L137.5695,9.016425 L141.386625,8.647425 L141.18075,11.4993 L141.18075,15.35805 C141.940125,14.3523 143.049375,13.716675 144.3015,13.716675 C146.271375,13.716675 147.645,15.399675 147.645,18.005175 C147.645,21.186675 145.737,23.751675 142.043625,23.751675 C141.18075,23.751675 140.58675,23.751675 139.415625,23.3208" id="Fill-20" fill="#000000"></path>
                <path d="M150.0273,20.5502625 L150.0273,16.6307625 L149.801175,15.0501375 L148.2003,14.7835125 L148.2003,14.1467625 L151.997175,13.7777625 L151.790175,16.6307625 L151.790175,20.0788875 C151.790175,21.4941375 152.447175,22.3558875 153.740925,22.3558875 C154.62405,22.3558875 155.423925,21.8226375 155.9988,21.1251375 L155.9988,16.6307625 L155.792925,15.0501375 L154.19205,14.7835125 L154.19205,14.1467625 L157.988925,13.7777625 L157.7628,16.6307625 L157.7628,20.8573875 L157.988925,22.4177625 L159.467175,22.6843875 L159.467175,23.3200125 L155.9988,23.6901375 L156.224925,21.8428875 C155.25855,23.1771375 154.397925,23.7520125 152.94105,23.7520125 C151.1343,23.7520125 150.0273,22.6022625 150.0273,20.5502625" id="Fill-22" fill="#000000"></path>
                <polygon id="Fill-24" fill="#000000" points="169.637963 28.184625 169.637963 27.486 171.689963 27.158625 172.571963 25.722 173.456213 23.648625 170.581838 16.62975 169.740338 15.03 168.817837 14.783625 168.817837 14.146875 173.311087 14.146875 173.311087 14.783625 171.998213 15.03 172.490962 16.62975 174.337087 21.3705 176.061712 16.62975 176.511713 15.03 175.220213 14.783625 175.220213 14.146875 178.913588 14.146875 178.913588 14.783625 177.867337 15.03 177.087712 16.62975 172.614712 28.45125"></polygon>
                <path d="M166.899038,13.9914 C165.734663,13.9914 164.814413,14.6439 163.956038,16.0884 C163.953788,16.067025 163.949288,16.044525 163.948163,16.02315 L163.951538,15.783525 C163.958288,15.6789 163.969538,15.574275 163.981913,15.46965 C164.007788,15.2424 164.033663,15.014025 164.059538,14.786775 C164.097788,14.45265 164.134913,14.11965 164.173163,13.78665 L160.565288,14.15565 L160.565288,14.79015 L162.205538,15.056775 L162.430538,16.63515 L162.430538,20.8584 L162.205538,22.4154 L160.771163,22.682025 L160.771163,23.31765 L166.037288,23.31765 L166.037288,22.682025 L164.398163,22.4154 L164.173163,20.8584 L164.173163,20.366775 L164.173163,19.03365 L164.173163,17.554275 L164.173163,17.14815 L164.173163,16.980525 C164.173163,16.95465 164.174288,16.926525 164.176538,16.897275 C164.770538,16.163775 165.567038,15.898275 166.181287,15.898275 C166.612163,15.898275 167.041913,16.04115 167.390663,16.2054 L167.904788,14.1354 C167.472788,14.01165 167.268038,13.9914 166.899038,13.9914" id="Fill-26" fill="#000000"></path>
                <path d="M184.205813,16.650675 C184.205813,12.875175 186.339937,9.57105 191.286563,9.57105 C192.558938,9.57105 193.667063,9.673425 195.350063,10.02105 L195.554813,13.1418 L194.549063,13.1418 L194.077688,10.8423 C193.298063,10.575675 192.312563,10.391175 191.224688,10.391175 C188.084813,10.391175 186.279188,12.6693 186.279188,16.28055 C186.279188,20.016675 188.084813,22.82805 191.430563,22.82805 C192.272063,22.82805 193.420688,22.6233 194.241938,22.273425 L194.713313,20.07855 L195.719063,20.07855 L195.514313,23.2173 C194.097938,23.4648 193.133813,23.6493 191.040188,23.6493 C186.198187,23.6493 184.205813,20.653425 184.205813,16.650675" id="Fill-28" fill="#000000"></path>
                <path d="M197.3619,22.29435 C197.3619,21.6171 197.896275,20.981475 198.6759,20.981475 C199.35315,20.981475 199.988775,21.514725 199.988775,22.29435 C199.988775,22.950225 199.475775,23.586975 198.6759,23.586975 C197.997525,23.586975 197.3619,23.094225 197.3619,22.29435" id="Fill-30" fill="#000000"></path>
                <polygon id="Fill-32" fill="#000000" points="203.984437 20.2833 201.419437 12.915675 200.537437 10.8423 199.038938 10.514925 199.038938 9.89955 204.395062 9.89955 204.395062 10.514925 202.876312 10.8423 203.390437 12.915675 206.364937 21.47355 209.197688 12.915675 209.648812 10.8423 208.047937 10.514925 208.047937 9.89955 212.604187 9.89955 212.604187 10.514925 211.105687 10.8423 210.183187 12.9573 207.719437 20.2833 206.775562 23.56605 205.010437 23.56605"></polygon>
                <path d="M210.660863,22.29435 C210.660863,21.6171 211.195237,20.981475 211.973737,20.981475 C212.650987,20.981475 213.287737,21.514725 213.287737,22.29435 C213.287737,22.950225 212.774737,23.586975 211.973737,23.586975 C211.296488,23.586975 210.660863,23.094225 210.660863,22.29435" id="Fill-34" fill="#000000"></path>
                <path d="M219.528,23.012775 L219.322125,19.89315 L220.3695,19.89315 L220.779,22.04865 C221.4765,22.376025 222.11325,22.64265 222.95475,22.64265 C224.82225,22.64265 226.177875,21.7404 226.177875,20.200275 C226.177875,18.4779 224.535375,17.84115 222.95475,17.246025 C221.005125,16.5069 219.281625,15.727275 219.281625,13.367025 C219.281625,11.29365 220.86225,9.4059 223.92,9.4059 C224.96625,9.4059 226.258875,9.6939 227.367,10.1034 L227.593125,13.202775 L226.567125,13.202775 L226.114875,11.006775 C225.47925,10.617525 224.494875,10.3914 223.878375,10.3914 C221.846625,10.3914 220.842,11.519775 220.842,12.689775 C220.842,14.352525 222.2775,14.825025 223.714125,15.398775 C225.80775,16.240275 227.77875,17.122275 227.77875,19.646775 C227.77875,22.08915 225.80775,23.690025 222.852375,23.690025 C221.846625,23.690025 220.984875,23.58765 219.528,23.012775" id="Fill-36" fill="#000000"></path>
                <path d="M230.24295,21.5346375 L230.24295,15.0096375 L228.642075,15.0096375 L228.642075,14.2705125 L230.24295,13.9408875 L230.24295,11.5817625 L232.008075,11.2532625 L232.008075,14.1467625 L234.512325,14.1467625 L234.512325,15.0096375 L232.008075,15.0096375 L232.008075,20.8573875 C232.008075,21.9047625 232.377075,22.3761375 233.13645,22.3761375 C233.46495,22.3761375 234.019575,22.2737625 234.49095,21.9666375 L234.881325,22.6225125 C233.855325,23.4437625 233.178075,23.7520125 232.25445,23.7520125 C231.249825,23.7520125 230.24295,23.2378875 230.24295,21.5346375" id="Fill-38" fill="#000000"></path>
                <path d="M241.1271,20.8782 L241.1271,18.88695 C239.9166,18.88695 239.05485,19.052325 238.500225,19.401075 C237.946725,19.7082 237.658725,20.20095 237.658725,20.8377 C237.658725,21.637575 238.21335,22.294575 239.013225,22.294575 C239.6916,22.294575 240.511725,21.781575 241.1271,20.8782 M235.935225,21.26745 C235.935225,20.3652 236.324475,19.605825 237.14685,19.0107 C237.946725,18.415575 239.2596,18.10845 241.1271,18.10845 L241.1271,16.9992 C241.1271,15.706575 240.347475,14.9472 239.09535,14.9472 C238.335975,14.9472 237.5766,15.254325 236.89935,15.870825 L236.38635,15.317325 C237.30885,14.26995 238.5621,13.61295 240.018975,13.61295 C241.661475,13.61295 242.8506,14.496075 242.8506,16.527825 L242.8506,20.85795 L243.076725,22.418325 L244.4526,22.683825 L244.4526,23.320575 L241.0866,23.689575 L241.4556,21.432825 C240.696225,22.827825 239.710725,23.75145 238.315725,23.75145 C236.961225,23.75145 235.935225,22.827825 235.935225,21.26745" id="Fill-40" fill="#000000"></path>
                <path d="M77.645025,45.5023125 L77.440275,42.3838125 L78.486525,42.3838125 L78.89715,44.5393125 C79.59465,44.8666875 80.2314,45.1333125 81.071775,45.1333125 C82.9404,45.1333125 84.2949,44.2299375 84.2949,42.6909375 C84.2949,40.9674375 82.6524,40.3306875 81.071775,39.7355625 C79.123275,38.9975625 77.39865,38.2168125 77.39865,35.8565625 C77.39865,33.7843125 78.979275,31.8965625 82.037025,31.8965625 C83.083275,31.8965625 84.377025,32.1834375 85.48515,32.5940625 L85.71015,35.6923125 L84.68415,35.6923125 L84.233025,33.4974375 C83.5974,33.1070625 82.6119,32.8809375 81.996525,32.8809375 C79.964775,32.8809375 78.9579,34.0093125 78.9579,35.1804375 C78.9579,36.8420625 80.39565,37.3145625 81.832275,37.8883125 C83.9259,38.7298125 85.89465,39.6129375 85.89465,42.1374375 C85.89465,44.5798125 83.9259,46.1806875 80.970525,46.1806875 C79.964775,46.1806875 79.1019,46.0771875 77.645025,45.5023125" id="Fill-42" fill="#000000"></path>
                <path d="M87.2064,41.3780625 C87.2064,38.3405625 88.951275,36.2064375 91.57815,36.2064375 C92.46015,36.2064375 93.11715,36.3088125 94.245525,36.6980625 L94.47165,39.1606875 L93.671775,39.1606875 L93.199275,37.5811875 C92.706525,37.3753125 92.13165,37.1705625 91.47465,37.1705625 C90.0594,37.1705625 88.951275,38.1560625 88.951275,40.7210625 C88.951275,43.2658125 90.07965,44.9083125 92.09115,44.9083125 C92.747025,44.9083125 93.527775,44.6821875 94.245525,44.1680625 L94.697775,44.7429375 C93.548025,45.7498125 92.337525,46.2414375 91.1259,46.2414375 C88.787025,46.2414375 87.2064,44.4144375 87.2064,41.3780625" id="Fill-44" fill="#000000"></path>
                <path d="M95.752125,45.173925 L97.18875,44.908425 L97.414875,43.34805 L97.414875,33.989175 L97.18875,32.409675 L95.54625,32.14305 L95.54625,31.507425 L99.3645,31.1373 L99.158625,33.989175 L99.158625,37.8468 C99.8775,36.801675 101.026125,36.20655 102.23775,36.20655 C104.083875,36.20655 105.193125,37.334925 105.193125,39.407175 L105.193125,43.34805 L105.418125,44.908425 L106.8345,45.173925 L106.8345,45.80955 L102.05325,45.80955 L102.05325,45.173925 L103.222125,44.908425 L103.44825,43.34805 L103.44825,39.899925 C103.44825,38.5038 102.8115,37.602675 101.457,37.602675 C100.472625,37.602675 99.7335,38.196675 99.158625,38.853675 L99.158625,43.34805 L99.38475,44.908425 L100.55475,45.173925 L100.55475,45.80955 L95.752125,45.80955 L95.752125,45.173925 Z" id="Fill-46" fill="#000000"></path>
                <path d="M114.372338,41.1726375 C114.372338,38.4433875 113.490338,37.0472625 111.868088,37.0472625 C110.226713,37.0472625 109.324463,38.3398875 109.324463,41.1928875 C109.324463,43.9840125 110.206463,45.3790125 111.807338,45.3790125 C113.448713,45.3790125 114.372338,44.0245125 114.372338,41.1726375 M107.333213,41.3368875 C107.333213,38.3815125 108.934088,36.1855125 111.971588,36.1855125 C114.598462,36.1855125 116.342213,37.9506375 116.342213,41.1512625 C116.342213,44.2720125 114.474713,46.2610125 111.745463,46.2610125 C109.118588,46.2610125 107.333213,44.3935125 107.333213,41.3368875" id="Fill-48" fill="#000000"></path>
                <path d="M124.6176,41.1726375 C124.6176,38.4433875 123.7356,37.0472625 122.11335,37.0472625 C120.471975,37.0472625 119.569725,38.3398875 119.569725,41.1928875 C119.569725,43.9840125 120.451725,45.3790125 122.0526,45.3790125 C123.693975,45.3790125 124.6176,44.0245125 124.6176,41.1726375 M117.578475,41.3368875 C117.578475,38.3815125 119.17935,36.1855125 122.21685,36.1855125 C124.843725,36.1855125 126.587475,37.9506375 126.587475,41.1512625 C126.587475,44.2720125 124.719975,46.2610125 121.990725,46.2610125 C119.36385,46.2610125 117.578475,44.3935125 117.578475,41.3368875" id="Fill-50" fill="#000000"></path>
                <polygon id="Fill-52" fill="#000000" points="127.125225 45.173925 128.56185 44.908425 128.787975 43.34805 128.787975 33.989175 128.56185 32.409675 126.91935 32.14305 126.91935 31.507425 130.7376 31.1373 130.531725 33.989175 130.531725 43.34805 130.75785 44.908425 132.1731 45.173925 132.1731 45.80955 127.125225 45.80955"></polygon>
                <path d="M133.738988,45.686925 L133.574737,43.286175 L134.478112,43.286175 L134.826863,44.8668 C135.462487,45.15255 135.956363,45.317925 136.734862,45.317925 C137.842987,45.317925 138.541612,44.764425 138.541612,43.819425 C138.541612,42.629175 137.413238,42.28155 136.344487,41.89005 C135.051862,41.3568 133.533112,40.905675 133.533112,39.058425 C133.533112,37.499175 134.805487,36.0828 136.981237,36.0828 C137.904863,36.0828 138.808237,36.2673 139.711613,36.677925 L139.916362,39.078675 L139.012988,39.078675 L138.561862,37.45755 C137.986987,37.190925 137.391863,37.04805 136.734862,37.04805 C135.646987,37.04805 135.031612,37.499175 135.031612,38.421675 C135.031612,39.551175 136.181363,39.8988 137.185988,40.289175 C138.643987,40.8438 140.018737,41.29605 140.018737,43.20405 C140.018737,44.92755 138.623738,46.28205 136.550362,46.28205 C135.873112,46.28205 134.724488,46.0773 133.738988,45.686925" id="Fill-54" fill="#000000"></path>
                <path d="M153.381487,39.7564875 L151.555613,34.4003625 L149.647613,39.7564875 L153.381487,39.7564875 Z M145.131863,45.1733625 L146.692238,44.8459875 L147.594488,42.7737375 L151.452112,32.1841125 L152.745863,32.1841125 L156.459487,42.7737375 L157.342612,44.8459875 L158.799487,45.1733625 L158.799487,45.8101125 L153.504113,45.8101125 L153.504113,45.1733625 L154.982362,44.8459875 L154.428863,42.7737375 L153.669488,40.6193625 L149.359613,40.6193625 L148.559738,42.7737375 L148.025362,44.8459875 L149.544113,45.1733625 L149.544113,45.8101125 L145.131863,45.8101125 L145.131863,45.1733625 Z" id="Fill-56" fill="#000000"></path>
                <path d="M166.61565,41.151825 C166.61565,39.03795 165.712275,37.60245 164.337525,37.60245 C163.496025,37.60245 162.69615,37.950075 161.9559,38.81295 L161.9559,43.347825 L162.161775,45.1332 C162.654525,45.298575 163.003275,45.379575 163.53765,45.379575 C165.651525,45.379575 166.61565,43.491825 166.61565,41.151825 M160.1919,45.81045 L160.1919,33.98895 L159.986025,32.40945 L158.34465,32.142825 L158.34465,31.5072 L162.161775,31.137075 L161.9559,33.98895 L161.9559,37.846575 C162.715275,36.84195 163.824525,36.206325 165.07665,36.206325 C167.046525,36.206325 168.421275,37.889325 168.421275,40.49595 C168.421275,43.6752 166.51215,46.241325 162.818775,46.241325 C161.9559,46.241325 161.3619,46.241325 160.1919,45.81045" id="Fill-58" fill="#000000"></path>
                <path d="M184.296938,41.1726375 C184.296938,38.4433875 183.414938,37.0472625 181.792687,37.0472625 C180.151313,37.0472625 179.249063,38.3398875 179.249063,41.1928875 C179.249063,43.9840125 180.131063,45.3790125 181.731938,45.3790125 C183.374438,45.3790125 184.296938,44.0245125 184.296938,41.1726375 M177.257812,41.3368875 C177.257812,38.3815125 178.858688,36.1855125 181.896188,36.1855125 C184.523063,36.1855125 186.266813,37.9506375 186.266813,41.1512625 C186.266813,44.2720125 184.400438,46.2610125 181.670063,46.2610125 C179.043188,46.2610125 177.257812,44.3935125 177.257812,41.3368875" id="Fill-60" fill="#000000"></path>
                <path d="M192.857513,43.3677375 L192.857513,41.3776125 C191.647013,41.3776125 190.784138,41.5418625 190.230638,41.8906125 C189.676013,42.1988625 189.389138,42.6904875 189.389138,43.3272375 C189.389138,44.1271125 189.942637,44.7841125 190.743638,44.7841125 C191.422012,44.7841125 192.242138,44.2722375 192.857513,43.3677375 M187.665638,43.7581125 C187.665638,42.8558625 188.054888,42.0964875 188.876138,41.5002375 C189.676013,40.9062375 190.990013,40.5979875 192.857513,40.5979875 L192.857513,39.4898625 C192.857513,38.1961125 192.077888,37.4378625 190.825762,37.4378625 C190.067513,37.4378625 189.308138,37.7449875 188.629762,38.3614875 L188.116763,37.8068625 C189.040388,36.7606125 190.292513,36.1036125 191.749387,36.1036125 C193.391887,36.1036125 194.581013,36.9856125 194.581013,39.0184875 L194.581013,43.3474875 L194.807138,44.9078625 L196.181888,45.1733625 L196.181888,45.8101125 L192.815888,46.1802375 L193.186013,43.9223625 C192.426637,45.3173625 191.441138,46.2421125 190.046138,46.2421125 C188.691638,46.2421125 187.665638,45.3173625 187.665638,43.7581125" id="Fill-62" fill="#000000"></path>
                <path d="M203.530725,43.5533625 L203.530725,37.4783625 C202.95585,37.2319875 202.504725,37.1082375 201.867975,37.1082375 C199.939725,37.1082375 198.8721,38.7102375 198.8721,41.2336125 C198.8721,43.4712375 199.69335,44.8257375 201.294225,44.8257375 C202.011975,44.8257375 202.77135,44.4972375 203.530725,43.5533625 M197.02485,41.6644875 C197.02485,38.4638625 199.03635,36.2059875 201.951225,36.2059875 C202.524975,36.2059875 202.977225,36.2678625 203.530725,36.3904875 L203.530725,33.9897375 L203.3046,32.4091125 L201.663225,32.1424875 L201.663225,31.5068625 L205.5006,31.1367375 L205.2756,33.9897375 L205.2756,43.3474875 L205.5006,44.9078625 L206.835975,45.1733625 L206.835975,45.8101125 L203.530725,46.2421125 L203.83785,44.2913625 C202.8951,45.5648625 201.92985,46.2421125 200.57535,46.2421125 C198.5031,46.2421125 197.02485,44.4567375 197.02485,41.6644875" id="Fill-64" fill="#000000"></path>
                <g id="Group-68">
                    <mask id="mask-4" fill="white">
                        <use xlink:href="#path-3"></use>
                    </mask>
                    <g id="Clip-67"></g>
                    <path d="M1.62675,1.6268625 L1.62675,32.9817375 C1.62675,33.0346125 1.702125,38.6618625 5.585625,46.0396125 C9.147375,52.8087375 16.731,62.4702375 32.652,70.1956125 C48.585375,62.4679875 56.158875,52.8064875 59.709375,46.0384875 C63.5805,38.6618625 63.64125,33.0357375 63.64125,32.9806125 L63.64125,1.6268625 L1.62675,1.6268625 Z M32.652,72.0001125 L32.299875,71.8313625 C15.6825,63.8607375 7.790625,53.7661125 4.095,46.7011125 C0.061875,38.9892375 0,33.2247375 0,32.9839875 L0,0.0001125 L65.266875,0.0001125 L65.266875,32.9817375 C65.266875,33.2224875 65.221875,38.9858625 61.201125,46.6977375 C57.51675,53.7616125 49.633875,63.8573625 33.003,71.8313625 L32.652,72.0001125 Z" id="Fill-66" fill="#0D395F" mask="url(#mask-4)"></path>
                </g>
                <path d="M20.8918125,12.257775 C20.1571875,11.2734 19.1806875,10.482525 18.0455625,9.97965 C18.4798125,10.608525 18.8465625,11.380275 19.1289375,12.257775 L20.8918125,12.257775 Z" id="Fill-69" fill="#0D395F"></path>
                <path d="M15.7633875,9.5182875 L15.7633875,12.2576625 L17.8491375,12.2576625 C17.3226375,10.8244125 16.5576375,9.8524125 15.7633875,9.5182875" id="Fill-71" fill="#0D395F"></path>
                <path d="M11.7820125,15.92055 L14.5438875,15.92055 L14.5438875,13.478175 L12.0981375,13.478175 C11.9282625,14.213925 11.8168875,15.032925 11.7820125,15.92055" id="Fill-73" fill="#0D395F"></path>
                <path d="M12.4581375,12.257775 L14.5438875,12.257775 L14.5438875,9.5184 C13.7496375,9.852525 12.9846375,10.824525 12.4581375,12.257775" id="Fill-75" fill="#0D395F"></path>
                <path d="M12.0983625,19.584 L14.5441125,19.584 L14.5441125,17.1405 L11.7822375,17.1405 C11.8171125,18.028125 11.9284875,18.847125 12.0983625,19.584" id="Fill-77" fill="#0D395F"></path>
                <path d="M14.5438875,23.5434375 L14.5438875,20.8040625 L12.4581375,20.8040625 C12.9846375,22.2373125 13.7496375,23.2093125 14.5438875,23.5434375" id="Fill-79" fill="#0D395F"></path>
                <path d="M10.5625125,17.1406125 L8.0200125,17.1406125 C8.0942625,18.0091125 8.3248875,18.8303625 8.6815125,19.5841125 L10.8572625,19.5841125 C10.6963875,18.8202375 10.5951375,18.0012375 10.5625125,17.1406125" id="Fill-81" fill="#0D395F"></path>
                <path d="M18.2084625,13.477725 L15.7638375,13.477725 L15.7638375,15.9201 L18.5257125,15.9201 C18.4897125,15.0336 18.3794625,14.2146 18.2084625,13.477725" id="Fill-83" fill="#0D395F"></path>
                <path d="M10.8563625,13.477725 L8.6817375,13.477725 C8.3251125,14.23035 8.0933625,15.052725 8.0202375,15.9201 L10.5627375,15.9201 C10.5953625,15.0606 10.6954875,14.2416 10.8563625,13.477725" id="Fill-85" fill="#0D395F"></path>
                <path d="M9.4165875,20.80395 C10.1500875,21.7872 11.1265875,22.57695 12.2617125,23.079825 C11.8274625,22.452075 11.4607125,21.680325 11.1783375,20.80395 L9.4165875,20.80395 Z" id="Fill-87" fill="#0D395F"></path>
                <path d="M19.7454375,15.92055 L22.2879375,15.92055 C22.2136875,15.053175 21.9830625,14.2308 21.6264375,13.478175 L19.4506875,13.478175 C19.6115625,14.240925 19.7116875,15.059925 19.7454375,15.92055" id="Fill-89" fill="#0D395F"></path>
                <path d="M12.2610375,9.980775 C11.1270375,10.48365 10.1505375,11.274525 9.4159125,12.257775 L11.1787875,12.257775 C11.4611625,11.380275 11.8267875,10.60965 12.2610375,9.980775" id="Fill-91" fill="#0D395F"></path>
                <path d="M19.4504625,19.584 L21.6262125,19.584 C21.9817125,18.831375 22.2145875,18.009 22.2877125,17.1405 L19.7452125,17.1405 C19.7114625,18.001125 19.6113375,18.820125 19.4504625,19.584" id="Fill-93" fill="#0D395F"></path>
                <path d="M57.6196875,20.2366125 L49.8009375,24.8221125 L41.9765625,20.2366125 L41.9765625,11.3839875 L43.1971875,11.3839875 L43.1971875,19.5379875 L49.8009375,23.4079875 L56.4001875,19.5379875 L56.4001875,11.3839875 L57.6196875,11.3839875 L57.6196875,20.2366125 Z M44.4268125,10.6099875 C44.4268125,10.6099875 47.6814375,10.6628625 49.1428125,13.3538625 L49.1428125,21.5303625 C47.6814375,18.8393625 44.4268125,18.7864875 44.4268125,18.7864875 C44.4268125,18.7864875 44.3806875,10.5571125 44.4268125,10.6099875 L44.4268125,10.6099875 Z M50.3544375,13.4236125 C51.8315625,10.7337375 55.1199375,10.6808625 55.1199375,10.6808625 C55.1683125,10.6279875 55.1199375,18.8573625 55.1199375,18.8573625 C55.1199375,18.8573625 51.8315625,18.9091125 50.3544375,21.6001125 L50.3544375,13.4236125 Z M39.7119375,26.0281125 L25.5560625,26.0281125 L25.5560625,24.6049875 L27.6991875,24.6049875 L27.6991875,17.6086125 L37.5665625,17.6086125 L37.5665625,24.6049875 L39.7119375,24.6049875 L39.7119375,26.0281125 Z M15.1543125,24.9154875 C10.5305625,24.9154875 6.7685625,21.1534875 6.7685625,16.5308625 C6.7685625,11.9071125 10.5305625,8.1451125 15.1543125,8.1451125 C19.7769375,8.1451125 23.5389375,11.9071125 23.5389375,16.5308625 C23.5389375,21.1534875 19.7769375,24.9154875 15.1543125,24.9154875 L15.1543125,24.9154875 Z M33.3455625,3.6147375 L33.3455625,4.4269875 C33.9654375,4.6936125 34.4030625,5.2842375 34.4030625,5.9817375 C34.4030625,6.6769875 33.9654375,7.2687375 33.3455625,7.5342375 L33.3455625,8.5208625 C34.2770625,8.8617375 35.9600625,9.6773625 36.7284375,11.3344875 C37.4484375,12.8858625 37.5800625,14.2291125 37.5879375,14.9648625 L38.2505625,14.9648625 L38.2505625,16.3879875 L27.0174375,16.3879875 L27.0174375,14.9648625 L27.6800625,14.9648625 C27.6868125,14.2291125 27.8184375,12.8858625 28.5384375,11.3344875 C29.3068125,9.6807375 30.9886875,8.8617375 31.9224375,8.5197375 L31.9224375,7.5331125 C31.3014375,7.2676125 30.8638125,6.6769875 30.8638125,5.9817375 C30.8638125,5.2842375 31.3014375,4.6947375 31.9224375,4.4281125 L31.9224375,3.6147375 L3.9954375,3.6147375 L3.9954375,32.1132375 C3.9954375,32.1132375 3.9999375,33.3946125 4.4240625,35.5287375 C4.4724375,35.5118625 4.5219375,35.4949875 4.5714375,35.4781125 C7.6246875,34.4363625 13.1349375,32.6487375 16.7833125,32.6487375 C20.4316875,32.6487375 21.7715625,33.6173625 25.2725625,33.6173625 C25.6753125,33.6173625 26.0645625,33.6252375 26.4470625,33.6398625 L26.4470625,27.2397375 L38.8209375,27.2397375 L38.8209375,33.8491125 C41.2993125,33.7737375 43.1454375,33.8468625 45.3774375,34.2496125 C48.4678125,34.8087375 50.3668125,36.8191125 52.5628125,37.1543625 C54.7599375,37.4884875 56.6949375,37.0047375 59.0416875,37.1172375 C59.6458125,37.1453625 60.0856875,37.1656125 60.4771875,37.1847375 C61.2703125,34.0729875 61.2725625,32.1132375 61.2725625,32.1132375 L61.2725625,3.6147375 L33.3455625,3.6147375 Z" id="Fill-95" fill="#0D395F"></path>
                <path d="M18.5259375,17.1406125 L15.7629375,17.1406125 L15.7629375,19.5841125 L18.2086875,19.5841125 C18.3796875,18.8472375 18.4899375,18.0282375 18.5259375,17.1406125" id="Fill-97" fill="#0D395F"></path>
                <path d="M15.7633875,23.542875 C16.5576375,23.207625 17.3226375,22.23675 17.8491375,20.8035 L15.7633875,20.8035 L15.7633875,23.542875 Z" id="Fill-99" fill="#0D395F"></path>
                <path d="M18.0453375,23.08095 C19.1804625,22.578075 20.1569625,21.7872 20.8915875,20.80395 L19.1287125,20.80395 C18.8452125,21.68145 18.4795875,22.452075 18.0453375,23.08095" id="Fill-101" fill="#0D395F"></path>
                <mask id="mask-6" fill="white">
                    <use xlink:href="#path-5"></use>
                </mask>
                <g id="Clip-104"></g>
                <polygon id="Fill-103" fill="#0D395F" mask="url(#mask-6)" points="31.314375 33.066 33.9525 33.066 33.9525 28.501875 31.314375 28.501875"></polygon>
                <path d="M30.8525625,54.6111 C30.6511875,54.450225 30.3384375,54.28935 29.8153125,54.072225 C29.4215625,54.281475 29.1403125,54.603225 29.1403125,55.068975 C29.1403125,55.631475 29.5419375,55.993725 30.1696875,55.993725 C30.7321875,55.993725 31.1180625,55.6641 31.1180625,55.190475 C31.1180625,54.940725 31.0303125,54.747225 30.8525625,54.6111" id="Fill-105" fill="#0D395F" mask="url(#mask-6)"></path>
                <path d="M30.1768875,53.3246625 C30.5301375,53.1469125 30.9497625,52.8667875 30.9497625,52.4235375 C30.9497625,51.9971625 30.6358875,51.7406625 30.0970125,51.7406625 C29.5817625,51.7406625 29.2442625,52.0219125 29.2442625,52.4392875 C29.2442625,52.9061625 29.8000125,53.1716625 30.1768875,53.3246625" id="Fill-106" fill="#0D395F" mask="url(#mask-6)"></path>
                <path d="M34.641225,51.764625 C34.32735,51.764625 34.085475,52.014375 33.9336,52.439625 C33.804225,52.785 33.7491,53.242875 33.7491,53.814375 C33.7491,54.354375 33.788475,54.772875 33.860475,55.069875 C34.0056,55.6965 34.294725,55.962 34.632225,55.962 C34.97085,55.962 35.2431,55.672875 35.38935,55.206 C35.49285,54.860625 35.541225,54.40275 35.541225,53.86275 C35.541225,53.339625 35.50185,52.9785 35.42085,52.632 C35.26785,52.005375 34.994475,51.764625 34.641225,51.764625" id="Fill-107" fill="#0D395F" mask="url(#mask-6)"></path>
                <path d="M39.1275,56.6215875 C37.71225,56.6215875 37.26225,54.9723375 37.26225,53.8225875 C37.26225,52.2385875 38.066625,51.0967125 39.1365,51.0967125 C40.5765,51.0967125 41.025375,52.6807125 41.025375,53.8462125 C41.025375,55.5123375 40.253625,56.6215875 39.1275,56.6215875 L39.1275,56.6215875 Z M34.62525,56.6215875 C33.208875,56.6215875 32.758875,54.9723375 32.758875,53.8225875 C32.758875,52.2385875 33.56325,51.0967125 34.632,51.0967125 C36.072,51.0967125 36.523125,52.6807125 36.523125,53.8462125 C36.523125,55.5123375 35.751375,56.6215875 34.62525,56.6215875 L34.62525,56.6215875 Z M30.08025,56.6530875 C29.156625,56.6530875 28.182375,56.1952125 28.182375,55.1343375 C28.182375,54.4829625 28.61775,53.9598375 29.212875,53.7505875 C28.72125,53.5503375 28.35225,53.0587125 28.35225,52.5198375 C28.35225,51.4983375 29.300625,51.0967125 30.177,51.0967125 C31.190625,51.0967125 31.890375,51.6355875 31.890375,52.4242125 C31.890375,53.0823375 31.375125,53.4535875 30.8205,53.6617125 C31.60125,53.9834625 32.09175,54.3693375 32.09175,55.0375875 C32.09175,56.0748375 31.005,56.6530875 30.08025,56.6530875 L30.08025,56.6530875 Z M27.40275,56.5012125 L24.8535,56.5012125 L24.8535,55.7857125 L25.786125,55.7857125 L25.786125,52.2138375 C25.70625,52.2633375 25.4565,52.4242125 25.239375,52.5277125 C25.02225,52.6323375 24.72525,52.7605875 24.6285,52.7932125 L24.411375,52.3195875 L26.028,51.1844625 L26.65575,51.1844625 L26.65575,55.7857125 L27.40275,55.7857125 L27.40275,56.5012125 Z M40.869,44.5188375 L40.869,44.5469625 L24.427125,44.5469625 L12.51225,52.0102125 C16.756875,57.2020875 23.112,62.6144625 32.6385,67.1774625 C42.1875,62.6054625 48.54825,57.1829625 52.78725,51.9843375 L40.869,44.5188375 Z" id="Fill-108" fill="#0D395F" mask="url(#mask-6)"></path>
                <path d="M39.143925,51.764625 C38.83005,51.764625 38.5893,52.014375 38.4363,52.439625 C38.306925,52.785 38.2518,53.242875 38.2518,53.814375 C38.2518,54.354375 38.291175,54.772875 38.3643,55.069875 C38.5083,55.6965 38.797425,55.962 39.13605,55.962 C39.47355,55.962 39.746925,55.672875 39.89205,55.206 C39.996675,54.860625 40.043925,54.40275 40.043925,53.86275 C40.043925,53.339625 40.00455,52.9785 39.92355,52.632 C39.77055,52.005375 39.497175,51.764625 39.143925,51.764625" id="Fill-109" fill="#0D395F" mask="url(#mask-6)"></path>
                <polygon id="Fill-110" fill="#0D395F" mask="url(#mask-6)" points="24.14475 36.277875 41.122125 36.277875 41.122125 35.058375 24.14475 35.058375"></polygon>
                <path d="M27.46125,41.695875 L37.80675,41.695875 L37.80675,39.22425 L27.46125,39.22425 L27.46125,41.695875 Z M26.240625,42.9165 L39.02625,42.9165 L39.02625,38.00475 L26.240625,38.00475 L26.240625,42.9165 Z" id="Fill-111" fill="#0D395F" mask="url(#mask-6)"></path>
                <polygon id="Fill-112" fill="#0D395F" mask="url(#mask-6)" points="31.314375 23.058 33.9525 23.058 33.9525 18.963 31.314375 18.963"></polygon>
                <polygon id="Fill-113" fill="#0D395F" mask="url(#mask-6)" points="29.080125 23.05575 29.8935 23.05575 29.8935 18.968625 29.080125 18.968625"></polygon>
                <polygon id="Fill-114" fill="#0D395F" mask="url(#mask-6)" points="35.37225 23.05575 36.185625 23.05575 36.185625 18.968625 35.37225 18.968625"></polygon>
                <path d="M33.4085625,5.9823 C33.4085625,6.386175 33.0620625,6.714675 32.6345625,6.714675 C32.2059375,6.714675 31.8594375,6.386175 31.8594375,5.9823 C31.8594375,5.57505 32.2059375,5.24655 32.6345625,5.24655 C33.0620625,5.24655 33.4085625,5.57505 33.4085625,5.9823" id="Fill-115" fill="#0D395F" mask="url(#mask-6)"></path>
                <path d="M24.3981,40.1257125 L10.28385,49.0255875 C10.584225,49.4654625 10.899225,49.9064625 11.22885,50.3519625 L24.3981,42.0483375 L24.3981,40.1257125 Z" id="Fill-116" fill="#0D395F" mask="url(#mask-6)"></path>
                <path d="M40.868325,42.117525 L54.01395,50.42565 C54.3447,49.98015 54.6597,49.53915 54.9612,49.099275 L40.868325,40.19265 L40.868325,42.117525 Z" id="Fill-117" fill="#0D395F" mask="url(#mask-6)"></path>
            </g>
        </g>
    </g>
</svg>
