<svg width="124" height="99" viewBox="0 0 124 99" fill="none" xmlns="http://www.w3.org/2000/svg">
<path d="M27.9231 99.0016C19.5018 99.0016 12.7427 96.0583 7.64561 90.1718C2.54854 84.0589 0 75.9083 0 65.7201C0 53.4942 3.87821 41.8343 11.6346 30.7405C19.391 19.6466 31.1365 9.45839 46.8709 0.175781L57.1758 12.4017C49.1978 19.1938 42.3278 25.6464 36.5659 31.7593C31.0256 37.6458 28.0339 42.9664 27.5907 47.7209L28.9203 48.7397C30.4716 47.3812 32.9093 46.702 36.2335 46.702C41.3306 46.702 45.652 48.9661 49.1978 53.4942C52.7436 58.0223 54.5165 64.1352 54.5165 71.833C54.5165 79.7572 52.0788 86.3229 47.2033 91.5302C42.3278 96.5112 35.9011 99.0016 27.9231 99.0016ZM94.4066 99.0016C85.9854 99.0016 79.2262 96.0583 74.1291 90.1718C69.0321 84.0589 66.4835 75.9083 66.4835 65.7201C66.4835 53.4942 70.3617 41.8343 78.1181 30.7405C85.8745 19.6466 97.62 9.45839 113.354 0.175781L123.659 12.4017C115.681 19.1938 108.811 25.6464 103.049 31.7593C97.5092 37.6458 94.5174 42.9664 94.0742 47.7209L95.4038 48.7397C96.9551 47.3812 99.3929 46.702 102.717 46.702C107.814 46.702 112.136 48.9661 115.681 53.4942C119.227 58.0223 121 64.1352 121 71.833C121 79.7572 118.562 86.3229 113.687 91.5302C108.811 96.5112 102.385 99.0016 94.4066 99.0016Z" fill="#C0E3FD"/>
</svg>
