<svg xmlns="http://www.w3.org/2000/svg" width="42" height="1452" viewBox="0 0 42 1452">
  <title>
    journey-Mobile
  </title>
  <path fill="none" fill-rule="evenodd" stroke="#fff" stroke-dasharray="2" d="M38.7 0v277c-.14 37.2 1.19 108.08-7.62 140.38-7.18 26.3 6.8 55.23 6.8 82.4 0 34.13-27.43 31.81-27.43 66.22 0 17.93 8.83 31.73 15.15 43.01 8.3 14.82 13.3 31.87 13.3 54.23-.06 41.29.7 104.43.65 145.74-.03 24.53.23 49.32-.73 73.8-.75 18.97-5.59 34.25-7.54 52.54-1.98 18.61 5.68 33.66 8.43 50.25 2.95 17.75.57 38.6-4.35 54.76-6.32 20.77-41.24 43.76-33.15 74.32 4.21 15.9 16.25 15.95 20.03 32.91 1.44 6.5.94 14.2 2.5 20.61 2.11 8.7 6.69 13.36 9.5 20.98 6.12 16.63 4.74 38.37 4.63 57.58-.16 25.42 0 50.83 0 76.25v128.84"/>
</svg>
