<svg xmlns="http://www.w3.org/2000/svg" width="620" height="2070" viewBox="0 0 620 2070">
  <title>
    journey-Tablet
  </title>
  <path fill="none" fill-rule="evenodd" stroke="#FFF" stroke-dasharray="2" d="M750.62 2068.17H62.84c-19.38-.03-61.84 4.5-61.84-13.5 0-13.86 30.52-23.2 40.2-27.09 81.16-32.58 162.7-64.4 242.15-101.04 63.02-29.06 130.18-59.07 184.06-103.65 26.52-21.94 49-49.18 59.56-82.38 11.56-36.34-1.61-78.43-26.57-106.23-28.72-31.98-72.9-43.81-110.86-61.88-10.45-4.98-27.13-10.29-30.46-22.92-3.02-11.46 10.76-21.43 10.15-33.27-.62-12.08-14.75-17.87-26.37-21.22a570.62 570.62 0 0 1-46.63-15.68c-11.54-4.44-29.35-16.4-29.35-29.64 0-21.26 21.29-34.1 36.95-44.37 24.12-15.8 47.36-32.93 70.7-49.86 43.14-31.28 84.22-64.46 120.76-103.41 31.44-33.5 75.99-85.83 58.61-135.7-6.02-17.31-21.13-24.26-21.71-44.22-.52-17.6 9.83-35.26 9.07-52.43-1.7-38.86-38.48-64.4-67.66-84.15-60.85-41.18-130.6-65.92-196.1-98.34-15.63-7.74-34.65-18.5-34.65-38.42 0-20.37 23.11-32.4 38.24-41.2 23.8-13.82 46.87-28.84 69.82-44 95.83-63.35 203.54-152.63 203.54-278.14 0-26.7-5.42-53.41-15.93-77.96C504.96 279.13 431.54 229.92 355.97 197c-49.58-21.6-99.9-41.4-150.27-61.06-37.76-14.74-75.64-29.9-110.62-50.6C77.43 74.89 60.53 63.02 45.4 49.13 32 36.83 14.9 20.48 8.23 3.19 7.83 2.15 7.66 1.03 7.22 0"/>
</svg>
