<svg xmlns="http://www.w3.org/2000/svg" width="1343" height="3248" viewBox="0 0 1343 3248">
  <path fill="none" fill-rule="evenodd" stroke="#FFF" stroke-dasharray="2" d="M385.34.2c0 22.36-7.47 76.8-145.64 110.18-55.2 13.33-111.45 21.85-167.36 31.74-12.98 2.64-25.98 5.24-38.8 8.63-7.88 2.09-17.58 3.8-24.8 8.14-8.88 5.35-11.29 17.55-3.23 25.24 5.08 4.85 14.54 8.3 24.26 10.52 51.1 11.68 102.55 21.62 153.77 32.7 35.72 6.71 71.2 15.04 106.49 23.68 222.04 54.39 521.94 106.4 634.61 284.78 32.23 51.02 46.38 113.34 46.38 177.99.1 64.65-14.04 126.97-46.27 178-70.12 118.06-198 200.61-331.03 263.83-17.83 8.47-67.05 31.77-58.18 59.53 2.99 9.33 15.2 15.21 24.54 18.18 22.84 7.26 57.8 13.26 62.25 37.43 0 0 24.34 44.63-111.65 127.82-66.05 40.41-138.01 69.62-209.6 98.53a5391.2 5391.2 0 0 0-111.01 46.4c-28.96 12.45-71.73 27.76-80.9 53.73-12.9 36.55 25.01 57.84 15.9 100.55-8.53 40-44.63 64.41-72.5 95.44-17.62 19.6-28.3 46.14-26.7 72.55 2.13 35.21 29.58 65.56 60.58 84.74 197.55 122.2 921 310.06 651.42 492.87-46.4 31.47-65.33 59.8-16 88 56 32 114.74 43.3 176 75.2 30.17 15.71 50.1 43.36 46.88 79.64-13.28 149.16-663.32 384.8-768.48 435.56-46.4 22.4-87.95 49.18-89.39 77.05-1.8 34.95 47.8 47.84 90.16 47.84 44.2 0 88.38.38 132.55.38h1033.47"/>
</svg>
