<?xml version="1.0" encoding="UTF-8"?>
<svg width="232px" height="72px" viewBox="0 0 232 72" version="1.1" xmlns="http://www.w3.org/2000/svg" xmlns:xlink="http://www.w3.org/1999/xlink">
    <!-- Generator: Sketch 54.1 (76490) - https://sketchapp.com -->
    <title>language-schools-logo</title>
    <desc>Created with Sketch.</desc>
    <g id="language-schools-logo" stroke="none" stroke-width="1" fill="none" fill-rule="evenodd">
        <g id="Group-56" transform="translate(77.000000, 9.000000)" fill="#000000">
            <polygon id="Fill-1" points="13.0078696 1.83513846 12.0323804 4.87790769 8.81725362 13.0884205 5.68468116 4.89877949 4.62607609 1.83513846 0.145115942 1.83513846 0.145115942 2.46072821 1.8254058 2.79354872 2.03263406 4.89877949 2.03263406 12.3799077 1.8254058 14.4840103 0.145115942 14.817959 0.145115942 15.4638564 4.85464493 15.4638564 4.85464493 14.817959 3.19513406 14.4840103 2.96712681 12.3799077 2.96712681 3.25272821 6.55627536 12.3799077 7.6766558 15.4638564 9.02448188 15.4638564 10.083087 12.3799077 13.6514565 3.25272821 13.6514565 12.3799077 13.4228877 14.4840103 11.7633768 14.817959 11.7633768 15.4638564 17.4888297 15.4638564 17.4888297 14.817959 15.8287572 14.4840103 15.6013116 12.3799077 15.6013116 4.89877949 15.8287572 2.79354872 17.4888297 2.46072821 17.4888297 1.83513846"></polygon>
            <g id="Group-55" transform="translate(0.000000, 0.308733)">
                <path d="M20.1593225,1.71419487 C20.1593225,1.00568205 20.7400109,0.400964103 21.4667138,0.400964103 C22.1715145,0.400964103 22.7735435,0.985374359 22.7735435,1.73506667 C22.7735435,2.4018359 22.2338514,3.02686154 21.4667138,3.02686154 C20.7607899,3.02686154 20.1593225,2.50563077 20.1593225,1.71419487 L20.1593225,1.71419487 Z M19.0810616,14.5091692 L20.5327826,14.2384 L20.7400109,12.6544 L20.7400109,8.36157949 L20.5327826,6.75727179 L18.8727101,6.48593846 L18.8727101,5.84004103 L22.7319855,5.46547692 L22.5241957,8.36157949 L22.5241957,12.6544 L22.7319855,14.2384 L24.1837065,14.5091692 L24.1837065,15.1550667 L19.0810616,15.1550667 L19.0810616,14.5091692 Z" id="Fill-2"></path>
                <path d="M31.5793406,12.8628923 L31.5793406,6.69443077 C30.9986522,6.44453333 30.5420761,6.31986667 29.8984891,6.31986667 C27.9480725,6.31986667 26.8698116,7.94504615 26.8698116,10.5077641 C26.8698116,12.7794051 27.6998478,14.1552513 29.3178007,14.1552513 C30.0445036,14.1552513 30.8116413,13.8213026 31.5793406,12.8628923 M25.0025109,10.9460718 C25.0025109,7.69458462 27.0360435,5.4026359 29.9816051,5.4026359 C30.5622935,5.4026359 31.0188696,5.46525128 31.5793406,5.58991795 L31.5793406,3.15186667 L31.3507717,1.54699487 L29.6912609,1.27678974 L29.6912609,0.630328205 L33.5707536,0.2552 L33.3421848,3.15186667 L33.3421848,12.6541744 L33.5707536,14.2381744 L34.9191413,14.5089436 L34.9191413,15.154841 L31.5793406,15.5925846 L31.8904638,13.6131487 C30.9357536,14.9055077 29.9613877,15.5925846 28.5916594,15.5925846 C26.4963514,15.5925846 25.0025109,13.779559 25.0025109,10.9460718" id="Fill-4"></path>
                <path d="M42.2449692,12.8628923 L42.2449692,6.69443077 C41.6642808,6.44453333 41.2077047,6.31986667 40.5646793,6.31986667 C38.6137011,6.31986667 37.5354402,7.94504615 37.5354402,10.5077641 C37.5354402,12.7794051 38.3654764,14.1552513 39.9839909,14.1552513 C40.7101322,14.1552513 41.4778315,13.8213026 42.2449692,12.8628923 M35.6681395,10.9460718 C35.6681395,7.69458462 37.7016721,5.4026359 40.6472337,5.4026359 C41.2279221,5.4026359 41.6850598,5.46525128 42.2449692,5.58991795 L42.2449692,3.15186667 L42.0164004,1.54699487 L40.3574511,1.27678974 L40.3574511,0.630328205 L44.2369438,0.2552 L44.008375,3.15186667 L44.008375,12.6541744 L44.2369438,14.2381744 L45.5847699,14.5089436 L45.5847699,15.154841 L42.2449692,15.5925846 L42.5560924,13.6131487 C41.6013822,14.9055077 40.6270163,15.5925846 39.257288,15.5925846 C37.1619801,15.5925846 35.6681395,13.779559 35.6681395,10.9460718" id="Fill-7"></path>
                <polygon id="Fill-10" points="46.8945761 14.5089436 48.3468587 14.2387385 48.5754275 12.6541744 48.5754275 3.15186667 48.3468587 1.54699487 46.6873478 1.27678974 46.6873478 0.630328205 50.5466232 0.2552 50.3382717 3.15186667 50.3382717 12.6541744 50.5668406 14.2387385 51.9983442 14.5089436 51.9983442 15.1554051 46.8945761 15.1554051"></polygon>
                <path d="M57.2648623,8.94531282 L58.6750254,8.73659487 C58.6750254,7.09054359 57.9078877,6.23649231 56.7661667,6.23649231 C55.6047899,6.23649231 54.7960942,7.11141538 54.5675254,8.94531282 L57.2648623,8.94531282 Z M52.7417826,10.5913641 C52.7417826,7.42392821 54.3395181,5.40274872 56.9323986,5.40274872 C59.1108225,5.40274872 60.625442,6.81977436 60.5423261,9.77905641 L54.5467464,9.77905641 C54.5467464,9.77905641 54.526529,10.0706974 54.526529,10.2376718 C54.526529,12.5916718 55.6671268,14.259159 57.8663297,14.259159 C58.5301341,14.259159 59.2770543,14.0927487 60.0026341,13.5506462 L60.4182138,14.1130564 C59.2354964,15.1972615 58.3436848,15.5926974 56.8498442,15.5926974 C54.3805145,15.5926974 52.7417826,13.8005436 52.7417826,10.5913641 L52.7417826,10.5913641 Z" id="Fill-13"></path>
                <path d="M69.056712,10.4250103 C69.056712,8.2786 68.1435598,6.81983077 66.7541757,6.81983077 C65.9039221,6.81983077 65.0941033,7.17352308 64.347183,8.04957436 L64.347183,12.6543436 L64.5544112,14.4679333 C65.0531069,14.6343436 65.4052264,14.7178308 65.9449185,14.7178308 C68.082346,14.7178308 69.056712,12.8004462 69.056712,10.4250103 M62.5629982,15.1550103 L62.5629982,3.1520359 L62.3552083,1.5471641 L60.6962591,1.27695897 L60.6962591,0.630497436 L64.5544112,0.255369231 L64.347183,3.1520359 L64.347183,7.06972821 C65.1143207,6.04870256 66.2352627,5.40280513 67.501096,5.40280513 C69.4925091,5.40280513 70.8824547,7.11147179 70.8824547,9.75824103 C70.8824547,12.9882923 68.952817,15.5927538 65.2182156,15.5927538 C64.347183,15.5927538 63.7457156,15.5927538 62.5629982,15.1550103" id="Fill-15"></path>
                <path d="M73.2894475,12.3420564 L73.2894475,8.36174872 L73.0608786,6.75744103 L71.4423641,6.48610769 L71.4423641,5.84021026 L75.2808605,5.46564615 L75.0730707,8.36174872 L75.0730707,11.8625692 C75.0730707,13.3004667 75.7363134,14.1753897 77.0442663,14.1753897 C77.9360779,14.1753897 78.7453351,13.6338513 79.3260236,12.9253385 L79.3260236,8.36174872 L79.1187953,6.75744103 L77.5002808,6.48610769 L77.5002808,5.84021026 L81.3382156,5.46564615 L81.1102083,8.36174872 L81.1102083,12.6545692 L81.3382156,14.2385692 L82.8320562,14.5087744 L82.8320562,15.1552359 L79.3260236,15.5303641 L79.5545924,13.6552872 C78.5791033,15.0096974 77.7075091,15.5929795 76.2350091,15.5929795 C74.4087047,15.5929795 73.2894475,14.4258513 73.2894475,12.3420564" id="Fill-18"></path>
                <polygon id="Fill-20" points="93.1141721 20.0940667 93.1141721 19.3855538 95.1887011 19.0521692 96.0805127 17.5934 96.9734475 15.4887333 94.0683207 8.36186154 93.218067 6.73611795 92.2841359 6.48622051 92.2841359 5.83975897 96.827433 5.83975897 96.827433 6.48622051 95.4998243 6.73611795 95.9985199 8.36186154 97.8652591 13.1753487 99.6078859 8.36186154 100.0639 6.73611795 98.7576322 6.48622051 98.7576322 5.83975897 102.491672 5.83975897 102.491672 6.48622051 101.433629 6.73611795 100.645712 8.36186154 96.1226322 20.3648359"></polygon>
                <path d="M90.3456812,5.68214872 C89.1680181,5.68214872 88.2385797,6.34440513 87.3697935,7.8116359 C87.3675471,7.78907179 87.3636159,7.76707179 87.3624928,7.74450769 L87.3653007,7.50137949 C87.3726014,7.39532821 87.3843949,7.28927692 87.3961884,7.18378974 C87.4225833,6.95194359 87.4489783,6.72066154 87.4753732,6.48881538 C87.513,6.15091795 87.5511884,5.81189231 87.5899384,5.47399487 L83.9429457,5.84799487 L83.9429457,6.49332821 L85.6007717,6.76409744 L85.8282174,8.36671282 L85.8282174,12.6538923 L85.6007717,14.2362 L84.1507355,14.5064051 L84.1507355,15.1523026 L89.4746486,15.1523026 L89.4746486,14.5064051 L87.8173841,14.2362 L87.5899384,12.6538923 L87.5899384,12.1557897 L87.5899384,10.8025077 L87.5899384,9.30030256 L87.5899384,8.88794359 L87.5899384,8.71758462 C87.5899384,8.69050769 87.5916232,8.66230256 87.5938696,8.63353333 C88.1942138,7.88778974 88.9995399,7.61814872 89.6201014,7.61814872 C90.055337,7.61814872 90.4905725,7.76368718 90.842692,7.93009744 L91.3616051,5.82768718 C90.925808,5.70302051 90.7185797,5.68214872 90.3456812,5.68214872" id="Fill-22"></path>
                <polygon id="Fill-24" points="5.61594203e-05 37.3509795 1.68034601 37.0170308 1.88813587 34.9123641 1.88813587 27.4318 1.68034601 25.3271333 5.61594203e-05 24.9931846 5.61594203e-05 24.3687231 5.72607065 24.3687231 5.72607065 24.9931846 4.0452192 25.3271333 3.83799094 27.4318 3.83799094 34.8920564 4.0452192 36.7468256 5.64295471 37.0802103 6.97056341 37.0802103 8.7339692 36.7468256 9.19054529 34.7042103 10.0823569 34.7042103 9.87512862 37.997441 5.61594203e-05 37.997441"></polygon>
                <path d="M16.6449783,35.5170821 L16.6449783,33.4959026 C15.4207029,33.4959026 14.5496703,33.6623128 13.9891993,34.0165692 C13.4292899,34.3290821 13.1389457,34.829441 13.1389457,35.4753385 C13.1389457,36.2882103 13.6988551,36.9549795 14.5081123,36.9549795 C15.1932572,36.9549795 16.0227319,36.4337487 16.6449783,35.5170821 M11.3963188,35.9130821 C11.3963188,34.9958513 11.790558,34.2247231 12.6200326,33.6211333 C13.4292899,33.0158513 14.7568986,32.7039026 16.6449783,32.7039026 L16.6449783,31.5785179 C16.6449783,30.2658513 15.8570616,29.4947231 14.5912283,29.4947231 C13.8240906,29.4947231 13.0558297,29.8072359 12.3712464,30.4316974 L11.8528949,29.8692872 C12.7862645,28.8065179 14.0520978,28.1397487 15.5251594,28.1397487 C17.1846703,28.1397487 18.3881667,29.0366718 18.3881667,31.0990308 L18.3881667,35.4967744 L18.6161739,37.0802103 L20.005558,37.3509795 L20.005558,37.9968769 L16.6034203,38.3725692 L16.9768804,36.0800564 C16.2097428,37.4970821 15.2134746,38.4340564 13.80275,38.4340564 C12.4335833,38.4340564 11.3963188,37.4970821 11.3963188,35.9130821" id="Fill-26"></path>
                <path d="M21.3142971,37.3509795 L22.7671413,37.0802103 L22.9951486,35.4967744 L22.9951486,31.2033897 L22.7671413,29.5990821 L21.1070688,29.3277487 L21.1070688,28.6818513 L24.7585543,28.3067231 L24.5299855,30.1823641 C25.3808007,28.8696974 26.4601848,28.2441077 27.8709094,28.2441077 C29.6545326,28.2441077 30.816471,29.4321077 30.816471,31.4955949 L30.816471,35.4967744 L31.0242609,37.0802103 L32.4967609,37.3509795 L32.4967609,37.997441 L27.6215616,37.997441 L27.6215616,37.3509795 L28.8037174,37.0802103 L29.0120688,35.4967744 L29.0120688,31.9953897 C29.0120688,30.5986718 28.3477029,29.6611333 27.0408732,29.6611333 C26.2523949,29.6611333 25.6711449,29.8907231 24.7585543,30.9111846 L24.7585543,35.4967744 L24.9865616,37.0802103 L26.1698406,37.3509795 L26.1698406,37.997441 L21.3142971,37.997441 L21.3142971,37.3509795 Z" id="Fill-28"></path>
                <path d="M39.4227337,31.8079949 C39.4227337,30.1619436 38.8622627,28.9525077 37.513875,28.9525077 C36.3103786,28.9525077 35.6679149,29.9740974 35.6679149,31.6822 C35.6679149,33.3288154 36.3103786,34.3086615 37.6177699,34.3086615 C38.7797083,34.3086615 39.4227337,33.3496872 39.4227337,31.8079949 M41.1867011,40.4974308 C41.1867011,39.7059949 40.6672264,39.2473795 38.4270272,38.8716872 L36.4356141,38.5383026 C35.8543641,38.8716872 35.0451069,39.5802 35.0451069,40.3727641 C35.0451069,41.5805077 36.2486033,42.3730718 38.0945634,42.3730718 C39.8377518,42.3730718 41.1867011,41.6019436 41.1867011,40.4974308 M33.4473714,40.9143026 C33.4473714,39.8103538 34.5267554,38.8305077 35.6257953,38.3724564 C34.6098714,38.1423026 33.9247264,37.6222 33.9247264,36.8719436 C33.9247264,35.9761487 34.6716467,35.3296872 35.7920272,34.7667128 C34.5475344,34.2669179 33.7798351,33.0992256 33.7798351,31.599841 C33.7798351,29.7653795 35.1282228,28.1616359 37.5559946,28.1616359 C38.3439112,28.1616359 39.0706141,28.3066103 39.8585308,28.8069692 L42.5968641,28.0984564 L42.5968641,29.4319949 L40.4599982,29.4319949 C40.9789112,30.0993282 41.2692554,30.6199949 41.2692554,31.6822 C41.2692554,33.5369692 39.7344185,35.1215333 37.5969909,35.1215333 C37.3066467,35.1215333 36.9331866,35.1000974 36.601846,35.0160462 C36.0200344,35.3088154 35.5426793,35.7459949 35.5426793,36.0799436 C35.5426793,36.8087641 36.6428424,36.934559 38.2607953,37.1838923 C40.2319909,37.4969692 42.3682953,37.5793282 42.3682953,39.7674821 C42.3682953,41.7897897 40.4599982,43.435841 37.3274257,43.435841 C35.0872264,43.435841 33.4473714,42.4774308 33.4473714,40.9143026" id="Fill-30"></path>
                <path d="M45.4543678,35.1832462 L45.4543678,31.2029385 L45.2263605,29.5991949 L43.6084076,29.3278615 L43.6084076,28.6819641 L47.4457808,28.3068359 L47.2385525,31.2029385 L47.2385525,34.703759 C47.2385525,36.1416564 47.9023569,37.0171436 49.2097482,37.0171436 C50.1009982,37.0171436 50.910817,36.4756051 51.4915054,35.7665282 L51.4915054,31.2029385 L51.2842772,29.5991949 L49.6663243,29.3278615 L49.6663243,28.6819641 L53.5036975,28.3068359 L53.2762518,31.2029385 L53.2762518,35.4968872 L53.5036975,37.079759 L54.997538,37.3510923 L54.997538,37.9969897 L51.4915054,38.3721179 L51.7195127,36.4964769 C50.7445851,37.8508872 49.8735525,38.4341692 48.3999293,38.4341692 C46.5747482,38.4341692 45.4543678,37.267041 45.4543678,35.1832462" id="Fill-32"></path>
                <path d="M61.3446196,35.5170821 L61.3446196,33.4959026 C60.1203442,33.4959026 59.2493116,33.6623128 58.6888406,34.0165692 C58.1283696,34.3290821 57.838587,34.829441 57.838587,35.4753385 C57.838587,36.2882103 58.3984964,36.9549795 59.2077536,36.9549795 C59.892337,36.9549795 60.7229348,36.4337487 61.3446196,35.5170821 M56.0959601,35.9130821 C56.0959601,34.9958513 56.4896377,34.2247231 57.3202355,33.6211333 C58.1283696,33.0158513 59.4565399,32.7039026 61.3446196,32.7039026 L61.3446196,31.5785179 C61.3446196,30.2658513 60.5567029,29.4947231 59.290308,29.4947231 C58.5231703,29.4947231 57.7549094,29.8072359 57.0708877,30.4316974 L56.5525362,29.8692872 C57.4853442,28.8065179 58.7517391,28.1397487 60.2242391,28.1397487 C61.8843116,28.1397487 63.0872464,29.0366718 63.0872464,31.0990308 L63.0872464,35.4967744 L63.3158152,37.0802103 L64.7057609,37.3509795 L64.7057609,37.9968769 L61.3036232,38.3725692 L61.6770833,36.0800564 C60.9093841,37.4970821 59.9131159,38.4340564 58.5018297,38.4340564 C57.1332246,38.4340564 56.0959601,37.4970821 56.0959601,35.9130821" id="Fill-34"></path>
                <path d="M71.5740018,31.8079949 C71.5740018,30.1619436 71.0140924,28.9525077 69.6657047,28.9525077 C68.4627699,28.9525077 67.819183,29.9740974 67.819183,31.6822 C67.819183,33.3288154 68.4627699,34.3086615 69.769038,34.3086615 C70.931538,34.3086615 71.5740018,33.3496872 71.5740018,31.8079949 M73.3379692,40.4974308 C73.3379692,39.7059949 72.8190562,39.2473795 70.5788569,38.8716872 L68.5874438,38.5383026 C68.0061938,38.8716872 67.1969366,39.5802 67.1969366,40.3727641 C67.1969366,41.5805077 68.400433,42.3730718 70.2463931,42.3730718 C71.9895815,42.3730718 73.3379692,41.6019436 73.3379692,40.4974308 M65.5992011,40.9143026 C65.5992011,39.8103538 66.6785851,38.8305077 67.777625,38.3724564 C66.7617011,38.1423026 66.0765562,37.6222 66.0765562,36.8719436 C66.0765562,35.9761487 66.8234764,35.3296872 67.9438569,34.7667128 C66.6988025,34.2669179 65.9316649,33.0992256 65.9316649,31.599841 C65.9316649,29.7653795 67.2800525,28.1616359 69.7078243,28.1616359 C70.4957409,28.1616359 71.2218822,28.3066103 72.0097989,28.8069692 L74.7486938,28.0984564 L74.7486938,29.4319949 L72.6118279,29.4319949 C73.1301793,30.0993282 73.4210851,30.6199949 73.4210851,31.6822 C73.4210851,33.5369692 71.8862482,35.1215333 69.7488207,35.1215333 C69.4579149,35.1215333 69.0844547,35.1000974 68.7536757,35.0160462 C68.1713025,35.3088154 67.6945091,35.7459949 67.6945091,36.0799436 C67.6945091,36.8087641 68.7946721,36.934559 70.412625,37.1838923 C72.3832591,37.4969692 74.520125,37.5793282 74.520125,39.7674821 C74.520125,41.7897897 72.6118279,43.435841 69.4792554,43.435841 C67.2384946,43.435841 65.5992011,42.4774308 65.5992011,40.9143026" id="Fill-36"></path>
                <path d="M79.9353533,31.7870667 L81.3466395,31.5783487 C81.3466395,29.9322974 80.5789402,29.0776821 79.4377808,29.0776821 C78.2752808,29.0776821 77.4665851,29.9526051 77.2380163,31.7870667 L79.9353533,31.7870667 Z M75.4122736,33.4331179 C75.4122736,30.2662462 77.0100091,28.2439385 79.6028895,28.2439385 C81.7813134,28.2439385 83.295933,29.6609641 83.212817,32.6202462 L77.2172373,32.6202462 C77.2172373,32.6202462 77.1970199,32.9118872 77.1970199,33.0788615 C77.1970199,35.4339897 78.3376178,37.1003487 80.5368207,37.1003487 C81.200625,37.1003487 81.9475453,36.9345026 82.6742482,36.3924 L83.0887047,36.9548103 C81.9065489,38.0384513 81.0141757,38.4338872 79.5208967,38.4338872 C77.0510054,38.4338872 75.4122736,36.6422974 75.4122736,33.4331179 L75.4122736,33.4331179 Z" id="Fill-38"></path>
                <path d="M91.9378007,37.6792872 L91.7305725,34.5124154 L92.7886159,34.5124154 L93.2030725,36.7005692 C93.9089964,37.0339538 94.5514601,37.3052872 95.4022754,37.3052872 C97.2897935,37.3052872 98.6595217,36.3880564 98.6595217,34.8249282 C98.6595217,33.0745179 97.0000109,32.4280564 95.4022754,31.8239026 C93.4316413,31.0736462 91.6890145,30.2822103 91.6890145,27.8859026 C91.6890145,25.7812359 93.2861884,23.8632872 96.3772029,23.8632872 C97.4352464,23.8632872 98.7426377,24.1560564 99.8624565,24.5723641 L100.091025,27.7189282 L99.0537609,27.7189282 L98.5971848,25.4895949 C97.9541594,25.0930308 96.9578913,24.8640051 96.3356449,24.8640051 C94.2824565,24.8640051 93.2654094,26.0102615 93.2654094,27.1976974 C93.2654094,28.8854923 94.717692,29.3649795 96.1699746,29.9482615 C98.2860616,30.8028769 100.278036,31.6992359 100.278036,34.2625179 C100.278036,36.7423128 98.2860616,38.3680564 95.2983804,38.3680564 C94.2824565,38.3680564 93.4103007,38.2636974 91.9378007,37.6792872" id="Fill-40"></path>
                <path d="M101.603342,33.4915026 C101.603342,30.4069897 103.36731,28.2397077 106.022527,28.2397077 C106.914339,28.2397077 107.578143,28.3440667 108.719303,28.7400667 L108.94731,31.2407333 L108.138614,31.2407333 L107.661259,29.6358615 C107.163125,29.4277077 106.582437,29.2195538 105.918632,29.2195538 C104.487129,29.2195538 103.36731,30.2191436 103.36731,32.8247333 C103.36731,35.4083231 104.507908,37.0758103 106.540879,37.0758103 C107.204683,37.0758103 107.993161,36.8462205 108.719303,36.3249897 L109.175317,36.9088359 C108.01394,37.9298615 106.789665,38.4296564 105.565951,38.4296564 C103.201078,38.4296564 101.603342,36.5754513 101.603342,33.4915026" id="Fill-42"></path>
                <path d="M110.24229,37.3465795 L111.694572,37.0758103 L111.92258,35.4923744 L111.92258,25.9895026 L111.694572,24.3846308 L110.0345,24.1138615 L110.0345,23.4674 L113.893775,23.0922718 L113.686547,25.9895026 L113.686547,29.9071949 C114.412688,28.8444256 115.574065,28.2397077 116.798341,28.2397077 C118.66508,28.2397077 119.78546,29.3859641 119.78546,31.4911949 L119.78546,35.4923744 L120.013467,37.0758103 L121.444971,37.3465795 L121.444971,37.993041 L116.61133,37.993041 L116.61133,37.3465795 L117.793486,37.0758103 L118.022616,35.4923744 L118.022616,31.9909897 C118.022616,30.5739641 117.379029,29.6567333 116.009862,29.6567333 C115.014156,29.6567333 114.267236,30.2614513 113.686547,30.9282205 L113.686547,35.4923744 L113.913993,37.0758103 L115.097272,37.3465795 L115.097272,37.993041 L110.24229,37.993041 L110.24229,37.3465795 Z" id="Fill-44"></path>
                <path d="M129.065524,33.2827282 C129.065524,30.5112923 128.173712,29.0937026 126.534418,29.0937026 C124.874908,29.0937026 123.961755,30.4069333 123.961755,33.3041641 C123.961755,36.1376513 124.854129,37.5546769 126.472643,37.5546769 C128.132154,37.5546769 129.065524,36.179959 129.065524,33.2827282 M121.949563,33.4497026 C121.949563,30.449241 123.568078,28.2187795 126.638313,28.2187795 C129.293531,28.2187795 131.056937,30.0109333 131.056937,33.2618564 C131.056937,36.4292923 129.169418,38.4510359 126.409745,38.4510359 C123.754527,38.4510359 121.949563,36.5550872 121.949563,33.4497026" id="Fill-46"></path>
                <path d="M139.422668,33.2827282 C139.422668,30.5112923 138.530857,29.0937026 136.891563,29.0937026 C135.232053,29.0937026 134.3189,30.4069333 134.3189,33.3041641 C134.3189,36.1376513 135.211274,37.5546769 136.829788,37.5546769 C138.489299,37.5546769 139.422668,36.179959 139.422668,33.2827282 M132.306708,33.4497026 C132.306708,30.449241 133.925223,28.2187795 136.995458,28.2187795 C139.650676,28.2187795 141.414082,30.0109333 141.414082,33.2618564 C141.414082,36.4292923 139.526563,38.4510359 136.766889,38.4510359 C134.111672,38.4510359 132.306708,36.5550872 132.306708,33.4497026" id="Fill-48"></path>
                <polygon id="Fill-50" points="141.958098 37.3465795 143.41038 37.0758103 143.637826 35.4923744 143.637826 25.9895026 143.41038 24.3846308 141.750308 24.1138615 141.750308 23.4674 145.609022 23.0922718 145.401793 25.9895026 145.401793 35.4923744 145.629801 37.0758103 147.061304 37.3465795 147.061304 37.993041 141.958098 37.993041"></polygon>
                <path d="M148.643484,37.8671333 L148.477813,35.4296462 L149.390404,35.4296462 L149.743085,37.0339538 C150.386672,37.3255949 150.884245,37.4925692 151.672723,37.4925692 C152.793103,37.4925692 153.498466,36.930159 153.498466,35.9717487 C153.498466,34.7623128 152.357306,34.4080564 151.278484,34.0120564 C149.971092,33.4699538 148.436255,33.0119026 148.436255,31.1362615 C148.436255,29.5528256 149.722306,28.1149282 151.921509,28.1149282 C152.854879,28.1149282 153.768031,28.3022103 154.681183,28.7185179 L154.888411,31.1571333 L153.975259,31.1571333 L153.519245,29.5110821 C152.937995,29.2403128 152.336527,29.0936462 151.672723,29.0936462 C150.573121,29.0936462 149.950875,29.5528256 149.950875,30.4903641 C149.950875,31.6366205 151.112252,31.9908769 152.129299,32.3868769 C153.601799,32.9492872 154.992306,33.4084667 154.992306,35.3455949 C154.992306,37.0960051 153.58102,38.4718513 151.486274,38.4718513 C150.80169,38.4718513 149.63919,38.2636974 148.643484,37.8671333" id="Fill-52"></path>
            </g>
        </g>
        <g id="shield-use-copy-2">
            <path d="M1.62675,1.62675 L1.62675,32.981625 C1.62675,33.0345 1.702125,38.66175 5.585625,46.0395 C9.147375,52.808625 16.731,62.470125 32.652,70.1955 C48.585375,62.467875 56.158875,52.806375 59.709375,46.038375 C63.5805,38.66175 63.64125,33.035625 63.64125,32.9805 L63.64125,1.62675 L1.62675,1.62675 Z" id="Path" fill="#FFFFFF"></path>
            <path d="M1.62675,1.62675 L1.62675,32.981625 C1.62675,33.0345 1.702125,38.66175 5.585625,46.0395 C9.147375,52.808625 16.731,62.470125 32.652,70.1955 C48.585375,62.467875 56.158875,52.806375 59.709375,46.038375 C63.5805,38.66175 63.64125,33.035625 63.64125,32.9805 L63.64125,1.62675 L1.62675,1.62675 Z M32.652,72 L32.299875,71.83125 C15.6825,63.860625 7.790625,53.766 4.095,46.701 C0.061875,38.989125 -9.9475983e-14,33.224625 -9.9475983e-14,32.983875 L-9.9475983e-14,0 L65.266875,0 L65.266875,32.981625 C65.266875,33.222375 65.221875,38.98575 61.201125,46.697625 C57.51675,53.7615 49.633875,63.85725 33.003,71.83125 L32.652,72 Z M20.8918125,12.2576625 L19.1289375,12.2576625 C18.8465625,11.3801625 18.4798125,10.6084125 18.0455625,9.9795375 C19.1806875,10.4824125 20.1571875,11.2732875 20.8918125,12.2576625 Z M15.7633875,9.518175 C16.5576375,9.8523 17.3226375,10.8243 17.8491375,12.25755 L15.7633875,12.25755 L15.7633875,9.518175 Z M11.7820125,15.9204375 C11.8168875,15.0328125 11.9282625,14.2138125 12.0981375,13.4780625 L14.5438875,13.4780625 L14.5438875,15.9204375 L11.7820125,15.9204375 Z M12.4581375,12.2576625 C12.9846375,10.8244125 13.7496375,9.8524125 14.5438875,9.5182875 L14.5438875,12.2576625 L12.4581375,12.2576625 Z M12.0983625,19.5838875 C11.9284875,18.8470125 11.8171125,18.0280125 11.7822375,17.1403875 L14.5441125,17.1403875 L14.5441125,19.5838875 L12.0983625,19.5838875 Z M14.5438875,23.543325 C13.7496375,23.2092 12.9846375,22.2372 12.4581375,20.80395 L14.5438875,20.80395 L14.5438875,23.543325 Z M10.5625125,17.1405 C10.5951375,18.001125 10.6963875,18.820125 10.8572625,19.584 L8.6815125,19.584 C8.3248875,18.83025 8.0942625,18.009 8.0200125,17.1405 L10.5625125,17.1405 Z M18.2084625,13.4776125 C18.3794625,14.2144875 18.4897125,15.0334875 18.5257125,15.9199875 L15.7638375,15.9199875 L15.7638375,13.4776125 L18.2084625,13.4776125 Z M10.8563625,13.4776125 C10.6954875,14.2414875 10.5953625,15.0604875 10.5627375,15.9199875 L8.0202375,15.9199875 C8.0933625,15.0526125 8.3251125,14.2302375 8.6817375,13.4776125 L10.8563625,13.4776125 Z M9.4165875,20.8038375 L11.1783375,20.8038375 C11.4607125,21.6802125 11.8274625,22.4519625 12.2617125,23.0797125 C11.1265875,22.5768375 10.1500875,21.7870875 9.4165875,20.8038375 Z M19.7454375,15.9204375 C19.7116875,15.0598125 19.6115625,14.2408125 19.4506875,13.4780625 L21.6264375,13.4780625 C21.9830625,14.2306875 22.2136875,15.0530625 22.2879375,15.9204375 L19.7454375,15.9204375 Z M12.2610375,9.9806625 C11.8267875,10.6095375 11.4611625,11.3801625 11.1787875,12.2576625 L9.4159125,12.2576625 C10.1505375,11.2744125 11.1270375,10.4835375 12.2610375,9.9806625 Z M19.4504625,19.5838875 C19.6113375,18.8200125 19.7114625,18.0010125 19.7452125,17.1403875 L22.2877125,17.1403875 C22.2145875,18.0088875 21.9817125,18.8312625 21.6262125,19.5838875 L19.4504625,19.5838875 Z M18.5259375,17.1405 C18.4899375,18.028125 18.3796875,18.847125 18.2086875,19.584 L15.7629375,19.584 L15.7629375,17.1405 L18.5259375,17.1405 Z M15.7633875,23.5427625 L15.7633875,20.8033875 L17.8491375,20.8033875 C17.3226375,22.2366375 16.5576375,23.2075125 15.7633875,23.5427625 Z M18.0453375,23.0808375 C18.4795875,22.4519625 18.8452125,21.6813375 19.1287125,20.8038375 L20.8915875,20.8038375 C20.1569625,21.7870875 19.1804625,22.5779625 18.0453375,23.0808375 Z M57.6196875,20.2365 L57.6196875,11.383875 L56.4001875,11.383875 L56.4001875,19.537875 L49.8009375,23.407875 L43.1971875,19.537875 L43.1971875,11.383875 L41.9765625,11.383875 L41.9765625,20.2365 L49.8009375,24.822 L57.6196875,20.2365 Z M44.4268125,10.609875 C44.3806875,10.557 44.4268125,18.786375 44.4268125,18.786375 C44.4268125,18.786375 47.6814375,18.83925 49.1428125,21.53025 L49.1428125,13.35375 C47.6814375,10.66275 44.4268125,10.609875 44.4268125,10.609875 Z M50.3544375,13.4235 L50.3544375,21.6 C51.8315625,18.909 55.1199375,18.85725 55.1199375,18.85725 C55.1199375,18.85725 55.1683125,10.627875 55.1199375,10.68075 C55.1199375,10.68075 51.8315625,10.733625 50.3544375,13.4235 Z M39.7119375,26.028 L39.7119375,24.604875 L37.5665625,24.604875 L37.5665625,17.6085 L27.6991875,17.6085 L27.6991875,24.604875 L25.5560625,24.604875 L25.5560625,26.028 L39.7119375,26.028 Z M15.1543125,24.915375 C19.7769375,24.915375 23.5389375,21.153375 23.5389375,16.53075 C23.5389375,11.907 19.7769375,8.145 15.1543125,8.145 C10.5305625,8.145 6.7685625,11.907 6.7685625,16.53075 C6.7685625,21.153375 10.5305625,24.915375 15.1543125,24.915375 Z M33.3455625,3.614625 L61.2725625,3.614625 L61.2725625,32.113125 C61.2725625,32.113125 61.2703125,34.072875 60.4771875,37.184625 C60.0856875,37.1655 59.6458125,37.14525 59.0416875,37.117125 C56.6949375,37.004625 54.7599375,37.488375 52.5628125,37.15425 C50.3668125,36.819 48.4678125,34.808625 45.3774375,34.2495 C43.1454375,33.84675 41.2993125,33.773625 38.8209375,33.849 L38.8209375,27.239625 L26.4470625,27.239625 L26.4470625,33.63975 C26.0645625,33.625125 25.6753125,33.61725 25.2725625,33.61725 C21.7715625,33.61725 20.4316875,32.648625 16.7833125,32.648625 C13.1349375,32.648625 7.6246875,34.43625 4.5714375,35.478 C4.5219375,35.494875 4.4724375,35.51175 4.4240625,35.528625 C3.9999375,33.3945 3.9954375,32.113125 3.9954375,32.113125 L3.9954375,3.614625 L31.9224375,3.614625 L31.9224375,4.428 C31.3014375,4.694625 30.8638125,5.284125 30.8638125,5.981625 C30.8638125,6.676875 31.3014375,7.2675 31.9224375,7.533 L31.9224375,8.519625 C30.9886875,8.861625 29.3068125,9.680625 28.5384375,11.334375 C27.8184375,12.88575 27.6868125,14.229 27.6800625,14.96475 L27.0174375,14.96475 L27.0174375,16.387875 L38.2505625,16.387875 L38.2505625,14.96475 L37.5879375,14.96475 C37.5800625,14.229 37.4484375,12.88575 36.7284375,11.334375 C35.9600625,9.67725 34.2770625,8.861625 33.3455625,8.52075 L33.3455625,7.534125 C33.9654375,7.268625 34.4030625,6.676875 34.4030625,5.981625 C34.4030625,5.284125 33.9654375,4.6935 33.3455625,4.426875 L33.3455625,3.614625 Z M33.4085625,5.9821875 C33.4085625,6.3860625 33.0620625,6.7145625 32.6345625,6.7145625 C32.2059375,6.7145625 31.8594375,6.3860625 31.8594375,5.9821875 C31.8594375,5.5749375 32.2059375,5.2464375 32.6345625,5.2464375 C33.0620625,5.2464375 33.4085625,5.5749375 33.4085625,5.9821875 Z M31.314375,33.0658875 L31.314375,28.5017625 L33.9525,28.5017625 L33.9525,33.0658875 L31.314375,33.0658875 Z M31.314375,23.0578875 L31.314375,18.9628875 L33.9525,18.9628875 L33.9525,23.0578875 L31.314375,23.0578875 Z M29.080125,23.0556375 L29.080125,18.9685125 L29.8935,18.9685125 L29.8935,23.0556375 L29.080125,23.0556375 Z M35.37225,23.0556375 L35.37225,18.9685125 L36.185625,18.9685125 L36.185625,23.0556375 L35.37225,23.0556375 Z M24.14475,36.2777625 L24.14475,35.0582625 L41.122125,35.0582625 L41.122125,36.2777625 L24.14475,36.2777625 Z M27.46125,41.6957625 L37.80675,41.6957625 L37.80675,39.2241375 L27.46125,39.2241375 L27.46125,41.6957625 Z M26.240625,42.9163875 L26.240625,38.0046375 L39.02625,38.0046375 L39.02625,42.9163875 L26.240625,42.9163875 Z M24.3981,40.1256 L24.3981,42.048225 L11.22885,50.35185 C10.899225,49.90635 10.584225,49.46535 10.28385,49.025475 L24.3981,40.1256 Z M40.868325,42.1174125 L40.868325,40.1925375 L54.9612,49.0991625 C54.6597,49.5390375 54.3447,49.9800375 54.01395,50.4255375 L40.868325,42.1174125 Z M30.8525625,54.6109875 C31.0303125,54.7471125 31.1180625,54.9406125 31.1180625,55.1903625 C31.1180625,55.6639875 30.7321875,55.9936125 30.1696875,55.9936125 C29.5419375,55.9936125 29.1403125,55.6313625 29.1403125,55.0688625 C29.1403125,54.6031125 29.4215625,54.2813625 29.8153125,54.0721125 C30.3384375,54.2892375 30.6511875,54.4501125 30.8525625,54.6109875 Z M30.1768875,53.32455 C29.8000125,53.17155 29.2442625,52.90605 29.2442625,52.439175 C29.2442625,52.0218 29.5817625,51.74055 30.0970125,51.74055 C30.6358875,51.74055 30.9497625,51.99705 30.9497625,52.423425 C30.9497625,52.866675 30.5301375,53.1468 30.1768875,53.32455 Z M33.9336,52.4395125 C34.085475,52.0142625 34.32735,51.7645125 34.641225,51.7645125 C34.994475,51.7645125 35.26785,52.0052625 35.42085,52.6318875 C35.50185,52.9783875 35.541225,53.3395125 35.541225,53.8626375 C35.541225,54.4026375 35.49285,54.8605125 35.38935,55.2058875 C35.2431,55.6727625 34.97085,55.9618875 34.632225,55.9618875 C34.294725,55.9618875 34.0056,55.6963875 33.860475,55.0697625 C33.788475,54.7727625 33.7491,54.3542625 33.7491,53.8142625 C33.7491,53.2427625 33.804225,52.7848875 33.9336,52.4395125 Z M39.1275,56.621475 C40.253625,56.621475 41.025375,55.512225 41.025375,53.8461 C41.025375,52.6806 40.5765,51.0966 39.1365,51.0966 C38.066625,51.0966 37.26225,52.238475 37.26225,53.822475 C37.26225,54.972225 37.71225,56.621475 39.1275,56.621475 Z M34.62525,56.621475 C35.751375,56.621475 36.523125,55.512225 36.523125,53.8461 C36.523125,52.6806 36.072,51.0966 34.632,51.0966 C33.56325,51.0966 32.758875,52.238475 32.758875,53.822475 C32.758875,54.972225 33.208875,56.621475 34.62525,56.621475 Z M30.08025,56.652975 C31.005,56.652975 32.09175,56.074725 32.09175,55.037475 C32.09175,54.369225 31.60125,53.98335 30.8205,53.6616 C31.375125,53.453475 31.890375,53.082225 31.890375,52.4241 C31.890375,51.635475 31.190625,51.0966 30.177,51.0966 C29.300625,51.0966 28.35225,51.498225 28.35225,52.519725 C28.35225,53.0586 28.72125,53.550225 29.212875,53.750475 C28.61775,53.959725 28.182375,54.48285 28.182375,55.134225 C28.182375,56.1951 29.156625,56.652975 30.08025,56.652975 Z M27.40275,56.5011 L27.40275,55.7856 L26.65575,55.7856 L26.65575,51.18435 L26.028,51.18435 L24.411375,52.319475 L24.6285,52.7931 C24.72525,52.760475 25.02225,52.632225 25.239375,52.5276 C25.4565,52.4241 25.70625,52.263225 25.786125,52.213725 L25.786125,55.7856 L24.8535,55.7856 L24.8535,56.5011 L27.40275,56.5011 Z M40.869,44.518725 L52.78725,51.984225 C48.54825,57.18285 42.1875,62.60535 32.6385,67.17735 C23.112,62.61435 16.756875,57.201975 12.51225,52.0101 L24.427125,44.54685 L40.869,44.54685 L40.869,44.518725 Z M39.143925,51.7645125 C39.497175,51.7645125 39.77055,52.0052625 39.92355,52.6318875 C40.00455,52.9783875 40.043925,53.3395125 40.043925,53.8626375 C40.043925,54.4026375 39.996675,54.8605125 39.89205,55.2058875 C39.746925,55.6727625 39.47355,55.9618875 39.13605,55.9618875 C38.797425,55.9618875 38.5083,55.6963875 38.3643,55.0697625 C38.291175,54.7727625 38.2518,54.3542625 38.2518,53.8142625 C38.2518,53.2427625 38.306925,52.7848875 38.4363,52.4395125 C38.5893,52.0142625 38.83005,51.7645125 39.143925,51.7645125 Z" id="Shape" fill="#0D395F"></path>
        </g>
    </g>
</svg>