<?xml version="1.0" encoding="UTF-8" standalone="no"?>
<svg width="113px" height="22px" viewBox="0 0 113 22" version="1.1" xmlns="http://www.w3.org/2000/svg" xmlns:xlink="http://www.w3.org/1999/xlink">
    <!-- Generator: Sketch 50.2 (55047) - http://www.bohemiancoding.com/sketch -->
    <title>midd-wordmark</title>
    <desc>Created with Sketch.</desc>
    <defs>
        <polygon id="path-1" points="0.2522 0.1097 11.469 0.1097 11.469 15.9997 0.2522 15.9997"></polygon>
    </defs>
    <g id="anchor-header" stroke="none" stroke-width="1" fill="none" fill-rule="evenodd">
        <g id="anchor-interior-1200" transform="translate(-116.000000, -24.000000)">
            <g id="Group-10">
                <g id="Group-9" transform="translate(40.000000, 8.000000)">
                    <g id="midd-wordmark" transform="translate(75.000000, 16.000000)">
                        <polygon id="Fill-1" fill="#FFFFFF" points="15.1345 1.3909 14.0625 4.7189 10.5305 13.7019 7.0885 4.7419 5.9235 1.3909 0.9995 1.3909 0.9995 2.0749 2.8465 2.4389 3.0745 4.7419 3.0745 12.9259 2.8465 15.2289 0.9995 15.5929 0.9995 16.2999 6.1745 16.2999 6.1745 15.5929 4.3505 15.2289 4.1005 12.9259 4.1005 2.9409 8.0455 12.9259 9.2765 16.2999 10.7575 16.2999 11.9195 12.9259 15.8415 2.9409 15.8415 12.9259 15.5905 15.2289 13.7675 15.5929 13.7675 16.2999 20.0595 16.2999 20.0595 15.5929 18.2345 15.2289 17.9845 12.9259 17.9845 4.7419 18.2345 2.4389 20.0595 2.0749 20.0595 1.3909"></polygon>
                        <g id="Group-21" transform="translate(21.000000, 0.000000)">
                            <path d="M1.9933,1.5963 C1.9933,0.8213 2.6323,0.1593 3.4303,0.1593 C4.2053,0.1593 4.8663,0.7983 4.8663,1.6183 C4.8663,2.3483 4.2733,3.0323 3.4303,3.0323 C2.6543,3.0323 1.9933,2.4623 1.9933,1.5963 Z M0.8083,15.5933 L2.4043,15.2973 L2.6323,13.5653 L2.6323,8.8683 L2.4043,7.1133 L0.5803,6.8163 L0.5803,6.1103 L4.8203,5.7003 L4.5933,8.8683 L4.5933,13.5653 L4.8203,15.2973 L6.4163,15.5933 L6.4163,16.3003 L0.8083,16.3003 L0.8083,15.5933 Z" id="Fill-2" fill="#FFFFFF"></path>
                            <path d="M14.5431,13.7926 L14.5431,7.0446 C13.9041,6.7716 13.4031,6.6346 12.6961,6.6346 C10.5531,6.6346 9.3671,8.4126 9.3671,11.2166 C9.3671,13.7016 10.2791,15.2066 12.0581,15.2066 C12.8561,15.2066 13.6991,14.8416 14.5431,13.7926 M7.3151,11.6956 C7.3151,8.1386 9.5501,5.6306 12.7871,5.6306 C13.4261,5.6306 13.9281,5.6996 14.5431,5.8366 L14.5431,3.1686 L14.2921,1.4136 L12.4691,1.1176 L12.4691,0.4106 L16.7311,0.0006 L16.4801,3.1686 L16.4801,13.5646 L16.7311,15.2976 L18.2131,15.5936 L18.2131,16.3006 L14.5431,16.7786 L14.8851,14.6136 C13.8361,16.0266 12.7651,16.7786 11.2601,16.7786 C8.9571,16.7786 7.3151,14.7956 7.3151,11.6956" id="Fill-4" fill="#FFFFFF"></path>
                            <path d="M26.2638,13.7926 L26.2638,7.0446 C25.6248,6.7716 25.1228,6.6346 24.4168,6.6346 C22.2738,6.6346 21.0878,8.4126 21.0878,11.2166 C21.0878,13.7016 21.9998,15.2066 23.7788,15.2066 C24.5768,15.2066 25.4198,14.8416 26.2638,13.7926 M19.0358,11.6956 C19.0358,8.1386 21.2708,5.6306 24.5078,5.6306 C25.1468,5.6306 25.6478,5.6996 26.2638,5.8366 L26.2638,3.1686 L26.0118,1.4136 L24.1888,1.1176 L24.1888,0.4106 L28.4518,0.0006 L28.2008,3.1686 L28.2008,13.5646 L28.4518,15.2976 L29.9338,15.5936 L29.9338,16.3006 L26.2638,16.7786 L26.6058,14.6136 C25.5568,16.0266 24.4858,16.7786 22.9808,16.7786 C20.6778,16.7786 19.0358,14.7956 19.0358,11.6956" id="Fill-6" fill="#FFFFFF"></path>
                            <polygon id="Fill-8" fill="#FFFFFF" points="31.3732 15.5933 32.9692 15.2973 33.2202 13.5653 33.2202 3.1693 32.9692 1.4133 31.1452 1.1173 31.1452 0.4103 35.3862 0.0003 35.1572 3.1693 35.1572 13.5653 35.4082 15.2973 36.9812 15.5933 36.9812 16.3003 31.3732 16.3003"></polygon>
                            <path d="M42.7687,9.5069 L44.3187,9.2789 C44.3187,7.4779 43.4747,6.5429 42.2207,6.5429 C40.9447,6.5429 40.0557,7.5009 39.8047,9.5069 L42.7687,9.5069 Z M37.7987,11.3079 C37.7987,7.8429 39.5547,5.6309 42.4037,5.6309 C44.7977,5.6309 46.4617,7.1809 46.3707,10.4189 L39.7827,10.4189 C39.7827,10.4189 39.7597,10.7379 39.7597,10.9209 C39.7597,13.4969 41.0137,15.3199 43.4297,15.3199 C44.1597,15.3199 44.9807,15.1379 45.7777,14.5459 L46.2347,15.1609 C44.9337,16.3459 43.9547,16.7789 42.3127,16.7789 C39.5997,16.7789 37.7987,14.8189 37.7987,11.3079 Z" id="Fill-10" fill="#FFFFFF"></path>
                            <path d="M55.7267,11.1256 C55.7267,8.7776 54.7237,7.1816 53.1967,7.1816 C52.2617,7.1816 51.3727,7.5686 50.5517,8.5266 L50.5517,13.5646 L50.7797,15.5486 C51.3277,15.7306 51.7137,15.8216 52.3067,15.8216 C54.6557,15.8216 55.7267,13.7256 55.7267,11.1256 M48.5907,16.3006 L48.5907,3.1686 L48.3637,1.4136 L46.5387,1.1176 L46.5387,0.4106 L50.7797,0.0006 L50.5517,3.1686 L50.5517,7.4556 C51.3947,6.3376 52.6257,5.6306 54.0177,5.6306 C56.2057,5.6306 57.7337,7.5006 57.7337,10.3966 C57.7337,13.9306 55.6137,16.7786 51.5087,16.7786 C50.5517,16.7786 49.8907,16.7786 48.5907,16.3006" id="Fill-12" fill="#FFFFFF"></path>
                            <path d="M60.3781,13.2232 L60.3781,8.8682 L60.1271,7.1132 L58.3491,6.8162 L58.3491,6.1102 L62.5661,5.7002 L62.3381,8.8682 L62.3381,12.6992 C62.3381,14.2722 63.0671,15.2292 64.5041,15.2292 C65.4851,15.2292 66.3731,14.6362 67.0121,13.8612 L67.0121,8.8682 L66.7841,7.1132 L65.0061,6.8162 L65.0061,6.1102 L69.2231,5.7002 L68.9731,8.8682 L68.9731,13.5652 L69.2231,15.2972 L70.8641,15.5932 L70.8641,16.3002 L67.0121,16.7112 L67.2631,14.6602 C66.1901,16.1412 65.2331,16.7792 63.6151,16.7792 C61.6081,16.7792 60.3781,15.5022 60.3781,13.2232" id="Fill-14" fill="#FFFFFF"></path>
                            <g id="Group-18" transform="translate(81.000000, 6.000000)">
                                <mask id="mask-2" fill="white">
                                    <use xlink:href="#path-1"></use>
                                </mask>
                                <g id="Clip-17"></g>
                                <polygon id="Fill-16" fill="#FFFFFF" mask="url(#mask-2)" points="1.1642 15.7037 1.1642 14.9287 3.4432 14.5637 4.4242 12.9687 5.4042 10.6657 2.2132 2.8687 1.2772 1.0897 0.2522 0.8167 0.2522 0.1097 5.2442 0.1097 5.2442 0.8167 3.7852 1.0897 4.3332 2.8687 6.3852 8.1347 8.3002 2.8687 8.8012 1.0897 7.3652 0.8167 7.3652 0.1097 11.4692 0.1097 11.4692 0.8167 10.3062 1.0897 9.4402 2.8687 4.4702 15.9997"></polygon>
                            </g>
                            <path d="M79.1213,5.9371 C77.8273,5.9371 76.8063,6.6611 75.8513,8.2671 C75.8503,8.2421 75.8453,8.2181 75.8433,8.1931 L75.8473,7.9271 C75.8543,7.8121 75.8673,7.6951 75.8813,7.5801 C75.9093,7.3261 75.9383,7.0731 75.9673,6.8201 C76.0093,6.4501 76.0513,6.0791 76.0933,5.7091 L72.0853,6.1191 L72.0853,6.8251 L73.9073,7.1211 L74.1573,8.8741 L74.1573,13.5641 L73.9073,15.2951 L72.3133,15.5911 L72.3133,16.2971 L78.1643,16.2971 L78.1643,15.5911 L76.3433,15.2951 L76.0933,13.5641 L76.0933,13.0191 L76.0933,11.5391 L76.0933,9.8951 L76.0933,9.4441 L76.0933,9.2581 C76.0933,9.2291 76.0953,9.1971 76.0983,9.1661 C76.7573,8.3501 77.6423,8.0551 78.3243,8.0551 C78.8033,8.0551 79.2803,8.2141 79.6683,8.3961 L80.2373,6.0961 C79.7593,5.9591 79.5313,5.9371 79.1213,5.9371" id="Fill-19" fill="#FFFFFF"></path>
                        </g>
                    </g>
                </g>
            </g>
        </g>
    </g>
</svg>