<?xml version="1.0" encoding="UTF-8" standalone="no"?>
<svg width="186px" height="72px" viewBox="0 0 186 72" version="1.1" xmlns="http://www.w3.org/2000/svg" xmlns:xlink="http://www.w3.org/1999/xlink">
    <!-- Generator: Sketch 50.2 (55047) - http://www.bohemiancoding.com/sketch -->
    <title>midd-logo</title>
    <desc>Created with Sketch.</desc>
    <defs>
        <polygon id="path-1" points="0 0 64.3701494 0 64.3701494 71.3233893 0 71.3233893"></polygon>
        <polygon id="path-3" points="0 71.3233893 64.3701494 71.3233893 64.3701494 0 0 0"></polygon>
    </defs>
    <g id="menu" stroke="none" stroke-width="1" fill="none" fill-rule="evenodd">
        <g id="college-xl" transform="translate(-16.000000, -16.000000)">
            <g id="midd-logo" transform="translate(16.000000, 16.000000)">
                <g id="Group-2" transform="translate(79.089024, 8.005762)" fill="#FFFFFF">
                    <polygon id="Fill-1" points="0.420915851 15.0564789 2.16882976 14.7106853 2.38510707 12.5275549 2.38510707 4.76443793 2.16882976 2.58130758 0.420915851 2.23551391 0.420915851 1.58628878 5.08169192 1.58628878 6.18175697 4.76443793 9.43967975 13.2624896 12.7841135 4.74374942 13.7986507 1.58628878 18.4584437 1.58628878 18.4584437 2.23551391 16.7321575 2.58130758 16.4952355 4.76443793 16.4952355 12.5275549 16.7321575 14.7106853 18.4584437 15.0564789 18.4584437 15.7273777 12.503936 15.7273777 12.503936 15.0564789 14.2292391 14.7106853 14.4671442 12.5275549 14.4671442 3.0571433 10.7560221 12.5275549 9.65595706 15.7273777 8.25310377 15.7273777 7.08815553 12.5275549 3.35540574 3.0571433 3.35540574 12.5275549 3.5923277 14.7106853 5.31861388 15.0564789 5.31861388 15.7273777 0.420915851 15.7273777"></polygon>
                    <path d="M21.2354443,1.78125335 C21.2354443,1.04533351 21.8390547,0.418767211 22.5950422,0.418767211 C23.3284189,0.418767211 23.95464,1.024645 23.95464,1.80194186 C23.95464,2.49451435 23.3933021,3.14275432 22.5950422,3.14275432 C21.8616655,3.14275432 21.2354443,2.60189757 21.2354443,1.78125335 Z M20.1137516,15.0563804 L21.6247435,14.7756078 L21.8390547,13.132349 L21.8390547,8.67840842 L21.6247435,7.01347597 L19.8974742,6.73270334 L19.8974742,6.06180453 L23.9113845,5.67364868 L23.6951072,8.67840842 L23.6951072,13.132349 L23.9113845,14.7756078 L25.4213934,15.0563804 L25.4213934,15.7272792 L20.1137516,15.7272792 L20.1137516,15.0563804 Z" id="Fill-2"></path>
                    <path d="M33.1121163,13.3487902 L33.1121163,6.94815939 C32.508506,6.68906044 32.033679,6.56000354 31.3651855,6.56000354 C29.3361111,6.56000354 28.2144183,8.2456245 28.2144183,10.9055757 C28.2144183,13.2620955 29.0775614,14.6896027 30.7605921,14.6896027 C31.5155965,14.6896027 32.3138564,14.3428239 33.1121163,13.3487902 M26.2718548,11.3597378 C26.2718548,7.98652555 28.386457,5.6083321 31.4516964,5.6083321 C32.0553067,5.6083321 32.5291506,5.67335313 33.1121163,5.80241002 L33.1121163,3.27250083 L32.8751943,1.60855355 L31.1489082,1.32679575 L31.1489082,0.656882106 L35.1834631,0.26774109 L34.9455581,3.27250083 L34.9455581,13.1320535 L35.1834631,14.7762974 L36.5853333,15.0560849 L36.5853333,15.7269837 L33.1121163,16.1811457 L33.4355492,14.1270723 C32.4426397,15.4678847 31.4290856,16.1811457 30.0055876,16.1811457 C27.8261022,16.1811457 26.2718548,14.2994765 26.2718548,11.3597378" id="Fill-4"></path>
                    <path d="M44.2043898,13.3487902 L44.2043898,6.94815939 C43.6007795,6.68906044 43.1259525,6.56000354 42.4574589,6.56000354 C40.4283845,6.56000354 39.3066917,8.2456245 39.3066917,10.9055757 C39.3066917,13.2620955 40.1698348,14.6896027 41.8518825,14.6896027 C42.60787,14.6896027 43.4061299,14.3428239 44.2043898,13.3487902 M37.3641282,11.3597378 C37.3641282,7.98652555 39.4787305,5.6083321 42.5439699,5.6083321 C43.1475802,5.6083321 43.6214241,5.67335313 44.2043898,5.80241002 L44.2043898,3.27250083 L43.9674678,1.60855355 L42.2411816,1.32679575 L42.2411816,0.656882106 L46.2757366,0.26774109 L46.0378315,3.27250083 L46.0378315,13.1320535 L46.2757366,14.7762974 L47.6776068,15.0560849 L47.6776068,15.7269837 L44.2043898,16.1811457 L44.5278227,14.1270723 C43.5349132,15.4678847 42.5213591,16.1811457 41.0978611,16.1811457 C38.9183757,16.1811457 37.3641282,14.2994765 37.3641282,11.3597378" id="Fill-6"></path>
                    <polygon id="Fill-8" points="49.0400555 15.0564789 50.5500644 14.7757063 50.7879695 13.1324475 50.7879695 3.2728949 50.5500644 1.60796245 48.8247613 1.32718982 48.8247613 0.656291006 52.8376885 0.26714999 52.6223943 3.2728949 52.6223943 13.1324475 52.8593163 14.7757063 54.3476974 15.0564789 54.3476974 15.7273777 49.0400555 15.7273777"></polygon>
                    <path d="M59.8251169,9.28399066 L61.2918703,9.06725389 C61.2918703,7.35897409 60.4936104,6.47330884 59.3070345,6.47330884 C58.0988307,6.47330884 57.2582985,7.38064776 57.0194103,9.28399066 L59.8251169,9.28399066 Z M55.1220685,10.9912853 C55.1220685,7.70575291 56.7824884,5.6083321 59.4790732,5.6083321 C61.7450696,5.6083321 63.3209447,7.07820145 63.2344338,10.1479822 L56.9987657,10.1479822 C56.9987657,10.1479822 56.977138,10.4514137 56.977138,10.6248031 C56.977138,13.0670324 58.164697,14.7969859 60.4513381,14.7969859 C61.1414593,14.7969859 61.9180915,14.6245817 62.6721128,14.0620512 L63.1046674,14.6462553 C61.874836,15.770331 60.9468097,16.1811457 59.3935454,16.1811457 C56.8257438,16.1811457 55.1220685,14.3221354 55.1220685,10.9912853 Z" id="Fill-10"></path>
                    <path d="M72.0886304,10.8190781 C72.0886304,8.59260036 71.1389763,7.07839849 69.6938507,7.07839849 C68.8090798,7.07839849 67.9675645,7.44586583 67.1909323,8.35418992 L67.1909323,13.1322505 L67.4062266,15.0139197 C67.9252921,15.186324 68.2909974,15.2730187 68.8523353,15.2730187 C71.0750762,15.2730187 72.0886304,13.2839662 72.0886304,10.8190781 M65.3348798,15.7271807 L65.3348798,3.27269787 L65.1195855,1.60776542 L63.3932993,1.32699279 L63.3932993,0.65707914 L67.4062266,0.267938124 L67.1909323,3.27269787 L67.1909323,7.33749744 C67.9891922,6.27844278 69.1541405,5.60754396 70.4704828,5.60754396 C72.5418296,5.60754396 73.9879384,7.3808448 73.9879384,10.1274908 C73.9879384,13.4790293 71.9814748,16.1813428 68.0963478,16.1813428 C67.1909323,16.1813428 66.5656943,16.1813428 65.3348798,15.7271807" id="Fill-12"></path>
                    <path d="M76.4904635,12.8081305 L76.4904635,8.6783099 L76.2525584,7.01337746 L74.5695277,6.73260482 L74.5695277,6.06170601 L78.5618103,5.67355016 L78.345533,8.6783099 L78.345533,12.3106211 C78.345533,13.8031493 79.0356542,14.7104882 80.395252,14.7104882 C81.3232783,14.7104882 82.1638106,14.148943 82.7693871,13.4140083 L82.7693871,8.6783099 L82.5531098,7.01337746 L80.8700791,6.73260482 L80.8700791,6.06170601 L84.8613785,5.67355016 L84.6234735,8.6783099 L84.6234735,13.1322505 L84.8613785,14.7764944 L86.4156259,15.0562819 L86.4156259,15.7271807 L82.7693871,16.1163217 L83.006309,14.1706166 C81.9917718,15.5764501 81.0863564,16.1813428 79.5537367,16.1813428 C77.6554117,16.1813428 76.4904635,14.9705724 76.4904635,12.8081305" id="Fill-14"></path>
                    <polygon id="Fill-16" points="97.1081796 20.8515275 97.1081796 20.1165929 99.2660373 19.7707992 100.194064 18.2565973 101.12209 16.0724818 98.1010891 8.67880249 97.2163183 6.99219636 96.2450365 6.73211224 96.2450365 6.06219859 100.970696 6.06219859 100.970696 6.73211224 99.5894702 6.99219636 100.108536 8.67880249 102.049133 13.6726147 103.86193 8.67880249 104.336757 6.99219636 102.978142 6.73211224 102.978142 6.06219859 106.861303 6.06219859 106.861303 6.73211224 105.761238 6.99219636 104.941351 8.67880249 100.237319 21.1323002"></polygon>
                    <path d="M94.2290371,5.89846382 C93.004121,5.89846382 92.0377547,6.58512531 91.1352884,8.10819369 C91.1323392,8.08454968 91.1284069,8.06090566 91.1264407,8.03824682 L91.130373,7.78604404 C91.1362715,7.67570532 91.1490515,7.5653666 91.1618316,7.45601305 C91.1893578,7.21563227 91.216884,6.97525149 91.2434271,6.73585588 C91.2837333,6.38415121 91.3230565,6.03343171 91.3633627,5.68172705 L87.5706451,6.0698829 L87.5706451,6.73979654 L89.293982,7.02056918 L89.530904,8.68353129 L89.530904,13.132546 L89.293982,14.7738345 L87.7859393,15.0536219 L87.7859393,15.7235356 L93.3236216,15.7235356 L93.3236216,15.0536219 L91.5993016,14.7738345 L91.3633627,13.132546 L91.3633627,12.6153333 L91.3633627,11.2114701 L91.3633627,9.65293575 L91.3633627,9.22438804 L91.3633627,9.04804313 C91.3633627,9.01947328 91.3653288,8.98991827 91.367295,8.96036325 C91.99155,8.18602189 92.829133,7.90721959 93.4740326,7.90721959 C93.9272319,7.90721959 94.3794481,8.05795016 94.7461365,8.23035441 L95.2848636,6.04919439 C94.8326474,5.91915233 94.6173531,5.89846382 94.2290371,5.89846382" id="Fill-18"></path>
                    <path d="M0.0973846538,32.3955189 C0.0973846538,28.4164289 2.3417533,24.9358334 7.54125649,24.9358334 C8.87824351,24.9358334 10.0441748,25.0442018 11.8127334,25.4116691 L12.0290107,28.6981867 L10.9722011,28.6981867 L10.4757464,26.2766459 C9.65585876,25.9948881 8.61969382,25.8008102 7.4763733,25.8008102 C4.17519506,25.8008102 2.27588703,28.2006773 2.27588703,32.0053927 C2.27588703,35.9421206 4.17519506,38.903533 7.69166753,38.903533 C8.57643835,38.903533 9.78464206,38.6867962 10.6477852,38.320314 L11.1442399,36.0061564 L12.2020326,36.0061564 L11.9857553,39.3133625 C10.4973741,39.5734466 9.48283691,39.7675245 7.2827068,39.7675245 C2.19035918,39.7675245 0.0973846538,36.6110491 0.0973846538,32.3955189" id="Fill-20"></path>
                    <path d="M21.1212106,34.5352034 C21.1212106,31.6604857 20.1941674,30.1896312 18.4895089,30.1896312 C16.7632228,30.1896312 15.8145518,31.5521173 15.8145518,34.5568771 C15.8145518,37.497601 16.741595,38.9684555 18.4246257,38.9684555 C20.1509119,38.9684555 21.1212106,37.5409483 21.1212106,34.5352034 M13.7205942,34.7085928 C13.7205942,31.5954647 15.404608,29.2813071 18.5976476,29.2813071 C21.3591156,29.2813071 23.1925574,31.1413026 23.1925574,34.5145149 C23.1925574,37.8000473 21.2293492,39.8974681 18.3597426,39.8974681 C15.5982745,39.8974681 13.7205942,37.9300893 13.7205942,34.7085928" id="Fill-22"></path>
                    <polygon id="Fill-24" points="23.9744982 38.7520143 25.4845071 38.4712416 25.721429 36.8279829 25.721429 26.9684302 25.4845071 25.3034978 23.7582209 25.02174 23.7582209 24.3518263 27.7711481 23.9626853 27.5568369 26.9684302 27.5568369 36.8279829 27.7937589 38.4712416 29.281157 38.7520143 29.281157 39.4229131 23.9744982 39.4229131"></polygon>
                    <polygon id="Fill-26" points="30.715862 38.7520143 32.2268539 38.4712416 32.4627928 36.8279829 32.4627928 26.9684302 32.2268539 25.3034978 30.4995847 25.02174 30.4995847 24.3518263 34.513495 23.9626853 34.2982007 26.9684302 34.2982007 36.8279829 34.5351227 38.4712416 36.0235038 38.7520143 36.0235038 39.4229131 30.715862 39.4229131"></polygon>
                    <path d="M41.5009234,32.979526 L42.9676768,32.7627892 C42.9676768,31.0545094 42.1704,30.167859 40.983824,30.167859 C39.7746372,30.167859 38.9341049,31.0761831 38.6961999,32.979526 L41.5009234,32.979526 Z M36.7978749,34.6868206 C36.7978749,31.4003031 38.4582948,29.3028823 41.1558628,29.3028823 C43.4208761,29.3028823 44.9967512,30.7737368 44.9102403,33.8435176 L38.6745721,33.8435176 C38.6745721,33.8435176 38.6539275,34.146949 38.6539275,34.3193533 C38.6539275,36.7625678 39.8405035,38.4925212 42.1271445,38.4925212 C42.8172657,38.4925212 43.5938979,38.320117 44.3479193,37.7575866 L44.7804739,38.3408055 C43.5506424,39.4658664 42.6235992,39.8766811 41.0703349,39.8766811 C38.5015503,39.8766811 36.7978749,38.0166855 36.7978749,34.6868206 Z" id="Fill-28"></path>
                    <path d="M52.3877334,33.0007071 C52.3877334,31.2934125 51.8047677,30.0383095 50.4019145,30.0383095 C49.1514384,30.0383095 48.4819618,31.0973642 48.4819618,32.870665 C48.4819618,34.5789448 49.1514384,35.5956373 50.5110362,35.5956373 C51.7182568,35.5956373 52.3877334,34.6006185 52.3877334,33.0007071 M54.2211752,42.0159715 C54.2211752,41.1953273 53.682448,40.7194915 51.3525515,40.3293654 L49.2812047,39.9845569 C48.6766113,40.3293654 47.835096,41.0662704 47.835096,41.8878998 C47.835096,43.1410323 49.0875382,43.9626617 51.0074909,43.9626617 C52.8183219,43.9626617 54.2211752,43.162706 54.2211752,42.0159715 M46.1746761,42.449445 C46.1746761,41.3036957 47.2953858,40.2870032 48.4396894,39.8111674 C47.3818967,39.5737422 46.6711308,39.0328854 46.6711308,38.2546034 C46.6711308,37.3255908 47.4467799,36.654692 48.6117282,36.0704879 C47.3179966,35.55229 46.5187536,34.3405344 46.5187536,32.7839703 C46.5187536,30.8816126 47.9216069,29.2166801 50.4451699,29.2166801 C51.2660406,29.2166801 52.0210451,29.3683959 52.8409327,29.8865938 L55.6889116,29.1516591 L55.6889116,30.5358189 L53.4671538,30.5358189 C54.0058809,31.2274063 54.3076861,31.768263 54.3076861,32.870665 C54.3076861,34.7946964 52.7111663,36.4379552 50.4884254,36.4379552 C50.1876033,36.4379552 49.7983041,36.4172667 49.4542266,36.330572 C48.8486501,36.6340035 48.3531785,37.0871803 48.3531785,37.432974 C48.3531785,38.1905675 49.4974821,38.3196244 51.1795297,38.5787234 C53.2292488,38.9038285 55.4519897,38.9895381 55.4519897,41.2603483 C55.4519897,43.3577691 53.4671538,45.0650637 50.2082479,45.0650637 C47.8783515,45.0650637 46.1746761,44.0710301 46.1746761,42.449445" id="Fill-30"></path>
                    <path d="M61.0837526,32.979526 L62.550506,32.7627892 C62.550506,31.0545094 61.7522461,30.167859 60.5656701,30.167859 C59.3574664,30.167859 58.515951,31.0761831 58.278046,32.979526 L61.0837526,32.979526 Z M56.379721,34.6868206 C56.379721,31.4003031 58.041124,29.3028823 60.7377089,29.3028823 C63.0037053,29.3028823 64.5785973,30.7737368 64.4920864,33.8435176 L58.2564183,33.8435176 C58.2564183,33.8435176 58.2357736,34.146949 58.2357736,34.3193533 C58.2357736,36.7625678 59.4223496,38.4925212 61.7089906,38.4925212 C62.3991119,38.4925212 63.175744,38.320117 63.9307485,37.7575866 L64.36232,38.3408055 C63.1324886,39.4658664 62.2054454,39.8766811 60.652181,39.8766811 C58.0843795,39.8766811 56.379721,38.0166855 56.379721,34.6868206 Z" id="Fill-32"></path>
                </g>
                <g id="Group">
                    <polygon id="Fill-2" fill="#FEFEFE" points="58.5815513 19.49859 58.5815513 10.1266471 57.2924592 10.1266471 57.2924592 18.7586379 50.3220957 22.8557039 43.3452807 18.7586379 43.3452807 10.1266471 42.0561887 10.1266471 42.0561887 19.49859 50.3220957 24.35324"></polygon>
                    <path d="M49.6262323,20.8677659 L49.6262323,12.2110904 C48.0820196,9.36295069 44.6446363,9.30711634 44.6446363,9.30711634 C44.5947851,9.25128199 44.6446363,17.9637919 44.6446363,17.9637919 C44.6446363,17.9637919 48.0820196,18.0196262 49.6262323,20.8677659" id="Fill-3" fill="#FEFEFE"></path>
                    <path d="M55.9409653,18.0378458 C55.9409653,18.0378458 55.9919894,9.32533597 55.9409653,9.38175805 C55.9409653,9.38175805 52.4672199,9.4375924 50.9065857,12.2857321 L50.9065857,20.9424076 C52.4672199,18.0936802 55.9409653,18.0378458 55.9409653,18.0378458" id="Fill-5" fill="#FEFEFE"></path>
                    <path d="M39.8530025,56.5195279 C39.6999301,57.0143966 39.41138,57.3206039 39.0547976,57.3206039 C38.6976288,57.3206039 38.3914841,57.039669 38.2389982,56.3755341 C38.1621688,56.0610985 38.119942,55.6179501 38.119942,55.0466765 C38.119942,54.44249 38.1791769,53.9576127 38.3152412,53.5914569 C38.4765243,53.140668 38.7316449,52.8761895 39.0630084,52.8761895 C39.4365988,52.8761895 39.725149,53.1312643 39.8870186,53.7953993 C39.9720588,54.1621428 40.0142856,54.544755 40.0142856,55.0983967 C40.0142856,55.6690826 39.9632615,56.1539598 39.8530025,56.5195279 M39.0547976,52.169738 C37.9246428,52.169738 37.0748273,53.3781109 37.0748273,55.0554924 C37.0748273,56.273269 37.5510524,58.0188272 39.0460004,58.0188272 C40.2359766,58.0188272 41.0511895,56.8439549 41.0511895,55.0813526 C41.0511895,53.8465318 40.5755509,52.169738 39.0547976,52.169738" id="Fill-7" fill="#FEFEFE"></path>
                    <path d="M21.2550637,14.9290479 L18.569553,14.9290479 C18.5343639,14.0186541 18.4282103,13.1511646 18.2587164,12.3430358 L20.5565611,12.3430358 C20.9336704,13.1399977 21.1776478,14.0098381 21.2550637,14.9290479 Z M20.5565611,18.8074783 L18.2581299,18.8074783 C18.4282103,17.9987618 18.5343639,17.13186 18.569553,16.2202907 L21.2550637,16.2202907 C21.1776478,17.1400882 20.9330839,18.0099287 20.5565611,18.8074783 Z M16.7731522,22.5095897 C17.2329557,21.8448671 17.6188622,21.0273346 17.9179691,20.0987212 L19.7800562,20.0987212 C19.0047242,21.1401788 17.9725122,21.9776941 16.7731522,22.5095897 Z M14.363289,22.9985811 L14.363289,20.0987212 L16.5655368,20.0987212 C16.0101363,21.6156524 15.2019612,22.6441799 14.363289,22.9985811 Z M14.363289,16.2202907 L17.2816339,16.2202907 C17.2435124,17.1600711 17.1262156,18.0269728 16.946165,18.8074783 L14.363289,18.8074783 L14.363289,16.2202907 Z M14.363289,12.3430358 L16.946165,12.3430358 C17.1262156,13.1229535 17.2435124,13.9898553 17.2816339,14.9290479 L14.363289,14.9290479 L14.363289,12.3430358 Z M14.363289,8.15134525 C15.2019612,8.50515872 16.0101363,9.53427399 16.5661233,11.0512052 L14.363289,11.0512052 L14.363289,8.15134525 Z M19.7806426,11.0512052 L17.9179691,11.0512052 C17.6194487,10.122004 17.2329557,9.30564701 16.7731522,8.6397489 C17.9725122,9.17282003 19.0047242,10.0097476 19.7806426,11.0512052 Z M13.0741969,11.0512052 L10.8713626,11.0512052 C11.4273495,9.53309853 12.2355246,8.50457099 13.0741969,8.15075752 L13.0741969,11.0512052 Z M13.0741969,14.9290479 L10.1564385,14.9290479 C10.1939735,13.9898553 10.3112703,13.1229535 10.4913209,12.3430358 L13.0741969,12.3430358 L13.0741969,14.9290479 Z M13.0741969,18.8074783 L10.4913209,18.8074783 C10.3112703,18.0269728 10.1939735,17.1600711 10.1564385,16.2202907 L13.0741969,16.2202907 L13.0741969,18.8074783 Z M13.0741969,22.9985811 C12.2355246,22.6453554 11.4273495,21.6168278 10.8719491,20.0987212 L13.0741969,20.0987212 L13.0741969,22.9985811 Z M7.65742972,20.0987212 L9.51951675,20.0987212 C9.81803716,21.0273346 10.2045302,21.8436916 10.6631608,22.5084143 C9.46438724,21.9759309 8.43334819,21.139591 7.65742972,20.0987212 Z M6.88151124,18.8074783 C6.50498845,18.0099287 6.26042458,17.1400882 6.18242219,16.2202907 L8.86851939,16.2202907 C8.90253547,17.13186 9.00986206,17.9987618 9.17935597,18.8074783 L6.88151124,18.8074783 Z M6.88151124,12.3430358 L9.17876948,12.3430358 C9.00986206,13.1511646 8.90253547,14.0186541 8.86851939,14.9290479 L6.18242219,14.9290479 C6.26042458,14.0098381 6.50440197,13.1399977 6.88151124,12.3430358 Z M10.6625743,8.64092436 C10.2045302,9.30623474 9.81803716,10.1225917 9.51951675,11.0512052 L7.65742972,11.0512052 C8.43334819,10.0097476 9.46438724,9.17340776 10.6625743,8.64092436 Z M13.7193294,6.6978889 C8.83450331,6.6978889 4.86048702,10.6797598 4.86048702,15.5749632 C4.86048702,20.4695788 8.83450331,24.4520375 13.7193294,24.4520375 C18.603569,24.4520375 22.5764124,20.4695788 22.5764124,15.5749632 C22.5764124,10.6797598 18.603569,6.6978889 13.7193294,6.6978889 Z" id="Fill-9" fill="#FEFEFE"></path>
                    <path d="M35.0961472,56.5195279 C34.9424884,57.0143966 34.6545247,57.3206039 34.2973559,57.3206039 C33.9407735,57.3206039 33.6346288,57.039669 33.4815565,56.3755341 C33.4053135,56.0610985 33.3630867,55.6179501 33.3630867,55.0466765 C33.3630867,54.44249 33.4223216,53.9576127 33.5583859,53.5914569 C33.719669,53.140668 33.9747896,52.8761895 34.3061531,52.8761895 C34.6797435,52.8761895 34.9682937,53.1312643 35.1301633,53.7953993 C35.214617,54.1621428 35.2574303,54.544755 35.2574303,55.0983967 C35.2574303,55.6690826 35.2064062,56.1539598 35.0961472,56.5195279 M34.2973559,52.169738 C33.167201,52.169738 32.317972,53.3781109 32.317972,55.0554924 C32.317972,56.273269 32.7936106,58.0188272 34.2891451,58.0188272 C35.4779484,58.0188272 36.2937478,56.8439549 36.2937478,55.0813526 C36.2937478,53.8465318 35.8181091,52.169738 34.2973559,52.169738" id="Fill-11" fill="#FEFEFE"></path>
                    <mask id="mask-2" fill="white">
                        <use xlink:href="#path-1"></use>
                    </mask>
                    <g id="Clip-14"></g>
                    <path d="M62.4403821,32.0716633 C62.4403821,32.0716633 62.4386227,34.1475258 61.5993639,37.4405771 C61.1864791,37.421182 60.7219837,37.4000237 60.0833025,37.3694618 C57.6048207,37.2507403 55.5603371,37.7632409 53.239033,37.4088397 C50.9189019,37.0538508 48.9131262,34.9250926 45.6481692,34.3344239 C43.2905031,33.9071442 41.339857,33.8301516 38.7212055,33.9094951 L38.7212055,26.9125692 L25.6496477,26.9125692 L25.6496477,33.6873332 C25.2461467,33.6732277 24.8344348,33.663824 24.4080609,33.663824 C20.7108651,33.663824 19.2950925,32.6394106 15.4401324,32.6394106 C11.5857589,32.6394106 5.76431767,34.5307258 2.53924158,35.6344828 C2.4870445,35.6527024 2.43484741,35.6697466 2.38323681,35.6873785 C1.93516295,33.428732 1.93047108,32.0716633 1.93047108,32.0716633 L1.93047108,1.90113031 L31.433554,1.90113031 L31.433554,2.76156706 C30.7784512,3.04367747 30.3157153,3.66902222 30.3157153,4.4066234 C30.3157153,5.14304912 30.7784512,5.76839386 31.433554,6.04991655 L31.433554,7.0943128 C30.4476742,7.45635449 28.6706274,8.32325628 27.8595198,10.0735163 C27.09885,11.7168094 26.9592667,13.1385284 26.9522289,13.9172706 L26.2519669,13.9172706 L26.2519669,15.4242104 L38.1188863,15.4242104 L38.1188863,13.9172706 L37.4186243,13.9172706 C37.411,13.1385284 37.2720032,11.7168094 36.5113334,10.0735163 C35.6990529,8.3197299 33.922006,7.45635449 32.9372992,7.09548826 L32.9372992,6.05050428 C33.592402,5.76956932 34.0545514,5.14304912 34.0545514,4.4066234 C34.0545514,3.66902222 33.592402,3.04250201 32.9372992,2.76097933 L32.9372992,1.90113031 L62.4403821,1.90113031 L62.4403821,32.0716633 Z M54.7721024,51.4585259 L40.8847453,42.6631461 L40.8847453,40.6260738 L55.7732308,50.0550266 C55.4547699,50.5199211 55.1210605,50.9877542 54.7721024,51.4585259 Z M32.190705,69.1938671 C22.1266377,64.3639018 15.4119812,58.633534 10.9283102,53.1376706 L23.5154321,45.2350527 L40.8853318,45.2350527 L40.8853318,45.2050785 L53.4765591,53.1094596 C48.9975799,58.6135512 42.2782316,64.3544981 32.190705,69.1938671 Z M25.4320621,43.5083019 L38.9387911,43.5083019 L38.9387911,38.3080666 L25.4320621,38.3080666 L25.4320621,43.5083019 Z M30.7919404,33.0807958 L33.5783263,33.0807958 L33.5783263,28.2484795 L30.7919404,28.2484795 L30.7919404,33.0807958 Z M23.2169117,36.4814017 L41.153355,36.4814017 L41.153355,35.1895711 L23.2169117,35.1895711 L23.2169117,36.4814017 Z M8.57416302,49.9768585 L23.4849349,40.5543708 L23.4849349,42.5902676 L9.57294545,51.3815333 C9.22457389,50.9101738 8.89145092,50.441753 8.57416302,49.9768585 Z M32.1860131,3.62846885 C32.6376058,3.62846885 33.0041584,3.97699275 33.0041584,4.40779886 C33.0041584,4.83566632 32.6376058,5.18301476 32.1860131,5.18301476 C31.7338338,5.18301476 31.3672813,4.83566632 31.3672813,4.40779886 C31.3672813,3.97699275 31.7338338,3.62846885 32.1860131,3.62846885 Z M-0.000234593642,-0.000176319007 L-0.000234593642,32.6141382 C0.000351890463,32.6687971 0.0789407605,38.5225881 4.10925953,46.1977545 C7.80645533,53.2381724 15.678245,63.2895313 32.2036076,71.3238007 C48.7430458,63.2860049 56.6042788,53.2358215 60.2903314,46.196579 C64.307161,38.5225881 64.3705013,32.671148 64.3705013,32.6129627 L64.3705013,-0.000176319007 L-0.000234593642,-0.000176319007 Z" id="Fill-13" fill="#FEFEFE" mask="url(#mask-2)"></path>
                    <path d="M29.5820823,57.3541046 C28.9193553,57.3541046 28.4941543,56.9709046 28.4941543,56.3755341 C28.4941543,55.8818408 28.7920882,55.5409574 29.2084919,55.3193832 C29.7603735,55.5497734 30.091737,55.7202151 30.3034578,55.8900691 C30.4911327,56.0346507 30.5843836,56.2397684 30.5843836,56.5030715 C30.5843836,57.0049929 30.1767772,57.3541046 29.5820823,57.3541046 M29.5058394,52.8509171 C30.074729,52.8509171 30.4060925,53.1236238 30.4060925,53.5744128 C30.4060925,54.0428336 29.9638835,54.340225 29.5902931,54.5277109 C29.1908974,54.3660851 28.6044133,54.0851502 28.6044133,53.5914569 C28.6044133,53.1488962 28.9615821,52.8509171 29.5058394,52.8509171 M30.2694417,54.8856385 C30.8559258,54.6640642 31.400183,54.2720483 31.400183,53.5744128 C31.400183,52.7398361 30.6606266,52.169738 29.5902931,52.169738 C28.6648212,52.169738 27.6619333,52.5952546 27.6619333,53.6766778 C27.6619333,54.2473636 28.0531182,54.766917 28.5703972,54.9790875 C27.9422727,55.2006617 27.4836422,55.7543034 27.4836422,56.443123 C27.4836422,57.5674506 28.5111623,58.0523278 29.4882448,58.0523278 C30.4653274,58.0523278 31.6119038,57.4399131 31.6119038,56.340858 C31.6119038,55.6344065 31.0940383,55.2259341 30.2694417,54.8856385" id="Fill-16" fill="#FEFEFE" mask="url(#mask-2)"></path>
                    <mask id="mask-4" fill="white">
                        <use xlink:href="#path-3"></use>
                    </mask>
                    <g id="Clip-19"></g>
                    <polygon id="Fill-18" fill="#FEFEFE" mask="url(#mask-4)" points="26.7208023 42.2172353 37.6499336 42.2172353 37.6499336 39.6006613 26.7208023 39.6006613"></polygon>
                    <path d="M35.0782008,22.4836121 L35.9374,22.4836121 L35.9374,18.1567436 L35.0782008,18.1567436 L35.0782008,22.4836121 Z M30.792175,22.485963 L33.5785609,22.485963 L33.5785609,18.1508663 L30.792175,18.1508663 L30.792175,22.485963 Z M28.4321629,22.4836121 L29.2913621,22.4836121 L29.2913621,18.1567436 L28.4321629,18.1567436 L28.4321629,22.4836121 Z M37.3965725,16.7156296 L26.9729905,16.7156296 L26.9729905,24.1233788 L24.7074024,24.1233788 L24.7074024,25.6303186 L39.6633335,25.6303186 L39.6633335,24.1233788 L37.3965725,24.1233788 L37.3965725,16.7156296 Z" id="Fill-20" fill="#FEFEFE" mask="url(#mask-4)"></path>
                    <path d="M25.8693447,52.2630695 L25.2066176,52.2630695 L23.4993624,53.463802 L23.7280912,53.9657234 C23.8301394,53.9316351 24.1450814,53.7952817 24.3738102,53.6847885 C24.6031255,53.5742952 24.8670433,53.4044412 24.9520835,53.352721 L24.9520835,57.1330005 L23.9662038,57.1330005 L23.9662038,57.8905845 L26.6593388,57.8905845 L26.6593388,57.1330005 L25.8693447,57.1330005 L25.8693447,52.2630695 Z" id="Fill-21" fill="#FEFEFE" mask="url(#mask-4)"></path>
                </g>
            </g>
        </g>
    </g>
</svg>