<svg width="66" height="72" viewBox="0 0 66 72" fill="none" xmlns="http://www.w3.org/2000/svg">
<path fill-rule="evenodd" clip-rule="evenodd" d="M26.2307 52.7586H25.559L23.8279 53.9712L24.0597 54.4775C24.1634 54.4432 24.4824 54.3059 24.7148 54.1942C24.9472 54.0824 25.2146 53.9108 25.3005 53.8588V57.675H24.3016V58.4398H27.0317V57.675H26.2307V52.7586ZM35.5687 22.6968H36.4402V18.3287H35.5687V22.6968ZM31.2225 22.6985H34.0481V18.3222H31.2225V22.6985ZM28.8292 22.6968H29.7007V18.3287H28.8292V22.6968ZM40.2179 25.8736H25.0527V24.3523H27.3494V16.8743H37.92V24.3523H40.2179V25.8736ZM27.0945 42.6177H38.1761V39.9762H27.0945V42.6177ZM31.0121 57.0392C31.0121 56.773 30.9178 56.566 30.7275 56.4205C30.5123 56.2489 30.1767 56.0762 29.6165 55.8444C29.1944 56.068 28.8926 56.4116 28.8926 56.9102C28.8926 57.5112 29.3236 57.8986 29.9959 57.8986C30.5983 57.8986 31.0121 57.5461 31.0121 57.0392V57.0392ZM29.0047 54.0995C29.0047 54.5987 29.5993 54.8814 30.0036 55.0453C30.3831 54.856 30.8312 54.5555 30.8312 54.0824C30.8312 53.6269 30.4957 53.3519 29.9183 53.3519C29.3663 53.3519 29.0047 53.6524 29.0047 54.0995V54.0995ZM32.0543 56.8759C32.0543 57.9843 30.8911 58.6036 29.9011 58.6036C28.9098 58.6036 27.8676 58.1139 27.8676 56.9788C27.8676 56.2832 28.333 55.7243 28.9703 55.5007C28.445 55.286 28.0484 54.7614 28.0484 54.1859C28.0484 53.0946 29.0651 52.6646 30.0036 52.6646C31.0891 52.6646 31.8391 53.2407 31.8391 54.0824C31.8391 54.7868 31.2877 55.1825 30.6931 55.4061C31.529 55.7497 32.0543 56.162 32.0543 56.8759V56.8759ZM1.95759 32.3757C1.95759 32.3757 1.96233 33.7462 2.41645 36.0257C2.46922 36.008 2.52198 35.9908 2.57475 35.9731C5.84492 34.8582 11.7473 32.9489 15.656 32.9489C19.5647 32.9489 21 33.9834 24.7492 33.9834C25.1814 33.9834 25.5987 33.9928 26.0078 34.007V27.1678H39.2628V34.2312C41.9176 34.1513 43.8953 34.2288 46.2863 34.66C49.5968 35.2562 51.6309 37.4051 53.9833 37.7635C56.3369 38.1219 58.4101 37.6044 60.9232 37.7239C61.5706 37.7546 62.0419 37.7765 62.4611 37.796C63.3118 34.4713 63.313 32.3757 63.313 32.3757V1.91875H33.3977V2.78704C34.0623 3.07154 34.5306 3.70383 34.5306 4.4485C34.5306 5.19199 34.0623 5.82369 33.3977 6.1076V7.1628C34.3961 7.52715 36.1977 8.39898 37.0218 10.1693C37.7937 11.8278 37.9342 13.2627 37.9419 14.0494H38.6521V15.5707H26.619V14.0494H27.3287C27.3364 13.2627 27.4775 11.8278 28.2488 10.1693C29.0711 8.40194 30.8733 7.52715 31.8729 7.16161V6.10701C31.2089 5.8231 30.7399 5.19199 30.7399 4.4485C30.7399 3.70383 31.2089 3.07273 31.8729 2.78823V1.91875H1.95759V32.3757ZM31.8059 4.4491C31.8059 4.88147 32.177 5.23162 32.6359 5.23162C33.0936 5.23162 33.4653 4.88147 33.4653 4.4491C33.4653 4.01436 33.0936 3.66302 32.6359 3.66302C32.177 3.66302 31.8059 4.01436 31.8059 4.4491V4.4491ZM56.5527 50.53L41.4563 41.0113V43.0679L55.5377 51.9465C55.8917 51.4716 56.2302 50.999 56.5527 50.53V50.53ZM54.224 53.6133L41.4569 45.6343V45.6644H23.8445L11.081 53.6417C15.6282 59.1898 22.4359 64.9744 32.6406 69.85C42.8697 64.965 49.6827 59.1691 54.224 53.6133V53.6133ZM25.7878 43.9214H39.4833V38.672H25.7878V43.9214ZM31.2225 33.3943H34.0481V28.5163H31.2225V33.3943ZM23.5421 36.8278H41.729V35.5242H23.5421V36.8278ZM9.70676 51.8691L23.8131 42.9945V40.9391L8.69357 50.4507C9.01608 50.9203 9.35342 51.3929 9.70676 51.8691V51.8691ZM0 0H65.27V32.9228C65.27 32.9808 65.2066 38.8879 61.1337 46.6345C57.3957 53.7411 49.4243 63.8861 32.6543 72C15.8973 63.8897 7.91575 53.7429 4.16656 46.6357C0.080035 38.8879 0.000592852 32.979 0 32.9234V0ZM35.7507 55.6208C35.7507 55.0619 35.7069 54.6756 35.6209 54.3059C35.4573 53.6358 35.1644 53.3779 34.7856 53.3779C34.4494 53.3779 34.1909 53.6447 34.0273 54.0995C33.8898 54.4692 33.8293 54.9589 33.8293 55.5693C33.8293 56.1454 33.8726 56.5926 33.9496 56.9102C34.105 57.5804 34.415 57.8643 34.7767 57.8643C35.1389 57.8643 35.4312 57.5549 35.5865 57.0557C35.6986 56.6866 35.7507 56.1969 35.7507 55.6208V55.6208ZM36.8013 55.6036C36.8013 57.3828 35.9742 58.5693 34.7684 58.5693C33.2519 58.5693 32.7699 56.8067 32.7699 55.5776C32.7699 53.8848 33.6313 52.6646 34.7767 52.6646C36.3187 52.6646 36.8013 54.3574 36.8013 55.6036V55.6036ZM6.97785 18.9858H9.30776C9.13524 18.1696 9.02734 17.2942 8.99236 16.3745H6.2688C6.34765 17.3025 6.59605 18.1808 6.97785 18.9858V18.9858ZM6.2688 15.0709H8.99236C9.02734 14.1511 9.13524 13.2757 9.30716 12.4601H6.97726C6.59546 13.2645 6.34765 14.1428 6.2688 15.0709V15.0709ZM7.76458 11.1565H9.65281C9.95517 10.219 10.347 9.39444 10.8118 8.72252C9.59649 9.26018 8.5507 10.1048 7.76458 11.1565V11.1565ZM11.0235 11.1565H13.2574V8.22805C12.4066 8.5853 11.5867 9.62394 11.0235 11.1565V11.1565ZM13.2573 12.4601H10.6381C10.4555 13.2473 10.3364 14.1227 10.2984 15.0709H13.2573V12.4601ZM13.2573 16.3745H10.2984C10.3364 17.3232 10.4555 18.198 10.6381 18.9858H13.2573V16.3745ZM13.2574 20.2895H11.0235C11.5867 21.822 12.4066 22.86 13.2574 23.2173V20.2895ZM10.8124 22.7222C10.347 22.0509 9.95517 21.227 9.65281 20.2895H7.76458C8.5513 21.3405 9.59709 22.1846 10.8124 22.7222V22.7222ZM14.564 23.2167C15.4147 22.8588 16.2335 21.8208 16.7973 20.2895H14.564V23.2167ZM14.564 18.9858H17.1832C17.3658 18.198 17.485 17.3232 17.5229 16.3745H14.564V18.9858ZM14.564 15.0709H17.5229C17.485 14.1227 17.3658 13.2473 17.1832 12.4601H14.564V15.0709ZM14.564 11.1565H16.7979C16.2341 9.62453 15.4147 8.58589 14.564 8.22864V11.1565ZM17.0077 8.72193C17.4737 9.39385 17.8662 10.2184 18.1685 11.1565H20.0574C19.2706 10.1048 18.2243 9.25958 17.0077 8.72193V8.72193ZM18.5136 12.4601C18.6855 13.2757 18.7934 14.1511 18.829 15.0709H21.5525C21.4737 14.1428 21.2259 13.2645 20.8441 12.4601H18.5136ZM21.5525 16.3745H18.829C18.7934 17.2942 18.6855 18.1696 18.5136 18.9858H20.8435C21.2259 18.1808 21.4737 17.3025 21.5525 16.3745V16.3745ZM20.0568 20.2895H18.1685C17.8656 21.227 17.4737 22.0515 17.0077 22.7234C18.2237 22.1857 19.27 21.3411 20.0568 20.2895V20.2895ZM4.92837 15.7227C4.92837 10.7809 8.95798 6.76118 13.9113 6.76118C18.8633 6.76118 22.8924 10.7809 22.8924 15.7227C22.8924 20.6639 18.8633 24.6841 13.9113 24.6841C8.95798 24.6841 4.92837 20.6639 4.92837 15.7227V15.7227ZM40.5736 55.6208C40.5736 55.0619 40.5309 54.6756 40.4443 54.3059C40.2807 53.6358 39.9878 53.3779 39.609 53.3779C39.2729 53.3779 39.015 53.6447 38.8507 54.0995C38.7132 54.4692 38.6527 54.9589 38.6527 55.5693C38.6527 56.1454 38.6954 56.5926 38.7737 56.9102C38.9284 57.5804 39.2385 57.8643 39.6007 57.8643C39.9623 57.8643 40.2552 57.5549 40.41 57.0557C40.5226 56.6866 40.5736 56.1969 40.5736 55.6208V55.6208ZM41.6247 55.6036C41.6247 57.3828 40.7983 58.5693 39.5918 58.5693C38.0759 58.5693 37.5933 56.8067 37.5933 55.5776C37.5933 53.8848 38.4547 52.6646 39.6007 52.6646C41.1433 52.6646 41.6247 54.3574 41.6247 55.6036V55.6036ZM56.7229 18.2092C56.7229 18.2092 56.775 9.41396 56.7229 9.47074C56.7229 9.47074 53.2007 9.52693 51.6184 12.4021V21.1412C53.2007 18.2654 56.7229 18.2092 56.7229 18.2092V18.2092ZM50.3201 21.0661V12.327C48.7543 9.45182 45.269 9.39503 45.269 9.39503C45.2186 9.33884 45.269 18.1341 45.269 18.1341C45.269 18.1341 48.7543 18.1903 50.3201 21.0661V21.0661ZM51.0249 24.5842L42.6438 19.6838V10.2225H43.951V18.9368L51.0249 23.073L58.0935 18.9368V10.2225H59.4008V19.6838L51.0249 24.5842Z" fill="#FEFEFE"/>
</svg>
