<svg width="361" height="72" viewBox="0 0 361 72" fill="none" xmlns="http://www.w3.org/2000/svg">
<g id="miis-logo">
<rect width="361" height="72.0001" fill="white"/>
<g id="Group 80">
<g id="Group">
<path id="Vector" d="M117.315 36.5066C116.147 36.5066 115.231 37.153 114.382 38.6001C114.382 38.5808 114.372 38.5519 114.372 38.5326V38.2914C114.382 38.1853 114.392 38.0792 114.401 37.9827C114.43 37.7512 114.449 37.5293 114.478 37.2977C114.517 36.9697 114.556 36.632 114.594 36.304L110.996 36.6706V37.3074L112.636 37.5775L112.858 39.1501V43.3661L112.636 44.9193L111.208 45.1895V45.8262H116.466V45.1895L114.826 44.9193L114.604 43.3661C114.604 43.202 114.604 43.038 114.604 42.874C114.604 42.4302 114.604 41.9865 114.604 41.5427C114.604 41.0506 114.604 40.5586 114.604 40.0666C114.604 39.9315 114.604 39.7964 114.604 39.6614C114.604 39.6035 114.604 39.5456 114.604 39.4974C114.604 39.4684 114.604 39.4395 114.604 39.4105C115.192 38.6773 115.993 38.4168 116.601 38.4168C117.035 38.4168 117.459 38.5616 117.807 38.7256L118.318 36.661C117.884 36.5259 117.681 36.5066 117.315 36.5066Z" fill="black"/>
<path id="Vector_2" d="M340.56 36.5066C339.393 36.5066 338.476 37.153 337.627 38.6001C337.627 38.5808 337.618 38.5519 337.618 38.5326V38.2914C337.627 38.1853 337.637 38.0792 337.647 37.9827C337.676 37.7512 337.695 37.5293 337.724 37.2977C337.762 36.9697 337.801 36.632 337.84 36.304L334.241 36.6706V37.3074L335.881 37.5775L336.103 39.1501V43.3661L335.881 44.9193L334.453 45.1895V45.8262H339.711V45.1895L338.071 44.9193L337.849 43.3661C337.849 43.202 337.849 43.038 337.849 42.874C337.849 42.4302 337.849 41.9865 337.849 41.5427C337.849 41.0506 337.849 40.5586 337.849 40.0666C337.849 39.9315 337.849 39.7964 337.849 39.6614C337.849 39.6035 337.849 39.5456 337.849 39.4974C337.849 39.4684 337.849 39.4395 337.849 39.4105C338.438 38.6773 339.238 38.4168 339.846 38.4168C340.28 38.4168 340.705 38.5616 341.052 38.7256L341.563 36.661C341.129 36.5259 340.927 36.5066 340.56 36.5066Z" fill="black"/>
<g id="Group_2">
<path id="Vector_3" d="M77.5667 22.7299L79.226 22.4018L79.4286 20.3372V12.9858L79.226 10.9212L77.5667 10.5932V9.97573H81.9949L83.0368 12.9858L86.1337 21.0319L89.3078 12.9665L90.2725 9.97573H94.7008V10.5932L93.0607 10.9212L92.8388 12.9858V20.3372L93.0607 22.4018L94.7008 22.7299V23.3666H89.0473V22.7299L90.6874 22.4018L90.9093 20.3372V11.365L87.3879 20.3372L86.346 23.3666H84.9953L83.8858 20.3372L80.3452 11.365V20.3372L80.5671 22.4018L82.2071 22.7299V23.3666H77.5667V22.7299Z" fill="black"/>
<path id="Vector_4" d="M96.254 22.7299L97.6915 22.4597L97.8941 20.9065V16.6905L97.6915 15.1179L96.0514 14.8478V14.211L99.8622 13.8444L99.6596 16.6905V20.9065L99.8622 22.4597L101.3 22.7299V23.3666H96.2636V22.7299H96.254ZM97.3249 10.159C97.3249 9.46441 97.8941 8.86626 98.6177 8.86626C99.3123 8.86626 99.9104 9.43547 99.9104 10.1783C99.9104 10.8344 99.3798 11.4518 98.6177 11.4518C97.9134 11.4422 97.3249 10.9308 97.3249 10.159Z" fill="black"/>
<path id="Vector_5" d="M102.1 19.2278C102.1 16.0344 104.107 13.7769 107.021 13.7769C107.59 13.7769 108.043 13.8348 108.593 13.9602V11.5676L108.371 9.99502L106.731 9.72489V9.08815L110.561 8.72154L110.34 11.5676V20.9065L110.561 22.4597L111.893 22.7298V23.3666L108.593 23.8007L108.902 21.8519C107.957 23.1254 107.001 23.8007 105.641 23.8007C103.577 23.8007 102.1 22.0159 102.1 19.2278ZM108.593 21.1187V15.0504C108.024 14.8092 107.571 14.6838 106.934 14.6838C105.004 14.6838 103.943 16.2853 103.943 18.8033C103.943 21.0319 104.763 22.3922 106.365 22.3922C107.079 22.3825 107.841 22.0545 108.593 21.1187Z" fill="black"/>
<path id="Vector_6" d="M112.636 19.2278C112.636 16.0344 114.642 13.7769 117.556 13.7769C118.125 13.7769 118.579 13.8348 119.128 13.9602V11.5676L118.907 9.99502L117.266 9.72489V9.08815L121.097 8.72154L120.875 11.5676V20.9065L121.097 22.4597L122.428 22.7298V23.3666L119.128 23.8007L119.437 21.8519C118.492 23.1254 117.537 23.8007 116.176 23.8007C114.112 23.8007 112.636 22.0159 112.636 19.2278ZM119.128 21.1187V15.0504C118.559 14.8092 118.106 14.6838 117.469 14.6838C115.54 14.6838 114.478 16.2853 114.478 18.8033C114.478 21.0319 115.298 22.3922 116.9 22.3922C117.614 22.3825 118.366 22.0545 119.128 21.1187Z" fill="black"/>
<path id="Vector_7" d="M123.721 22.7298L125.158 22.4597L125.38 20.9065V11.5676L125.158 9.99502L123.518 9.72489V9.08815L127.329 8.72154L127.126 11.5676V20.9065L127.348 22.4597L128.757 22.7298V23.3666H123.721V22.7298Z" fill="black"/>
<path id="Vector_8" d="M129.49 18.8805C129.49 15.7643 131.063 13.7769 133.629 13.7769C135.78 13.7769 137.276 15.1661 137.189 18.0797H131.265C131.265 18.0797 131.246 18.3691 131.246 18.5331C131.246 20.8486 132.375 22.4887 134.545 22.4887C135.201 22.4887 135.935 22.3247 136.658 21.794L137.073 22.344C135.906 23.4052 135.028 23.8007 133.552 23.8007C131.111 23.8007 129.49 22.0352 129.49 18.8805ZM133.957 17.2597L135.346 17.0571C135.346 15.4363 134.584 14.5969 133.465 14.5969C132.317 14.5969 131.516 15.4556 131.294 17.2597H133.957Z" fill="black"/>
<path id="Vector_9" d="M139.186 23.3666V11.5676L138.983 9.99502L137.343 9.72489V9.08815L141.154 8.72154L140.951 11.5676V15.417C141.714 14.4136 142.813 13.7769 144.068 13.7769C146.036 13.7769 147.406 15.4556 147.406 18.0604C147.406 21.2345 145.505 23.7911 141.81 23.7911C140.951 23.8007 140.353 23.8007 139.186 23.3666ZM145.601 18.7165C145.601 16.6036 144.704 15.1758 143.325 15.1758C142.485 15.1758 141.685 15.5231 140.951 16.3817V20.9065L141.154 22.6913C141.646 22.8553 141.993 22.9325 142.524 22.9325C144.637 22.9421 145.601 21.0512 145.601 18.7165Z" fill="black"/>
<path id="Vector_10" d="M149.779 20.5977V16.6905L149.557 15.1179L147.956 14.8478V14.211L151.747 13.8444L151.544 16.6905V20.1346C151.544 21.5432 152.201 22.4115 153.493 22.4115C154.371 22.4115 155.172 21.8809 155.751 21.1862V16.6905L155.548 15.1179L153.947 14.8478V14.211L157.738 13.8444L157.516 16.6905V20.9065L157.738 22.4597L159.214 22.7298V23.3666L155.751 23.7332L155.973 21.8905C155.008 23.2219 154.149 23.7911 152.693 23.7911C150.879 23.8007 149.779 22.6527 149.779 20.5977Z" fill="black"/>
<path id="Vector_11" d="M169.354 28.2193V27.5247L171.399 27.1967L172.277 25.7592L173.155 23.6946L170.29 16.6905L169.45 15.089L168.524 14.8478V14.211H173.01V14.8478L171.698 15.089L172.19 16.6905L174.033 21.4178L175.75 16.6905L176.204 15.089L174.911 14.8478V14.211H178.596V14.8478L177.554 15.089L176.773 16.6905L172.306 28.4895L169.354 28.2193Z" fill="black"/>
<path id="Vector_12" d="M166.614 14.0567C165.447 14.0567 164.53 14.7031 163.681 16.1502C163.681 16.1309 163.671 16.102 163.671 16.0827V15.8415C163.681 15.7353 163.691 15.6292 163.7 15.5327C163.729 15.3012 163.749 15.0793 163.778 14.8478C163.816 14.5197 163.855 14.1821 163.893 13.8541L160.295 14.2207V14.8574L161.935 15.1275L162.157 16.7001V20.9161L161.935 22.4694L160.507 22.7395V23.3762H165.765V22.7395L164.125 22.4694L163.903 20.9161C163.903 20.7521 163.903 20.5881 163.903 20.4241C163.903 19.9803 163.903 19.5365 163.903 19.0927C163.903 18.6007 163.903 18.1087 163.903 17.6166C163.903 17.4816 163.903 17.3465 163.903 17.2114C163.903 17.1535 163.903 17.0957 163.903 17.0474C163.903 17.0185 163.903 16.9895 163.903 16.9606C164.492 16.2274 165.292 15.9669 165.9 15.9669C166.334 15.9669 166.759 16.1116 167.106 16.2756L167.617 14.211C167.193 14.076 166.981 14.0567 166.614 14.0567Z" fill="black"/>
</g>
<path id="Vector_13" d="M183.652 22.7299L185.311 22.4018L185.514 20.3372V12.9858L185.311 10.9212L183.652 10.5932V9.97573H189.305V10.5932L187.646 10.9212L187.443 12.9858V20.3372L187.646 22.4018L189.305 22.7299V23.3666H183.652V22.7299Z" fill="black"/>
<path id="Vector_14" d="M190.608 22.7298L192.045 22.4597L192.267 20.9065V16.6905L192.045 15.1179L190.405 14.8478V14.211L194.013 13.8444L193.791 15.6871C194.631 14.3943 195.692 13.7865 197.091 13.7865C198.856 13.7865 199.995 14.9539 199.995 16.9799V20.9161L200.197 22.4694L201.654 22.7395V23.3762H196.84V22.7395L198.007 22.4694L198.21 20.9161V17.4719C198.21 16.102 197.554 15.1758 196.261 15.1758C195.48 15.1758 194.91 15.3977 194.003 16.401V20.9065L194.225 22.4597L195.393 22.7298V23.3666H190.598V22.7298H190.608Z" fill="black"/>
<path id="Vector_15" d="M202.985 23.2412L202.821 20.8486H203.719L204.066 22.4211C204.703 22.7106 205.195 22.8746 205.967 22.8746C207.076 22.8746 207.771 22.3247 207.771 21.3792C207.771 20.1925 206.642 19.8452 205.581 19.4497C204.288 18.9191 202.773 18.4656 202.773 16.6229C202.773 15.0697 204.047 13.6515 206.217 13.6515C207.144 13.6515 208.041 13.8348 208.938 14.2496L209.141 16.6422H208.243L207.79 15.0214C207.211 14.7513 206.623 14.6162 205.967 14.6162C204.886 14.6162 204.269 15.0697 204.269 15.9862C204.269 17.115 205.417 17.4623 206.42 17.8482C207.877 18.3981 209.247 18.8515 209.247 20.7521C209.247 22.4694 207.857 23.82 205.783 23.82C205.118 23.8393 203.969 23.6367 202.985 23.2412Z" fill="black"/>
<path id="Vector_16" d="M211.881 21.5818V15.0697H210.279V14.3364L211.881 14.0084V11.6544L213.646 11.3264V14.211H216.145V15.0697H213.646V20.9065C213.646 21.9484 214.013 22.4211 214.775 22.4211C215.103 22.4211 215.653 22.315 216.125 22.0159L216.511 22.672C215.489 23.492 214.813 23.8007 213.887 23.8007C212.884 23.8007 211.881 23.2894 211.881 21.5818Z" fill="black"/>
<path id="Vector_17" d="M217.582 22.7299L219.02 22.4597L219.222 20.9065V16.6905L219.02 15.1179L217.38 14.8478V14.211L221.19 13.8444L220.988 16.6905V20.9065L221.19 22.4597L222.628 22.7299V23.3666H217.592V22.7299H217.582ZM218.653 10.159C218.653 9.46441 219.222 8.86626 219.946 8.86626C220.641 8.86626 221.239 9.43547 221.239 10.1783C221.239 10.8344 220.708 11.4518 219.946 11.4518C219.242 11.4422 218.653 10.9308 218.653 10.159Z" fill="black"/>
<path id="Vector_18" d="M224.432 21.5818V15.0697H222.83V14.3364L224.432 14.0084V11.6544L226.197 11.3264V14.211H228.696V15.0697H226.197V20.9065C226.197 21.9484 226.564 22.4211 227.326 22.4211C227.654 22.4211 228.204 22.315 228.677 22.0159L229.063 22.672C228.04 23.492 227.365 23.8007 226.439 23.8007C225.435 23.8007 224.432 23.2894 224.432 21.5818Z" fill="black"/>
<path id="Vector_19" d="M231.658 20.5977V16.6905L231.436 15.1179L229.835 14.8478V14.211L233.626 13.8444L233.424 16.6905V20.1346C233.424 21.5432 234.08 22.4115 235.372 22.4115C236.25 22.4115 237.051 21.8809 237.63 21.1862V16.6905L237.427 15.1179L235.826 14.8478V14.211L239.617 13.8444L239.395 16.6905V20.9065L239.617 22.4597L241.093 22.7298V23.3666L237.63 23.7332L237.852 21.8905C236.887 23.2219 236.028 23.7911 234.572 23.7911C232.758 23.8007 231.658 22.6527 231.658 20.5977Z" fill="black"/>
<path id="Vector_20" d="M242.907 21.5818V15.0697H241.306V14.3364L242.907 14.0084V11.6544L244.673 11.3264V14.211H247.171V15.0697H244.673V20.9065C244.673 21.9484 245.039 22.4211 245.801 22.4211C246.129 22.4211 246.679 22.315 247.152 22.0159L247.538 22.672C246.515 23.492 245.84 23.8007 244.914 23.8007C243.911 23.8007 242.907 23.2894 242.907 21.5818Z" fill="black"/>
<path id="Vector_21" d="M248.233 18.8805C248.233 15.7643 249.805 13.7769 252.371 13.7769C254.523 13.7769 256.018 15.1661 255.931 18.0797H250.008C250.008 18.0797 249.989 18.3691 249.989 18.5331C249.989 20.8486 251.117 22.4887 253.288 22.4887C253.944 22.4887 254.677 22.3247 255.401 21.794L255.806 22.344C254.639 23.4052 253.761 23.8007 252.285 23.8007C249.853 23.8007 248.233 22.0352 248.233 18.8805ZM252.7 17.2597L254.089 17.0571C254.089 15.4363 253.327 14.5969 252.207 14.5969C251.059 14.5969 250.259 15.4556 250.037 17.2597H252.7Z" fill="black"/>
<path id="Vector_22" d="M261.816 20.7907C261.816 18.3305 262.636 16.3238 264.556 14.8092C265.338 14.1917 266.467 13.719 267.306 13.719C268.695 13.719 269.515 14.7609 269.515 16.8738C269.515 18.755 268.917 20.5784 267.711 21.8326C266.582 23.0579 265.251 23.7814 263.958 23.7814C262.656 23.7814 261.816 22.7781 261.816 20.7907ZM266.756 21.302C267.431 20.2794 267.817 18.9094 267.817 17.3079C267.817 15.8704 267.508 14.9732 266.592 14.9732C265.897 14.9732 265.318 15.3012 264.73 16.1212C263.997 17.1053 263.563 18.8901 263.563 20.3855C263.563 21.7554 263.977 22.5755 264.817 22.5755C265.54 22.5658 266.196 22.1413 266.756 21.302Z" fill="black"/>
<path id="Vector_23" d="M266.071 28.2386L266.457 26.4731C267.094 26.724 267.788 26.9073 268.386 26.9073C268.917 26.9073 269.332 26.7047 269.631 26.2512C269.92 25.8171 270.142 25.2286 270.306 24.4278L272.188 15.089H270.364V14.211H272.371L272.429 13.9409C272.863 11.9921 273.326 10.873 274.358 9.92749C275.217 9.12674 276.307 8.72154 277.146 8.72154C277.658 8.72154 278.073 8.77943 278.787 8.92414L278.381 10.8054C277.523 10.4195 276.645 10.188 276.066 10.188C275.68 10.188 275.246 10.3134 274.841 10.7572C274.387 11.2492 274.107 12.2333 274.001 14.2014H276.133V15.0793H273.857L272.178 23.5788C271.889 24.9874 271.213 26.2416 270.229 27.1002C269.284 27.9396 268.329 28.3737 267.296 28.3737C267.055 28.3833 266.438 28.3447 266.071 28.2386Z" fill="black"/>
<path id="Vector_24" d="M77.5474 45.1798L79.2068 44.8518L79.4093 42.7872V35.4357L79.2068 33.3711L77.5474 33.0431V32.416H83.2009V33.0335L81.5415 33.3615L81.3389 35.4261V42.7775L81.5415 44.8421L83.2009 45.1702V45.8069H77.5474V45.1798Z" fill="black"/>
<path id="Vector_25" d="M84.5033 45.1798L85.9408 44.9097L86.1626 43.3564V39.1404L85.9408 37.5678L84.3007 37.2977V36.661L87.9089 36.2944L87.687 38.1371C88.5263 36.8443 89.5875 36.2365 90.9864 36.2365C92.752 36.2365 93.8904 37.4038 93.8904 39.4298V43.3661L94.093 44.9193L95.5498 45.1894V45.8262H90.7356V45.1894L91.903 44.9193L92.1056 43.3661V39.9219C92.1056 38.5519 91.4495 37.6257 90.1567 37.6257C89.3753 37.6257 88.8061 37.8476 87.8992 38.851V43.3564L88.1211 44.9097L89.2885 45.1798V45.8165H84.4936V45.1798H84.5033Z" fill="black"/>
<path id="Vector_26" d="M97.1224 44.0317V37.5196H95.5209V36.7864L97.1224 36.4584V34.1044L98.8879 33.7763V36.661H101.387V37.5196H98.8879V43.3564C98.8879 44.3983 99.2545 44.8711 100.017 44.8711C100.345 44.8711 100.895 44.765 101.367 44.4659L101.753 45.1219C100.731 45.942 100.055 46.2507 99.1291 46.2507C98.1257 46.241 97.1224 45.7297 97.1224 44.0317Z" fill="black"/>
<path id="Vector_27" d="M102.448 41.3304C102.448 38.2142 104.02 36.2268 106.587 36.2268C108.738 36.2268 110.233 37.6161 110.147 40.5297H104.223C104.223 40.5297 104.204 40.8191 104.204 40.9831C104.204 43.2985 105.332 44.9386 107.503 44.9386C108.159 44.9386 108.892 44.7746 109.616 44.244L110.021 44.7939C108.854 45.8551 107.976 46.2507 106.5 46.2507C104.069 46.241 102.448 44.4852 102.448 41.3304ZM106.915 39.7096L108.304 39.507C108.304 37.8862 107.542 37.0469 106.423 37.0469C105.274 37.0469 104.474 37.9055 104.252 39.7096H106.915Z" fill="black"/>
<path id="Vector_28" d="M119.379 45.1798L120.817 44.9097L121.039 43.3564V39.1404L120.817 37.5678L119.177 37.2977V36.661L122.785 36.2944L122.563 38.1371C123.402 36.8443 124.464 36.2365 125.863 36.2365C127.628 36.2365 128.766 37.4038 128.766 39.4298V43.3661L128.969 44.9193L130.426 45.1894V45.8262H125.612V45.1894L126.779 44.9193L126.982 43.3661V39.9219C126.982 38.5519 126.326 37.6257 125.033 37.6257C124.251 37.6257 123.682 37.8476 122.775 38.851V43.3564L122.997 44.9097L124.165 45.1798V45.8165H119.37V45.1798H119.379Z" fill="black"/>
<path id="Vector_29" d="M131.323 43.7616C131.323 42.8644 131.709 42.1022 132.529 41.5041C133.33 40.9059 134.642 40.6068 136.504 40.6068V39.4974C136.504 38.2046 135.722 37.4521 134.478 37.4521C133.716 37.4521 132.963 37.7608 132.288 38.3782L131.776 37.8283C132.703 36.7864 133.947 36.1304 135.404 36.1304C137.044 36.1304 138.231 37.0083 138.231 39.0343V43.3564L138.453 44.9097L139.823 45.1798V45.8165L136.465 46.1831L136.832 43.9256C136.07 45.3149 135.095 46.241 133.696 46.241C132.346 46.241 131.323 45.3245 131.323 43.7616ZM136.504 43.3757V41.3883C135.298 41.3883 134.439 41.5523 133.88 41.8996C133.33 42.2083 133.04 42.7004 133.04 43.3371C133.04 44.1379 133.59 44.7939 134.391 44.7939C135.076 44.7939 135.896 44.2729 136.504 43.3757Z" fill="black"/>
<path id="Vector_30" d="M141.55 44.0317V37.5196H139.948V36.7864L141.55 36.4584V34.1044L143.315 33.7763V36.661H145.814V37.5196H143.315V43.3564C143.315 44.3983 143.682 44.8711 144.444 44.8711C144.772 44.8711 145.322 44.765 145.794 44.4659L146.18 45.1219C145.158 45.942 144.482 46.2507 143.556 46.2507C142.553 46.241 141.55 45.7297 141.55 44.0317Z" fill="black"/>
<path id="Vector_31" d="M147.261 45.1798L148.698 44.9097L148.901 43.3564V39.1404L148.698 37.5679L147.058 37.2977V36.661L150.869 36.2944L150.667 39.1404V43.3564L150.869 44.9097L152.307 45.1798V45.8165H147.271V45.1798H147.261ZM148.322 32.5993C148.322 31.9047 148.891 31.3066 149.615 31.3066C150.31 31.3066 150.908 31.8758 150.908 32.6186C150.908 33.2747 150.377 33.8921 149.615 33.8921C148.92 33.8921 148.322 33.3808 148.322 32.5993Z" fill="black"/>
<path id="Vector_32" d="M152.876 41.3497C152.876 38.3975 154.477 36.2075 157.507 36.2075C160.131 36.2075 161.867 37.973 161.867 41.1664C161.867 44.2826 160.005 46.27 157.275 46.27C154.661 46.2603 152.876 44.3983 152.876 41.3497ZM159.899 41.1857C159.899 38.4651 159.021 37.0662 157.401 37.0662C155.76 37.0662 154.863 38.3589 154.863 41.205C154.863 43.9931 155.741 45.3824 157.343 45.3824C158.983 45.3824 159.899 44.0317 159.899 41.1857Z" fill="black"/>
<path id="Vector_33" d="M162.591 45.1798L164.028 44.9097L164.25 43.3564V39.1404L164.028 37.5678L162.388 37.2977V36.661L165.996 36.2944L165.775 38.1371C166.614 36.8443 167.675 36.2365 169.074 36.2365C170.84 36.2365 171.978 37.4038 171.978 39.4298V43.3661L172.181 44.9193L173.637 45.1894V45.8262H168.823V45.1894L169.991 44.9193L170.193 43.3661V39.9219C170.193 38.5519 169.537 37.6257 168.244 37.6257C167.463 37.6257 166.894 37.8476 165.987 38.851V43.3564L166.209 44.9097L167.376 45.1798V45.8165H162.581V45.1798H162.591Z" fill="black"/>
<path id="Vector_34" d="M174.544 43.7616C174.544 42.8644 174.93 42.1022 175.75 41.5041C176.551 40.9059 177.863 40.6068 179.725 40.6068V39.4974C179.725 38.2046 178.944 37.4521 177.699 37.4521C176.937 37.4521 176.184 37.7608 175.509 38.3782L174.998 37.8283C175.924 36.7864 177.168 36.1304 178.625 36.1304C180.265 36.1304 181.452 37.0083 181.452 39.0343V43.3564L181.674 44.9097L183.044 45.1798V45.8165L179.686 46.1831L180.053 43.9256C179.291 45.3149 178.317 46.241 176.918 46.241C175.567 46.241 174.544 45.3245 174.544 43.7616ZM179.725 43.3757V41.3883C178.519 41.3883 177.66 41.5523 177.101 41.8996C176.551 42.2083 176.262 42.7004 176.262 43.3371C176.262 44.1379 176.812 44.7939 177.612 44.7939C178.288 44.7939 179.108 44.2729 179.725 43.3757Z" fill="black"/>
<path id="Vector_35" d="M184.134 45.1798L185.571 44.9097L185.793 43.3564V34.0175L185.571 32.445L183.931 32.1748V31.5381L187.742 31.1715L187.54 34.0175V43.3564L187.761 44.9097L189.17 45.1798V45.8165H184.134V45.1798Z" fill="black"/>
<path id="Vector_36" d="M194.534 45.5078L194.332 42.3917H195.373L195.779 44.5431C196.473 44.8711 197.11 45.1412 197.949 45.1412C199.811 45.1412 201.162 44.244 201.162 42.7004C201.162 40.9831 199.522 40.3464 197.949 39.7482C196.001 39.015 194.283 38.2335 194.283 35.8795C194.283 33.8149 195.856 31.924 198.914 31.924C199.956 31.924 201.249 32.2134 202.358 32.6186L202.58 35.7155H201.558L201.104 33.5255C200.467 33.1396 199.483 32.9081 198.876 32.9081C196.85 32.9081 195.846 34.0368 195.846 35.2042C195.846 36.8636 197.284 37.3363 198.712 37.9055C200.805 38.7449 202.764 39.6228 202.764 42.1408C202.764 44.5817 200.795 46.1735 197.843 46.1735C196.85 46.1832 195.991 46.077 194.534 45.5078Z" fill="black"/>
<path id="Vector_37" d="M205.233 44.0317V37.5196H203.632V36.7864L205.233 36.4584V34.1044L206.999 33.7763V36.661H209.498V37.5196H206.999V43.3564C206.999 44.3983 207.365 44.8711 208.128 44.8711C208.456 44.8711 209.006 44.765 209.478 44.4659L209.864 45.1219C208.842 45.942 208.166 46.2507 207.24 46.2507C206.237 46.241 205.233 45.7297 205.233 44.0317Z" fill="black"/>
<path id="Vector_38" d="M212.392 43.0477V39.1308L212.17 37.5582L210.568 37.2881V36.661L214.36 36.2944L214.157 39.1404V42.5846C214.157 43.9931 214.813 44.8614 216.106 44.8614C216.984 44.8614 217.785 44.3308 218.364 43.6362V39.1501L218.161 37.5775L216.56 37.3074V36.661L220.351 36.2944L220.129 39.1404V43.3564L220.351 44.9097L221.827 45.1798V45.8165L218.364 46.1831L218.586 44.3405C217.621 45.6718 216.762 46.241 215.305 46.241C213.492 46.241 212.392 45.093 212.392 43.0477Z" fill="black"/>
<path id="Vector_39" d="M222.367 41.6777C222.367 38.4844 224.374 36.2268 227.288 36.2268C227.857 36.2268 228.31 36.2847 228.86 36.4101V34.0175L228.638 32.445L226.998 32.1748V31.5381L230.828 31.1715L230.606 34.0175V43.3564L230.828 44.9097L232.16 45.1798V45.8165L228.86 46.2507L229.169 44.3019C228.224 45.5753 227.268 46.2507 225.908 46.2507C223.844 46.241 222.367 44.4659 222.367 41.6777ZM228.86 43.559V37.5003C228.281 37.2591 227.838 37.1337 227.201 37.1337C225.271 37.1337 224.21 38.7352 224.21 41.2532C224.21 43.4818 225.03 44.8421 226.632 44.8421C227.346 44.8325 228.098 44.5045 228.86 43.559Z" fill="black"/>
<path id="Vector_40" d="M233.24 45.1798L234.678 44.9097L234.88 43.3564V39.1404L234.678 37.5679L233.038 37.2977V36.661L236.849 36.2944L236.646 39.1404V43.3564L236.849 44.9097L238.286 45.1798V45.8165H233.25V45.1798H233.24ZM234.311 32.5993C234.311 31.9047 234.88 31.3066 235.604 31.3066C236.299 31.3066 236.897 31.8758 236.897 32.6186C236.897 33.2747 236.366 33.8921 235.604 33.8921C234.9 33.8921 234.311 33.3808 234.311 32.5993Z" fill="black"/>
<path id="Vector_41" d="M238.913 41.3304C238.913 38.2142 240.486 36.2268 243.052 36.2268C245.203 36.2268 246.699 37.6161 246.612 40.5297H240.688C240.688 40.5297 240.669 40.8191 240.669 40.9831C240.669 43.2985 241.798 44.9386 243.968 44.9386C244.624 44.9386 245.358 44.7746 246.081 44.244L246.486 44.7939C245.319 45.8551 244.441 46.2507 242.965 46.2507C240.534 46.241 238.913 44.4852 238.913 41.3304ZM243.38 39.7096L244.769 39.507C244.769 37.8862 244.007 37.0469 242.888 37.0469C241.74 37.0469 240.939 37.9055 240.717 39.7096H243.38Z" fill="black"/>
<path id="Vector_42" d="M248.194 45.6911L248.03 43.2985H248.927L249.275 44.8711C249.911 45.1605 250.403 45.3245 251.175 45.3245C252.285 45.3245 252.979 44.7746 252.979 43.8291C252.979 42.6425 251.851 42.2952 250.789 41.8996C249.496 41.369 247.982 40.9156 247.982 39.0729C247.982 37.5196 249.255 36.1014 251.426 36.1014C252.352 36.1014 253.249 36.2847 254.147 36.6996L254.349 39.0922H253.452L252.999 37.4714C252.42 37.2012 251.831 37.0662 251.175 37.0662C250.085 37.0662 249.477 37.5196 249.477 38.4361C249.477 39.5649 250.625 39.9122 251.629 40.2981C253.085 40.848 254.455 41.3015 254.455 43.202C254.455 44.9193 253.066 46.27 250.992 46.27C250.326 46.2893 249.178 46.077 248.194 45.6911Z" fill="black"/>
<path id="Vector_43" d="M259.81 43.7616C259.81 42.8644 260.196 42.1022 261.016 41.5041C261.816 40.9059 263.128 40.6068 264.99 40.6068V39.4974C264.99 38.2046 264.209 37.4521 262.964 37.4521C262.202 37.4521 261.45 37.7608 260.774 38.3782L260.263 37.8283C261.18 36.7864 262.434 36.1304 263.891 36.1304C265.531 36.1304 266.717 37.0083 266.717 39.0343V43.3564L266.939 44.9097L268.309 45.1798V45.8165L264.952 46.1831L265.318 43.9256C264.556 45.3149 263.582 46.241 262.183 46.241C260.842 46.241 259.81 45.3245 259.81 43.7616ZM265 43.3757V41.3883C263.794 41.3883 262.936 41.5523 262.376 41.8996C261.826 42.2083 261.537 42.7004 261.537 43.3371C261.537 44.1379 262.087 44.7939 262.887 44.7939C263.563 44.7939 264.383 44.2729 265 43.3757Z" fill="black"/>
<path id="Vector_44" d="M270.036 44.0317V37.5196H268.435V36.7864L270.036 36.4584V34.1044L271.802 33.7763V36.661H274.3V37.5196H271.802V43.3564C271.802 44.3983 272.168 44.8711 272.93 44.8711C273.258 44.8711 273.808 44.765 274.281 44.4659L274.667 45.1219C273.644 45.942 272.969 46.2507 272.043 46.2507C271.049 46.241 270.036 45.7297 270.036 44.0317Z" fill="black"/>
<path id="Vector_45" d="M279.404 45.1798L281.063 44.8518L281.266 42.7872V35.4357L281.063 33.3711L279.404 33.0431V32.416H283.832L284.874 35.4261L287.971 43.4722L291.145 35.4068L292.11 32.416H296.538V33.0335L294.898 33.3615L294.676 35.4261V42.7775L294.898 44.8421L296.538 45.1702V45.8069H290.885V45.1702L292.525 44.8421L292.747 42.7775V33.8053L289.225 42.7775L288.183 45.8069H286.852L285.743 42.7775L282.202 33.8053V42.7775L282.424 44.8421L284.064 45.1702V45.8069H279.414V45.1798H279.404Z" fill="black"/>
<path id="Vector_46" d="M297.416 41.3497C297.416 38.3975 299.018 36.2075 302.047 36.2075C304.671 36.2075 306.408 37.973 306.408 41.1664C306.408 44.2826 304.546 46.27 301.815 46.27C299.201 46.2603 297.416 44.3983 297.416 41.3497ZM304.44 41.1857C304.44 38.4651 303.562 37.0662 301.941 37.0662C300.301 37.0662 299.404 38.3589 299.404 41.205C299.404 43.9931 300.281 45.3824 301.883 45.3824C303.523 45.3824 304.44 44.0317 304.44 41.1857Z" fill="black"/>
<path id="Vector_47" d="M307.343 45.1798L308.781 44.9097L309.003 43.3564V39.1404L308.781 37.5678L307.141 37.2977V36.661L310.749 36.2944L310.527 38.1371C311.367 36.8443 312.428 36.2365 313.827 36.2365C315.592 36.2365 316.731 37.4038 316.731 39.4298V43.3661L316.933 44.9193L318.39 45.1894V45.8262H313.576V45.1894L314.743 44.9193L314.946 43.3661V39.9219C314.946 38.5519 314.29 37.6257 312.997 37.6257C312.216 37.6257 311.646 37.8476 310.739 38.851V43.3564L310.961 44.9097L312.129 45.1798V45.8165H307.334V45.1798H307.343Z" fill="black"/>
<path id="Vector_48" d="M320.155 44.0317V37.5196H318.554V36.7864L320.155 36.4584V34.1044L321.921 33.7763V36.661H324.42V37.5196H321.921V43.3564C321.921 44.3983 322.288 44.8711 323.05 44.8711C323.378 44.8711 323.928 44.765 324.4 44.4659L324.786 45.1219C323.764 45.942 323.088 46.2507 322.162 46.2507C321.159 46.241 320.155 45.7297 320.155 44.0317Z" fill="black"/>
<path id="Vector_49" d="M325.481 41.3304C325.481 38.2142 327.054 36.2268 329.62 36.2268C331.771 36.2268 333.267 37.6161 333.18 40.5297H327.256C327.256 40.5297 327.237 40.8191 327.237 40.9831C327.237 43.2985 328.366 44.9386 330.536 44.9386C331.192 44.9386 331.926 44.7746 332.649 44.244L333.054 44.7939C331.887 45.8551 331.009 46.2507 329.533 46.2507C327.102 46.241 325.481 44.4852 325.481 41.3304ZM329.948 39.7096L331.337 39.507C331.337 37.8862 330.575 37.0469 329.456 37.0469C328.308 37.0469 327.507 37.9055 327.285 39.7096H329.948Z" fill="black"/>
<path id="Vector_50" d="M342.104 41.3304C342.104 38.2142 343.676 36.2268 346.243 36.2268C348.394 36.2268 349.889 37.6161 349.803 40.5297H343.879C343.879 40.5297 343.86 40.8191 343.86 40.9831C343.86 43.2985 344.988 44.9386 347.159 44.9386C347.815 44.9386 348.548 44.7746 349.272 44.244L349.677 44.7939C348.51 45.8551 347.632 46.2507 346.156 46.2507C343.725 46.241 342.104 44.4852 342.104 41.3304ZM346.571 39.7096L347.96 39.507C347.96 37.8862 347.198 37.0469 346.079 37.0469C344.931 37.0469 344.13 37.9055 343.908 39.7096H346.571Z" fill="black"/>
<path id="Vector_51" d="M351.375 50.6693V49.9747L353.42 49.6466L354.298 48.2092L355.176 46.1446L352.311 39.1404L351.472 37.5389L350.545 37.2977V36.661H355.032V37.2977L353.719 37.5389L354.211 39.1404L356.054 43.8677L357.771 39.1404L358.225 37.5389L356.932 37.2977V36.661H360.618V37.2977L359.576 37.5389L358.794 39.1404L354.327 50.9394L351.375 50.6693Z" fill="black"/>
</g>
<g id="Group_3">
<path id="Vector_52" d="M35.709 32.0389V30.3591H34.0291C33.9293 29.6439 33.3195 29.084 32.5711 29.084C31.8226 29.084 31.2128 29.6384 31.113 30.3591H29.4332V32.0389C28.718 32.1387 28.1636 32.7486 28.1636 33.497C28.1636 34.2399 28.718 34.8497 29.4332 34.9551V36.6349H31.113C31.2239 37.3445 31.8282 37.8878 32.5655 37.8878C33.3029 37.8878 33.9127 37.3445 34.0236 36.6349H35.7034V34.9551C36.4186 34.8497 36.9675 34.2399 36.9675 33.497C36.9675 32.7541 36.4241 32.1443 35.709 32.0389Z" fill="#0D395F"/>
<path id="Vector_53" d="M0 0.000114441V33.0646C0 33.303 0.0609839 39.0576 4.08593 46.7527C7.7727 53.8047 15.6507 63.8782 32.2328 71.8338L32.5821 72.0001L32.9314 71.8338C49.5301 63.8782 57.3971 53.7991 61.0728 46.7527C65.0866 39.0576 65.131 33.303 65.131 33.0646V0.000114441H0ZM63.5121 33.059C63.5121 33.1145 63.4511 38.7305 59.587 46.093C56.0444 52.8456 48.4823 62.4866 32.5821 70.1983C16.693 62.4921 9.12543 52.8456 5.57173 46.093C1.69647 38.7305 1.62439 33.1145 1.62439 33.059V1.62451H63.5121V33.059Z" fill="#0D395F"/>
<path id="Vector_54" d="M21.1504 32.6543V34.5504L17.6355 34.5559V34.567C16.8815 34.5614 16.183 35.0327 15.9779 35.7534C15.7838 36.4409 16.2162 37.1505 16.9425 37.3334C17.5246 37.4831 18.1178 37.156 18.2731 36.6016C18.3618 36.2856 18.2454 35.9641 18.0014 35.7645L22.3701 35.7589V33.8296C24.7152 33.5635 26.5835 31.7784 26.8718 29.5275H28.7124V28.9176C28.7124 26.8996 30.4477 25.2641 32.5821 25.2641C34.7166 25.2641 36.4519 26.9052 36.4519 28.9176V29.5275H38.2149C38.5031 31.7673 40.3604 33.5469 42.6944 33.813L42.7 35.7922H46.9079C46.6639 36.0029 46.5586 36.3411 46.6695 36.6571C46.858 37.2004 47.4734 37.4942 48.0444 37.3113C48.7596 37.084 49.1476 36.3577 48.9092 35.6813C48.693 35.0549 48.1109 34.6446 47.4678 34.5836V34.5725H43.9141L43.9086 32.6266H43.2987C41.1476 32.6266 39.3957 30.9634 39.3957 28.9176V28.3078H37.6272C37.3112 25.9073 35.1712 24.0445 32.5821 24.0445C29.9931 24.0445 27.8476 25.9073 27.5371 28.3078H25.6965V28.9176C25.6965 30.9745 23.9335 32.6488 21.7658 32.6488H21.1504V32.6543Z" fill="#0D395F"/>
<path id="Vector_55" d="M30.5419 55.3792C30.0374 55.3792 29.6992 55.8061 29.6992 56.4658C29.6992 57.0867 30.0208 57.4748 30.5419 57.4748C30.8357 57.4748 31.063 57.375 31.3236 57.1366C31.3846 56.9149 31.4012 56.7763 31.4012 56.5545C31.4012 55.8338 31.063 55.3792 30.5419 55.3792Z" fill="#0D395F"/>
<path id="Vector_56" d="M32.5155 47.4402C25.8018 47.4402 20.3575 52.8844 20.3575 59.5982C20.3575 59.5982 20.3575 59.7146 20.3575 59.9253C23.7061 62.5476 27.7311 65.0978 32.5876 67.4208C37.3776 65.1311 41.3582 62.6197 44.6736 60.0362C44.6736 59.7479 44.6736 59.5926 44.6736 59.5926C44.668 52.8844 39.2293 47.4402 32.5155 47.4402ZM28.1857 60.1304H25.641V59.4152H26.5724V55.8504C26.4892 55.9003 26.2453 56.0611 26.0235 56.1609C25.8073 56.2662 25.5079 56.3937 25.4137 56.427L25.1975 55.9558L26.8108 54.8248H27.4372V59.4208H28.1857V60.1304ZM31.1628 59.2489C30.6583 59.7257 29.9598 60.1359 29.2778 60.2856L28.8343 59.77C29.0727 59.7257 29.2335 59.6702 29.4553 59.5649C30.054 59.2877 30.6306 58.8386 30.9577 58.3009C31.0187 58.2011 31.0852 58.0625 31.1406 57.935C30.8856 58.0791 30.6417 58.1401 30.3756 58.1401C29.4663 58.1401 28.7733 57.436 28.7733 56.4824C28.7733 55.4734 29.5495 54.7194 30.5751 54.7194C31.7338 54.7194 32.3215 55.6231 32.3215 56.7042C32.316 57.6633 31.9113 58.5448 31.1628 59.2489ZM35.0436 59.9474C34.6722 60.1415 34.1898 60.2524 33.702 60.2524C33.458 60.2524 33.3582 60.2468 33.1198 60.1914L32.9424 59.5538C33.2085 59.637 33.3638 59.6647 33.6133 59.6647C34.4948 59.6647 35.1379 59.1325 35.1379 58.4118C35.1379 57.813 34.7387 57.5025 34.1455 57.5025C33.8018 57.5025 33.458 57.5635 33.081 57.7077L33.3305 54.8858H35.8364L35.7034 55.612H34.1233L34.0013 56.8761C34.212 56.8428 34.273 56.8373 34.4393 56.8373C35.343 56.8373 36.0748 57.3972 36.0748 58.3341C36.0748 59.0161 35.6701 59.6314 35.0436 59.9474ZM38.9133 59.9474C38.5419 60.1415 38.0596 60.2524 37.5717 60.2524C37.3277 60.2524 37.228 60.2468 36.9896 60.1914L36.8122 59.5538C37.0783 59.637 37.2335 59.6647 37.483 59.6647C38.3645 59.6647 39.0076 59.1325 39.0076 58.4118C39.0076 57.813 38.6084 57.5025 38.0207 57.5025C37.677 57.5025 37.3333 57.5635 36.9563 57.7077L37.1947 54.8858H39.7006L39.5675 55.612H37.9875L37.8655 56.8761C38.0762 56.8428 38.1372 56.8373 38.3035 56.8373C39.2072 56.8373 39.939 57.3972 39.939 58.3341C39.939 59.0161 39.5343 59.6314 38.9133 59.9474Z" fill="#0D395F"/>
<path id="Vector_57" d="M19.3929 13.8324H16.9536V16.2718H19.7089C19.6701 15.3847 19.5592 14.5642 19.3929 13.8324Z" fill="#0D395F"/>
<path id="Vector_58" d="M19.0326 21.1394H16.9536V23.8726C17.7408 23.54 18.5059 22.5698 19.0326 21.1394Z" fill="#0D395F"/>
<path id="Vector_59" d="M16.9536 9.87953V12.6127H19.0326C18.5059 11.1824 17.7408 10.2122 16.9536 9.87953Z" fill="#0D395F"/>
<path id="Vector_60" d="M19.7089 17.4859H16.9536V19.9253H19.3929C19.5592 19.1879 19.6701 18.3729 19.7089 17.4859Z" fill="#0D395F"/>
<path id="Vector_61" d="M22.0706 12.6127C21.3388 11.6314 20.3631 10.8442 19.2321 10.3397C19.6645 10.9662 20.0305 11.7368 20.3132 12.6127H22.0706Z" fill="#0D395F"/>
<path id="Vector_62" d="M20.923 16.2662H23.4622C23.3901 15.4014 23.1573 14.5809 22.8025 13.8269H20.6292C20.79 14.5919 20.8898 15.4125 20.923 16.2662Z" fill="#0D395F"/>
<path id="Vector_63" d="M19.2266 23.4124C20.3576 22.9079 21.3333 22.1207 22.0652 21.1394H20.3077C20.025 22.0154 19.6591 22.786 19.2266 23.4124Z" fill="#0D395F"/>
<path id="Vector_64" d="M20.6292 19.9253H22.8025C23.1573 19.1713 23.3901 18.3508 23.4622 17.4859H20.923C20.8898 18.3452 20.79 19.1602 20.6292 19.9253Z" fill="#0D395F"/>
<path id="Vector_65" d="M10.6168 21.1394C11.3486 22.1207 12.3243 22.9079 13.4553 23.4124C13.0229 22.786 12.657 22.0154 12.3742 21.1394H10.6168Z" fill="#0D395F"/>
<path id="Vector_66" d="M11.7588 17.4859H9.21967C9.29174 18.3508 9.52459 19.1713 9.8794 19.9253H12.0527C11.8919 19.1602 11.7921 18.3452 11.7588 17.4859Z" fill="#0D395F"/>
<path id="Vector_67" d="M13.4553 10.3397C12.3243 10.8442 11.3486 11.6314 10.6168 12.6127H12.3742C12.657 11.7368 13.0229 10.9662 13.4553 10.3397Z" fill="#0D395F"/>
<path id="Vector_68" d="M12.0527 13.8324H9.8794C9.52459 14.5864 9.29174 15.4014 9.21967 16.2718H11.7588C11.7921 15.4125 11.8919 14.5919 12.0527 13.8324Z" fill="#0D395F"/>
<path id="Vector_69" d="M15.7339 23.8781V21.145H13.6549C14.176 22.5698 14.9411 23.54 15.7339 23.8781Z" fill="#0D395F"/>
<path id="Vector_70" d="M4.60147 36.7014C5.45525 40.427 7.51207 46.1595 12.4351 52.208V44.6626V44.2967H52.5238L52.5183 52.4797C57.5966 46.3314 59.6867 40.4824 60.546 36.7014C61.1503 34.0569 61.1503 32.427 61.1503 32.427V3.98625H3.98608V32.427C3.98608 32.427 3.99163 34.0625 4.60147 36.7014ZM54.5086 41.7243C54.4809 41.7132 54.4476 41.6966 54.4199 41.691H54.3645C53.4552 41.9738 53.3998 43.0216 53.3998 43.0216V43.4928H52.2078V42.7555C52.2078 42.7555 52.1524 41.7631 51.2432 41.4914H51.1877C50.2785 41.7631 50.2231 42.7555 50.2231 42.7555V43.4928H48.7983V42.7555C48.7983 42.7555 48.7428 41.7631 47.8281 41.4914H47.7726C46.8634 41.7631 46.808 42.7555 46.808 42.7555V43.4928H45.4164V42.7555C45.4164 42.7555 45.361 41.7631 44.4518 41.4914H44.3963C43.4871 41.7631 43.4261 42.7555 43.4261 42.7555V43.4928H41.9792V42.7555C41.9792 42.7555 41.9237 41.7631 41.009 41.4914H40.9535C40.0443 41.7631 39.9889 42.7555 39.9889 42.7555V43.4928H38.5807V42.7555C38.5807 42.7555 38.5252 41.7631 37.616 41.4914H37.5606C36.6514 41.7631 36.5904 42.7555 36.5904 42.7555V43.4928H35.1988V42.7555C35.1988 42.7555 35.1434 41.7631 34.2342 41.4914H34.1787C33.2695 41.7631 33.2141 42.7555 33.2141 42.7555V43.4928H31.7671V42.7555C31.7671 42.7555 31.7117 41.7631 30.8024 41.4914H30.747C29.8378 41.7631 29.7823 42.7555 29.7823 42.7555V43.4928H28.3963V42.7555C28.3963 42.7555 28.3409 41.7631 27.4317 41.4914H27.3762C26.467 41.7631 26.4116 42.7555 26.4116 42.7555V43.4928H24.948V42.7555C24.948 42.7555 24.8925 41.7631 23.9778 41.4914H23.9223C23.0131 41.7631 22.9577 42.7555 22.9577 42.7555V43.4928H21.5661V42.7555C21.5661 42.7555 21.5107 41.7631 20.6015 41.4914H20.5405C19.6313 41.7631 19.5758 42.7555 19.5758 42.7555V43.4928H18.1455V42.7555C18.1455 42.7555 18.09 41.7631 17.1808 41.4914H17.1254C16.2162 41.7631 16.1607 42.7555 16.1607 42.7555V43.4928H14.7747V42.7555C14.7747 42.7555 14.7193 41.7631 13.8101 41.4914H13.7546C12.8454 41.7631 12.79 42.7555 12.79 42.7555V43.4928H11.598V43.0216C11.598 43.0216 11.5426 41.9793 10.6333 41.691H10.5779V41.0368H54.5252V41.7243H54.5086ZM49.0755 13.4998C50.6555 10.628 54.1649 10.5725 54.1649 10.5725C54.2148 10.5171 54.1649 19.3043 54.1649 19.3043C54.1649 19.3043 50.6555 19.3598 49.0755 22.2316V13.4998ZM42.7442 10.4949C42.7442 10.4949 46.2203 10.5504 47.7782 13.4221V22.154C46.2148 19.2822 42.7442 19.2267 42.7442 19.2267C42.7442 19.2267 42.6943 10.4395 42.7442 10.4949ZM40.1275 11.321H41.4303V20.0251L48.4823 24.1609L55.5287 20.0306V11.321H56.8315V20.7735L48.4823 25.6689L40.1275 20.7735V11.321ZM32.5543 22.4644C35.2654 22.4644 37.7657 24.3771 38.7137 26.7721L40.9036 26.7666C40.9036 26.7666 40.9036 28.8123 40.9036 28.8622C40.9036 30.1761 42.2286 31.0964 43.8586 31.0964C43.9417 31.0964 45.4442 31.0964 45.4442 31.0964L45.4497 33.0756L50.2231 33.0701L50.2286 38.4589H52.5128H55.8835V39.8781H9.17527V38.4589H14.7248V33.1034L19.6424 33.1089V31.0964C19.6424 31.0964 21.0339 31.0964 21.1281 31.0964C22.7636 31.0964 24.0831 30.1761 24.0831 28.8622C24.0831 28.7957 24.0776 26.7555 24.0776 26.7555H26.3284C27.2765 24.3771 29.8544 22.4644 32.5543 22.4644ZM16.3437 8.51016C20.9563 8.51016 24.7096 12.2635 24.7096 16.8761C24.7096 21.4887 20.9563 25.242 16.3437 25.242C11.7311 25.242 7.97777 21.4887 7.97777 16.8761C7.97222 12.2635 11.7255 8.51016 16.3437 8.51016Z" fill="#0D395F"/>
<path id="Vector_71" d="M13.2945 19.9253H15.7339V17.4859H12.9785C13.0118 18.3729 13.1227 19.1879 13.2945 19.9253Z" fill="#0D395F"/>
<path id="Vector_72" d="M15.7339 9.87953C14.9411 10.2122 14.176 11.1824 13.6549 12.6127H15.7339V9.87953Z" fill="#0D395F"/>
<path id="Vector_73" d="M12.9785 16.2662H15.7339V13.8269H13.2945C13.1227 14.5642 13.0118 15.3847 12.9785 16.2662Z" fill="#0D395F"/>
</g>
</g>
</g>
</svg>