<svg width="66" height="72" viewBox="0 0 66 72" fill="none" xmlns="http://www.w3.org/2000/svg">
<path fill-rule="evenodd" clip-rule="evenodd" d="M1 1V24.4311V34.9882L2.24788 40.7224L9.18109 53.2242L16.5286 60.5487L25.5473 67.4111L32.0722 70.947L37.7774 68.5212L44.3652 63.9449L50.3031 59.0233L54.5879 55.2797L57.5568 50.6356L61.2026 44.4321L62.6981 40.8073L64.5 33.6195V1H1Z" fill="white"/>
<path d="M35.709 32.0389V30.3591H34.0291C33.9293 29.6439 33.3195 29.084 32.5711 29.084C31.8226 29.084 31.2128 29.6384 31.113 30.3591H29.4332V32.0389C28.718 32.1387 28.1636 32.7486 28.1636 33.497C28.1636 34.2399 28.718 34.8497 29.4332 34.9551V36.6349H31.113C31.2239 37.3445 31.8282 37.8878 32.5655 37.8878C33.3029 37.8878 33.9127 37.3445 34.0236 36.6349H35.7034V34.9551C36.4186 34.8497 36.9675 34.2399 36.9675 33.497C36.9675 32.7541 36.4241 32.1443 35.709 32.0389Z" fill="#0D395F"/>
<path d="M0 0.000114441V33.0646C0 33.303 0.0609839 39.0576 4.08593 46.7527C7.7727 53.8047 15.6507 63.8782 32.2328 71.8338L32.5821 72.0001L32.9314 71.8338C49.5301 63.8782 57.3971 53.7991 61.0728 46.7527C65.0866 39.0576 65.131 33.303 65.131 33.0646V0.000114441H0ZM63.5121 33.059C63.5121 33.1145 63.4511 38.7305 59.587 46.093C56.0444 52.8456 48.4823 62.4866 32.5821 70.1983C16.693 62.4921 9.12543 52.8456 5.57173 46.093C1.69647 38.7305 1.62439 33.1145 1.62439 33.059V1.62451H63.5121V33.059Z" fill="#0D395F"/>
<path d="M21.1503 32.6543V34.5504L17.6354 34.5559V34.567C16.8815 34.5614 16.1829 35.0327 15.9778 35.7534C15.7838 36.4409 16.2162 37.1505 16.9424 37.3334C17.5246 37.4831 18.1178 37.156 18.273 36.6016C18.3617 36.2856 18.2453 35.9641 18.0014 35.7645L22.37 35.7589V33.8296C24.7151 33.5635 26.5835 31.7784 26.8718 29.5275H28.7124V28.9176C28.7124 26.8996 30.4476 25.2641 32.5821 25.2641C34.7165 25.2641 36.4518 26.9052 36.4518 28.9176V29.5275H38.2148C38.5031 31.7673 40.3603 33.5469 42.6944 33.813L42.6999 35.7922H46.9078C46.6639 36.0029 46.5585 36.3411 46.6694 36.6571C46.8579 37.2004 47.4733 37.4942 48.0443 37.3113C48.7595 37.084 49.1476 36.3577 48.9092 35.6813C48.693 35.0549 48.1108 34.6446 47.4677 34.5836V34.5725H43.914L43.9085 32.6266H43.2986C41.1476 32.6266 39.3957 30.9634 39.3957 28.9176V28.3078H37.6271C37.3111 25.9073 35.1711 24.0445 32.5821 24.0445C29.993 24.0445 27.8475 25.9073 27.537 28.3078H25.6964V28.9176C25.6964 30.9745 23.9334 32.6488 21.7657 32.6488H21.1503V32.6543Z" fill="#0D395F"/>
<path d="M30.5419 55.3792C30.0374 55.3792 29.6992 55.8061 29.6992 56.4658C29.6992 57.0867 30.0208 57.4748 30.5419 57.4748C30.8357 57.4748 31.063 57.375 31.3236 57.1366C31.3846 56.9149 31.4012 56.7763 31.4012 56.5545C31.4012 55.8338 31.063 55.3792 30.5419 55.3792Z" fill="#0D395F"/>
<path d="M32.5155 47.4402C25.8018 47.4402 20.3575 52.8844 20.3575 59.5982C20.3575 59.5982 20.3575 59.7146 20.3575 59.9253C23.7061 62.5476 27.7311 65.0978 32.5876 67.4208C37.3776 65.1311 41.3582 62.6197 44.6736 60.0362C44.6736 59.7479 44.6736 59.5926 44.6736 59.5926C44.668 52.8844 39.2293 47.4402 32.5155 47.4402ZM28.1857 60.1304H25.641V59.4152H26.5724V55.8504C26.4892 55.9003 26.2453 56.0611 26.0235 56.1609C25.8073 56.2662 25.5079 56.3937 25.4137 56.427L25.1975 55.9558L26.8108 54.8248H27.4372V59.4208H28.1857V60.1304ZM31.1628 59.2489C30.6583 59.7257 29.9598 60.1359 29.2778 60.2856L28.8343 59.77C29.0727 59.7257 29.2335 59.6702 29.4553 59.5649C30.054 59.2877 30.6306 58.8386 30.9577 58.3009C31.0187 58.2011 31.0852 58.0625 31.1406 57.935C30.8856 58.0791 30.6417 58.1401 30.3756 58.1401C29.4663 58.1401 28.7733 57.436 28.7733 56.4824C28.7733 55.4734 29.5495 54.7194 30.5751 54.7194C31.7338 54.7194 32.3215 55.6231 32.3215 56.7042C32.316 57.6633 31.9113 58.5448 31.1628 59.2489ZM35.0436 59.9474C34.6722 60.1415 34.1898 60.2524 33.702 60.2524C33.458 60.2524 33.3582 60.2468 33.1198 60.1914L32.9424 59.5538C33.2085 59.637 33.3638 59.6647 33.6133 59.6647C34.4948 59.6647 35.1379 59.1325 35.1379 58.4118C35.1379 57.813 34.7387 57.5025 34.1455 57.5025C33.8018 57.5025 33.458 57.5635 33.081 57.7077L33.3305 54.8858H35.8364L35.7034 55.612H34.1233L34.0013 56.8761C34.212 56.8428 34.273 56.8373 34.4393 56.8373C35.343 56.8373 36.0748 57.3972 36.0748 58.3341C36.0748 59.0161 35.6701 59.6314 35.0436 59.9474ZM38.9133 59.9474C38.5419 60.1415 38.0596 60.2524 37.5717 60.2524C37.3277 60.2524 37.228 60.2468 36.9896 60.1914L36.8122 59.5538C37.0783 59.637 37.2335 59.6647 37.483 59.6647C38.3645 59.6647 39.0076 59.1325 39.0076 58.4118C39.0076 57.813 38.6084 57.5025 38.0207 57.5025C37.677 57.5025 37.3333 57.5635 36.9563 57.7077L37.1947 54.8858H39.7006L39.5675 55.612H37.9875L37.8655 56.8761C38.0762 56.8428 38.1372 56.8373 38.3035 56.8373C39.2072 56.8373 39.939 57.3972 39.939 58.3341C39.939 59.0161 39.5343 59.6314 38.9133 59.9474Z" fill="#0D395F"/>
<path d="M19.3929 13.8324H16.9535V16.2718H19.7089C19.6701 15.3847 19.5592 14.5642 19.3929 13.8324Z" fill="#0D395F"/>
<path d="M19.0325 21.1394H16.9535V23.8726C17.7407 23.54 18.5058 22.5698 19.0325 21.1394Z" fill="#0D395F"/>
<path d="M16.9535 9.87953V12.6127H19.0325C18.5058 11.1824 17.7407 10.2122 16.9535 9.87953Z" fill="#0D395F"/>
<path d="M19.7089 17.4859H16.9535V19.9253H19.3929C19.5592 19.1879 19.6701 18.3729 19.7089 17.4859Z" fill="#0D395F"/>
<path d="M22.0707 12.6127C21.3389 11.6314 20.3632 10.8442 19.2322 10.3397C19.6646 10.9662 20.0305 11.7368 20.3133 12.6127H22.0707Z" fill="#0D395F"/>
<path d="M20.9231 16.2662H23.4623C23.3902 15.4014 23.1573 14.5809 22.8025 13.8269H20.6293C20.79 14.5919 20.8898 15.4125 20.9231 16.2662Z" fill="#0D395F"/>
<path d="M19.2267 23.4124C20.3577 22.9079 21.3334 22.1207 22.0652 21.1394H20.3078C20.025 22.0154 19.6591 22.786 19.2267 23.4124Z" fill="#0D395F"/>
<path d="M20.6293 19.9253H22.8025C23.1573 19.1713 23.3902 18.3508 23.4623 17.4859H20.9231C20.8898 18.3452 20.79 19.1602 20.6293 19.9253Z" fill="#0D395F"/>
<path d="M10.6168 21.1394C11.3486 22.1207 12.3244 22.9079 13.4554 23.4124C13.0229 22.786 12.657 22.0154 12.3743 21.1394H10.6168Z" fill="#0D395F"/>
<path d="M11.7589 17.4859H9.21973C9.2918 18.3508 9.52465 19.1713 9.87946 19.9253H12.0527C11.8919 19.1602 11.7921 18.3452 11.7589 17.4859Z" fill="#0D395F"/>
<path d="M13.4554 10.3397C12.3244 10.8442 11.3486 11.6314 10.6168 12.6127H12.3743C12.657 11.7368 13.0229 10.9662 13.4554 10.3397Z" fill="#0D395F"/>
<path d="M12.0527 13.8324H9.87946C9.52465 14.5864 9.2918 15.4014 9.21973 16.2718H11.7589C11.7921 15.4125 11.8919 14.5919 12.0527 13.8324Z" fill="#0D395F"/>
<path d="M15.7339 23.8781V21.145H13.6549C14.176 22.5698 14.9411 23.54 15.7339 23.8781Z" fill="#0D395F"/>
<path d="M4.60147 36.7014C5.45525 40.427 7.51207 46.1595 12.4351 52.208V44.6626V44.2967H52.5239L52.5183 52.4797C57.5966 46.3314 59.6867 40.4824 60.546 36.7014C61.1503 34.0569 61.1503 32.427 61.1503 32.427V3.98625H3.98608V32.427C3.98608 32.427 3.99163 34.0625 4.60147 36.7014ZM54.5086 41.7243C54.4809 41.7132 54.4476 41.6966 54.4199 41.691H54.3645C53.4552 41.9738 53.3998 43.0216 53.3998 43.0216V43.4928H52.2078V42.7555C52.2078 42.7555 52.1524 41.7631 51.2432 41.4914H51.1877C50.2785 41.7631 50.2231 42.7555 50.2231 42.7555V43.4928H48.7983V42.7555C48.7983 42.7555 48.7428 41.7631 47.8281 41.4914H47.7726C46.8634 41.7631 46.808 42.7555 46.808 42.7555V43.4928H45.4164V42.7555C45.4164 42.7555 45.361 41.7631 44.4518 41.4914H44.3963C43.4871 41.7631 43.4261 42.7555 43.4261 42.7555V43.4928H41.9792V42.7555C41.9792 42.7555 41.9237 41.7631 41.009 41.4914H40.9535C40.0443 41.7631 39.9889 42.7555 39.9889 42.7555V43.4928H38.5807V42.7555C38.5807 42.7555 38.5252 41.7631 37.616 41.4914H37.5606C36.6514 41.7631 36.5904 42.7555 36.5904 42.7555V43.4928H35.1988V42.7555C35.1988 42.7555 35.1434 41.7631 34.2342 41.4914H34.1787C33.2695 41.7631 33.2141 42.7555 33.2141 42.7555V43.4928H31.7671V42.7555C31.7671 42.7555 31.7117 41.7631 30.8024 41.4914H30.747C29.8378 41.7631 29.7823 42.7555 29.7823 42.7555V43.4928H28.3963V42.7555C28.3963 42.7555 28.3409 41.7631 27.4317 41.4914H27.3762C26.467 41.7631 26.4116 42.7555 26.4116 42.7555V43.4928H24.948V42.7555C24.948 42.7555 24.8925 41.7631 23.9778 41.4914H23.9223C23.0131 41.7631 22.9577 42.7555 22.9577 42.7555V43.4928H21.5661V42.7555C21.5661 42.7555 21.5107 41.7631 20.6015 41.4914H20.5405C19.6313 41.7631 19.5758 42.7555 19.5758 42.7555V43.4928H18.1455V42.7555C18.1455 42.7555 18.09 41.7631 17.1808 41.4914H17.1254C16.2162 41.7631 16.1607 42.7555 16.1607 42.7555V43.4928H14.7747V42.7555C14.7747 42.7555 14.7193 41.7631 13.8101 41.4914H13.7546C12.8454 41.7631 12.79 42.7555 12.79 42.7555V43.4928H11.598V43.0216C11.598 43.0216 11.5426 41.9793 10.6333 41.691H10.5779V41.0368H54.5252V41.7243H54.5086ZM49.0755 13.4998C50.6555 10.628 54.1649 10.5725 54.1649 10.5725C54.2148 10.5171 54.1649 19.3043 54.1649 19.3043C54.1649 19.3043 50.6555 19.3598 49.0755 22.2316V13.4998V13.4998ZM42.7442 10.4949C42.7442 10.4949 46.2203 10.5504 47.7782 13.4221V22.154C46.2148 19.2822 42.7442 19.2267 42.7442 19.2267C42.7442 19.2267 42.6943 10.4395 42.7442 10.4949ZM40.1275 11.321H41.4303V20.0251L48.4823 24.1609L55.5287 20.0306V11.321H56.8315V20.7735L48.4823 25.6689L40.1275 20.7735V11.321ZM32.5543 22.4644C35.2654 22.4644 37.7657 24.3771 38.7137 26.7721L40.9036 26.7666C40.9036 26.7666 40.9036 28.8123 40.9036 28.8622C40.9036 30.1761 42.2286 31.0964 43.8586 31.0964C43.9417 31.0964 45.4442 31.0964 45.4442 31.0964L45.4497 33.0757L50.2231 33.0701L50.2286 38.4589H52.5128H55.8835V39.8781H9.17527V38.4589H14.7248V33.1034L19.6424 33.1089V31.0964C19.6424 31.0964 21.0339 31.0964 21.1281 31.0964C22.7636 31.0964 24.0831 30.1761 24.0831 28.8622C24.0831 28.7957 24.0776 26.7555 24.0776 26.7555H26.3284C27.2765 24.3771 29.8544 22.4644 32.5543 22.4644ZM16.3437 8.51016C20.9563 8.51016 24.7096 12.2635 24.7096 16.8761C24.7096 21.4887 20.9563 25.242 16.3437 25.242C11.7311 25.242 7.97777 21.4887 7.97777 16.8761C7.97222 12.2635 11.7255 8.51016 16.3437 8.51016Z" fill="#0D395F"/>
<path d="M13.2945 19.9253H15.7339V17.4859H12.9785C13.0118 18.3729 13.1227 19.1879 13.2945 19.9253Z" fill="#0D395F"/>
<path d="M15.7339 9.87953C14.9411 10.2122 14.176 11.1824 13.6549 12.6127H15.7339V9.87953Z" fill="#0D395F"/>
<path d="M12.9785 16.2662H15.7339V13.8269H13.2945C13.1227 14.5642 13.0118 15.3847 12.9785 16.2662Z" fill="#0D395F"/>
</svg>
