<svg width="284" height="43" viewBox="0 0 284 43" fill="none" xmlns="http://www.w3.org/2000/svg">
<path d="M40.3148 28.5066C39.1474 28.5066 38.2309 29.153 37.3819 30.6001C37.3819 30.5808 37.3723 30.5519 37.3723 30.5326V30.2914C37.3819 30.1853 37.3916 30.0792 37.4012 29.9827C37.4301 29.7512 37.4494 29.5293 37.4784 29.2977C37.517 28.9697 37.5556 28.632 37.5942 28.304L33.9956 28.6706V29.3074L35.6357 29.5775L35.8576 31.1501V35.3661L35.6357 36.9193L34.2078 37.1895V37.8262H39.4658V37.1895L37.8257 36.9193L37.6038 35.3661C37.6038 35.202 37.6038 35.038 37.6038 34.874C37.6038 34.4302 37.6038 33.9865 37.6038 33.5427C37.6038 33.0506 37.6038 32.5586 37.6038 32.0666C37.6038 31.9315 37.6038 31.7964 37.6038 31.6614C37.6038 31.6035 37.6038 31.5456 37.6038 31.4974C37.6038 31.4684 37.6038 31.4395 37.6038 31.4105C38.1923 30.6773 38.9931 30.4168 39.6009 30.4168C40.035 30.4168 40.4595 30.5616 40.8068 30.7256L41.3181 28.661C40.884 28.5259 40.6814 28.5066 40.3148 28.5066Z" fill="white"/>
<path d="M263.56 28.5066C262.393 28.5066 261.476 29.153 260.627 30.6001C260.627 30.5808 260.618 30.5519 260.618 30.5326V30.2914C260.627 30.1853 260.637 30.0792 260.647 29.9827C260.676 29.7512 260.695 29.5293 260.724 29.2977C260.762 28.9697 260.801 28.632 260.84 28.304L257.241 28.6706V29.3074L258.881 29.5775L259.103 31.1501V35.3661L258.881 36.9193L257.453 37.1895V37.8262H262.711V37.1895L261.071 36.9193L260.849 35.3661C260.849 35.202 260.849 35.038 260.849 34.874C260.849 34.4302 260.849 33.9865 260.849 33.5427C260.849 33.0506 260.849 32.5586 260.849 32.0666C260.849 31.9315 260.849 31.7964 260.849 31.6614C260.849 31.6035 260.849 31.5456 260.849 31.4974C260.849 31.4684 260.849 31.4395 260.849 31.4105C261.438 30.6773 262.238 30.4168 262.846 30.4168C263.28 30.4168 263.705 30.5616 264.052 30.7256L264.563 28.661C264.129 28.5259 263.927 28.5066 263.56 28.5066Z" fill="white"/>
<path d="M0.56665 14.7299L2.22604 14.4018L2.42864 12.3372V4.98578L2.22604 2.92119L0.56665 2.59318V1.97573H4.99489L6.03683 4.98578L9.13371 13.0319L12.3078 4.96648L13.2725 1.97573H17.7008V2.59318L16.0607 2.92119L15.8388 4.98578V12.3372L16.0607 14.4018L17.7008 14.7299V15.3666H12.0473V14.7299L13.6874 14.4018L13.9093 12.3372V3.36498L10.3879 12.3372L9.34596 15.3666H7.9953L6.88582 12.3372L3.34516 3.36498V12.3372L3.56705 14.4018L5.20714 14.7299V15.3666H0.56665V14.7299Z" fill="white"/>
<path d="M19.254 14.7299L20.6915 14.4597L20.8941 12.9065V8.69046L20.6915 7.1179L19.0514 6.84777V6.21102L22.8622 5.84442L22.6596 8.69046V12.9065L22.8622 14.4597L24.2997 14.7299V15.3666H19.2636V14.7299H19.254ZM20.3249 2.15903C20.3249 1.46441 20.8941 0.866257 21.6177 0.866257C22.3123 0.866257 22.9104 1.43547 22.9104 2.17833C22.9104 2.83437 22.3798 3.45181 21.6177 3.45181C20.9134 3.44216 20.3249 2.93084 20.3249 2.15903Z" fill="white"/>
<path d="M25.1005 11.2278C25.1005 8.03442 27.1072 5.77688 30.0207 5.77688C30.5899 5.77688 31.0434 5.83477 31.5933 5.96019V3.56758L31.3714 1.99502L29.7313 1.72489V1.08815L33.5614 0.721542L33.3395 3.56758V12.9065L33.5614 14.4597L34.8928 14.7299V15.3666L31.5933 15.8007L31.902 13.8519C30.9565 15.1254 30.0014 15.8007 28.6411 15.8007C26.5765 15.8007 25.1005 14.0159 25.1005 11.2278ZM31.5933 13.1187V7.05037C31.0241 6.80918 30.5706 6.68376 29.9339 6.68376C28.0044 6.68376 26.9432 8.28526 26.9432 10.8033C26.9432 13.0319 27.7632 14.3922 29.3647 14.3922C30.0786 14.3825 30.8408 14.0545 31.5933 13.1187Z" fill="white"/>
<path d="M35.6356 11.2278C35.6356 8.03442 37.6423 5.77688 40.5559 5.77688C41.1251 5.77688 41.5785 5.83477 42.1285 5.96019V3.56758L41.9066 1.99502L40.2665 1.72489V1.08815L44.0966 0.721542L43.8747 3.56758V12.9065L44.0966 14.4597L45.4279 14.7299V15.3666L42.1285 15.8007L42.4372 13.8519C41.4917 15.1254 40.5366 15.8007 39.1763 15.8007C37.1117 15.8007 35.6356 14.0159 35.6356 11.2278ZM42.1285 13.1187V7.05037C41.5592 6.80918 41.1058 6.68376 40.4691 6.68376C38.5395 6.68376 37.4783 8.28526 37.4783 10.8033C37.4783 13.0319 38.2984 14.3922 39.8999 14.3922C40.6138 14.3825 41.3663 14.0545 42.1285 13.1187Z" fill="white"/>
<path d="M46.7208 14.7299L48.1583 14.4597L48.3802 12.9065V3.56758L48.1583 1.99502L46.5182 1.72489V1.08815L50.329 0.721542L50.1264 3.56758V12.9065L50.3483 14.4597L51.7568 14.7299V15.3666H46.7208V14.7299Z" fill="white"/>
<path d="M52.49 10.8805C52.49 7.76429 54.0625 5.77689 56.6288 5.77689C58.7802 5.77689 60.2756 7.16614 60.1888 10.0797H54.2651C54.2651 10.0797 54.2458 10.3691 54.2458 10.5331C54.2458 12.8486 55.3746 14.4887 57.5453 14.4887C58.2014 14.4887 58.9346 14.3247 59.6581 13.794L60.073 14.344C58.9056 15.4052 58.0277 15.8007 56.5516 15.8007C54.1108 15.8007 52.49 14.0352 52.49 10.8805ZM56.9568 9.25967L58.3461 9.05707C58.3461 7.43627 57.5839 6.59693 56.4648 6.59693C55.3167 6.59693 54.516 7.45557 54.2941 9.25967H56.9568Z" fill="white"/>
<path d="M62.1858 15.3666V3.56758L61.9832 1.99502L60.3431 1.72489V1.08815L64.1539 0.721542L63.9513 3.56758V7.41697C64.7135 6.41362 65.8133 5.77688 67.0675 5.77688C69.0356 5.77688 70.4056 7.45556 70.4056 10.0604C70.4056 13.2345 68.505 15.7911 64.81 15.7911C63.9513 15.8007 63.3532 15.8007 62.1858 15.3666ZM68.6015 10.7165C68.6015 8.60363 67.7043 7.17578 66.3246 7.17578C65.4853 7.17578 64.6846 7.5231 63.9513 8.38173V12.9065L64.1539 14.6913C64.646 14.8553 64.9933 14.9325 65.5239 14.9325C67.6367 14.9421 68.6015 13.0512 68.6015 10.7165Z" fill="white"/>
<path d="M72.779 12.5977V8.69045L72.5571 7.1179L70.9556 6.84776V6.21102L74.7471 5.84441L74.5445 8.69045V12.1346C74.5445 13.5432 75.2005 14.4115 76.4933 14.4115C77.3712 14.4115 78.172 13.8809 78.7508 13.1862V8.69045L78.5482 7.1179L76.9467 6.84776V6.21102L80.7382 5.84441L80.5163 8.69045V12.9065L80.7382 14.4597L82.2143 14.7298V15.3666L78.7508 15.7332L78.9727 13.8905C78.008 15.2219 77.1493 15.7911 75.6925 15.7911C73.8788 15.8007 72.779 14.6527 72.779 12.5977Z" fill="white"/>
<path d="M92.3539 20.2193V19.5247L94.3992 19.1967L95.2771 17.7592L96.155 15.6946L93.2897 8.69045L92.4503 7.08895L91.5242 6.84776V6.21102H96.0103V6.84776L94.6982 7.08895L95.1903 8.69045L97.033 13.4178L98.7502 8.69045L99.2037 7.08895L97.9109 6.84776V6.21102H101.596V6.84776L100.554 7.08895L99.7729 8.69045L95.306 20.4895L92.3539 20.2193Z" fill="white"/>
<path d="M89.614 6.05666C88.4466 6.05666 87.5301 6.70305 86.6811 8.15019C86.6811 8.1309 86.6715 8.10196 86.6715 8.08266V7.84147C86.6811 7.73535 86.6908 7.62922 86.7004 7.53275C86.7293 7.30121 86.7486 7.07931 86.7776 6.84777C86.8162 6.51975 86.8548 6.18208 86.8934 5.85406L83.2948 6.22067V6.85741L84.9349 7.12755L85.1568 8.70011V12.9161L84.9349 14.4694L83.507 14.7395V15.3762H88.765V14.7395L87.1249 14.4694L86.903 12.9161C86.903 12.7521 86.903 12.5881 86.903 12.4241C86.903 11.9803 86.903 11.5365 86.903 11.0927C86.903 10.6007 86.903 10.1087 86.903 9.61663C86.903 9.48156 86.903 9.3465 86.903 9.21143C86.903 9.15354 86.903 9.09566 86.903 9.04742C86.903 9.01848 86.903 8.98953 86.903 8.96059C87.4915 8.22737 88.2923 7.96689 88.9001 7.96689C89.3342 7.96689 89.7587 8.1116 90.106 8.27561L90.6173 6.21103C90.1928 6.07596 89.9806 6.05666 89.614 6.05666Z" fill="white"/>
<path d="M106.652 14.7299L108.311 14.4018L108.514 12.3372V4.98578L108.311 2.92119L106.652 2.59318V1.97573H112.305V2.59318L110.646 2.92119L110.443 4.98578V12.3372L110.646 14.4018L112.305 14.7299V15.3666H106.652V14.7299Z" fill="white"/>
<path d="M113.608 14.7298L115.045 14.4597L115.267 12.9065V8.69046L115.045 7.1179L113.405 6.84777V6.21102L117.013 5.84442L116.791 7.68711C117.631 6.39433 118.692 5.78653 120.091 5.78653C121.856 5.78653 122.995 6.95389 122.995 8.97988V12.9161L123.197 14.4694L124.654 14.7395V15.3762H119.84V14.7395L121.007 14.4694L121.21 12.9161V9.47191C121.21 8.10195 120.554 7.17578 119.261 7.17578C118.48 7.17578 117.91 7.39768 117.003 8.40103V12.9065L117.225 14.4597L118.393 14.7298V15.3666H113.598V14.7298H113.608Z" fill="white"/>
<path d="M125.985 15.2412L125.821 12.8486H126.719L127.066 14.4211C127.703 14.7106 128.195 14.8746 128.967 14.8746C130.076 14.8746 130.771 14.3247 130.771 13.3792C130.771 12.1925 129.642 11.8452 128.581 11.4497C127.288 10.9191 125.773 10.4656 125.773 8.62293C125.773 7.06966 127.047 5.65147 129.217 5.65147C130.144 5.65147 131.041 5.83477 131.938 6.24962L132.141 8.64222H131.243L130.79 7.02142C130.211 6.75129 129.623 6.61623 128.967 6.61623C127.886 6.61623 127.269 7.06966 127.269 7.98618C127.269 9.11495 128.417 9.46227 129.42 9.84817C130.877 10.3981 132.247 10.8515 132.247 12.7521C132.247 14.4694 130.857 15.82 128.783 15.82C128.118 15.8393 126.969 15.6367 125.985 15.2412Z" fill="white"/>
<path d="M134.881 13.5818V7.06966H133.279V6.33644L134.881 6.00843V3.65441L136.646 3.32639V6.21102H139.145V7.06966H136.646V12.9065C136.646 13.9484 137.013 14.4211 137.775 14.4211C138.103 14.4211 138.653 14.315 139.125 14.0159L139.511 14.672C138.489 15.492 137.813 15.8007 136.887 15.8007C135.884 15.8007 134.881 15.2894 134.881 13.5818Z" fill="white"/>
<path d="M140.582 14.7299L142.02 14.4597L142.222 12.9065V8.69046L142.02 7.1179L140.38 6.84777V6.21102L144.19 5.84442L143.988 8.69046V12.9065L144.19 14.4597L145.628 14.7299V15.3666H140.592V14.7299H140.582ZM141.653 2.15903C141.653 1.46441 142.222 0.866257 142.946 0.866257C143.641 0.866257 144.239 1.43547 144.239 2.17833C144.239 2.83437 143.708 3.45181 142.946 3.45181C142.242 3.44216 141.653 2.93084 141.653 2.15903Z" fill="white"/>
<path d="M147.432 13.5818V7.06966H145.83V6.33644L147.432 6.00843V3.65441L149.197 3.32639V6.21102H151.696V7.06966H149.197V12.9065C149.197 13.9484 149.564 14.4211 150.326 14.4211C150.654 14.4211 151.204 14.315 151.677 14.0159L152.063 14.672C151.04 15.492 150.365 15.8007 149.439 15.8007C148.435 15.8007 147.432 15.2894 147.432 13.5818Z" fill="white"/>
<path d="M154.658 12.5977V8.69045L154.436 7.1179L152.835 6.84776V6.21102L156.626 5.84441L156.424 8.69045V12.1346C156.424 13.5432 157.08 14.4115 158.372 14.4115C159.25 14.4115 160.051 13.8809 160.63 13.1862V8.69045L160.427 7.1179L158.826 6.84776V6.21102L162.617 5.84441L162.395 8.69045V12.9065L162.617 14.4597L164.093 14.7298V15.3666L160.63 15.7332L160.852 13.8905C159.887 15.2219 159.028 15.7911 157.572 15.7911C155.758 15.8007 154.658 14.6527 154.658 12.5977Z" fill="white"/>
<path d="M165.907 13.5818V7.06966H164.306V6.33644L165.907 6.00843V3.65441L167.673 3.32639V6.21102H170.171V7.06966H167.673V12.9065C167.673 13.9484 168.039 14.4211 168.801 14.4211C169.129 14.4211 169.679 14.315 170.152 14.0159L170.538 14.672C169.515 15.492 168.84 15.8007 167.914 15.8007C166.911 15.8007 165.907 15.2894 165.907 13.5818Z" fill="white"/>
<path d="M171.233 10.8805C171.233 7.76429 172.805 5.77689 175.371 5.77689C177.523 5.77689 179.018 7.16614 178.931 10.0797H173.008C173.008 10.0797 172.989 10.3691 172.989 10.5331C172.989 12.8486 174.117 14.4887 176.288 14.4887C176.944 14.4887 177.677 14.3247 178.401 13.794L178.806 14.344C177.639 15.4052 176.761 15.8007 175.285 15.8007C172.853 15.8007 171.233 14.0352 171.233 10.8805ZM175.7 9.25967L177.089 9.05707C177.089 7.43627 176.327 6.59693 175.208 6.59693C174.059 6.59693 173.259 7.45557 173.037 9.25967H175.7Z" fill="white"/>
<path d="M184.816 12.7907C184.816 10.3305 185.636 8.32384 187.556 6.80917C188.338 6.19173 189.467 5.71899 190.306 5.71899C191.695 5.71899 192.515 6.76093 192.515 8.87376C192.515 10.755 191.917 12.5784 190.711 13.8326C189.582 15.0579 188.251 15.7814 186.958 15.7814C185.656 15.7814 184.816 14.7781 184.816 12.7907ZM189.756 13.302C190.431 12.2794 190.817 10.9094 190.817 9.3079C190.817 7.87041 190.508 6.97318 189.592 6.97318C188.897 6.97318 188.318 7.3012 187.73 8.12124C186.997 9.1053 186.563 10.8901 186.563 12.3855C186.563 13.7554 186.977 14.5755 187.817 14.5755C188.54 14.5658 189.196 14.1413 189.756 13.302Z" fill="white"/>
<path d="M189.071 20.2386L189.457 18.4731C190.094 18.724 190.788 18.9073 191.386 18.9073C191.917 18.9073 192.332 18.7047 192.631 18.2512C192.92 17.8171 193.142 17.2286 193.306 16.4278L195.188 7.08896H193.364V6.21102H195.371L195.429 5.94089C195.863 3.99208 196.326 2.87296 197.358 1.92749C198.217 1.12674 199.307 0.721542 200.146 0.721542C200.658 0.721542 201.073 0.779428 201.787 0.924142L201.381 2.80542C200.523 2.41952 199.645 2.18798 199.066 2.18798C198.68 2.18798 198.246 2.3134 197.841 2.75718C197.387 3.24921 197.107 4.23327 197.001 6.20138H199.133V7.07931H196.857L195.178 15.5788C194.889 16.9874 194.213 18.2416 193.229 19.1002C192.284 19.9396 191.329 20.3737 190.296 20.3737C190.055 20.3833 189.438 20.3447 189.071 20.2386Z" fill="white"/>
<path d="M0.547363 37.1798L2.20675 36.8518L2.40935 34.7872V27.4357L2.20675 25.3711L0.547363 25.0431V24.416H6.20085V25.0335L4.54147 25.3615L4.33887 27.4261V34.7775L4.54147 36.8421L6.20085 37.1702V37.8069H0.547363V37.1798Z" fill="white"/>
<path d="M7.50326 37.1798L8.94075 36.9097L9.16265 35.3564V31.1404L8.94075 29.5678L7.30066 29.2977V28.661L10.9089 28.2944L10.687 30.1371C11.5263 28.8443 12.5875 28.2365 13.9864 28.2365C15.752 28.2365 16.8904 29.4038 16.8904 31.4298V35.3661L17.093 36.9193L18.5498 37.1894V37.8262H13.7356V37.1894L14.903 36.9193L15.1056 35.3661V31.9219C15.1056 30.5519 14.4495 29.6257 13.1567 29.6257C12.3753 29.6257 11.8061 29.8476 10.8992 30.851V35.3564L11.1211 36.9097L12.2885 37.1798V37.8165H7.49362V37.1798H7.50326Z" fill="white"/>
<path d="M20.1224 36.0317V29.5196H18.5209V28.7864L20.1224 28.4584V26.1044L21.8879 25.7763V28.661H24.3866V29.5196H21.8879V35.3564C21.8879 36.3983 22.2545 36.8711 23.0166 36.8711C23.3447 36.8711 23.8946 36.765 24.3673 36.4659L24.7532 37.1219C23.7306 37.942 23.0552 38.2507 22.1291 38.2507C21.1257 38.241 20.1224 37.7297 20.1224 36.0317Z" fill="white"/>
<path d="M25.4478 33.3304C25.4478 30.2142 27.0203 28.2268 29.5866 28.2268C31.738 28.2268 33.2334 29.6161 33.1465 32.5297H27.2229C27.2229 32.5297 27.2036 32.8191 27.2036 32.9831C27.2036 35.2985 28.3324 36.9386 30.5031 36.9386C31.1591 36.9386 31.8923 36.7746 32.6159 36.244L33.0211 36.7939C31.8538 37.8551 30.9758 38.2507 29.4997 38.2507C27.0685 38.241 25.4478 36.4852 25.4478 33.3304ZM29.9146 31.7096L31.3038 31.507C31.3038 29.8862 30.5417 29.0469 29.4226 29.0469C28.2745 29.0469 27.4737 29.9055 27.2518 31.7096H29.9146Z" fill="white"/>
<path d="M42.3794 37.1798L43.8169 36.9097L44.0387 35.3564V31.1404L43.8169 29.5678L42.1768 29.2977V28.661L45.785 28.2944L45.5631 30.1371C46.4024 28.8443 47.4636 28.2365 48.8625 28.2365C50.6281 28.2365 51.7665 29.4038 51.7665 31.4298V35.3661L51.9691 36.9193L53.4259 37.1894V37.8262H48.6117V37.1894L49.7791 36.9193L49.9817 35.3661V31.9219C49.9817 30.5519 49.3256 29.6257 48.0329 29.6257C47.2514 29.6257 46.6822 29.8476 45.7753 30.851V35.3564L45.9972 36.9097L47.1646 37.1798V37.8165H42.3697V37.1798H42.3794Z" fill="white"/>
<path d="M54.323 35.7616C54.323 34.8644 54.7089 34.1022 55.5289 33.5041C56.3297 32.9059 57.6418 32.6068 59.5038 32.6068V31.4974C59.5038 30.2046 58.7223 29.4521 57.4778 29.4521C56.7156 29.4521 55.9631 29.7608 55.2878 30.3782L54.7764 29.8283C55.7026 28.7864 56.9472 28.1304 58.4039 28.1304C60.044 28.1304 61.2307 29.0083 61.2307 31.0343V35.3564L61.4526 36.9097L62.8225 37.1798V37.8165L59.4652 38.1831L59.8318 35.9256C59.0696 37.3149 58.0952 38.241 56.6963 38.241C55.3456 38.241 54.323 37.3245 54.323 35.7616ZM59.5038 35.3757V33.3883C58.2978 33.3883 57.4392 33.5523 56.8796 33.8996C56.3297 34.2083 56.0403 34.7004 56.0403 35.3371C56.0403 36.1379 56.5902 36.7939 57.3909 36.7939C58.0759 36.7939 58.896 36.2729 59.5038 35.3757Z" fill="white"/>
<path d="M64.5495 36.0317V29.5196H62.948V28.7864L64.5495 28.4584V26.1044L66.315 25.7763V28.661H68.8137V29.5196H66.315V35.3564C66.315 36.3983 66.6816 36.8711 67.4438 36.8711C67.7718 36.8711 68.3217 36.765 68.7944 36.4659L69.1804 37.1219C68.1577 37.942 67.4824 38.2507 66.5562 38.2507C65.5529 38.241 64.5495 37.7297 64.5495 36.0317Z" fill="white"/>
<path d="M70.261 37.1798L71.6985 36.9097L71.901 35.3564V31.1404L71.6985 29.5679L70.0583 29.2977V28.661L73.8692 28.2944L73.6666 31.1404V35.3564L73.8692 36.9097L75.3066 37.1798V37.8165H70.2706V37.1798H70.261ZM71.3222 24.5993C71.3222 23.9047 71.8914 23.3066 72.615 23.3066C73.3096 23.3066 73.9077 23.8758 73.9077 24.6186C73.9077 25.2747 73.3771 25.8921 72.615 25.8921C71.9203 25.8921 71.3222 25.3808 71.3222 24.5993Z" fill="white"/>
<path d="M75.8759 33.3497C75.8759 30.3975 77.4773 28.2075 80.5067 28.2075C83.1308 28.2075 84.8674 29.973 84.8674 33.1664C84.8674 36.2826 83.0054 38.27 80.2752 38.27C77.6607 38.2603 75.8759 36.3983 75.8759 33.3497ZM82.8993 33.1857C82.8993 30.4651 82.0214 29.0662 80.4006 29.0662C78.7605 29.0662 77.8633 30.3589 77.8633 33.205C77.8633 35.9931 78.7412 37.3824 80.3427 37.3824C81.9828 37.3824 82.8993 36.0317 82.8993 33.1857Z" fill="white"/>
<path d="M85.5909 37.1798L87.0284 36.9097L87.2503 35.3564V31.1404L87.0284 29.5678L85.3883 29.2977V28.661L88.9965 28.2944L88.7746 30.1371C89.6139 28.8443 90.6752 28.2365 92.0741 28.2365C93.8396 28.2365 94.978 29.4038 94.978 31.4298V35.3661L95.1806 36.9193L96.6374 37.1894V37.8262H91.8232V37.1894L92.9906 36.9193L93.1932 35.3661V31.9219C93.1932 30.5519 92.5372 29.6257 91.2444 29.6257C90.4629 29.6257 89.8937 29.8476 88.9869 30.851V35.3564L89.2087 36.9097L90.3761 37.1798V37.8165H85.5813V37.1798H85.5909Z" fill="white"/>
<path d="M97.5443 35.7616C97.5443 34.8644 97.9302 34.1022 98.7503 33.5041C99.551 32.9059 100.863 32.6068 102.725 32.6068V31.4974C102.725 30.2046 101.944 29.4521 100.699 29.4521C99.9369 29.4521 99.1844 29.7608 98.5091 30.3782L97.9977 29.8283C98.9239 28.7864 100.168 28.1304 101.625 28.1304C103.265 28.1304 104.452 29.0083 104.452 31.0343V35.3564L104.674 36.9097L106.044 37.1798V37.8165L102.686 38.1831L103.053 35.9256C102.291 37.3149 101.317 38.241 99.9176 38.241C98.567 38.241 97.5443 37.3245 97.5443 35.7616ZM102.725 35.3757V33.3883C101.519 33.3883 100.66 33.5523 100.101 33.8996C99.551 34.2083 99.2616 34.7004 99.2616 35.3371C99.2616 36.1379 99.8115 36.7939 100.612 36.7939C101.288 36.7939 102.108 36.2729 102.725 35.3757Z" fill="white"/>
<path d="M107.134 37.1798L108.571 36.9097L108.793 35.3564V26.0175L108.571 24.445L106.931 24.1748V23.5381L110.742 23.1715L110.54 26.0175V35.3564L110.761 36.9097L112.17 37.1798V37.8165H107.134V37.1798Z" fill="white"/>
<path d="M117.534 37.5078L117.332 34.3917H118.373L118.779 36.5431C119.473 36.8711 120.11 37.1412 120.949 37.1412C122.811 37.1412 124.162 36.244 124.162 34.7004C124.162 32.9831 122.522 32.3464 120.949 31.7482C119.001 31.015 117.283 30.2335 117.283 27.8795C117.283 25.8149 118.856 23.924 121.914 23.924C122.956 23.924 124.249 24.2134 125.358 24.6186L125.58 27.7155H124.558L124.104 25.5255C123.467 25.1396 122.483 24.9081 121.876 24.9081C119.85 24.9081 118.846 26.0368 118.846 27.2042C118.846 28.8636 120.284 29.3363 121.712 29.9055C123.805 30.7449 125.764 31.6228 125.764 34.1408C125.764 36.5817 123.795 38.1735 120.843 38.1735C119.85 38.1832 118.991 38.077 117.534 37.5078Z" fill="white"/>
<path d="M128.233 36.0317V29.5196H126.632V28.7864L128.233 28.4584V26.1044L129.999 25.7763V28.661H132.498V29.5196H129.999V35.3564C129.999 36.3983 130.365 36.8711 131.128 36.8711C131.456 36.8711 132.006 36.765 132.478 36.4659L132.864 37.1219C131.842 37.942 131.166 38.2507 130.24 38.2507C129.237 38.241 128.233 37.7297 128.233 36.0317Z" fill="white"/>
<path d="M135.392 35.0477V31.1308L135.17 29.5582L133.568 29.2881V28.661L137.36 28.2944L137.157 31.1404V34.5846C137.157 35.9931 137.813 36.8614 139.106 36.8614C139.984 36.8614 140.785 36.3308 141.364 35.6362V31.1501L141.161 29.5775L139.56 29.3074V28.661L143.351 28.2944L143.129 31.1404V35.3564L143.351 36.9097L144.827 37.1798V37.8165L141.364 38.1831L141.586 36.3405C140.621 37.6718 139.762 38.241 138.305 38.241C136.492 38.241 135.392 37.093 135.392 35.0477Z" fill="white"/>
<path d="M145.367 33.6777C145.367 30.4844 147.374 28.2268 150.288 28.2268C150.857 28.2268 151.31 28.2847 151.86 28.4101V26.0175L151.638 24.445L149.998 24.1748V23.5381L153.828 23.1715L153.606 26.0175V35.3564L153.828 36.9097L155.16 37.1798V37.8165L151.86 38.2507L152.169 36.3019C151.224 37.5754 150.268 38.2507 148.908 38.2507C146.844 38.241 145.367 36.4659 145.367 33.6777ZM151.86 35.559V29.5003C151.281 29.2591 150.838 29.1337 150.201 29.1337C148.271 29.1337 147.21 30.7352 147.21 33.2532C147.21 35.4818 148.03 36.8421 149.632 36.8421C150.346 36.8325 151.098 36.5045 151.86 35.559Z" fill="white"/>
<path d="M156.24 37.1798L157.678 36.9097L157.88 35.3564V31.1404L157.678 29.5679L156.038 29.2977V28.661L159.849 28.2944L159.646 31.1404V35.3564L159.849 36.9097L161.286 37.1798V37.8165H156.25V37.1798H156.24ZM157.311 24.5993C157.311 23.9047 157.88 23.3066 158.604 23.3066C159.299 23.3066 159.897 23.8758 159.897 24.6186C159.897 25.2747 159.366 25.8921 158.604 25.8921C157.9 25.8921 157.311 25.3808 157.311 24.5993Z" fill="white"/>
<path d="M161.913 33.3304C161.913 30.2142 163.486 28.2268 166.052 28.2268C168.203 28.2268 169.699 29.6161 169.612 32.5297H163.688C163.688 32.5297 163.669 32.8191 163.669 32.9831C163.669 35.2985 164.798 36.9386 166.968 36.9386C167.624 36.9386 168.358 36.7746 169.081 36.244L169.486 36.7939C168.319 37.8551 167.441 38.2507 165.965 38.2507C163.534 38.241 161.913 36.4852 161.913 33.3304ZM166.38 31.7096L167.769 31.507C167.769 29.8862 167.007 29.0469 165.888 29.0469C164.74 29.0469 163.939 29.9055 163.717 31.7096H166.38Z" fill="white"/>
<path d="M171.194 37.6911L171.03 35.2985H171.927L172.275 36.8711C172.911 37.1605 173.403 37.3245 174.175 37.3245C175.285 37.3245 175.979 36.7746 175.979 35.8291C175.979 34.6425 174.851 34.2952 173.789 33.8996C172.496 33.369 170.982 32.9156 170.982 31.0729C170.982 29.5196 172.255 28.1014 174.426 28.1014C175.352 28.1014 176.249 28.2847 177.147 28.6996L177.349 31.0922H176.452L175.999 29.4714C175.42 29.2012 174.831 29.0662 174.175 29.0662C173.085 29.0662 172.477 29.5196 172.477 30.4361C172.477 31.5649 173.625 31.9122 174.629 32.2981C176.085 32.848 177.455 33.3015 177.455 35.202C177.455 36.9193 176.066 38.27 173.992 38.27C173.326 38.2893 172.178 38.077 171.194 37.6911Z" fill="white"/>
<path d="M182.81 35.7616C182.81 34.8644 183.196 34.1022 184.016 33.5041C184.816 32.9059 186.128 32.6068 187.99 32.6068V31.4974C187.99 30.2046 187.209 29.4521 185.964 29.4521C185.202 29.4521 184.45 29.7608 183.774 30.3782L183.263 29.8283C184.18 28.7864 185.434 28.1304 186.891 28.1304C188.531 28.1304 189.717 29.0083 189.717 31.0343V35.3564L189.939 36.9097L191.309 37.1798V37.8165L187.952 38.1831L188.318 35.9256C187.556 37.3149 186.582 38.241 185.183 38.241C183.842 38.241 182.81 37.3245 182.81 35.7616ZM188 35.3757V33.3883C186.794 33.3883 185.936 33.5523 185.376 33.8996C184.826 34.2083 184.537 34.7004 184.537 35.3371C184.537 36.1379 185.087 36.7939 185.887 36.7939C186.563 36.7939 187.383 36.2729 188 35.3757Z" fill="white"/>
<path d="M193.036 36.0317V29.5196H191.435V28.7864L193.036 28.4584V26.1044L194.802 25.7763V28.661H197.3V29.5196H194.802V35.3564C194.802 36.3983 195.168 36.8711 195.93 36.8711C196.258 36.8711 196.808 36.765 197.281 36.4659L197.667 37.1219C196.644 37.942 195.969 38.2507 195.043 38.2507C194.049 38.241 193.036 37.7297 193.036 36.0317Z" fill="white"/>
<path d="M202.404 37.1798L204.063 36.8518L204.266 34.7872V27.4357L204.063 25.3711L202.404 25.0431V24.416H206.832L207.874 27.4261L210.971 35.4722L214.145 27.4068L215.11 24.416H219.538V25.0335L217.898 25.3615L217.676 27.4261V34.7775L217.898 36.8421L219.538 37.1702V37.8069H213.885V37.1702L215.525 36.8421L215.747 34.7775V25.8053L212.225 34.7775L211.183 37.8069H209.852L208.743 34.7775L205.202 25.8053V34.7775L205.424 36.8421L207.064 37.1702V37.8069H202.414V37.1798H202.404Z" fill="white"/>
<path d="M220.416 33.3497C220.416 30.3975 222.018 28.2075 225.047 28.2075C227.671 28.2075 229.408 29.973 229.408 33.1664C229.408 36.2826 227.546 38.27 224.815 38.27C222.201 38.2603 220.416 36.3983 220.416 33.3497ZM227.439 33.1857C227.439 30.4651 226.562 29.0662 224.941 29.0662C223.301 29.0662 222.403 30.3589 222.403 33.205C222.403 35.9931 223.281 37.3824 224.883 37.3824C226.523 37.3824 227.439 36.0317 227.439 33.1857Z" fill="white"/>
<path d="M230.343 37.1798L231.781 36.9097L232.003 35.3564V31.1404L231.781 29.5678L230.141 29.2977V28.661L233.749 28.2944L233.527 30.1371C234.367 28.8443 235.428 28.2365 236.827 28.2365C238.592 28.2365 239.731 29.4038 239.731 31.4298V35.3661L239.933 36.9193L241.39 37.1894V37.8262H236.576V37.1894L237.743 36.9193L237.946 35.3661V31.9219C237.946 30.5519 237.29 29.6257 235.997 29.6257C235.216 29.6257 234.646 29.8476 233.739 30.851V35.3564L233.961 36.9097L235.129 37.1798V37.8165H230.334V37.1798H230.343Z" fill="white"/>
<path d="M243.155 36.0317V29.5196H241.554V28.7864L243.155 28.4584V26.1044L244.921 25.7763V28.661H247.42V29.5196H244.921V35.3564C244.921 36.3983 245.288 36.8711 246.05 36.8711C246.378 36.8711 246.928 36.765 247.4 36.4659L247.786 37.1219C246.764 37.942 246.088 38.2507 245.162 38.2507C244.159 38.241 243.155 37.7297 243.155 36.0317Z" fill="white"/>
<path d="M248.481 33.3304C248.481 30.2142 250.054 28.2268 252.62 28.2268C254.771 28.2268 256.267 29.6161 256.18 32.5297H250.256C250.256 32.5297 250.237 32.8191 250.237 32.9831C250.237 35.2985 251.366 36.9386 253.536 36.9386C254.192 36.9386 254.926 36.7746 255.649 36.244L256.054 36.7939C254.887 37.8551 254.009 38.2507 252.533 38.2507C250.102 38.241 248.481 36.4852 248.481 33.3304ZM252.948 31.7096L254.337 31.507C254.337 29.8862 253.575 29.0469 252.456 29.0469C251.308 29.0469 250.507 29.9055 250.285 31.7096H252.948Z" fill="white"/>
<path d="M265.104 33.3304C265.104 30.2142 266.676 28.2268 269.243 28.2268C271.394 28.2268 272.889 29.6161 272.803 32.5297H266.879C266.879 32.5297 266.86 32.8191 266.86 32.9831C266.86 35.2985 267.988 36.9386 270.159 36.9386C270.815 36.9386 271.548 36.7746 272.272 36.244L272.677 36.7939C271.51 37.8551 270.632 38.2507 269.156 38.2507C266.725 38.241 265.104 36.4852 265.104 33.3304ZM269.571 31.7096L270.96 31.507C270.96 29.8862 270.198 29.0469 269.079 29.0469C267.931 29.0469 267.13 29.9055 266.908 31.7096H269.571Z" fill="white"/>
<path d="M274.375 42.6693V41.9747L276.42 41.6466L277.298 40.2092L278.176 38.1446L275.311 31.1404L274.472 29.5389L273.545 29.2977V28.661H278.032V29.2977L276.719 29.5389L277.211 31.1404L279.054 35.8677L280.771 31.1404L281.225 29.5389L279.932 29.2977V28.661H283.618V29.2977L282.576 29.5389L281.794 31.1404L277.327 42.9394L274.375 42.6693Z" fill="white"/>
</svg>
