<?xml version="1.0" encoding="UTF-8"?>
<svg width="261px" height="72px" viewBox="0 0 261 72" version="1.1" xmlns="http://www.w3.org/2000/svg" xmlns:xlink="http://www.w3.org/1999/xlink">
    <!-- Generator: Sketch 54.1 (76490) - https://sketchapp.com -->
    <title>schools-abroad-logo</title>
    <desc>Created with Sketch.</desc>
    <g id="schools-abroad-logo" stroke="none" stroke-width="1" fill="none" fill-rule="evenodd">
        <g id="Group-2" transform="translate(77.398650, 8.646525)" fill="#000000">
            <path d="M98.2400625,27.837675 C97.0745625,27.837675 96.1543125,28.490175 95.2959375,29.9358 C95.2936875,29.912175 95.2903125,29.8908 95.2891875,29.8683 L95.2914375,29.628675 C95.2993125,29.525175 95.3105625,29.42055 95.3218125,29.315925 C95.3488125,29.088675 95.3735625,28.8603 95.4005625,28.63305 C95.4376875,28.298925 95.4759375,27.965925 95.5130625,27.632925 L91.9051875,28.001925 L91.9051875,28.636425 L93.5454375,28.90305 L93.7704375,30.481425 L93.7704375,34.70355 L93.5454375,36.261675 L92.1110625,36.5283 L92.1110625,37.163925 L97.3771875,37.163925 L97.3771875,36.5283 L95.7380625,36.261675 L95.5130625,34.70355 L95.5130625,34.21305 L95.5130625,32.879925 L95.5130625,31.40055 L95.5130625,30.994425 L95.5130625,30.8268 C95.5130625,30.7998 95.5153125,30.7728 95.5175625,30.74355 C96.1104375,30.008925 96.9069375,29.74455 97.5211875,29.74455 C97.9520625,29.74455 98.3829375,29.887425 98.7316875,30.05055 L99.2446875,27.98055 C98.8138125,27.857925 98.6079375,27.837675 98.2400625,27.837675" id="Fill-1"></path>
            <path d="M174.270937,5.347575 C173.106562,5.347575 172.186312,6.000075 171.327937,7.444575 C171.325687,7.4232 171.321187,7.4007 171.320062,7.379325 L171.323437,7.1397 C171.330187,7.035075 171.341437,6.93045 171.353812,6.825825 C171.379687,6.598575 171.405562,6.3702 171.432562,6.14295 C171.469687,5.808825 171.507937,5.475825 171.545062,5.142825 L167.937187,5.511825 L167.937187,6.146325 L169.577437,6.41295 L169.802437,7.991325 L169.802437,12.21345 L169.577437,13.771575 L168.143062,14.0382 L168.143062,14.673825 L173.409187,14.673825 L173.409187,14.0382 L171.770062,13.771575 L171.545062,12.21345 L171.545062,11.72295 L171.545062,10.389825 L171.545062,8.91045 L171.545062,8.504325 L171.545062,8.3367 C171.545062,8.310825 171.547312,8.2827 171.549562,8.25345 C172.142437,7.51995 172.938937,7.25445 173.553187,7.25445 C173.984062,7.25445 174.414937,7.397325 174.762562,7.561575 L175.276687,5.49045 C174.845812,5.367825 174.639937,5.347575 174.270937,5.347575" id="Fill-3"></path>
            <path d="M182.46555,5.347575 C181.30005,5.347575 180.3798,6.000075 179.521425,7.444575 C179.519175,7.4232 179.5158,7.4007 179.51355,7.379325 L179.516925,7.1397 C179.5248,7.035075 179.53605,6.93045 179.5473,6.825825 C179.5743,6.598575 179.59905,6.3702 179.62605,6.14295 C179.663175,5.808825 179.701425,5.475825 179.73855,5.142825 L176.130675,5.511825 L176.130675,6.146325 L177.770925,6.41295 L177.995925,7.991325 L177.995925,12.21345 L177.770925,13.771575 L176.33655,14.0382 L176.33655,14.673825 L181.602675,14.673825 L181.602675,14.0382 L179.96355,13.771575 L179.73855,12.21345 L179.73855,11.72295 L179.73855,10.389825 L179.73855,8.91045 L179.73855,8.504325 L179.73855,8.3367 C179.73855,8.310825 179.7408,8.2827 179.74305,8.25345 C180.335925,7.51995 181.132425,7.25445 181.746675,7.25445 C182.17755,7.25445 182.608425,7.397325 182.957175,7.561575 L183.470175,5.49045 C183.0393,5.367825 182.833425,5.347575 182.46555,5.347575" id="Fill-5"></path>
            <polygon id="Fill-8" points="0.273825 14.03775 1.936575 13.70925 2.141325 11.637 2.141325 4.269375 1.936575 2.197125 0.273825 1.868625 0.273825 1.252125 4.706325 1.252125 5.7537 4.269375 8.85195 12.3345 12.03345 4.249125 12.997575 1.252125 17.430075 1.252125 17.430075 1.868625 15.7887 2.197125 15.562575 4.269375 15.562575 11.637 15.7887 13.70925 17.430075 14.03775 17.430075 14.673375 11.766825 14.673375 11.766825 14.03775 13.4082 13.70925 13.634325 11.637 13.634325 2.64825 10.104075 11.637 9.057825 14.673375 7.723575 14.673375 6.61545 11.637 3.06495 2.64825 3.06495 11.637 3.291075 13.70925 4.93245 14.03775 4.93245 14.673375 0.273825 14.673375"></polygon>
            <path d="M20.0718,1.437525 C20.0718,0.7389 20.646675,0.1449 21.364425,0.1449 C22.06305,0.1449 22.658175,0.71865 22.658175,1.457775 C22.658175,2.114775 22.124925,2.73015 21.364425,2.73015 C20.666925,2.73015 20.0718,2.21715 20.0718,1.437525 L20.0718,1.437525 Z M19.0053,14.037525 L20.441925,13.7709 L20.646675,12.21165 L20.646675,7.9839 L20.441925,6.4044 L18.799425,6.13665 L18.799425,5.4999 L22.61655,5.132025 L22.4118,7.9839 L22.4118,12.21165 L22.61655,13.7709 L24.053175,14.037525 L24.053175,14.674275 L19.0053,14.674275 L19.0053,14.037525 Z" id="Fill-10"></path>
            <path d="M31.3684875,12.4167375 L31.3684875,6.3417375 C30.7947375,6.0953625 30.3424875,5.9727375 29.7057375,5.9727375 C27.7763625,5.9727375 26.7098625,7.5736125 26.7098625,10.0969875 C26.7098625,12.3346125 27.5311125,13.6891125 29.1319875,13.6891125 C29.8497375,13.6891125 30.6091125,13.3606125 31.3684875,12.4167375 M24.8626125,10.5289875 C24.8626125,7.3272375 26.8741125,5.0693625 29.7889875,5.0693625 C30.3627375,5.0693625 30.8149875,5.1312375 31.3684875,5.2538625 L31.3684875,2.8531125 L31.1423625,1.2724875 L29.5009875,1.0058625 L29.5009875,0.3702375 L33.3383625,0.0001125 L33.1122375,2.8531125 L33.1122375,12.2108625 L33.3383625,13.7712375 L34.6726125,14.0378625 L34.6726125,14.6734875 L31.3684875,15.1054875 L31.6756125,13.1558625 C30.7328625,14.4282375 29.7687375,15.1054875 28.4131125,15.1054875 C26.3408625,15.1054875 24.8626125,13.3201125 24.8626125,10.5289875" id="Fill-12"></path>
            <path d="M41.9191875,12.4167375 L41.9191875,6.3417375 C41.3443125,6.0953625 40.8931875,5.9727375 40.2564375,5.9727375 C38.3270625,5.9727375 37.2605625,7.5736125 37.2605625,10.0969875 C37.2605625,12.3346125 38.0818125,13.6891125 39.6826875,13.6891125 C40.4004375,13.6891125 41.1598125,13.3606125 41.9191875,12.4167375 M35.4133125,10.5289875 C35.4133125,7.3272375 37.4248125,5.0693625 40.3385625,5.0693625 C40.9134375,5.0693625 41.3645625,5.1312375 41.9191875,5.2538625 L41.9191875,2.8531125 L41.6930625,1.2724875 L40.0516875,1.0058625 L40.0516875,0.3702375 L43.8890625,0.0001125 L43.6629375,2.8531125 L43.6629375,12.2108625 L43.8890625,13.7712375 L45.2233125,14.0378625 L45.2233125,14.6734875 L41.9191875,15.1054875 L42.2263125,13.1558625 C41.2835625,14.4282375 40.3183125,15.1054875 38.9638125,15.1054875 C36.8904375,15.1054875 35.4133125,13.3201125 35.4133125,10.5289875" id="Fill-14"></path>
            <polygon id="Fill-16" points="46.5186375 14.03775 47.9552625 13.771125 48.1813875 12.21075 48.1813875 2.853 47.9552625 1.272375 46.3138875 1.006875 46.3138875 0.370125 50.1310125 -1.77635684e-14 49.9251375 2.853 49.9251375 12.21075 50.1512625 13.771125 51.5676375 14.03775 51.5676375 14.673375 46.5186375 14.673375"></polygon>
            <path d="M56.7765,8.5588875 L58.1715,8.3530125 C58.1715,6.7318875 57.412125,5.8903875 56.28375,5.8903875 C55.135125,5.8903875 54.33525,6.7532625 54.108,8.5588875 L56.7765,8.5588875 Z M52.302375,10.1788875 C52.302375,7.0603875 53.883,5.0691375 56.448,5.0691375 C58.602375,5.0691375 60.100875,6.4652625 60.01875,9.3790125 L54.08775,9.3790125 C54.08775,9.3790125 54.0675,9.6658875 54.0675,9.8312625 C54.0675,12.1498875 55.197,13.7912625 57.371625,13.7912625 C58.028625,13.7912625 58.76775,13.6270125 59.484375,13.0937625 L59.895,13.6472625 C58.725,14.7148875 57.843,15.1052625 56.365875,15.1052625 C53.9235,15.1052625 52.302375,13.3401375 52.302375,10.1788875 L52.302375,10.1788875 Z" id="Fill-18"></path>
            <path d="M68.44185,10.01565 C68.44185,7.901775 67.53735,6.46515 66.163725,6.46515 C65.32335,6.46515 64.52235,6.8139 63.7821,7.67565 L63.7821,12.21165 L63.987975,13.997025 C64.480725,14.161275 64.829475,14.2434 65.36385,14.2434 C67.477725,14.2434 68.44185,12.35565 68.44185,10.01565 M62.016975,14.674275 L62.016975,2.852775 L61.812225,1.273275 L60.17085,1.00665 L60.17085,0.3699 L63.987975,0.0009 L63.7821,2.852775 L63.7821,6.711525 C64.541475,5.705775 65.650725,5.07015 66.90285,5.07015 C68.872725,5.07015 70.24635,6.75315 70.24635,9.35865 C70.24635,12.54015 68.33835,15.10515 64.644975,15.10515 C63.7821,15.10515 63.1881,15.10515 62.016975,14.674275" id="Fill-20"></path>
            <path d="M72.62865,11.9037375 L72.62865,7.9842375 L72.402525,6.4036125 L70.80165,6.1369875 L70.80165,5.5002375 L74.598525,5.1312375 L74.391525,7.9842375 L74.391525,11.4323625 C74.391525,12.8476125 75.048525,13.7093625 76.342275,13.7093625 C77.2254,13.7093625 78.025275,13.1761125 78.60015,12.4786125 L78.60015,7.9842375 L78.394275,6.4036125 L76.7934,6.1369875 L76.7934,5.5002375 L80.590275,5.1312375 L80.36415,7.9842375 L80.36415,12.2108625 L80.590275,13.7712375 L82.068525,14.0378625 L82.068525,14.6734875 L78.60015,15.0436125 L78.826275,13.1963625 C77.8599,14.5306125 76.999275,15.1054875 75.5424,15.1054875 C73.73565,15.1054875 72.62865,13.9557375 72.62865,11.9037375" id="Fill-22"></path>
            <polygon id="Fill-24" points="92.2393125 19.5381 92.2393125 18.839475 94.2913125 18.5121 95.1733125 17.075475 96.0575625 15.0021 93.1831875 7.983225 92.3416875 6.383475 91.4191875 6.1371 91.4191875 5.50035 95.9124375 5.50035 95.9124375 6.1371 94.5995625 6.383475 95.0923125 7.983225 96.9384375 12.723975 98.6630625 7.983225 99.1130625 6.383475 97.8215625 6.1371 97.8215625 5.50035 101.514937 5.50035 101.514937 6.1371 100.468687 6.383475 99.6890625 7.983225 95.2160625 19.804725"></polygon>
            <path d="M89.5003875,5.344875 C88.3360125,5.344875 87.4157625,5.997375 86.5573875,7.441875 C86.5551375,7.4205 86.5506375,7.398 86.5495125,7.376625 L86.5528875,7.137 C86.5596375,7.032375 86.5708875,6.92775 86.5832625,6.823125 C86.6091375,6.595875 86.6350125,6.3675 86.6608875,6.14025 C86.6991375,5.806125 86.7362625,5.473125 86.7745125,5.140125 L83.1666375,5.509125 L83.1666375,6.143625 L84.8068875,6.41025 L85.0318875,7.988625 L85.0318875,12.211875 L84.8068875,13.768875 L83.3725125,14.0355 L83.3725125,14.671125 L88.6386375,14.671125 L88.6386375,14.0355 L86.9995125,13.768875 L86.7745125,12.211875 L86.7745125,11.72025 L86.7745125,10.387125 L86.7745125,8.90775 L86.7745125,8.501625 L86.7745125,8.334 C86.7745125,8.308125 86.7756375,8.28 86.7778875,8.25075 C87.3718875,7.51725 88.1683875,7.25175 88.7826375,7.25175 C89.2135125,7.25175 89.6432625,7.394625 89.9920125,7.558875 L90.5061375,5.488875 C90.0741375,5.365125 89.8693875,5.344875 89.5003875,5.344875" id="Fill-26"></path>
            <path d="M106.807163,8.00415 C106.807163,4.22865 108.941288,0.924525 113.887913,0.924525 C115.160288,0.924525 116.268413,1.0269 117.951413,1.374525 L118.156163,4.495275 L117.150413,4.495275 L116.679038,2.195775 C115.899413,1.92915 114.913913,1.74465 113.826038,1.74465 C110.686163,1.74465 108.880538,4.022775 108.880538,7.634025 C108.880538,11.37015 110.686163,14.181525 114.031913,14.181525 C114.873413,14.181525 116.022038,13.976775 116.843288,13.6269 L117.314663,11.432025 L118.320413,11.432025 L118.115663,14.570775 C116.699288,14.818275 115.735163,15.002775 113.641537,15.002775 C108.799537,15.002775 106.807163,12.0069 106.807163,8.00415" id="Fill-28"></path>
            <path d="M119.96325,13.647825 C119.96325,12.970575 120.497625,12.33495 121.27725,12.33495 C121.9545,12.33495 122.590125,12.8682 122.590125,13.647825 C122.590125,14.3037 122.077125,14.94045 121.27725,14.94045 C120.598875,14.94045 119.96325,14.4477 119.96325,13.647825" id="Fill-30"></path>
            <polygon id="Fill-32" points="126.585787 11.636775 124.020787 4.26915 123.138787 2.195775 121.640287 1.8684 121.640287 1.253025 126.996412 1.253025 126.996412 1.8684 125.477662 2.195775 125.991787 4.26915 128.966287 12.827025 131.799037 4.26915 132.250162 2.195775 130.649287 1.8684 130.649287 1.253025 135.205537 1.253025 135.205537 1.8684 133.707037 2.195775 132.784537 4.310775 130.320787 11.636775 129.376912 14.919525 127.611787 14.919525"></polygon>
            <path d="M133.262213,13.647825 C133.262213,12.970575 133.796587,12.33495 134.575087,12.33495 C135.252337,12.33495 135.889087,12.8682 135.889087,13.647825 C135.889087,14.3037 135.376087,14.94045 134.575087,14.94045 C133.897838,14.94045 133.262213,14.4477 133.262213,13.647825" id="Fill-34"></path>
            <path d="M142.12935,14.36625 L141.923475,11.246625 L142.97085,11.246625 L143.38035,13.402125 C144.07785,13.7295 144.7146,13.996125 145.5561,13.996125 C147.4236,13.996125 148.779225,13.093875 148.779225,11.55375 C148.779225,9.831375 147.136725,9.194625 145.5561,8.5995 C143.606475,7.860375 141.882975,7.08075 141.882975,4.7205 C141.882975,2.647125 143.4636,0.759375 146.52135,0.759375 C147.5676,0.759375 148.860225,1.047375 149.96835,1.456875 L150.194475,4.55625 L149.168475,4.55625 L148.716225,2.36025 C148.0806,1.971 147.096225,1.744875 146.479725,1.744875 C144.447975,1.744875 143.44335,2.87325 143.44335,4.04325 C143.44335,5.706 144.87885,6.1785 146.315475,6.75225 C148.4091,7.59375 150.3801,8.47575 150.3801,11.00025 C150.3801,13.442625 148.4091,15.0435 145.453725,15.0435 C144.447975,15.0435 143.586225,14.941125 142.12935,14.36625" id="Fill-36"></path>
            <path d="M152.8443,12.8881125 L152.8443,6.3631125 L151.243425,6.3631125 L151.243425,5.6239875 L152.8443,5.2943625 L152.8443,2.9352375 L154.609425,2.6067375 L154.609425,5.5002375 L157.113675,5.5002375 L157.113675,6.3631125 L154.609425,6.3631125 L154.609425,12.2108625 C154.609425,13.2582375 154.978425,13.7296125 155.7378,13.7296125 C156.0663,13.7296125 156.620925,13.6272375 157.0923,13.3201125 L157.482675,13.9759875 C156.456675,14.7972375 155.779425,15.1054875 154.8558,15.1054875 C153.851175,15.1054875 152.8443,14.5913625 152.8443,12.8881125" id="Fill-38"></path>
            <path d="M163.72845,12.231675 L163.72845,10.240425 C162.51795,10.240425 161.6562,10.4058 161.101575,10.75455 C160.548075,11.061675 160.260075,11.554425 160.260075,12.191175 C160.260075,12.99105 160.8147,13.64805 161.614575,13.64805 C162.29295,13.64805 163.113075,13.13505 163.72845,12.231675 M158.536575,12.620925 C158.536575,11.718675 158.925825,10.9593 159.7482,10.364175 C160.548075,9.76905 161.86095,9.461925 163.72845,9.461925 L163.72845,8.352675 C163.72845,7.06005 162.948825,6.300675 161.6967,6.300675 C160.937325,6.300675 160.17795,6.6078 159.5007,7.2243 L158.9877,6.6708 C159.9102,5.623425 161.16345,4.966425 162.620325,4.966425 C164.262825,4.966425 165.45195,5.84955 165.45195,7.8813 L165.45195,12.211425 L165.678075,13.7718 L167.05395,14.0373 L167.05395,14.67405 L163.68795,15.04305 L164.05695,12.7863 C163.297575,14.1813 162.312075,15.104925 160.917075,15.104925 C159.562575,15.104925 158.536575,14.1813 158.536575,12.620925" id="Fill-40"></path>
            <path d="M0.246375,36.8557875 L0.041625,33.7372875 L1.087875,33.7372875 L1.4985,35.8927875 C2.196,36.2201625 2.83275,36.4867875 3.673125,36.4867875 C5.54175,36.4867875 6.89625,35.5834125 6.89625,34.0444125 C6.89625,32.3209125 5.25375,31.6841625 3.673125,31.0890375 C1.724625,30.3510375 4.97379915e-14,29.5702875 4.97379915e-14,27.2100375 C4.97379915e-14,25.1377875 1.580625,23.2500375 4.638375,23.2500375 C5.684625,23.2500375 6.978375,23.5369125 8.0865,23.9475375 L8.3115,27.0457875 L7.2855,27.0457875 L6.834375,24.8509125 C6.19875,24.4605375 5.21325,24.2344125 4.597875,24.2344125 C2.566125,24.2344125 1.55925,25.3627875 1.55925,26.5339125 C1.55925,28.1955375 2.997,28.6680375 4.433625,29.2417875 C6.52725,30.0832875 8.496,30.9664125 8.496,33.4909125 C8.496,35.9332875 6.52725,37.5341625 3.571875,37.5341625 C2.566125,37.5341625 1.70325,37.4306625 0.246375,36.8557875" id="Fill-42"></path>
            <path d="M9.80775,32.7315375 C9.80775,29.6940375 11.552625,27.5599125 14.1795,27.5599125 C15.0615,27.5599125 15.7185,27.6622875 16.846875,28.0515375 L17.073,30.5141625 L16.273125,30.5141625 L15.800625,28.9346625 C15.307875,28.7287875 14.733,28.5240375 14.076,28.5240375 C12.66075,28.5240375 11.552625,29.5095375 11.552625,32.0745375 C11.552625,34.6192875 12.681,36.2617875 14.6925,36.2617875 C15.348375,36.2617875 16.129125,36.0356625 16.846875,35.5215375 L17.299125,36.0964125 C16.149375,37.1032875 14.938875,37.5949125 13.72725,37.5949125 C11.388375,37.5949125 9.80775,35.7679125 9.80775,32.7315375" id="Fill-44"></path>
            <path d="M18.353475,36.5274 L19.7901,36.2619 L20.016225,34.701525 L20.016225,25.34265 L19.7901,23.76315 L18.1476,23.496525 L18.1476,22.8609 L21.96585,22.490775 L21.759975,25.34265 L21.759975,29.200275 C22.47885,28.15515 23.627475,27.560025 24.8391,27.560025 C26.685225,27.560025 27.794475,28.6884 27.794475,30.76065 L27.794475,34.701525 L28.019475,36.2619 L29.43585,36.5274 L29.43585,37.163025 L24.6546,37.163025 L24.6546,36.5274 L25.823475,36.2619 L26.0496,34.701525 L26.0496,31.2534 C26.0496,29.857275 25.41285,28.95615 24.05835,28.95615 C23.073975,28.95615 22.33485,29.55015 21.759975,30.20715 L21.759975,34.701525 L21.9861,36.2619 L23.1561,36.5274 L23.1561,37.163025 L18.353475,37.163025 L18.353475,36.5274 Z" id="Fill-46"></path>
            <path d="M36.9736875,32.5261125 C36.9736875,29.7968625 36.0916875,28.4007375 34.4694375,28.4007375 C32.8280625,28.4007375 31.9258125,29.6933625 31.9258125,32.5463625 C31.9258125,35.3374875 32.8078125,36.7324875 34.4086875,36.7324875 C36.0500625,36.7324875 36.9736875,35.3779875 36.9736875,32.5261125 M29.9345625,32.6903625 C29.9345625,29.7349875 31.5354375,27.5389875 34.5729375,27.5389875 C37.1998125,27.5389875 38.9435625,29.3041125 38.9435625,32.5047375 C38.9435625,35.6254875 37.0760625,37.6144875 34.3468125,37.6144875 C31.7199375,37.6144875 29.9345625,35.7469875 29.9345625,32.6903625" id="Fill-48"></path>
            <path d="M47.21895,32.5261125 C47.21895,29.7968625 46.33695,28.4007375 44.7147,28.4007375 C43.073325,28.4007375 42.171075,29.6933625 42.171075,32.5463625 C42.171075,35.3374875 43.053075,36.7324875 44.65395,36.7324875 C46.295325,36.7324875 47.21895,35.3779875 47.21895,32.5261125 M40.179825,32.6903625 C40.179825,29.7349875 41.7807,27.5389875 44.8182,27.5389875 C47.445075,27.5389875 49.188825,29.3041125 49.188825,32.5047375 C49.188825,35.6254875 47.321325,37.6144875 44.592075,37.6144875 C41.9652,37.6144875 40.179825,35.7469875 40.179825,32.6903625" id="Fill-50"></path>
            <polygon id="Fill-52" points="49.726575 36.5274 51.1632 36.2619 51.389325 34.701525 51.389325 25.34265 51.1632 23.76315 49.5207 23.496525 49.5207 22.8609 53.33895 22.490775 53.133075 25.34265 53.133075 34.701525 53.3592 36.2619 54.77445 36.5274 54.77445 37.163025 49.726575 37.163025"></polygon>
            <path d="M56.3403375,37.0404 L56.1760875,34.63965 L57.0794625,34.63965 L57.4282125,36.220275 C58.0638375,36.506025 58.5577125,36.6714 59.3362125,36.6714 C60.4443375,36.6714 61.1429625,36.1179 61.1429625,35.1729 C61.1429625,33.98265 60.0145875,33.635025 58.9458375,33.243525 C57.6532125,32.710275 56.1344625,32.25915 56.1344625,30.4119 C56.1344625,28.85265 57.4068375,27.436275 59.5825875,27.436275 C60.5062125,27.436275 61.4095875,27.620775 62.3129625,28.0314 L62.5177125,30.43215 L61.6143375,30.43215 L61.1632125,28.811025 C60.5883375,28.5444 59.9932125,28.401525 59.3362125,28.401525 C58.2483375,28.401525 57.6329625,28.85265 57.6329625,29.77515 C57.6329625,30.90465 58.7827125,31.252275 59.7873375,31.64265 C61.2453375,32.197275 62.6200875,32.649525 62.6200875,34.557525 C62.6200875,36.281025 61.2250875,37.635525 59.1517125,37.635525 C58.4744625,37.635525 57.3258375,37.430775 56.3403375,37.0404" id="Fill-54"></path>
            <path d="M75.9828375,31.1099625 L74.1569625,25.7538375 L72.2489625,31.1099625 L75.9828375,31.1099625 Z M67.7332125,36.5268375 L69.2935875,36.1994625 L70.1958375,34.1272125 L74.0534625,23.5375875 L75.3472125,23.5375875 L79.0608375,34.1272125 L79.9439625,36.1994625 L81.4008375,36.5268375 L81.4008375,37.1635875 L76.1054625,37.1635875 L76.1054625,36.5268375 L77.5837125,36.1994625 L77.0302125,34.1272125 L76.2708375,31.9728375 L71.9609625,31.9728375 L71.1610875,34.1272125 L70.6267125,36.1994625 L72.1454625,36.5268375 L72.1454625,37.1635875 L67.7332125,37.1635875 L67.7332125,36.5268375 Z" id="Fill-56"></path>
            <path d="M89.217,32.5053 C89.217,30.391425 88.313625,28.955925 86.938875,28.955925 C86.097375,28.955925 85.2975,29.30355 84.55725,30.166425 L84.55725,34.7013 L84.763125,36.486675 C85.255875,36.65205 85.604625,36.73305 86.139,36.73305 C88.252875,36.73305 89.217,34.8453 89.217,32.5053 M82.79325,37.163925 L82.79325,25.342425 L82.587375,23.762925 L80.946,23.4963 L80.946,22.860675 L84.763125,22.49055 L84.55725,25.342425 L84.55725,29.20005 C85.316625,28.195425 86.425875,27.5598 87.678,27.5598 C89.647875,27.5598 91.022625,29.2428 91.022625,31.849425 C91.022625,35.028675 89.1135,37.5948 85.420125,37.5948 C84.55725,37.5948 83.96325,37.5948 82.79325,37.163925" id="Fill-58"></path>
            <path d="M106.898287,32.5261125 C106.898287,29.7968625 106.016287,28.4007375 104.394037,28.4007375 C102.752662,28.4007375 101.850412,29.6933625 101.850412,32.5463625 C101.850412,35.3374875 102.732412,36.7324875 104.333287,36.7324875 C105.975787,36.7324875 106.898287,35.3779875 106.898287,32.5261125 M99.8591625,32.6903625 C99.8591625,29.7349875 101.460037,27.5389875 104.497537,27.5389875 C107.124412,27.5389875 108.868162,29.3041125 108.868162,32.5047375 C108.868162,35.6254875 107.001787,37.6144875 104.271412,37.6144875 C101.644537,37.6144875 99.8591625,35.7469875 99.8591625,32.6903625" id="Fill-60"></path>
            <path d="M115.458863,34.7212125 L115.458863,32.7310875 C114.248363,32.7310875 113.385488,32.8953375 112.831987,33.2440875 C112.277363,33.5523375 111.990488,34.0439625 111.990488,34.6807125 C111.990488,35.4805875 112.543988,36.1375875 113.344988,36.1375875 C114.023362,36.1375875 114.843488,35.6257125 115.458863,34.7212125 M110.266987,35.1115875 C110.266987,34.2093375 110.656238,33.4499625 111.477488,32.8537125 C112.277363,32.2597125 113.591363,31.9514625 115.458863,31.9514625 L115.458863,30.8433375 C115.458863,29.5495875 114.679237,28.7913375 113.427112,28.7913375 C112.668863,28.7913375 111.909488,29.0984625 111.231112,29.7149625 L110.718113,29.1603375 C111.641738,28.1140875 112.893863,27.4570875 114.350737,27.4570875 C115.993237,27.4570875 117.182363,28.3390875 117.182363,30.3719625 L117.182363,34.7009625 L117.408488,36.2613375 L118.783238,36.5268375 L118.783238,37.1635875 L115.417237,37.5337125 L115.787363,35.2758375 C115.027987,36.6708375 114.042488,37.5955875 112.647488,37.5955875 C111.292988,37.5955875 110.266987,36.6708375 110.266987,35.1115875" id="Fill-62"></path>
            <path d="M126.132075,34.9068375 L126.132075,28.8318375 C125.5572,28.5854625 125.106075,28.4617125 124.469325,28.4617125 C122.541075,28.4617125 121.47345,30.0637125 121.47345,32.5870875 C121.47345,34.8247125 122.2947,36.1792125 123.895575,36.1792125 C124.613325,36.1792125 125.3727,35.8507125 126.132075,34.9068375 M119.6262,33.0179625 C119.6262,29.8173375 121.6377,27.5594625 124.552575,27.5594625 C125.126325,27.5594625 125.578575,27.6213375 126.132075,27.7439625 L126.132075,25.3432125 L125.90595,23.7625875 L124.264575,23.4959625 L124.264575,22.8603375 L128.10195,22.4902125 L127.87695,25.3432125 L127.87695,34.7009625 L128.10195,36.2613375 L129.437325,36.5268375 L129.437325,37.1635875 L126.132075,37.5955875 L126.4392,35.6448375 C125.49645,36.9183375 124.5312,37.5955875 123.1767,37.5955875 C121.10445,37.5955875 119.6262,35.8102125 119.6262,33.0179625" id="Fill-64"></path>
        </g>
        <g id="shield-use-copy">
            <path d="M1.62675,1.62675 L1.62675,32.981625 C1.62675,33.0345 1.702125,38.66175 5.585625,46.0395 C9.147375,52.808625 16.731,62.470125 32.652,70.1955 C48.585375,62.467875 56.158875,52.806375 59.709375,46.038375 C63.5805,38.66175 63.64125,33.035625 63.64125,32.9805 L63.64125,1.62675 L1.62675,1.62675 Z" id="Path" fill="#FFFFFF"></path>
            <path d="M1.62675,1.62675 L1.62675,32.981625 C1.62675,33.0345 1.702125,38.66175 5.585625,46.0395 C9.147375,52.808625 16.731,62.470125 32.652,70.1955 C48.585375,62.467875 56.158875,52.806375 59.709375,46.038375 C63.5805,38.66175 63.64125,33.035625 63.64125,32.9805 L63.64125,1.62675 L1.62675,1.62675 Z M32.652,72 L32.299875,71.83125 C15.6825,63.860625 7.790625,53.766 4.095,46.701 C0.061875,38.989125 -9.9475983e-14,33.224625 -9.9475983e-14,32.983875 L-9.9475983e-14,0 L65.266875,0 L65.266875,32.981625 C65.266875,33.222375 65.221875,38.98575 61.201125,46.697625 C57.51675,53.7615 49.633875,63.85725 33.003,71.83125 L32.652,72 Z M20.8918125,12.2576625 L19.1289375,12.2576625 C18.8465625,11.3801625 18.4798125,10.6084125 18.0455625,9.9795375 C19.1806875,10.4824125 20.1571875,11.2732875 20.8918125,12.2576625 Z M15.7633875,9.518175 C16.5576375,9.8523 17.3226375,10.8243 17.8491375,12.25755 L15.7633875,12.25755 L15.7633875,9.518175 Z M11.7820125,15.9204375 C11.8168875,15.0328125 11.9282625,14.2138125 12.0981375,13.4780625 L14.5438875,13.4780625 L14.5438875,15.9204375 L11.7820125,15.9204375 Z M12.4581375,12.2576625 C12.9846375,10.8244125 13.7496375,9.8524125 14.5438875,9.5182875 L14.5438875,12.2576625 L12.4581375,12.2576625 Z M12.0983625,19.5838875 C11.9284875,18.8470125 11.8171125,18.0280125 11.7822375,17.1403875 L14.5441125,17.1403875 L14.5441125,19.5838875 L12.0983625,19.5838875 Z M14.5438875,23.543325 C13.7496375,23.2092 12.9846375,22.2372 12.4581375,20.80395 L14.5438875,20.80395 L14.5438875,23.543325 Z M10.5625125,17.1405 C10.5951375,18.001125 10.6963875,18.820125 10.8572625,19.584 L8.6815125,19.584 C8.3248875,18.83025 8.0942625,18.009 8.0200125,17.1405 L10.5625125,17.1405 Z M18.2084625,13.4776125 C18.3794625,14.2144875 18.4897125,15.0334875 18.5257125,15.9199875 L15.7638375,15.9199875 L15.7638375,13.4776125 L18.2084625,13.4776125 Z M10.8563625,13.4776125 C10.6954875,14.2414875 10.5953625,15.0604875 10.5627375,15.9199875 L8.0202375,15.9199875 C8.0933625,15.0526125 8.3251125,14.2302375 8.6817375,13.4776125 L10.8563625,13.4776125 Z M9.4165875,20.8038375 L11.1783375,20.8038375 C11.4607125,21.6802125 11.8274625,22.4519625 12.2617125,23.0797125 C11.1265875,22.5768375 10.1500875,21.7870875 9.4165875,20.8038375 Z M19.7454375,15.9204375 C19.7116875,15.0598125 19.6115625,14.2408125 19.4506875,13.4780625 L21.6264375,13.4780625 C21.9830625,14.2306875 22.2136875,15.0530625 22.2879375,15.9204375 L19.7454375,15.9204375 Z M12.2610375,9.9806625 C11.8267875,10.6095375 11.4611625,11.3801625 11.1787875,12.2576625 L9.4159125,12.2576625 C10.1505375,11.2744125 11.1270375,10.4835375 12.2610375,9.9806625 Z M19.4504625,19.5838875 C19.6113375,18.8200125 19.7114625,18.0010125 19.7452125,17.1403875 L22.2877125,17.1403875 C22.2145875,18.0088875 21.9817125,18.8312625 21.6262125,19.5838875 L19.4504625,19.5838875 Z M18.5259375,17.1405 C18.4899375,18.028125 18.3796875,18.847125 18.2086875,19.584 L15.7629375,19.584 L15.7629375,17.1405 L18.5259375,17.1405 Z M15.7633875,23.5427625 L15.7633875,20.8033875 L17.8491375,20.8033875 C17.3226375,22.2366375 16.5576375,23.2075125 15.7633875,23.5427625 Z M18.0453375,23.0808375 C18.4795875,22.4519625 18.8452125,21.6813375 19.1287125,20.8038375 L20.8915875,20.8038375 C20.1569625,21.7870875 19.1804625,22.5779625 18.0453375,23.0808375 Z M57.6196875,20.2365 L57.6196875,11.383875 L56.4001875,11.383875 L56.4001875,19.537875 L49.8009375,23.407875 L43.1971875,19.537875 L43.1971875,11.383875 L41.9765625,11.383875 L41.9765625,20.2365 L49.8009375,24.822 L57.6196875,20.2365 Z M44.4268125,10.609875 C44.3806875,10.557 44.4268125,18.786375 44.4268125,18.786375 C44.4268125,18.786375 47.6814375,18.83925 49.1428125,21.53025 L49.1428125,13.35375 C47.6814375,10.66275 44.4268125,10.609875 44.4268125,10.609875 Z M50.3544375,13.4235 L50.3544375,21.6 C51.8315625,18.909 55.1199375,18.85725 55.1199375,18.85725 C55.1199375,18.85725 55.1683125,10.627875 55.1199375,10.68075 C55.1199375,10.68075 51.8315625,10.733625 50.3544375,13.4235 Z M39.7119375,26.028 L39.7119375,24.604875 L37.5665625,24.604875 L37.5665625,17.6085 L27.6991875,17.6085 L27.6991875,24.604875 L25.5560625,24.604875 L25.5560625,26.028 L39.7119375,26.028 Z M15.1543125,24.915375 C19.7769375,24.915375 23.5389375,21.153375 23.5389375,16.53075 C23.5389375,11.907 19.7769375,8.145 15.1543125,8.145 C10.5305625,8.145 6.7685625,11.907 6.7685625,16.53075 C6.7685625,21.153375 10.5305625,24.915375 15.1543125,24.915375 Z M33.3455625,3.614625 L61.2725625,3.614625 L61.2725625,32.113125 C61.2725625,32.113125 61.2703125,34.072875 60.4771875,37.184625 C60.0856875,37.1655 59.6458125,37.14525 59.0416875,37.117125 C56.6949375,37.004625 54.7599375,37.488375 52.5628125,37.15425 C50.3668125,36.819 48.4678125,34.808625 45.3774375,34.2495 C43.1454375,33.84675 41.2993125,33.773625 38.8209375,33.849 L38.8209375,27.239625 L26.4470625,27.239625 L26.4470625,33.63975 C26.0645625,33.625125 25.6753125,33.61725 25.2725625,33.61725 C21.7715625,33.61725 20.4316875,32.648625 16.7833125,32.648625 C13.1349375,32.648625 7.6246875,34.43625 4.5714375,35.478 C4.5219375,35.494875 4.4724375,35.51175 4.4240625,35.528625 C3.9999375,33.3945 3.9954375,32.113125 3.9954375,32.113125 L3.9954375,3.614625 L31.9224375,3.614625 L31.9224375,4.428 C31.3014375,4.694625 30.8638125,5.284125 30.8638125,5.981625 C30.8638125,6.676875 31.3014375,7.2675 31.9224375,7.533 L31.9224375,8.519625 C30.9886875,8.861625 29.3068125,9.680625 28.5384375,11.334375 C27.8184375,12.88575 27.6868125,14.229 27.6800625,14.96475 L27.0174375,14.96475 L27.0174375,16.387875 L38.2505625,16.387875 L38.2505625,14.96475 L37.5879375,14.96475 C37.5800625,14.229 37.4484375,12.88575 36.7284375,11.334375 C35.9600625,9.67725 34.2770625,8.861625 33.3455625,8.52075 L33.3455625,7.534125 C33.9654375,7.268625 34.4030625,6.676875 34.4030625,5.981625 C34.4030625,5.284125 33.9654375,4.6935 33.3455625,4.426875 L33.3455625,3.614625 Z M33.4085625,5.9821875 C33.4085625,6.3860625 33.0620625,6.7145625 32.6345625,6.7145625 C32.2059375,6.7145625 31.8594375,6.3860625 31.8594375,5.9821875 C31.8594375,5.5749375 32.2059375,5.2464375 32.6345625,5.2464375 C33.0620625,5.2464375 33.4085625,5.5749375 33.4085625,5.9821875 Z M31.314375,33.0658875 L31.314375,28.5017625 L33.9525,28.5017625 L33.9525,33.0658875 L31.314375,33.0658875 Z M31.314375,23.0578875 L31.314375,18.9628875 L33.9525,18.9628875 L33.9525,23.0578875 L31.314375,23.0578875 Z M29.080125,23.0556375 L29.080125,18.9685125 L29.8935,18.9685125 L29.8935,23.0556375 L29.080125,23.0556375 Z M35.37225,23.0556375 L35.37225,18.9685125 L36.185625,18.9685125 L36.185625,23.0556375 L35.37225,23.0556375 Z M24.14475,36.2777625 L24.14475,35.0582625 L41.122125,35.0582625 L41.122125,36.2777625 L24.14475,36.2777625 Z M27.46125,41.6957625 L37.80675,41.6957625 L37.80675,39.2241375 L27.46125,39.2241375 L27.46125,41.6957625 Z M26.240625,42.9163875 L26.240625,38.0046375 L39.02625,38.0046375 L39.02625,42.9163875 L26.240625,42.9163875 Z M24.3981,40.1256 L24.3981,42.048225 L11.22885,50.35185 C10.899225,49.90635 10.584225,49.46535 10.28385,49.025475 L24.3981,40.1256 Z M40.868325,42.1174125 L40.868325,40.1925375 L54.9612,49.0991625 C54.6597,49.5390375 54.3447,49.9800375 54.01395,50.4255375 L40.868325,42.1174125 Z M30.8525625,54.6109875 C31.0303125,54.7471125 31.1180625,54.9406125 31.1180625,55.1903625 C31.1180625,55.6639875 30.7321875,55.9936125 30.1696875,55.9936125 C29.5419375,55.9936125 29.1403125,55.6313625 29.1403125,55.0688625 C29.1403125,54.6031125 29.4215625,54.2813625 29.8153125,54.0721125 C30.3384375,54.2892375 30.6511875,54.4501125 30.8525625,54.6109875 Z M30.1768875,53.32455 C29.8000125,53.17155 29.2442625,52.90605 29.2442625,52.439175 C29.2442625,52.0218 29.5817625,51.74055 30.0970125,51.74055 C30.6358875,51.74055 30.9497625,51.99705 30.9497625,52.423425 C30.9497625,52.866675 30.5301375,53.1468 30.1768875,53.32455 Z M33.9336,52.4395125 C34.085475,52.0142625 34.32735,51.7645125 34.641225,51.7645125 C34.994475,51.7645125 35.26785,52.0052625 35.42085,52.6318875 C35.50185,52.9783875 35.541225,53.3395125 35.541225,53.8626375 C35.541225,54.4026375 35.49285,54.8605125 35.38935,55.2058875 C35.2431,55.6727625 34.97085,55.9618875 34.632225,55.9618875 C34.294725,55.9618875 34.0056,55.6963875 33.860475,55.0697625 C33.788475,54.7727625 33.7491,54.3542625 33.7491,53.8142625 C33.7491,53.2427625 33.804225,52.7848875 33.9336,52.4395125 Z M39.1275,56.621475 C40.253625,56.621475 41.025375,55.512225 41.025375,53.8461 C41.025375,52.6806 40.5765,51.0966 39.1365,51.0966 C38.066625,51.0966 37.26225,52.238475 37.26225,53.822475 C37.26225,54.972225 37.71225,56.621475 39.1275,56.621475 Z M34.62525,56.621475 C35.751375,56.621475 36.523125,55.512225 36.523125,53.8461 C36.523125,52.6806 36.072,51.0966 34.632,51.0966 C33.56325,51.0966 32.758875,52.238475 32.758875,53.822475 C32.758875,54.972225 33.208875,56.621475 34.62525,56.621475 Z M30.08025,56.652975 C31.005,56.652975 32.09175,56.074725 32.09175,55.037475 C32.09175,54.369225 31.60125,53.98335 30.8205,53.6616 C31.375125,53.453475 31.890375,53.082225 31.890375,52.4241 C31.890375,51.635475 31.190625,51.0966 30.177,51.0966 C29.300625,51.0966 28.35225,51.498225 28.35225,52.519725 C28.35225,53.0586 28.72125,53.550225 29.212875,53.750475 C28.61775,53.959725 28.182375,54.48285 28.182375,55.134225 C28.182375,56.1951 29.156625,56.652975 30.08025,56.652975 Z M27.40275,56.5011 L27.40275,55.7856 L26.65575,55.7856 L26.65575,51.18435 L26.028,51.18435 L24.411375,52.319475 L24.6285,52.7931 C24.72525,52.760475 25.02225,52.632225 25.239375,52.5276 C25.4565,52.4241 25.70625,52.263225 25.786125,52.213725 L25.786125,55.7856 L24.8535,55.7856 L24.8535,56.5011 L27.40275,56.5011 Z M40.869,44.518725 L52.78725,51.984225 C48.54825,57.18285 42.1875,62.60535 32.6385,67.17735 C23.112,62.61435 16.756875,57.201975 12.51225,52.0101 L24.427125,44.54685 L40.869,44.54685 L40.869,44.518725 Z M39.143925,51.7645125 C39.497175,51.7645125 39.77055,52.0052625 39.92355,52.6318875 C40.00455,52.9783875 40.043925,53.3395125 40.043925,53.8626375 C40.043925,54.4026375 39.996675,54.8605125 39.89205,55.2058875 C39.746925,55.6727625 39.47355,55.9618875 39.13605,55.9618875 C38.797425,55.9618875 38.5083,55.6963875 38.3643,55.0697625 C38.291175,54.7727625 38.2518,54.3542625 38.2518,53.8142625 C38.2518,53.2427625 38.306925,52.7848875 38.4363,52.4395125 C38.5893,52.0142625 38.83005,51.7645125 39.143925,51.7645125 Z" id="Shape" fill="#0D395F"></path>
        </g>
    </g>
</svg>