<svg width="175" height="146" viewBox="0 0 175 146" fill="none" xmlns="http://www.w3.org/2000/svg">
<path d="M24.8925 120.608L22.6597 124.483L11.1155 121.4L19.5856 129.812L17.3609 133.662L0 129.109L1.73932 124.596L12.9276 127.931L4.68403 119.858L6.90875 116.007L18.0485 119.067L9.62694 111.3L11.8193 107.498L24.8925 120.617V120.608Z" fill="#EE6CB9"/>
<path d="M33.848 105.399L26.4215 105.633L25.8633 106.594L31.1783 109.654L28.986 113.456L13.5101 104.56L16.6247 99.1669C18.7847 95.4292 21.7536 94.2183 24.9411 96.0428C27.093 97.2779 27.9343 99.1912 27.6592 101.476L35.5388 100.967L33.848 105.391V105.399ZM19.2943 101.209L18.5824 102.445L23.0885 105.036L23.7761 103.849C24.7307 102.194 24.4718 100.79 22.9833 99.9339C21.5514 99.1104 20.2489 99.5544 19.2862 101.209H19.2943Z" fill="#EE6CB9"/>
<path d="M45.4893 84.87L34.7379 79.5823L43.4426 88.4624L41.3473 92.0872L29.2772 89.0275L39.252 95.6554L37.3267 98.9895L22.4979 88.971L25.3536 84.0224L37.7392 87.1466L28.8323 78L31.6071 73.1886L47.7302 80.9628L45.4812 84.8539L45.4893 84.87Z" fill="#EE6CB9"/>
<path d="M53.9756 70.7909C51.314 75.4005 46.6057 76.4177 41.7114 73.6083C36.9141 70.8474 35.377 66.0602 38.0628 61.4022C39.0093 59.7714 40.1257 58.6574 41.4201 57.9066L44.5671 60.4253C43.3212 60.9339 42.1644 61.6928 41.3878 63.0409C39.9882 65.4628 40.9428 68.0623 43.9037 69.7656C46.905 71.4932 49.6475 70.8878 51.0471 68.474C51.7671 67.2227 51.945 65.8342 51.8884 64.2761L55.3832 65.6243C55.3832 67.2711 55.0354 68.9745 53.9918 70.7828L53.9756 70.7909Z" fill="#EE6CB9"/>
<path d="M16.1069 134.227L95.5494 0L175 134.227H16.1069Z" fill="#EE6CB9"/>
<mask id="mask0_511_13636" style="mask-type:luminance" maskUnits="userSpaceOnUse" x="16" y="0" width="159" height="135">
<path d="M16.1069 134.227L95.5494 0L175 134.227H16.1069Z" fill="white"/>
</mask>
<g mask="url(#mask0_511_13636)">
<path d="M117.724 129.924C116.931 130.425 116.122 130.699 115.2 130.699C113.371 130.699 112.028 129.618 112.028 127.325C112.028 124.919 113.776 123.418 116.09 123.418C118.565 123.418 120.296 125.016 120.296 128.035C120.296 131.959 117.562 134.09 113.824 134.768L113.517 132.637C115.637 132.233 117.174 131.41 117.724 129.924ZM117.869 128.197V128.165C117.869 126.211 117.109 125.371 116.09 125.371C115.167 125.371 114.536 126.017 114.536 127.147C114.536 128.278 115.054 128.794 116.09 128.794C116.688 128.794 117.271 128.6 117.869 128.197Z" fill="white"/>
<path d="M123.645 134.542V126.146L121.461 127.002L121.154 124.903L123.953 123.612H126.364V134.542H123.645Z" fill="white"/>
<path d="M128.241 134.542V131.765H130.878V134.542H128.241Z" fill="white"/>
<path d="M133.677 134.542V126.146L131.493 127.002L131.185 124.903L133.984 123.612H136.395V134.542H133.677Z" fill="white"/>
<path d="M144.647 125.711V127.987H147.559L147.947 130.296H144.647V134.542H141.896V123.402H148.578V125.711H144.647Z" fill="white"/>
<path d="M159.71 134.542L159.225 127.083L157.121 134.558H154.5L152.397 127.083L151.912 134.542H149.501L150.31 123.402H153.885L156.054 131.071L158.238 123.402H161.716L162.525 134.542H159.71Z" fill="white"/>
</g>
</svg>
