<svg width="91" height="142" viewBox="0 0 91 142" fill="none" xmlns="http://www.w3.org/2000/svg">
<path d="M51.3448 0.656881C51.3448 0.656881 91 -1.70309 91 48.0462C91 67.376 82.2711 84.4857 73.7221 99.5455C70.7625 104.765 66.293 114.895 59.5238 122.295C52.2547 130.255 40.3661 131.965 33.267 138.975C30.7373 141.475 20.9485 142.735 14.6193 139.065C4.12053 132.965 11.7996 122.465 7.01018 111.345C5.17041 107.075 0.151011 105.485 0.00102965 97.2355C-0.0889594 92.4456 5.75034 86.7657 5.48037 80.2158C5.13041 71.5759 7.6501 65.336 10.1798 61.996C12.3195 59.1761 12.2395 58.2861 11.2897 54.7261C9.49988 47.9862 5.90032 44.6563 4.22052 42.0463C-0.00896774 35.4864 9.74985 22.6566 15.3892 15.6367C22.7683 6.4668 31.3872 0.546882 51.3448 0.666881V0.656881Z" fill="white"/>
<path d="M18.5789 22.4763C33.1671 2.24662 61.2437 10.0565 66.2031 12.7265C68.9928 14.2265 95.6595 25.5963 72.6823 82.3155C56.6043 122.005 36.8667 113.805 36.1868 113.565C29.8575 111.345 31.5873 113.145 29.9475 116.905C27.9377 121.495 25.968 115.835 24.8081 113.565C22.2384 108.515 21.5485 112.325 18.5889 116.985C16.1892 120.745 10.9298 117.115 10.1899 111.855C8.5601 100.225 6.26038 103.645 7.47024 93.4654C7.94018 89.5154 14.6994 90.5154 17.379 85.0855C19.0088 81.7755 17.289 80.7255 20.9686 75.5056C22.9984 72.6157 18.8289 70.6457 18.5889 67.2057C18.3489 63.6958 21.1486 61.1358 23.8782 66.2657C28.3277 74.6456 31.8073 72.7357 36.1068 74.6456C46.1155 79.0956 44.7457 88.9354 43.6059 90.9854C42.466 93.0354 57.8541 81.8255 49.9651 66.2657C43.8058 54.1159 36.0268 52.5759 35.2569 55.3159C34.6169 57.6059 34.9969 64.8958 26.9579 57.7959C18.1889 50.056 12.2497 31.2762 18.5889 22.4763H18.5789Z" fill="#8ED8ED"/>
<path d="M66.1929 12.7269C62.2334 10.5969 43.5257 5.19701 28.7275 13.4169C28.4975 15.0369 28.8174 16.5469 31.0072 16.1169C35.3966 15.2669 55.1242 13.6769 66.5728 24.5267C73.0121 30.6267 78.5114 38.6466 75.4618 59.6063C74.1519 68.6162 73.1821 72.6561 71.3023 77.346C69.5925 81.606 71.5123 81.406 73.382 80.526C95.0794 25.3567 68.9626 14.2069 66.2029 12.7169L66.1929 12.7269Z" fill="black"/>
<path d="M16.0195 30.1266C20.139 29.1966 26.4683 28.3966 27.3481 36.3465C28.318 45.1164 35.7571 44.8764 36.2371 39.5164C36.3671 38.1365 35.8471 31.0466 32.1776 26.2966C28.248 21.2167 24.6085 19.1867 22.0888 18.3967C20.8489 19.6167 19.6691 20.9567 18.5692 22.4867C17.0694 24.5666 16.2595 27.2066 16.0095 30.1266H16.0195Z" fill="black"/>
<path d="M26.9378 57.7956C34.9768 64.8955 34.5868 57.6056 35.2368 55.3156C35.7967 53.3157 40.1162 53.6056 44.8056 58.6556C44.7356 54.9856 40.0562 52.5757 35.8767 51.4457C28.2076 49.3757 28.5276 46.9357 22.9682 42.5558C20.2186 40.3858 18.1288 39.4258 16.729 38.9958C18.3388 46.2757 22.2283 53.6356 26.9478 57.7956H26.9378Z" fill="black"/>
<path d="M43.5856 90.986C44.7254 88.936 46.0953 79.0962 36.0865 74.6462C31.787 72.7363 28.3074 74.6462 23.858 66.2663C21.1383 61.1364 18.3287 63.6964 18.5686 67.2063C18.7986 70.6463 22.9781 72.6163 20.9483 75.5062C17.2688 80.7261 18.9886 81.7761 17.3588 85.0861C14.6791 90.516 7.92991 89.516 7.44997 93.466C7.18 95.6959 7.09002 97.2759 7.12001 98.5059C8.79981 99.4959 10.7296 100.596 12.4894 101.526C16.8788 103.836 19.9185 101.526 19.9185 101.526C19.9185 101.526 26.2477 96.5359 28.1975 95.066C30.1472 93.606 30.2672 91.446 39.2861 91.776C41.0459 91.836 42.4357 91.586 43.5456 91.186C43.5256 91.146 43.5356 91.086 43.5856 90.996V90.986Z" fill="black"/>
<path d="M47.4957 87.7859C46.3158 89.2359 45.1759 90.2659 44.426 90.8058C46.7957 89.6259 47.4957 87.7859 47.4957 87.7859Z" fill="black"/>
</svg>
